solid csg.js
facet normal 0 0 -1
outer loop
vertex 25 25 0
vertex 65 25 0
vertex 90 25 0
endloop
endfacet
facet normal 0 0 -1
outer loop
vertex 25 25 0
vertex 90 25 0
vertex 89.51963201008076 20.122741949596787 0
endloop
endfacet
facet normal 0 0 -1
outer loop
vertex 25 25 0
vertex 89.51963201008076 20.122741949596787 0
vertex 88.09698831278217 15.432914190872753 0
endloop
endfacet
facet normal 0 0 -1
outer loop
vertex 25 25 0
vertex 88.09698831278217 15.432914190872753 0
vertex 85.78674030756363 11.110744174509946 0
endloop
endfacet
facet normal 0 0 -1
outer loop
vertex 25 25 0
vertex 85.78674030756363 11.110744174509946 0
vertex 82.67766952966369 7.322330470336311 0
endloop
endfacet
facet normal 0 0 -1
outer loop
vertex 25 25 0
vertex 82.67766952966369 7.322330470336311 0
vertex 78.88925582549005 4.213259692436367 0
endloop
endfacet
facet normal 0 0 -1
outer loop
vertex 25 25 0
vertex 78.88925582549005 4.213259692436367 0
vertex 74.56708580912725 1.9030116872178304 0
endloop
endfacet
facet normal 0 0 -1
outer loop
vertex 25 25 0
vertex 74.56708580912725 1.9030116872178304 0
vertex 69.87725805040321 0.48036798991923746 0
endloop
endfacet
facet normal 0 0 -1
outer loop
vertex 25 25 0
vertex 69.87725805040321 0.48036798991923746 0
vertex 65 0 0
endloop
endfacet
facet normal 0 0 -1
outer loop
vertex 25 25 0
vertex 65 0 0
vertex 25 0 0
endloop
endfacet
facet normal 0 0 -1
outer loop
vertex 25 25 0
vertex 25 0 0
vertex 20.1227419495968 0.48036798991923746 0
endloop
endfacet
facet normal 0 0 -1
outer loop
vertex 25 25 0
vertex 20.1227419495968 0.48036798991923746 0
vertex 15.432914190872756 1.9030116872178304 0
endloop
endfacet
facet normal 0 0 -1
outer loop
vertex 25 25 0
vertex 15.432914190872756 1.9030116872178304 0
vertex 11.110744174509952 4.213259692436367 0
endloop
endfacet
facet normal 0 0 -1
outer loop
vertex 25 25 0
vertex 11.110744174509952 4.213259692436367 0
vertex 7.322330470336315 7.322330470336311 0
endloop
endfacet
facet normal 0 0 -1
outer loop
vertex 25 25 0
vertex 7.322330470336315 7.322330470336311 0
vertex 4.213259692436367 11.110744174509946 0
endloop
endfacet
facet normal 0 0 -1
outer loop
vertex 25 25 0
vertex 4.213259692436367 11.110744174509946 0
vertex 1.9030116872178304 15.432914190872753 0
endloop
endfacet
facet normal 0 0 -1
outer loop
vertex 25 25 0
vertex 1.9030116872178304 15.432914190872753 0
vertex 0.48036798991923746 20.122741949596787 0
endloop
endfacet
facet normal 0 0 -1
outer loop
vertex 25 25 0
vertex 0.48036798991923746 20.122741949596787 0
vertex 0 25 0
endloop
endfacet
facet normal -0.09801714032956005 -0.9951847266721969 0
outer loop
vertex 20.1227419495968 0.48036798991923746 0
vertex 25 0 0
vertex 25 0 110
endloop
endfacet
facet normal -0.09801714032956005 -0.9951847266721969 0
outer loop
vertex 20.1227419495968 0.48036798991923746 0
vertex 25 0 110
vertex 20.1227419495968 0.48036798991923746 110
endloop
endfacet
facet normal -0.29028467725446194 -0.956940335732209 0
outer loop
vertex 15.432914190872756 1.9030116872178304 0
vertex 20.1227419495968 0.48036798991923746 0
vertex 20.1227419495968 0.48036798991923746 110
endloop
endfacet
facet normal -0.29028467725446194 -0.956940335732209 0
outer loop
vertex 15.432914190872756 1.9030116872178304 0
vertex 20.1227419495968 0.48036798991923746 110
vertex 15.432914190872756 1.9030116872178304 110
endloop
endfacet
facet normal -0.471396736825998 -0.8819212643483549 0
outer loop
vertex 11.110744174509952 4.213259692436367 0
vertex 15.432914190872756 1.9030116872178304 0
vertex 15.432914190872756 1.9030116872178304 110
endloop
endfacet
facet normal -0.471396736825998 -0.8819212643483549 0
outer loop
vertex 11.110744174509952 4.213259692436367 0
vertex 15.432914190872756 1.9030116872178304 110
vertex 15.251461820175846 2 110
endloop
endfacet
facet normal -0.471396736825998 -0.8819212643483549 0
outer loop
vertex 11.110744174509952 4.213259692436367 0
vertex 15.251461820175846 2 110
vertex 14.496549369541126 2.40350911153216 110
endloop
endfacet
facet normal -0.471396736825998 -0.8819212643483549 0
outer loop
vertex 11.110744174509952 4.213259692436367 0
vertex 14.496549369541126 2.40350911153216 110
vertex 12.260822879755079 3.5985298172629783 110
endloop
endfacet
facet normal -0.471396736825998 -0.8819212643483549 0
outer loop
vertex 11.110744174509952 4.213259692436367 0
vertex 12.260822879755079 3.5985298172629783 110
vertex 11.110744174509952 4.213259692436367 110
endloop
endfacet
facet normal -0.6343932841636453 -0.7730104533627372 0
outer loop
vertex 7.322330470336315 7.322330470336311 0
vertex 11.110744174509952 4.213259692436367 0
vertex 11.110744174509952 4.213259692436367 110
endloop
endfacet
facet normal -0.6343932841636453 -0.7730104533627372 0
outer loop
vertex 7.322330470336315 7.322330470336311 0
vertex 11.110744174509952 4.213259692436367 110
vertex 9.495156609646248 5.53913814164653 110
endloop
endfacet
facet normal -0.6343932841636453 -0.7730104533627372 0
outer loop
vertex 7.322330470336315 7.322330470336311 0
vertex 9.495156609646248 5.53913814164653 110
vertex 7.322330470336315 7.322330470336311 110
endloop
endfacet
facet normal -0.7730104533627367 -0.6343932841636459 0
outer loop
vertex 4.213259692436367 11.110744174509946 0
vertex 7.322330470336315 7.322330470336311 0
vertex 7.322330470336315 7.322330470336311 110
endloop
endfacet
facet normal -0.7730104533627367 -0.6343932841636459 0
outer loop
vertex 4.213259692436367 11.110744174509946 0
vertex 7.322330470336315 7.322330470336311 110
vertex 6.6424578993099255 8.150757595082528 110
endloop
endfacet
facet normal -0.7730104533627367 -0.6343932841636459 0
outer loop
vertex 4.213259692436367 11.110744174509946 0
vertex 6.6424578993099255 8.150757595082528 110
vertex 4.213259692436367 11.110744174509946 110
endloop
endfacet
facet normal -0.8819212643483548 -0.4713967368259978 0
outer loop
vertex 1.9030116872178304 15.432914190872753 0
vertex 4.213259692436367 11.110744174509946 0
vertex 4.213259692436367 11.110744174509946 110
endloop
endfacet
facet normal -0.8819212643483548 -0.4713967368259978 0
outer loop
vertex 1.9030116872178304 15.432914190872753 0
vertex 4.213259692436367 11.110744174509946 110
vertex 4.094448058930944 11.33302510658834 110
endloop
endfacet
facet normal -0.8819212643483548 -0.4713967368259978 0
outer loop
vertex 1.9030116872178304 15.432914190872753 0
vertex 4.094448058930944 11.33302510658834 110
vertex 2.153839734547386 14.963647920333074 110
endloop
endfacet
facet normal -0.8819212643483548 -0.4713967368259978 0
outer loop
vertex 1.9030116872178304 15.432914190872753 0
vertex 2.153839734547386 14.963647920333074 110
vertex 1.9030116872178304 15.432914190872753 110
endloop
endfacet
facet normal -0.9569403357322088 -0.29028467725446266 0
outer loop
vertex 0.48036798991923746 20.122741949596787 0
vertex 1.9030116872178304 15.432914190872753 0
vertex 1.9030116872178304 15.432914190872753 110
endloop
endfacet
facet normal -0.9569403357322088 -0.29028467725446266 0
outer loop
vertex 0.48036798991923746 20.122741949596787 0
vertex 1.9030116872178304 15.432914190872753 110
vertex 0.8503413483839904 18.903103237661327 110
endloop
endfacet
facet normal -0.9569403357322088 -0.29028467725446266 0
outer loop
vertex 0.48036798991923746 20.122741949596787 0
vertex 0.8503413483839904 18.903103237661327 110
vertex 0.48036798991923746 20.122741949596787 110
endloop
endfacet
facet normal -0.995184726672197 -0.09801714032956022 0
outer loop
vertex 0 25 0
vertex 0.48036798991923746 20.122741949596787 0
vertex 0.48036798991923746 20.122741949596787 110
endloop
endfacet
facet normal -0.995184726672197 -0.09801714032956022 0
outer loop
vertex 0 25 0
vertex 0.48036798991923746 20.122741949596787 110
vertex 0.19698280671432777 23 110
endloop
endfacet
facet normal -0.995184726672197 -0.09801714032956022 0
outer loop
vertex 0 25 0
vertex 0.19698280671432777 23 110
vertex 0 25 110
endloop
endfacet
facet normal 0 1 0
outer loop
vertex 25 25 110
vertex 25 25 0
vertex 0 25 0
endloop
endfacet
facet normal 0 1 0
outer loop
vertex 25 25 110
vertex 0 25 0
vertex 0 25 110
endloop
endfacet
facet normal 0 1 0
outer loop
vertex 90 25 110
vertex 90 25 0
vertex 65 25 0
endloop
endfacet
facet normal 0 1 0
outer loop
vertex 90 25 110
vertex 65 25 0
vertex 65 25 110
endloop
endfacet
facet normal 0.9951847266721968 -0.09801714032956164 0
outer loop
vertex 89.51963201008076 20.122741949596787 0
vertex 90 25 0
vertex 90 25 110
endloop
endfacet
facet normal 0.9951847266721968 -0.09801714032956164 0
outer loop
vertex 89.51963201008076 20.122741949596787 0
vertex 90 25 110
vertex 89.80301719328567 23 110
endloop
endfacet
facet normal 0.9951847266721968 -0.09801714032956164 0
outer loop
vertex 89.51963201008076 20.122741949596787 0
vertex 89.80301719328567 23 110
vertex 89.51963201008076 20.122741949596787 110
endloop
endfacet
facet normal 0.9569403357322093 -0.2902846772544606 0
outer loop
vertex 88.09698831278217 15.432914190872753 0
vertex 89.51963201008076 20.122741949596787 0
vertex 89.51963201008076 20.122741949596787 110
endloop
endfacet
facet normal 0.9569403357322093 -0.2902846772544606 0
outer loop
vertex 88.09698831278217 15.432914190872753 0
vertex 89.51963201008076 20.122741949596787 110
vertex 89.14965865161601 18.903103237661327 110
endloop
endfacet
facet normal 0.9569403357322093 -0.2902846772544606 0
outer loop
vertex 88.09698831278217 15.432914190872753 0
vertex 89.14965865161601 18.903103237661327 110
vertex 88.09698831278217 15.432914190872753 110
endloop
endfacet
facet normal 0.8819212643483546 -0.4713967368259984 0
outer loop
vertex 85.78674030756363 11.110744174509946 0
vertex 88.09698831278217 15.432914190872753 0
vertex 88.09698831278217 15.432914190872753 110
endloop
endfacet
facet normal 0.8819212643483546 -0.4713967368259984 0
outer loop
vertex 85.78674030756363 11.110744174509946 0
vertex 88.09698831278217 15.432914190872753 110
vertex 87.84616026545262 14.963647920333074 110
endloop
endfacet
facet normal 0.8819212643483546 -0.4713967368259984 0
outer loop
vertex 85.78674030756363 11.110744174509946 0
vertex 87.84616026545262 14.963647920333074 110
vertex 85.90555194106905 11.33302510658834 110
endloop
endfacet
facet normal 0.8819212643483546 -0.4713967368259984 0
outer loop
vertex 85.78674030756363 11.110744174509946 0
vertex 85.90555194106905 11.33302510658834 110
vertex 85.78674030756363 11.110744174509946 110
endloop
endfacet
facet normal 0.773010453362737 -0.6343932841636454 0
outer loop
vertex 82.67766952966369 7.322330470336311 0
vertex 85.78674030756363 11.110744174509946 0
vertex 85.78674030756363 11.110744174509946 110
endloop
endfacet
facet normal 0.773010453362737 -0.6343932841636454 0
outer loop
vertex 82.67766952966369 7.322330470336311 0
vertex 85.78674030756363 11.110744174509946 110
vertex 83.35754210069008 8.150757595082528 110
endloop
endfacet
facet normal 0.773010453362737 -0.6343932841636454 0
outer loop
vertex 82.67766952966369 7.322330470336311 0
vertex 83.35754210069008 8.150757595082528 110
vertex 82.67766952966369 7.322330470336311 110
endloop
endfacet
facet normal 0.6343932841636454 -0.773010453362737 0
outer loop
vertex 78.88925582549005 4.213259692436367 0
vertex 82.67766952966369 7.322330470336311 0
vertex 82.67766952966369 7.322330470336311 110
endloop
endfacet
facet normal 0.6343932841636454 -0.773010453362737 0
outer loop
vertex 78.88925582549005 4.213259692436367 0
vertex 82.67766952966369 7.322330470336311 110
vertex 80.50484339035376 5.53913814164653 110
endloop
endfacet
facet normal 0.6343932841636454 -0.773010453362737 0
outer loop
vertex 78.88925582549005 4.213259692436367 0
vertex 80.50484339035376 5.53913814164653 110
vertex 78.88925582549005 4.213259692436367 110
endloop
endfacet
facet normal 0.471396736825998 -0.8819212643483549 0
outer loop
vertex 74.56708580912725 1.9030116872178304 0
vertex 78.88925582549005 4.213259692436367 0
vertex 78.88925582549005 4.213259692436367 110
endloop
endfacet
facet normal 0.471396736825998 -0.8819212643483549 0
outer loop
vertex 74.56708580912725 1.9030116872178304 0
vertex 78.88925582549005 4.213259692436367 110
vertex 77.73917712024492 3.5985298172629783 110
endloop
endfacet
facet normal 0.471396736825998 -0.8819212643483549 0
outer loop
vertex 74.56708580912725 1.9030116872178304 0
vertex 77.73917712024492 3.5985298172629783 110
vertex 75.50345063045887 2.40350911153216 110
endloop
endfacet
facet normal 0.471396736825998 -0.8819212643483549 0
outer loop
vertex 74.56708580912725 1.9030116872178304 0
vertex 75.50345063045887 2.40350911153216 110
vertex 74.74853817982415 2 110
endloop
endfacet
facet normal 0.471396736825998 -0.8819212643483549 0
outer loop
vertex 74.56708580912725 1.9030116872178304 0
vertex 74.74853817982415 2 110
vertex 74.56708580912725 1.9030116872178304 110
endloop
endfacet
facet normal 0.29028467725446205 -0.9569403357322089 0
outer loop
vertex 69.87725805040321 0.48036798991923746 0
vertex 74.56708580912725 1.9030116872178304 0
vertex 74.56708580912725 1.9030116872178304 110
endloop
endfacet
facet normal 0.29028467725446205 -0.9569403357322089 0
outer loop
vertex 69.87725805040321 0.48036798991923746 0
vertex 74.56708580912725 1.9030116872178304 110
vertex 69.87725805040321 0.48036798991923746 110
endloop
endfacet
facet normal 0.09801714032956041 -0.9951847266721969 0
outer loop
vertex 65 0 0
vertex 69.87725805040321 0.48036798991923746 0
vertex 69.87725805040321 0.48036798991923746 110
endloop
endfacet
facet normal 0.09801714032956041 -0.9951847266721969 0
outer loop
vertex 65 0 0
vertex 69.87725805040321 0.48036798991923746 110
vertex 65 0 110
endloop
endfacet
facet normal 0 -1 0
outer loop
vertex 25 0 0
vertex 65 0 0
vertex 65 0 110
endloop
endfacet
facet normal 0 -1 0
outer loop
vertex 25 0 0
vertex 65 0 110
vertex 25 0 110
endloop
endfacet
facet normal 0 1 0
outer loop
vertex 25 25 0
vertex 25 25 110
vertex 65 25 110
endloop
endfacet
facet normal 0 1 0
outer loop
vertex 25 25 0
vertex 65 25 110
vertex 65 25 0
endloop
endfacet
facet normal 0 0 1
outer loop
vertex 2 23 4
vertex 2.403509111532159 18.9031032376613 4
vertex 3.5985298172629783 14.963647920333113 4
endloop
endfacet
facet normal 0 0 1
outer loop
vertex 2 23 4
vertex 3.5985298172629783 14.963647920333113 4
vertex 5.539138141646546 11.333025106588355 4
endloop
endfacet
facet normal 0 0 1
outer loop
vertex 2 23 4
vertex 5.539138141646546 11.333025106588355 4
vertex 8.150757595082503 8.150757595082501 4
endloop
endfacet
facet normal 0 0 1
outer loop
vertex 2 23 4
vertex 8.150757595082503 8.150757595082501 4
vertex 11.333025106588359 5.539138141646546 4
endloop
endfacet
facet normal 0 0 1
outer loop
vertex 2 23 4
vertex 11.333025106588359 5.539138141646546 4
vertex 14.963647920333116 3.5985298172629783 4
endloop
endfacet
facet normal 0 0 1
outer loop
vertex 2 23 4
vertex 14.963647920333116 3.5985298172629783 4
vertex 18.903103237661313 2.403509111532159 4
endloop
endfacet
facet normal 0 0 1
outer loop
vertex 2 23 4
vertex 18.903103237661313 2.403509111532159 4
vertex 23 2 4
endloop
endfacet
facet normal 0 0 1
outer loop
vertex 2 23 4
vertex 23 2 4
vertex 67 2 4
endloop
endfacet
facet normal 0 0 1
outer loop
vertex 2 23 4
vertex 67 2 4
vertex 71.0968967623387 2.403509111532159 4
endloop
endfacet
facet normal 0 0 1
outer loop
vertex 2 23 4
vertex 71.0968967623387 2.403509111532159 4
vertex 75.03635207966688 3.5985298172629783 4
endloop
endfacet
facet normal 0 0 1
outer loop
vertex 2 23 4
vertex 75.03635207966688 3.5985298172629783 4
vertex 78.66697489341165 5.539138141646546 4
endloop
endfacet
facet normal 0 0 1
outer loop
vertex 2 23 4
vertex 78.66697489341165 5.539138141646546 4
vertex 81.8492424049175 8.150757595082501 4
endloop
endfacet
facet normal 0 0 1
outer loop
vertex 2 23 4
vertex 81.8492424049175 8.150757595082501 4
vertex 84.46086185835345 11.333025106588355 4
endloop
endfacet
facet normal 0 0 1
outer loop
vertex 2 23 4
vertex 84.46086185835345 11.333025106588355 4
vertex 86.40147018273703 14.963647920333113 4
endloop
endfacet
facet normal 0 0 1
outer loop
vertex 2 23 4
vertex 86.40147018273703 14.963647920333113 4
vertex 87.59649088846784 18.9031032376613 4
endloop
endfacet
facet normal 0 0 1
outer loop
vertex 2 23 4
vertex 87.59649088846784 18.9031032376613 4
vertex 88 23 4
endloop
endfacet
facet normal 0.09801714032955997 0.9951847266721969 0
outer loop
vertex 18.903103237661313 2.403509111532159 110
vertex 23 2 110
vertex 23 2 4
endloop
endfacet
facet normal 0.09801714032955997 0.9951847266721969 0
outer loop
vertex 18.903103237661313 2.403509111532159 110
vertex 23 2 4
vertex 18.903103237661313 2.403509111532159 4
endloop
endfacet
facet normal 0.29028467725446216 0.9569403357322089 0
outer loop
vertex 14.963647920333116 3.5985298172629783 110
vertex 18.903103237661313 2.403509111532159 110
vertex 18.903103237661313 2.403509111532159 4
endloop
endfacet
facet normal 0.29028467725446216 0.9569403357322089 0
outer loop
vertex 14.963647920333116 3.5985298172629783 110
vertex 18.903103237661313 2.403509111532159 4
vertex 14.963647920333116 3.5985298172629783 4
endloop
endfacet
facet normal 0.4713967368259979 0.8819212643483549 0
outer loop
vertex 11.333025106588359 5.539138141646546 110
vertex 14.963647920333116 3.5985298172629783 110
vertex 14.963647920333116 3.5985298172629783 4
endloop
endfacet
facet normal 0.4713967368259979 0.8819212643483549 0
outer loop
vertex 11.333025106588359 5.539138141646546 110
vertex 14.963647920333116 3.5985298172629783 4
vertex 11.333025106588359 5.539138141646546 4
endloop
endfacet
facet normal 0.6343932841636447 0.7730104533627375 0
outer loop
vertex 8.150757595082503 8.150757595082501 110
vertex 11.333025106588359 5.539138141646546 110
vertex 11.333025106588359 5.539138141646546 4
endloop
endfacet
facet normal 0.6343932841636447 0.7730104533627375 0
outer loop
vertex 8.150757595082503 8.150757595082501 110
vertex 11.333025106588359 5.539138141646546 4
vertex 8.150757595082503 8.150757595082501 4
endloop
endfacet
facet normal 0.7730104533627361 0.6343932841636467 0
outer loop
vertex 5.539138141646546 11.333025106588355 110
vertex 8.150757595082503 8.150757595082501 110
vertex 8.150757595082503 8.150757595082501 4
endloop
endfacet
facet normal 0.7730104533627361 0.6343932841636467 0
outer loop
vertex 5.539138141646546 11.333025106588355 110
vertex 8.150757595082503 8.150757595082501 4
vertex 5.539138141646546 11.333025106588355 4
endloop
endfacet
facet normal 0.8819212643483549 0.4713967368259979 0
outer loop
vertex 3.5985298172629783 14.963647920333113 110
vertex 5.539138141646546 11.333025106588355 110
vertex 5.539138141646546 11.333025106588355 4
endloop
endfacet
facet normal 0.8819212643483549 0.4713967368259979 0
outer loop
vertex 3.5985298172629783 14.963647920333113 110
vertex 5.539138141646546 11.333025106588355 4
vertex 3.5985298172629783 14.963647920333113 4
endloop
endfacet
facet normal 0.956940335732209 0.29028467725446194 0
outer loop
vertex 2.403509111532159 18.9031032376613 110
vertex 3.5985298172629783 14.963647920333113 110
vertex 3.5985298172629783 14.963647920333113 4
endloop
endfacet
facet normal 0.956940335732209 0.29028467725446194 0
outer loop
vertex 2.403509111532159 18.9031032376613 110
vertex 3.5985298172629783 14.963647920333113 4
vertex 2.403509111532159 18.9031032376613 4
endloop
endfacet
facet normal 0.9951847266721969 0.09801714032956002 0
outer loop
vertex 2 23 110
vertex 2.403509111532159 18.9031032376613 110
vertex 2.403509111532159 18.9031032376613 4
endloop
endfacet
facet normal 0.9951847266721969 0.09801714032956002 0
outer loop
vertex 2 23 110
vertex 2.403509111532159 18.9031032376613 4
vertex 2 23 4
endloop
endfacet
facet normal 0 -1 0
outer loop
vertex 88 23 4
vertex 88 23 110
vertex 2 23 110
endloop
endfacet
facet normal 0 -1 0
outer loop
vertex 88 23 4
vertex 2 23 110
vertex 2 23 4
endloop
endfacet
facet normal -0.9951847266721984 0.09801714032954581 0
outer loop
vertex 87.59649088846784 18.9031032376613 110
vertex 88 23 110
vertex 88 23 4
endloop
endfacet
facet normal -0.9951847266721984 0.09801714032954581 0
outer loop
vertex 87.59649088846784 18.9031032376613 110
vertex 88 23 4
vertex 87.59649088846784 18.9031032376613 4
endloop
endfacet
facet normal -0.9569403357322048 0.29028467725447593 0
outer loop
vertex 86.40147018273703 14.963647920333113 110
vertex 87.59649088846784 18.9031032376613 110
vertex 87.59649088846784 18.9031032376613 4
endloop
endfacet
facet normal -0.9569403357322048 0.29028467725447593 0
outer loop
vertex 86.40147018273703 14.963647920333113 110
vertex 87.59649088846784 18.9031032376613 4
vertex 86.40147018273703 14.963647920333113 4
endloop
endfacet
facet normal -0.8819212643483494 0.47139673682600847 0
outer loop
vertex 84.46086185835345 11.333025106588355 110
vertex 86.40147018273703 14.963647920333113 110
vertex 86.40147018273703 14.963647920333113 4
endloop
endfacet
facet normal -0.8819212643483494 0.47139673682600847 0
outer loop
vertex 84.46086185835345 11.333025106588355 110
vertex 86.40147018273703 14.963647920333113 4
vertex 84.46086185835345 11.333025106588355 4
endloop
endfacet
facet normal -0.7730104533627382 0.6343932841636442 0
outer loop
vertex 81.8492424049175 8.150757595082501 110
vertex 84.46086185835345 11.333025106588355 110
vertex 84.46086185835345 11.333025106588355 4
endloop
endfacet
facet normal -0.7730104533627382 0.6343932841636442 0
outer loop
vertex 81.8492424049175 8.150757595082501 110
vertex 84.46086185835345 11.333025106588355 4
vertex 81.8492424049175 8.150757595082501 4
endloop
endfacet
facet normal -0.63439328416365 0.7730104533627331 0
outer loop
vertex 78.66697489341165 5.539138141646546 110
vertex 81.8492424049175 8.150757595082501 110
vertex 81.8492424049175 8.150757595082501 4
endloop
endfacet
facet normal -0.63439328416365 0.7730104533627331 0
outer loop
vertex 78.66697489341165 5.539138141646546 110
vertex 81.8492424049175 8.150757595082501 4
vertex 78.66697489341165 5.539138141646546 4
endloop
endfacet
facet normal -0.47139673682600136 0.8819212643483529 0
outer loop
vertex 75.03635207966688 3.5985298172629783 110
vertex 78.66697489341165 5.539138141646546 110
vertex 78.66697489341165 5.539138141646546 4
endloop
endfacet
facet normal -0.47139673682600136 0.8819212643483529 0
outer loop
vertex 75.03635207966688 3.5985298172629783 110
vertex 78.66697489341165 5.539138141646546 4
vertex 75.03635207966688 3.5985298172629783 4
endloop
endfacet
facet normal -0.29028467725446216 0.9569403357322089 0
outer loop
vertex 71.0968967623387 2.403509111532159 110
vertex 75.03635207966688 3.5985298172629783 110
vertex 75.03635207966688 3.5985298172629783 4
endloop
endfacet
facet normal -0.29028467725446216 0.9569403357322089 0
outer loop
vertex 71.0968967623387 2.403509111532159 110
vertex 75.03635207966688 3.5985298172629783 4
vertex 71.0968967623387 2.403509111532159 4
endloop
endfacet
facet normal -0.09801714032955997 0.9951847266721969 0
outer loop
vertex 67 2 110
vertex 71.0968967623387 2.403509111532159 110
vertex 71.0968967623387 2.403509111532159 4
endloop
endfacet
facet normal -0.09801714032955997 0.9951847266721969 0
outer loop
vertex 67 2 110
vertex 71.0968967623387 2.403509111532159 4
vertex 67 2 4
endloop
endfacet
facet normal 0 1 0
outer loop
vertex 23 2 110
vertex 67 2 110
vertex 67 2 4
endloop
endfacet
facet normal 0 1 0
outer loop
vertex 23 2 110
vertex 67 2 4
vertex 23 2 4
endloop
endfacet
facet normal 0 0 1
outer loop
vertex 65 0 110
vertex 69.87725805040321 0.48036798991923746 110
vertex 74.56708580912725 1.9030116872178304 110
endloop
endfacet
facet normal 0 0 1
outer loop
vertex 65 0 110
vertex 74.56708580912725 1.9030116872178304 110
vertex 74.74853817982415 2 110
endloop
endfacet
facet normal 0 0 1
outer loop
vertex 65 0 110
vertex 74.74853817982415 2 110
vertex 67 2 110
endloop
endfacet
facet normal 0 0 1
outer loop
vertex 65 0 110
vertex 67 2 110
vertex 23 2 110
endloop
endfacet
facet normal 0 0 1
outer loop
vertex 65 0 110
vertex 23 2 110
vertex 15.251461820175846 2 110
endloop
endfacet
facet normal 0 0 1
outer loop
vertex 65 0 110
vertex 15.251461820175846 2 110
vertex 15.432914190872756 1.9030116872178304 110
endloop
endfacet
facet normal 0 0 1
outer loop
vertex 65 0 110
vertex 15.432914190872756 1.9030116872178304 110
vertex 20.1227419495968 0.48036798991923746 110
endloop
endfacet
facet normal 0 0 1
outer loop
vertex 65 0 110
vertex 20.1227419495968 0.48036798991923746 110
vertex 25 0 110
endloop
endfacet
facet normal 0 0 1
outer loop
vertex 23 2 110
vertex 18.903103237661313 2.403509111532159 110
vertex 14.496549369541126 2.40350911153216 110
endloop
endfacet
facet normal 0 0 1
outer loop
vertex 23 2 110
vertex 14.496549369541126 2.40350911153216 110
vertex 15.251461820175846 2 110
endloop
endfacet
facet normal 0 0 1
outer loop
vertex 74.74853817982415 2 110
vertex 75.50345063045887 2.40350911153216 110
vertex 71.0968967623387 2.403509111532159 110
endloop
endfacet
facet normal 0 0 1
outer loop
vertex 74.74853817982415 2 110
vertex 71.0968967623387 2.403509111532159 110
vertex 67 2 110
endloop
endfacet
facet normal 0 0 1
outer loop
vertex 18.903103237661313 2.403509111532159 110
vertex 14.963647920333116 3.5985298172629783 110
vertex 12.260822879755079 3.5985298172629783 110
endloop
endfacet
facet normal 0 0 1
outer loop
vertex 18.903103237661313 2.403509111532159 110
vertex 12.260822879755079 3.5985298172629783 110
vertex 14.496549369541126 2.40350911153216 110
endloop
endfacet
facet normal 0 0 1
outer loop
vertex 75.50345063045887 2.40350911153216 110
vertex 77.73917712024492 3.5985298172629783 110
vertex 75.03635207966688 3.5985298172629783 110
endloop
endfacet
facet normal 0 0 1
outer loop
vertex 75.50345063045887 2.40350911153216 110
vertex 75.03635207966688 3.5985298172629783 110
vertex 71.0968967623387 2.403509111532159 110
endloop
endfacet
facet normal 0 0 1
outer loop
vertex 14.963647920333116 3.5985298172629783 110
vertex 11.333025106588359 5.539138141646546 110
vertex 9.495156609646248 5.53913814164653 110
endloop
endfacet
facet normal 0 0 1
outer loop
vertex 14.963647920333116 3.5985298172629783 110
vertex 9.495156609646248 5.53913814164653 110
vertex 11.110744174509952 4.213259692436367 110
endloop
endfacet
facet normal 0 0 1
outer loop
vertex 14.963647920333116 3.5985298172629783 110
vertex 11.110744174509952 4.213259692436367 110
vertex 12.260822879755079 3.5985298172629783 110
endloop
endfacet
facet normal 0 0 1
outer loop
vertex 77.73917712024492 3.5985298172629783 110
vertex 78.88925582549005 4.213259692436367 110
vertex 80.50484339035376 5.53913814164653 110
endloop
endfacet
facet normal 0 0 1
outer loop
vertex 77.73917712024492 3.5985298172629783 110
vertex 80.50484339035376 5.53913814164653 110
vertex 78.66697489341165 5.539138141646546 110
endloop
endfacet
facet normal 0 0 1
outer loop
vertex 77.73917712024492 3.5985298172629783 110
vertex 78.66697489341165 5.539138141646546 110
vertex 75.03635207966688 3.5985298172629783 110
endloop
endfacet
facet normal 0 0 1
outer loop
vertex 11.333025106588359 5.539138141646546 110
vertex 8.150757595082503 8.150757595082501 110
vertex 6.6424578993099255 8.150757595082528 110
endloop
endfacet
facet normal 0 0 1
outer loop
vertex 11.333025106588359 5.539138141646546 110
vertex 6.6424578993099255 8.150757595082528 110
vertex 7.322330470336315 7.322330470336311 110
endloop
endfacet
facet normal 0 0 1
outer loop
vertex 11.333025106588359 5.539138141646546 110
vertex 7.322330470336315 7.322330470336311 110
vertex 9.495156609646248 5.53913814164653 110
endloop
endfacet
facet normal 0 0 1
outer loop
vertex 80.50484339035376 5.53913814164653 110
vertex 82.67766952966369 7.322330470336311 110
vertex 83.35754210069008 8.150757595082528 110
endloop
endfacet
facet normal 0 0 1
outer loop
vertex 80.50484339035376 5.53913814164653 110
vertex 83.35754210069008 8.150757595082528 110
vertex 81.8492424049175 8.150757595082501 110
endloop
endfacet
facet normal 0 0 1
outer loop
vertex 80.50484339035376 5.53913814164653 110
vertex 81.8492424049175 8.150757595082501 110
vertex 78.66697489341165 5.539138141646546 110
endloop
endfacet
facet normal 0 0 1
outer loop
vertex 8.150757595082503 8.150757595082501 110
vertex 5.539138141646546 11.333025106588355 110
vertex 4.094448058930944 11.33302510658834 110
endloop
endfacet
facet normal 0 0 1
outer loop
vertex 8.150757595082503 8.150757595082501 110
vertex 4.094448058930944 11.33302510658834 110
vertex 4.213259692436367 11.110744174509946 110
endloop
endfacet
facet normal 0 0 1
outer loop
vertex 8.150757595082503 8.150757595082501 110
vertex 4.213259692436367 11.110744174509946 110
vertex 6.6424578993099255 8.150757595082528 110
endloop
endfacet
facet normal 0 0 1
outer loop
vertex 83.35754210069008 8.150757595082528 110
vertex 85.78674030756363 11.110744174509946 110
vertex 85.90555194106905 11.33302510658834 110
endloop
endfacet
facet normal 0 0 1
outer loop
vertex 83.35754210069008 8.150757595082528 110
vertex 85.90555194106905 11.33302510658834 110
vertex 84.46086185835345 11.333025106588355 110
endloop
endfacet
facet normal 0 0 1
outer loop
vertex 83.35754210069008 8.150757595082528 110
vertex 84.46086185835345 11.333025106588355 110
vertex 81.8492424049175 8.150757595082501 110
endloop
endfacet
facet normal 0 0 1
outer loop
vertex 5.539138141646546 11.333025106588355 110
vertex 3.5985298172629783 14.963647920333113 110
vertex 2.153839734547386 14.963647920333074 110
endloop
endfacet
facet normal 0 0 1
outer loop
vertex 5.539138141646546 11.333025106588355 110
vertex 2.153839734547386 14.963647920333074 110
vertex 4.094448058930944 11.33302510658834 110
endloop
endfacet
facet normal 0 0 1
outer loop
vertex 85.90555194106905 11.33302510658834 110
vertex 87.84616026545262 14.963647920333074 110
vertex 86.40147018273703 14.963647920333113 110
endloop
endfacet
facet normal 0 0 1
outer loop
vertex 85.90555194106905 11.33302510658834 110
vertex 86.40147018273703 14.963647920333113 110
vertex 84.46086185835345 11.333025106588355 110
endloop
endfacet
facet normal 0 0 1
outer loop
vertex 3.5985298172629783 14.963647920333113 110
vertex 2.403509111532159 18.9031032376613 110
vertex 0.8503413483839904 18.903103237661327 110
endloop
endfacet
facet normal 0 0 1
outer loop
vertex 3.5985298172629783 14.963647920333113 110
vertex 0.8503413483839904 18.903103237661327 110
vertex 1.9030116872178304 15.432914190872753 110
endloop
endfacet
facet normal 0 0 1
outer loop
vertex 3.5985298172629783 14.963647920333113 110
vertex 1.9030116872178304 15.432914190872753 110
vertex 2.153839734547386 14.963647920333074 110
endloop
endfacet
facet normal 0 0 1
outer loop
vertex 87.84616026545262 14.963647920333074 110
vertex 88.09698831278217 15.432914190872753 110
vertex 89.14965865161601 18.903103237661327 110
endloop
endfacet
facet normal 0 0 1
outer loop
vertex 87.84616026545262 14.963647920333074 110
vertex 89.14965865161601 18.903103237661327 110
vertex 87.59649088846784 18.9031032376613 110
endloop
endfacet
facet normal 0 0 1
outer loop
vertex 87.84616026545262 14.963647920333074 110
vertex 87.59649088846784 18.9031032376613 110
vertex 86.40147018273703 14.963647920333113 110
endloop
endfacet
facet normal 0 0 1
outer loop
vertex 2.403509111532159 18.9031032376613 110
vertex 2 23 110
vertex 0.19698280671432777 23 110
endloop
endfacet
facet normal 0 0 1
outer loop
vertex 2.403509111532159 18.9031032376613 110
vertex 0.19698280671432777 23 110
vertex 0.48036798991923746 20.122741949596787 110
endloop
endfacet
facet normal 0 0 1
outer loop
vertex 2.403509111532159 18.9031032376613 110
vertex 0.48036798991923746 20.122741949596787 110
vertex 0.8503413483839904 18.903103237661327 110
endloop
endfacet
facet normal 0 0 1
outer loop
vertex 89.14965865161601 18.903103237661327 110
vertex 89.51963201008076 20.122741949596787 110
vertex 89.80301719328567 23 110
endloop
endfacet
facet normal 0 0 1
outer loop
vertex 89.14965865161601 18.903103237661327 110
vertex 89.80301719328567 23 110
vertex 88 23 110
endloop
endfacet
facet normal 0 0 1
outer loop
vertex 89.14965865161601 18.903103237661327 110
vertex 88 23 110
vertex 87.59649088846784 18.9031032376613 110
endloop
endfacet
facet normal 0 0 1
outer loop
vertex 2 23 110
vertex 88 23 110
vertex 89.80301719328567 23 110
endloop
endfacet
facet normal 0 0 1
outer loop
vertex 2 23 110
vertex 89.80301719328567 23 110
vertex 90 25 110
endloop
endfacet
facet normal 0 0 1
outer loop
vertex 2 23 110
vertex 90 25 110
vertex 65 25 110
endloop
endfacet
facet normal 0 0 1
outer loop
vertex 2 23 110
vertex 65 25 110
vertex 25 25 110
endloop
endfacet
facet normal 0 0 1
outer loop
vertex 2 23 110
vertex 25 25 110
vertex 0 25 110
endloop
endfacet
facet normal 0 0 1
outer loop
vertex 2 23 110
vertex 0 25 110
vertex 0.19698280671432777 23 110
endloop
endfacet
endsolid csg.js
