solid csg.js
facet normal 0 -1 0
outer loop
vertex 0 0 49.775281729085705
vertex 0 0 46.89885403706826
vertex 0 0 44.247923093699974
endloop
endfacet
facet normal 0 -1 0
outer loop
vertex 0 0 49.775281729085705
vertex 0 0 44.247923093699974
vertex 0 0 41.924362688472925
endloop
endfacet
facet normal 0 -1 0
outer loop
vertex 0 0 49.775281729085705
vertex 0 0 41.924362688472925
vertex 0 0 40.017465944693754
endloop
endfacet
facet normal 0 -1 0
outer loop
vertex 0 0 49.775281729085705
vertex 0 0 40.017465944693754
vertex 0 0 38.60051383482716
endloop
endfacet
facet normal 0 -1 0
outer loop
vertex 0 0 49.775281729085705
vertex 0 0 38.60051383482716
vertex 0 0 37.72795903381716
endloop
endfacet
facet normal 0 -1 0
outer loop
vertex 0 0 49.775281729085705
vertex 0 0 37.72795903381716
vertex 0 0 37.433333333333344
endloop
endfacet
facet normal 0 -1 0
outer loop
vertex 0 0 49.775281729085705
vertex 0 0 37.433333333333344
vertex 0 0 0
endloop
endfacet
facet normal 0 -1 0
outer loop
vertex 0 0 49.775281729085705
vertex 0 0 0
vertex 36 0 0
endloop
endfacet
facet normal 0 -1 0
outer loop
vertex 0 0 49.775281729085705
vertex 36 0 0
vertex 36 0 37.43333333333335
endloop
endfacet
facet normal 0 -1 0
outer loop
vertex 0 0 49.775281729085705
vertex 36 0 37.43333333333335
vertex 36 0 37.727959033817164
endloop
endfacet
facet normal 0 -1 0
outer loop
vertex 0 0 49.775281729085705
vertex 36 0 37.727959033817164
vertex 36 0 38.60051383482717
endloop
endfacet
facet normal 0 -1 0
outer loop
vertex 0 0 49.775281729085705
vertex 36 0 38.60051383482717
vertex 36 0 40.01746594469374
endloop
endfacet
facet normal 0 -1 0
outer loop
vertex 0 0 49.775281729085705
vertex 36 0 40.01746594469374
vertex 36 0 41.924362688472925
endloop
endfacet
facet normal 0 -1 0
outer loop
vertex 0 0 49.775281729085705
vertex 36 0 41.924362688472925
vertex 36 0 44.24792309369997
endloop
endfacet
facet normal 0 -1 0
outer loop
vertex 0 0 49.775281729085705
vertex 36 0 44.24792309369997
vertex 36 0 46.89885403706823
endloop
endfacet
facet normal 0 -1 0
outer loop
vertex 0 0 49.775281729085705
vertex 36 0 46.89885403706823
vertex 36 0 49.77528172908575
endloop
endfacet
facet normal 0 -1 0
outer loop
vertex 0 0 49.775281729085705
vertex 36 0 49.77528172908575
vertex 36 0 67.5
endloop
endfacet
facet normal 0 -1 0
outer loop
vertex 0 0 49.775281729085705
vertex 36 0 67.5
vertex 0 0 67.5
endloop
endfacet
facet normal 0 1 0
outer loop
vertex 0 93.6 0
vertex 0 93.6 37.433333333333344
vertex 0 93.6 37.72795903381716
endloop
endfacet
facet normal 0 1 0
outer loop
vertex 0 93.6 0
vertex 0 93.6 37.72795903381716
vertex 0 93.6 38.60051383482716
endloop
endfacet
facet normal 0 1 0
outer loop
vertex 0 93.6 0
vertex 0 93.6 38.60051383482716
vertex 0 93.6 40.017465944693754
endloop
endfacet
facet normal 0 1 0
outer loop
vertex 0 93.6 0
vertex 0 93.6 40.017465944693754
vertex 0 93.6 41.924362688472925
endloop
endfacet
facet normal 0 1 0
outer loop
vertex 0 93.6 0
vertex 0 93.6 41.924362688472925
vertex 0 93.6 44.247923093699974
endloop
endfacet
facet normal 0 1 0
outer loop
vertex 0 93.6 0
vertex 0 93.6 44.247923093699974
vertex 0 93.6 46.89885403706826
endloop
endfacet
facet normal 0 1 0
outer loop
vertex 0 93.6 0
vertex 0 93.6 46.89885403706826
vertex 0 93.6 49.775281729085705
endloop
endfacet
facet normal 0 1 0
outer loop
vertex 0 93.6 0
vertex 0 93.6 49.775281729085705
vertex 0 93.6 67.5
endloop
endfacet
facet normal 0 1 0
outer loop
vertex 0 93.6 0
vertex 0 93.6 67.5
vertex 36 93.6 67.5
endloop
endfacet
facet normal 0 1 0
outer loop
vertex 0 93.6 0
vertex 36 93.6 67.5
vertex 36 93.6 49.77528172908575
endloop
endfacet
facet normal 0 1 0
outer loop
vertex 0 93.6 0
vertex 36 93.6 49.77528172908575
vertex 36 93.6 46.89885403706823
endloop
endfacet
facet normal 0 1 0
outer loop
vertex 0 93.6 0
vertex 36 93.6 46.89885403706823
vertex 36 93.6 44.24792309369997
endloop
endfacet
facet normal 0 1 0
outer loop
vertex 0 93.6 0
vertex 36 93.6 44.24792309369997
vertex 36 93.6 41.924362688472925
endloop
endfacet
facet normal 0 1 0
outer loop
vertex 0 93.6 0
vertex 36 93.6 41.924362688472925
vertex 36 93.6 40.01746594469374
endloop
endfacet
facet normal 0 1 0
outer loop
vertex 0 93.6 0
vertex 36 93.6 40.01746594469374
vertex 36 93.6 38.60051383482717
endloop
endfacet
facet normal 0 1 0
outer loop
vertex 0 93.6 0
vertex 36 93.6 38.60051383482717
vertex 36 93.6 37.727959033817164
endloop
endfacet
facet normal 0 1 0
outer loop
vertex 0 93.6 0
vertex 36 93.6 37.727959033817164
vertex 36 93.6 37.43333333333335
endloop
endfacet
facet normal 0 1 0
outer loop
vertex 0 93.6 0
vertex 36 93.6 37.43333333333335
vertex 36 93.6 0
endloop
endfacet
facet normal 0 0 -1
outer loop
vertex 0 0 0
vertex 0 93.6 0
vertex 36 93.6 0
endloop
endfacet
facet normal 0 0 -1
outer loop
vertex 0 0 0
vertex 36 93.6 0
vertex 36 0 0
endloop
endfacet
facet normal 0 1 0
outer loop
vertex 0.8 0.8 37.433333333333344
vertex 0.8 0.8 37.72795903381716
vertex 0.8 0.8 38.600513834827154
endloop
endfacet
facet normal 0 1 0
outer loop
vertex 0.8 0.8 37.433333333333344
vertex 0.8 0.8 38.600513834827154
vertex 0.8 0.8 40.017465944693775
endloop
endfacet
facet normal 0 1 0
outer loop
vertex 0.8 0.8 37.433333333333344
vertex 0.8 0.8 40.017465944693775
vertex 0.8 0.8 41.92436268847291
endloop
endfacet
facet normal 0 1 0
outer loop
vertex 0.8 0.8 37.433333333333344
vertex 0.8 0.8 41.92436268847291
vertex 0.8 0.8 44.24792309369996
endloop
endfacet
facet normal 0 1 0
outer loop
vertex 0.8 0.8 37.433333333333344
vertex 0.8 0.8 44.24792309369996
vertex 0.8 0.8 46.898854037068254
endloop
endfacet
facet normal 0 1 0
outer loop
vertex 0.8 0.8 37.433333333333344
vertex 0.8 0.8 46.898854037068254
vertex 0.8 0.8 49.775281729085734
endloop
endfacet
facet normal 0 1 0
outer loop
vertex 0.8 0.8 37.433333333333344
vertex 0.8 0.8 49.775281729085734
vertex 0.8 0.8 67.5
endloop
endfacet
facet normal 0 1 0
outer loop
vertex 0.8 0.8 37.433333333333344
vertex 0.8 0.8 67.5
vertex 35.199999999999996 0.8 67.5
endloop
endfacet
facet normal 0 1 0
outer loop
vertex 0.8 0.8 37.433333333333344
vertex 35.199999999999996 0.8 67.5
vertex 35.199999999999996 0.8 49.7752817290857
endloop
endfacet
facet normal 0 1 0
outer loop
vertex 0.8 0.8 37.433333333333344
vertex 35.199999999999996 0.8 49.7752817290857
vertex 35.199999999999996 0.8 46.89885403706826
endloop
endfacet
facet normal 0 1 0
outer loop
vertex 0.8 0.8 37.433333333333344
vertex 35.199999999999996 0.8 46.89885403706826
vertex 35.199999999999996 0.8 44.24792309369998
endloop
endfacet
facet normal 0 1 0
outer loop
vertex 0.8 0.8 37.433333333333344
vertex 35.199999999999996 0.8 44.24792309369998
vertex 35.199999999999996 0.8 41.92436268847295
endloop
endfacet
facet normal 0 1 0
outer loop
vertex 0.8 0.8 37.433333333333344
vertex 35.199999999999996 0.8 41.92436268847295
vertex 35.199999999999996 0.8 40.01746594469374
endloop
endfacet
facet normal 0 1 0
outer loop
vertex 0.8 0.8 37.433333333333344
vertex 35.199999999999996 0.8 40.01746594469374
vertex 35.199999999999996 0.8 38.60051383482717
endloop
endfacet
facet normal 0 1 0
outer loop
vertex 0.8 0.8 37.433333333333344
vertex 35.199999999999996 0.8 38.60051383482717
vertex 35.199999999999996 0.8 37.72795903381715
endloop
endfacet
facet normal 0 1 0
outer loop
vertex 0.8 0.8 37.433333333333344
vertex 35.199999999999996 0.8 37.72795903381715
vertex 35.199999999999996 0.8 37.433333333333344
endloop
endfacet
facet normal 0 1 0
outer loop
vertex 0.8 0.8 37.433333333333344
vertex 35.199999999999996 0.8 37.433333333333344
vertex 35.199999999999996 0.8 1
endloop
endfacet
facet normal 0 1 0
outer loop
vertex 0.8 0.8 37.433333333333344
vertex 35.199999999999996 0.8 1
vertex 0.8 0.8 1
endloop
endfacet
facet normal 0 -1 0
outer loop
vertex 35.199999999999996 92.8 1
vertex 35.199999999999996 92.8 37.433333333333344
vertex 35.199999999999996 92.8 37.72795903381715
endloop
endfacet
facet normal 0 -1 0
outer loop
vertex 35.199999999999996 92.8 1
vertex 35.199999999999996 92.8 37.72795903381715
vertex 35.199999999999996 92.8 38.60051383482717
endloop
endfacet
facet normal 0 -1 0
outer loop
vertex 35.199999999999996 92.8 1
vertex 35.199999999999996 92.8 38.60051383482717
vertex 35.199999999999996 92.8 40.01746594469374
endloop
endfacet
facet normal 0 -1 0
outer loop
vertex 35.199999999999996 92.8 1
vertex 35.199999999999996 92.8 40.01746594469374
vertex 35.199999999999996 92.8 41.92436268847295
endloop
endfacet
facet normal 0 -1 0
outer loop
vertex 35.199999999999996 92.8 1
vertex 35.199999999999996 92.8 41.92436268847295
vertex 35.199999999999996 92.8 44.24792309369998
endloop
endfacet
facet normal 0 -1 0
outer loop
vertex 35.199999999999996 92.8 1
vertex 35.199999999999996 92.8 44.24792309369998
vertex 35.199999999999996 92.8 46.89885403706826
endloop
endfacet
facet normal 0 -1 0
outer loop
vertex 35.199999999999996 92.8 1
vertex 35.199999999999996 92.8 46.89885403706826
vertex 35.199999999999996 92.8 49.7752817290857
endloop
endfacet
facet normal 0 -1 0
outer loop
vertex 35.199999999999996 92.8 1
vertex 35.199999999999996 92.8 49.7752817290857
vertex 35.199999999999996 92.8 67.5
endloop
endfacet
facet normal 0 -1 0
outer loop
vertex 35.199999999999996 92.8 1
vertex 35.199999999999996 92.8 67.5
vertex 0.8 92.8 67.5
endloop
endfacet
facet normal 0 -1 0
outer loop
vertex 35.199999999999996 92.8 1
vertex 0.8 92.8 67.5
vertex 0.8 92.8 49.775281729085734
endloop
endfacet
facet normal 0 -1 0
outer loop
vertex 35.199999999999996 92.8 1
vertex 0.8 92.8 49.775281729085734
vertex 0.8 92.8 46.898854037068254
endloop
endfacet
facet normal 0 -1 0
outer loop
vertex 35.199999999999996 92.8 1
vertex 0.8 92.8 46.898854037068254
vertex 0.8 92.8 44.24792309369996
endloop
endfacet
facet normal 0 -1 0
outer loop
vertex 35.199999999999996 92.8 1
vertex 0.8 92.8 44.24792309369996
vertex 0.8 92.8 41.92436268847291
endloop
endfacet
facet normal 0 -1 0
outer loop
vertex 35.199999999999996 92.8 1
vertex 0.8 92.8 41.92436268847291
vertex 0.8 92.8 40.017465944693775
endloop
endfacet
facet normal 0 -1 0
outer loop
vertex 35.199999999999996 92.8 1
vertex 0.8 92.8 40.017465944693775
vertex 0.8 92.8 38.600513834827154
endloop
endfacet
facet normal 0 -1 0
outer loop
vertex 35.199999999999996 92.8 1
vertex 0.8 92.8 38.600513834827154
vertex 0.8 92.8 37.72795903381716
endloop
endfacet
facet normal 0 -1 0
outer loop
vertex 35.199999999999996 92.8 1
vertex 0.8 92.8 37.72795903381716
vertex 0.8 92.8 37.433333333333344
endloop
endfacet
facet normal 0 -1 0
outer loop
vertex 35.199999999999996 92.8 1
vertex 0.8 92.8 37.433333333333344
vertex 0.8 92.8 1
endloop
endfacet
facet normal 0 0 1
outer loop
vertex 35.199999999999996 0.8 1
vertex 35.199999999999996 92.8 1
vertex 0.8 92.8 1
endloop
endfacet
facet normal 0 0 1
outer loop
vertex 35.199999999999996 0.8 1
vertex 0.8 92.8 1
vertex 0.8 0.8 1
endloop
endfacet
facet normal 0 0 1
outer loop
vertex 36 0 67.5
vertex 36 0.8 67.5
vertex 35.199999999999996 0.8 67.5
endloop
endfacet
facet normal 0 0 1
outer loop
vertex 36 0 67.5
vertex 35.199999999999996 0.8 67.5
vertex 0.8 0.8 67.5
endloop
endfacet
facet normal 0 0 1
outer loop
vertex 36 0 67.5
vertex 0.8 0.8 67.5
vertex 0 0.8 67.5
endloop
endfacet
facet normal 0 0 1
outer loop
vertex 36 0 67.5
vertex 0 0.8 67.5
vertex 0 0 67.5
endloop
endfacet
facet normal 0 0 1
outer loop
vertex 0.8 0.8 67.5
vertex 0.8 20.131402424782557 67.5
vertex 0 20.131402424782557 67.5
endloop
endfacet
facet normal 0 0 1
outer loop
vertex 0.8 0.8 67.5
vertex 0 20.131402424782557 67.5
vertex 0 0.8 67.5
endloop
endfacet
facet normal 0 0 1
outer loop
vertex 36 0.8 67.5
vertex 36 20.131402424782557 67.5
vertex 35.199999999999996 20.131402424782557 67.5
endloop
endfacet
facet normal 0 0 1
outer loop
vertex 36 0.8 67.5
vertex 35.199999999999996 20.131402424782557 67.5
vertex 35.199999999999996 0.8 67.5
endloop
endfacet
facet normal 0 0 1
outer loop
vertex 0.8 73.46859757521707 67.5
vertex 0.8 92.8 67.5
vertex 0 92.8 67.5
endloop
endfacet
facet normal 0 0 1
outer loop
vertex 0.8 73.46859757521707 67.5
vertex 0 92.8 67.5
vertex 0 73.46859757521707 67.5
endloop
endfacet
facet normal 0 0 1
outer loop
vertex 36 73.46859757521707 67.5
vertex 36 92.8 67.5
vertex 35.199999999999996 92.8 67.5
endloop
endfacet
facet normal 0 0 1
outer loop
vertex 36 73.46859757521707 67.5
vertex 35.199999999999996 92.8 67.5
vertex 35.199999999999996 73.46859757521707 67.5
endloop
endfacet
facet normal 0 0 1
outer loop
vertex 0.8 92.8 67.5
vertex 35.199999999999996 92.8 67.5
vertex 36 92.8 67.5
endloop
endfacet
facet normal 0 0 1
outer loop
vertex 0.8 92.8 67.5
vertex 36 92.8 67.5
vertex 36 93.6 67.5
endloop
endfacet
facet normal 0 0 1
outer loop
vertex 0.8 92.8 67.5
vertex 36 93.6 67.5
vertex 0 93.6 67.5
endloop
endfacet
facet normal 0 0 1
outer loop
vertex 0.8 92.8 67.5
vertex 0 93.6 67.5
vertex 0 92.8 67.5
endloop
endfacet
facet normal 0 -0.9951847266721963 0.09801714032956745
outer loop
vertex 0.7999999999999972 61.838707632849435 49.775281729086025
vertex 0.8 62.427959033817075 55.75805160424729
vertex 7.557263799050181e-16 62.427959033817075 55.75805160424729
endloop
endfacet
facet normal 0 -0.9951847266721963 0.09801714032956745
outer loop
vertex 0.7999999999999972 61.838707632849435 49.775281729086025
vertex 7.557263799050181e-16 62.427959033817075 55.75805160424729
vertex 1.1220653787875911e-15 61.838707632849435 49.775281729086025
endloop
endfacet
facet normal 0 -0.9951847266721963 0.09801714032956745
outer loop
vertex 36 61.838707632849435 49.775281729086025
vertex 36 62.427959033817075 55.75805160424729
vertex 35.199999999999996 62.427959033817075 55.75805160424729
endloop
endfacet
facet normal 0 -0.9951847266721963 0.09801714032956745
outer loop
vertex 36 61.838707632849435 49.775281729086025
vertex 35.199999999999996 62.427959033817075 55.75805160424729
vertex 35.199999999999996 61.838707632849435 49.775281729086025
endloop
endfacet
facet normal 0 -0.9569403357322082 0.2902846772544649
outer loop
vertex 0.7999999999999972 60.96615283183969 46.898854037068645
vertex 0.7999999999999972 61.838707632849435 49.775281729086025
vertex 1.1220653787875911e-15 61.838707632849435 49.775281729086025
endloop
endfacet
facet normal 0 -0.9569403357322082 0.2902846772544649
outer loop
vertex 0.7999999999999972 60.96615283183969 46.898854037068645
vertex 1.1220653787875911e-15 61.838707632849435 49.775281729086025
vertex 1.2981957770879867e-15 60.96615283183969 46.898854037068645
endloop
endfacet
facet normal 0 -0.9569403357322082 0.2902846772544649
outer loop
vertex 36 60.96615283183969 46.898854037068645
vertex 36 61.838707632849435 49.775281729086025
vertex 35.199999999999996 61.838707632849435 49.775281729086025
endloop
endfacet
facet normal 0 -0.9569403357322082 0.2902846772544649
outer loop
vertex 36 60.96615283183969 46.898854037068645
vertex 35.199999999999996 61.838707632849435 49.775281729086025
vertex 35.199999999999996 60.96615283183969 46.898854037068645
endloop
endfacet
facet normal 0 -0.8819212643483568 0.4713967368259944
outer loop
vertex 0.7999999999999976 59.54920072197241 44.24792309369943
vertex 0.7999999999999972 60.96615283183969 46.898854037068645
vertex 1.2981957770879867e-15 60.96615283183969 46.898854037068645
endloop
endfacet
facet normal 0 -0.8819212643483568 0.4713967368259944
outer loop
vertex 0.7999999999999976 59.54920072197241 44.24792309369943
vertex 1.2981957770879867e-15 60.96615283183969 46.898854037068645
vertex 1.4605184818158748e-15 59.54920072197241 44.24792309369943
endloop
endfacet
facet normal 0 -0.8819212643483568 0.4713967368259944
outer loop
vertex 36.000000000000014 59.54920072197241 44.24792309369943
vertex 36 60.96615283183969 46.898854037068645
vertex 35.199999999999996 60.96615283183969 46.898854037068645
endloop
endfacet
facet normal 0 -0.8819212643483568 0.4713967368259944
outer loop
vertex 36.000000000000014 59.54920072197241 44.24792309369943
vertex 35.199999999999996 60.96615283183969 46.898854037068645
vertex 35.20000000000001 59.54920072197241 44.24792309369943
endloop
endfacet
facet normal 0 -0.7730104533627347 0.6343932841636484
outer loop
vertex 0.7999999999999972 57.64230397819367 41.924362688473
vertex 0.7999999999999976 59.54920072197241 44.24792309369943
vertex 1.4605184818158748e-15 59.54920072197241 44.24792309369943
endloop
endfacet
facet normal 0 -0.7730104533627347 0.6343932841636484
outer loop
vertex 0.7999999999999972 57.64230397819367 41.924362688473
vertex 1.4605184818158748e-15 59.54920072197241 44.24792309369943
vertex 1.6027955224601824e-15 57.64230397819367 41.924362688473
endloop
endfacet
facet normal 0 -0.7730104533627347 0.6343932841636484
outer loop
vertex 36 57.64230397819367 41.924362688473
vertex 36.000000000000014 59.54920072197241 44.24792309369943
vertex 35.20000000000001 59.54920072197241 44.24792309369943
endloop
endfacet
facet normal 0 -0.7730104533627347 0.6343932841636484
outer loop
vertex 36 57.64230397819367 41.924362688473
vertex 35.20000000000001 59.54920072197241 44.24792309369943
vertex 35.199999999999996 57.64230397819367 41.924362688473
endloop
endfacet
facet normal 0 -0.6343932841636406 0.7730104533627411
outer loop
vertex 0.7999999999999976 55.31874357296718 40.01746594469438
vertex 0.7999999999999972 57.64230397819367 41.924362688473
vertex 1.6027955224601824e-15 57.64230397819367 41.924362688473
endloop
endfacet
facet normal 0 -0.6343932841636406 0.7730104533627411
outer loop
vertex 0.7999999999999976 55.31874357296718 40.01746594469438
vertex 1.6027955224601824e-15 57.64230397819367 41.924362688473
vertex 1.7195592721388337e-15 55.31874357296718 40.01746594469438
endloop
endfacet
facet normal 0 -0.6343932841636406 0.7730104533627411
outer loop
vertex 36.000000000000014 55.31874357296718 40.01746594469438
vertex 36 57.64230397819367 41.924362688473
vertex 35.199999999999996 57.64230397819367 41.924362688473
endloop
endfacet
facet normal 0 -0.6343932841636406 0.7730104533627411
outer loop
vertex 36.000000000000014 55.31874357296718 40.01746594469438
vertex 35.199999999999996 57.64230397819367 41.924362688473
vertex 35.20000000000001 55.31874357296718 40.01746594469438
endloop
endfacet
facet normal 0 -0.47139673682600286 0.8819212643483523
outer loop
vertex 0.7999999999999972 52.66781262959812 38.60051383482684
vertex 0.7999999999999976 55.31874357296718 40.01746594469438
vertex 1.7195592721388337e-15 55.31874357296718 40.01746594469438
endloop
endfacet
facet normal 0 -0.47139673682600286 0.8819212643483523
outer loop
vertex 0.7999999999999972 52.66781262959812 38.60051383482684
vertex 1.7195592721388337e-15 55.31874357296718 40.01746594469438
vertex 1.806322565433541e-15 52.66781262959812 38.60051383482684
endloop
endfacet
facet normal 0 -0.47139673682600286 0.8819212643483523
outer loop
vertex 36 52.66781262959812 38.60051383482684
vertex 36.000000000000014 55.31874357296718 40.01746594469438
vertex 35.20000000000001 55.31874357296718 40.01746594469438
endloop
endfacet
facet normal 0 -0.47139673682600286 0.8819212643483523
outer loop
vertex 36 52.66781262959812 38.60051383482684
vertex 35.20000000000001 55.31874357296718 40.01746594469438
vertex 35.199999999999996 52.66781262959812 38.60051383482684
endloop
endfacet
facet normal 0 -0.29028467725446094 0.9569403357322094
outer loop
vertex 0.7999999999999972 49.791384937580645 37.72795903381716
vertex 0.7999999999999972 52.66781262959812 38.60051383482684
vertex 1.806322565433541e-15 52.66781262959812 38.60051383482684
endloop
endfacet
facet normal 0 -0.29028467725446094 0.9569403357322094
outer loop
vertex 0.7999999999999972 49.791384937580645 37.72795903381716
vertex 1.806322565433541e-15 52.66781262959812 38.60051383482684
vertex 1.8597511376404067e-15 49.791384937580645 37.72795903381716
endloop
endfacet
facet normal 0 -0.29028467725446094 0.9569403357322094
outer loop
vertex 36 49.791384937580645 37.72795903381716
vertex 36 52.66781262959812 38.60051383482684
vertex 35.199999999999996 52.66781262959812 38.60051383482684
endloop
endfacet
facet normal 0 -0.29028467725446094 0.9569403357322094
outer loop
vertex 36 49.791384937580645 37.72795903381716
vertex 35.199999999999996 52.66781262959812 38.60051383482684
vertex 35.199999999999996 49.791384937580645 37.72795903381716
endloop
endfacet
facet normal 0 -0.09801714032956041 0.9951847266721969
outer loop
vertex 0.7999999999999972 46.800000000000004 37.43333333333336
vertex 0.7999999999999972 49.791384937580645 37.72795903381716
vertex 1.8597511376404067e-15 49.791384937580645 37.72795903381716
endloop
endfacet
facet normal 0 -0.09801714032956041 0.9951847266721969
outer loop
vertex 0.7999999999999972 46.800000000000004 37.43333333333336
vertex 1.8597511376404067e-15 49.791384937580645 37.72795903381716
vertex 1.8777917586926084e-15 46.800000000000004 37.43333333333336
endloop
endfacet
facet normal 0 -0.09801714032956041 0.9951847266721969
outer loop
vertex 36 46.800000000000004 37.43333333333336
vertex 36 49.791384937580645 37.72795903381716
vertex 35.199999999999996 49.791384937580645 37.72795903381716
endloop
endfacet
facet normal 0 -0.09801714032956041 0.9951847266721969
outer loop
vertex 36 46.800000000000004 37.43333333333336
vertex 35.199999999999996 49.791384937580645 37.72795903381716
vertex 35.199999999999996 46.800000000000004 37.43333333333336
endloop
endfacet
facet normal 0 0.09801714032956041 0.9951847266721969
outer loop
vertex 0.7999999999999972 43.80861506241936 37.727959033817136
vertex 0.7999999999999972 46.800000000000004 37.43333333333336
vertex 1.8777917586926084e-15 46.800000000000004 37.43333333333336
endloop
endfacet
facet normal 0 0.09801714032956041 0.9951847266721969
outer loop
vertex 0.7999999999999972 43.80861506241936 37.727959033817136
vertex 1.8777917586926084e-15 46.800000000000004 37.43333333333336
vertex 1.8597511376404067e-15 43.80861506241936 37.727959033817136
endloop
endfacet
facet normal 0 0.09801714032956041 0.9951847266721969
outer loop
vertex 36 43.80861506241936 37.727959033817136
vertex 36 46.800000000000004 37.43333333333336
vertex 35.199999999999996 46.800000000000004 37.43333333333336
endloop
endfacet
facet normal 0 0.09801714032956041 0.9951847266721969
outer loop
vertex 36 43.80861506241936 37.727959033817136
vertex 35.199999999999996 46.800000000000004 37.43333333333336
vertex 35.199999999999996 43.80861506241936 37.727959033817136
endloop
endfacet
facet normal 0 0.2902846772544629 0.9569403357322087
outer loop
vertex 0.7999999999999972 40.93218737040195 38.60051383482692
vertex 0.7999999999999972 43.80861506241936 37.727959033817136
vertex 1.8597511376404067e-15 43.80861506241936 37.727959033817136
endloop
endfacet
facet normal 0 0.2902846772544629 0.9569403357322087
outer loop
vertex 0.7999999999999972 40.93218737040195 38.60051383482692
vertex 1.8597511376404067e-15 43.80861506241936 37.727959033817136
vertex 1.806322565433541e-15 40.93218737040195 38.60051383482692
endloop
endfacet
facet normal 0 0.2902846772544629 0.9569403357322087
outer loop
vertex 36 40.93218737040195 38.60051383482692
vertex 36 43.80861506241936 37.727959033817136
vertex 35.199999999999996 43.80861506241936 37.727959033817136
endloop
endfacet
facet normal 0 0.2902846772544629 0.9569403357322087
outer loop
vertex 36 40.93218737040195 38.60051383482692
vertex 35.199999999999996 43.80861506241936 37.727959033817136
vertex 35.199999999999996 40.93218737040195 38.60051383482692
endloop
endfacet
facet normal 0 0.47139673682599736 0.8819212643483553
outer loop
vertex 0.7999999999999976 38.28125642703276 40.01746594469427
vertex 0.7999999999999972 40.93218737040195 38.60051383482692
vertex 1.806322565433541e-15 40.93218737040195 38.60051383482692
endloop
endfacet
facet normal 0 0.47139673682599736 0.8819212643483553
outer loop
vertex 0.7999999999999976 38.28125642703276 40.01746594469427
vertex 1.806322565433541e-15 40.93218737040195 38.60051383482692
vertex 1.7195592721388337e-15 38.28125642703276 40.01746594469427
endloop
endfacet
facet normal 0 0.47139673682599736 0.8819212643483553
outer loop
vertex 36.000000000000014 38.28125642703276 40.01746594469427
vertex 36 40.93218737040195 38.60051383482692
vertex 35.199999999999996 40.93218737040195 38.60051383482692
endloop
endfacet
facet normal 0 0.47139673682599736 0.8819212643483553
outer loop
vertex 36.000000000000014 38.28125642703276 40.01746594469427
vertex 35.199999999999996 40.93218737040195 38.60051383482692
vertex 35.20000000000001 38.28125642703276 40.01746594469427
endloop
endfacet
facet normal 0 0.6343932841636448 0.7730104533627375
outer loop
vertex 0.7999999999999972 35.95769602180627 41.92436268847293
vertex 0.7999999999999976 38.28125642703276 40.01746594469427
vertex 1.7195592721388337e-15 38.28125642703276 40.01746594469427
endloop
endfacet
facet normal 0 0.6343932841636448 0.7730104533627375
outer loop
vertex 0.7999999999999972 35.95769602180627 41.92436268847293
vertex 1.7195592721388337e-15 38.28125642703276 40.01746594469427
vertex 1.6027955224601824e-15 35.95769602180627 41.92436268847293
endloop
endfacet
facet normal 0 0.6343932841636448 0.7730104533627375
outer loop
vertex 36 35.95769602180627 41.92436268847293
vertex 36.000000000000014 38.28125642703276 40.01746594469427
vertex 35.20000000000001 38.28125642703276 40.01746594469427
endloop
endfacet
facet normal 0 0.6343932841636448 0.7730104533627375
outer loop
vertex 36 35.95769602180627 41.92436268847293
vertex 35.20000000000001 38.28125642703276 40.01746594469427
vertex 35.199999999999996 35.95769602180627 41.92436268847293
endloop
endfacet
facet normal 0 0.7730104533627382 0.6343932841636442
outer loop
vertex 0.7999999999999976 34.05079927802763 44.24792309369944
vertex 0.7999999999999972 35.95769602180627 41.92436268847293
vertex 1.6027955224601824e-15 35.95769602180627 41.92436268847293
endloop
endfacet
facet normal 0 0.7730104533627382 0.6343932841636442
outer loop
vertex 0.7999999999999976 34.05079927802763 44.24792309369944
vertex 1.6027955224601824e-15 35.95769602180627 41.92436268847293
vertex 1.4605184818158748e-15 34.05079927802763 44.24792309369944
endloop
endfacet
facet normal 0 0.7730104533627382 0.6343932841636442
outer loop
vertex 36.000000000000014 34.05079927802763 44.24792309369944
vertex 36 35.95769602180627 41.92436268847293
vertex 35.199999999999996 35.95769602180627 41.92436268847293
endloop
endfacet
facet normal 0 0.7730104533627382 0.6343932841636442
outer loop
vertex 36.000000000000014 34.05079927802763 44.24792309369944
vertex 35.199999999999996 35.95769602180627 41.92436268847293
vertex 35.20000000000001 34.05079927802763 44.24792309369944
endloop
endfacet
facet normal 0 0.8819212643483537 0.47139673682600014
outer loop
vertex 0.7999999999999972 32.633847168160266 46.89885403706862
vertex 0.7999999999999976 34.05079927802763 44.24792309369944
vertex 1.4605184818158748e-15 34.05079927802763 44.24792309369944
endloop
endfacet
facet normal 0 0.8819212643483537 0.47139673682600014
outer loop
vertex 0.7999999999999972 32.633847168160266 46.89885403706862
vertex 1.4605184818158748e-15 34.05079927802763 44.24792309369944
vertex 1.2981957770879869e-15 32.633847168160266 46.89885403706862
endloop
endfacet
facet normal 0 0.8819212643483537 0.47139673682600014
outer loop
vertex 36 32.633847168160266 46.89885403706862
vertex 36.000000000000014 34.05079927802763 44.24792309369944
vertex 35.20000000000001 34.05079927802763 44.24792309369944
endloop
endfacet
facet normal 0 0.8819212643483537 0.47139673682600014
outer loop
vertex 36 32.633847168160266 46.89885403706862
vertex 35.20000000000001 34.05079927802763 44.24792309369944
vertex 35.199999999999996 32.633847168160266 46.89885403706862
endloop
endfacet
facet normal 0 0.9569403357322095 0.29028467725446094
outer loop
vertex 0.7999999999999972 31.76129236715046 49.775281729086004
vertex 0.7999999999999972 32.633847168160266 46.89885403706862
vertex 1.2981957770879869e-15 32.633847168160266 46.89885403706862
endloop
endfacet
facet normal 0 0.9569403357322095 0.29028467725446094
outer loop
vertex 0.7999999999999972 31.76129236715046 49.775281729086004
vertex 1.2981957770879869e-15 32.633847168160266 46.89885403706862
vertex 1.1220653787875913e-15 31.76129236715046 49.775281729086004
endloop
endfacet
facet normal 0 0.9569403357322095 0.29028467725446094
outer loop
vertex 36 31.76129236715046 49.775281729086004
vertex 36 32.633847168160266 46.89885403706862
vertex 35.199999999999996 32.633847168160266 46.89885403706862
endloop
endfacet
facet normal 0 0.9569403357322095 0.29028467725446094
outer loop
vertex 36 31.76129236715046 49.775281729086004
vertex 35.199999999999996 32.633847168160266 46.89885403706862
vertex 35.199999999999996 31.76129236715046 49.775281729086004
endloop
endfacet
facet normal 0 0.9951847266721967 0.09801714032956255
outer loop
vertex 0.7999999999999972 31.172040966182827 55.758051604247285
vertex 0.7999999999999972 31.76129236715046 49.775281729086004
vertex 1.1220653787875913e-15 31.76129236715046 49.775281729086004
endloop
endfacet
facet normal 0 0.9951847266721967 0.09801714032956255
outer loop
vertex 0.7999999999999972 31.172040966182827 55.758051604247285
vertex 1.1220653787875913e-15 31.76129236715046 49.775281729086004
vertex 7.557263799050182e-16 31.172040966182827 55.758051604247285
endloop
endfacet
facet normal 0 0.9951847266721967 0.09801714032956255
outer loop
vertex 36 31.172040966182827 55.758051604247285
vertex 36 31.76129236715046 49.775281729086004
vertex 35.199999999999996 31.76129236715046 49.775281729086004
endloop
endfacet
facet normal 0 0.9951847266721967 0.09801714032956255
outer loop
vertex 36 31.172040966182827 55.758051604247285
vertex 35.199999999999996 31.76129236715046 49.775281729086004
vertex 35.199999999999996 31.172040966182827 55.758051604247285
endloop
endfacet
facet normal 0 -0.9569403357322095 0.29028467725446094
outer loop
vertex 0.8 62.427959033817075 55.75805160424729
vertex 0.8 63.300513834826965 58.634479296264686
vertex 5.795959816046213e-16 63.300513834826965 58.634479296264686
endloop
endfacet
facet normal 0 -0.9569403357322095 0.29028467725446094
outer loop
vertex 0.8 62.427959033817075 55.75805160424729
vertex 5.795959816046213e-16 63.300513834826965 58.634479296264686
vertex 7.557263799050181e-16 62.427959033817075 55.75805160424729
endloop
endfacet
facet normal 0 -0.9569403357322095 0.29028467725446094
outer loop
vertex 36 62.427959033817075 55.75805160424729
vertex 36 63.300513834826965 58.634479296264686
vertex 35.199999999999996 63.300513834826965 58.634479296264686
endloop
endfacet
facet normal 0 -0.9569403357322095 0.29028467725446094
outer loop
vertex 36 62.427959033817075 55.75805160424729
vertex 35.199999999999996 63.300513834826965 58.634479296264686
vertex 35.199999999999996 62.427959033817075 55.75805160424729
endloop
endfacet
facet normal 0 -0.8819212643483584 0.4713967368259914
outer loop
vertex 0.8 63.300513834826965 58.634479296264686
vertex 0.8 64.71746594469434 61.2854102396339
vertex 4.172732768767329e-16 64.71746594469434 61.2854102396339
endloop
endfacet
facet normal 0 -0.8819212643483584 0.4713967368259914
outer loop
vertex 0.8 63.300513834826965 58.634479296264686
vertex 4.172732768767329e-16 64.71746594469434 61.2854102396339
vertex 5.795959816046213e-16 63.300513834826965 58.634479296264686
endloop
endfacet
facet normal 0 -0.8819212643483584 0.4713967368259914
outer loop
vertex 36 63.300513834826965 58.634479296264686
vertex 36 64.71746594469434 61.2854102396339
vertex 35.199999999999996 64.71746594469434 61.2854102396339
endloop
endfacet
facet normal 0 -0.8819212643483584 0.4713967368259914
outer loop
vertex 36 63.300513834826965 58.634479296264686
vertex 35.199999999999996 64.71746594469434 61.2854102396339
vertex 35.199999999999996 63.300513834826965 58.634479296264686
endloop
endfacet
facet normal 0 -0.7730104533627319 0.6343932841636518
outer loop
vertex 0.8 64.71746594469434 61.2854102396339
vertex 0.8000000000000005 66.62436268847294 63.60897064486041
vertex 2.749962362324262e-16 66.62436268847294 63.60897064486041
endloop
endfacet
facet normal 0 -0.7730104533627319 0.6343932841636518
outer loop
vertex 0.8 64.71746594469434 61.2854102396339
vertex 2.749962362324262e-16 66.62436268847294 63.60897064486041
vertex 4.172732768767329e-16 64.71746594469434 61.2854102396339
endloop
endfacet
facet normal 0 -0.7730104533627319 0.6343932841636518
outer loop
vertex 36 64.71746594469434 61.2854102396339
vertex 36.000000000000014 66.62436268847294 63.60897064486041
vertex 35.20000000000001 66.62436268847294 63.60897064486041
endloop
endfacet
facet normal 0 -0.7730104533627319 0.6343932841636518
outer loop
vertex 36 64.71746594469434 61.2854102396339
vertex 35.20000000000001 66.62436268847294 63.60897064486041
vertex 35.199999999999996 64.71746594469434 61.2854102396339
endloop
endfacet
facet normal 0 -0.6343932841636448 0.7730104533627374
outer loop
vertex 0.8000000000000005 66.62436268847294 63.60897064486041
vertex 0.8 68.94792309369944 65.51586738863902
vertex 1.5823248655377614e-16 68.94792309369944 65.51586738863902
endloop
endfacet
facet normal 0 -0.6343932841636448 0.7730104533627374
outer loop
vertex 0.8000000000000005 66.62436268847294 63.60897064486041
vertex 1.5823248655377614e-16 68.94792309369944 65.51586738863902
vertex 2.749962362324262e-16 66.62436268847294 63.60897064486041
endloop
endfacet
facet normal 0 -0.6343932841636448 0.7730104533627374
outer loop
vertex 36.000000000000014 66.62436268847294 63.60897064486041
vertex 36 68.94792309369944 65.51586738863902
vertex 35.199999999999996 68.94792309369944 65.51586738863902
endloop
endfacet
facet normal 0 -0.6343932841636448 0.7730104533627374
outer loop
vertex 36.000000000000014 66.62436268847294 63.60897064486041
vertex 35.199999999999996 68.94792309369944 65.51586738863902
vertex 35.20000000000001 66.62436268847294 63.60897064486041
endloop
endfacet
facet normal 0 -0.47139673682599736 0.8819212643483552
outer loop
vertex 0.8 68.94792309369944 65.51586738863902
vertex 0.8 71.5988540370686 66.93281949850639
vertex 7.146919325906743e-17 71.5988540370686 66.93281949850639
endloop
endfacet
facet normal 0 -0.47139673682599736 0.8819212643483552
outer loop
vertex 0.8 68.94792309369944 65.51586738863902
vertex 7.146919325906743e-17 71.5988540370686 66.93281949850639
vertex 1.5823248655377614e-16 68.94792309369944 65.51586738863902
endloop
endfacet
facet normal 0 -0.47139673682599736 0.8819212643483552
outer loop
vertex 36 68.94792309369944 65.51586738863902
vertex 36 71.5988540370686 66.93281949850639
vertex 35.199999999999996 71.5988540370686 66.93281949850639
endloop
endfacet
facet normal 0 -0.47139673682599736 0.8819212643483552
outer loop
vertex 36 68.94792309369944 65.51586738863902
vertex 35.199999999999996 71.5988540370686 66.93281949850639
vertex 35.199999999999996 68.94792309369944 65.51586738863902
endloop
endfacet
facet normal 0 0.4713967368259944 0.8819212643483568
outer loop
vertex 0.7999999999999976 22.001145962931325 66.93281949850629
vertex 0.8000000000000005 24.652076906300515 65.51586738863894
vertex 1.5823248655377636e-16 24.652076906300515 65.51586738863894
endloop
endfacet
facet normal 0 0.4713967368259944 0.8819212643483568
outer loop
vertex 0.7999999999999976 22.001145962931325 66.93281949850629
vertex 1.5823248655377636e-16 24.652076906300515 65.51586738863894
vertex 7.146919325906764e-17 22.001145962931325 66.93281949850629
endloop
endfacet
facet normal 0 0.4713967368259944 0.8819212643483568
outer loop
vertex 36.000000000000014 22.001145962931325 66.93281949850629
vertex 36.000000000000014 24.652076906300515 65.51586738863894
vertex 35.20000000000001 24.652076906300515 65.51586738863894
endloop
endfacet
facet normal 0 0.4713967368259944 0.8819212643483568
outer loop
vertex 36.000000000000014 22.001145962931325 66.93281949850629
vertex 35.20000000000001 24.652076906300515 65.51586738863894
vertex 35.20000000000001 22.001145962931325 66.93281949850629
endloop
endfacet
facet normal 0 0.6343932841636484 0.7730104533627347
outer loop
vertex 0.8000000000000005 24.652076906300515 65.51586738863894
vertex 0.8 26.975637311527123 63.60897064486046
vertex 2.749962362324262e-16 26.975637311527123 63.60897064486046
endloop
endfacet
facet normal 0 0.6343932841636484 0.7730104533627347
outer loop
vertex 0.8000000000000005 24.652076906300515 65.51586738863894
vertex 2.749962362324262e-16 26.975637311527123 63.60897064486046
vertex 1.5823248655377636e-16 24.652076906300515 65.51586738863894
endloop
endfacet
facet normal 0 0.6343932841636484 0.7730104533627347
outer loop
vertex 36.000000000000014 24.652076906300515 65.51586738863894
vertex 36 26.975637311527123 63.60897064486046
vertex 35.199999999999996 26.975637311527123 63.60897064486046
endloop
endfacet
facet normal 0 0.6343932841636484 0.7730104533627347
outer loop
vertex 36.000000000000014 24.652076906300515 65.51586738863894
vertex 35.199999999999996 26.975637311527123 63.60897064486046
vertex 35.20000000000001 24.652076906300515 65.51586738863894
endloop
endfacet
facet normal 0 0.8819212643483552 0.47139673682599736
outer loop
vertex 0.7999999999999972 28.88253405530573 61.285410239633926
vertex 0.8 30.299486165173104 58.63447929626472
vertex 5.795959816046214e-16 30.299486165173104 58.63447929626472
endloop
endfacet
facet normal 0 0.8819212643483552 0.47139673682599736
outer loop
vertex 0.7999999999999972 28.88253405530573 61.285410239633926
vertex 5.795959816046214e-16 30.299486165173104 58.63447929626472
vertex 4.1727327687673305e-16 28.88253405530573 61.285410239633926
endloop
endfacet
facet normal 0 0.8819212643483552 0.47139673682599736
outer loop
vertex 36 28.88253405530573 61.285410239633926
vertex 36 30.299486165173104 58.63447929626472
vertex 35.199999999999996 30.299486165173104 58.63447929626472
endloop
endfacet
facet normal 0 0.8819212643483552 0.47139673682599736
outer loop
vertex 36 28.88253405530573 61.285410239633926
vertex 35.199999999999996 30.299486165173104 58.63447929626472
vertex 35.199999999999996 28.88253405530573 61.285410239633926
endloop
endfacet
facet normal 0 0.9569403357322097 0.2902846772544596
outer loop
vertex 0.8 30.299486165173104 58.63447929626472
vertex 0.7999999999999972 31.172040966182827 55.758051604247285
vertex 7.557263799050182e-16 31.172040966182827 55.758051604247285
endloop
endfacet
facet normal 0 0.9569403357322097 0.2902846772544596
outer loop
vertex 0.8 30.299486165173104 58.63447929626472
vertex 7.557263799050182e-16 31.172040966182827 55.758051604247285
vertex 5.795959816046214e-16 30.299486165173104 58.63447929626472
endloop
endfacet
facet normal 0 0.9569403357322097 0.2902846772544596
outer loop
vertex 36 30.299486165173104 58.63447929626472
vertex 36 31.172040966182827 55.758051604247285
vertex 35.199999999999996 31.172040966182827 55.758051604247285
endloop
endfacet
facet normal 0 0.9569403357322097 0.2902846772544596
outer loop
vertex 36 30.299486165173104 58.63447929626472
vertex 35.199999999999996 31.172040966182827 55.758051604247285
vertex 35.199999999999996 30.299486165173104 58.63447929626472
endloop
endfacet
facet normal 0 -0.2902846772544629 0.9569403357322087
outer loop
vertex 0.8 71.5988540370686 66.93281949850639
vertex 0.8 73.46859757521707 67.5
vertex 0 73.46859757521707 67.5
endloop
endfacet
facet normal 0 -0.2902846772544629 0.9569403357322087
outer loop
vertex 0.8 71.5988540370686 66.93281949850639
vertex 0 73.46859757521707 67.5
vertex 7.146919325906743e-17 71.5988540370686 66.93281949850639
endloop
endfacet
facet normal 0 -0.2902846772544629 0.9569403357322087
outer loop
vertex 36 71.5988540370686 66.93281949850639
vertex 36 73.46859757521707 67.5
vertex 35.199999999999996 73.46859757521707 67.5
endloop
endfacet
facet normal 0 -0.2902846772544629 0.9569403357322087
outer loop
vertex 36 71.5988540370686 66.93281949850639
vertex 35.199999999999996 73.46859757521707 67.5
vertex 35.199999999999996 71.5988540370686 66.93281949850639
endloop
endfacet
facet normal 0 0.29028467725446094 0.9569403357322095
outer loop
vertex 0.8 20.131402424782557 67.5
vertex 0.7999999999999976 22.001145962931325 66.93281949850629
vertex 7.146919325906764e-17 22.001145962931325 66.93281949850629
endloop
endfacet
facet normal 0 0.29028467725446094 0.9569403357322095
outer loop
vertex 0.8 20.131402424782557 67.5
vertex 7.146919325906764e-17 22.001145962931325 66.93281949850629
vertex 0 20.131402424782557 67.5
endloop
endfacet
facet normal 0 0.29028467725446094 0.9569403357322095
outer loop
vertex 36 20.131402424782557 67.5
vertex 36.000000000000014 22.001145962931325 66.93281949850629
vertex 35.20000000000001 22.001145962931325 66.93281949850629
endloop
endfacet
facet normal 0 0.29028467725446094 0.9569403357322095
outer loop
vertex 36 20.131402424782557 67.5
vertex 35.20000000000001 22.001145962931325 66.93281949850629
vertex 35.199999999999996 20.131402424782557 67.5
endloop
endfacet
facet normal 0 0.7730104533627318 0.6343932841636518
outer loop
vertex 0.8 26.975637311527123 63.60897064486046
vertex 0.7999999999999972 28.88253405530573 61.285410239633926
vertex 4.1727327687673305e-16 28.88253405530573 61.285410239633926
endloop
endfacet
facet normal 0 0.7730104533627318 0.6343932841636518
outer loop
vertex 0.8 26.975637311527123 63.60897064486046
vertex 4.1727327687673305e-16 28.88253405530573 61.285410239633926
vertex 2.749962362324262e-16 26.975637311527123 63.60897064486046
endloop
endfacet
facet normal 0 0.7730104533627318 0.6343932841636518
outer loop
vertex 36 26.975637311527123 63.60897064486046
vertex 36 28.88253405530573 61.285410239633926
vertex 35.199999999999996 28.88253405530573 61.285410239633926
endloop
endfacet
facet normal 0 0.7730104533627318 0.6343932841636518
outer loop
vertex 36 26.975637311527123 63.60897064486046
vertex 35.199999999999996 28.88253405530573 61.285410239633926
vertex 35.199999999999996 26.975637311527123 63.60897064486046
endloop
endfacet
facet normal -1 0 -1.2600784595177118e-16
outer loop
vertex 0 0.8 67.5
vertex 0 20.131402424782557 67.5
vertex 7.146919325906764e-17 22.001145962931325 66.93281949850629
endloop
endfacet
facet normal -1 0 -1.2600784595177118e-16
outer loop
vertex 0 0.8 67.5
vertex 7.146919325906764e-17 22.001145962931325 66.93281949850629
vertex 1.5823248655377636e-16 24.652076906300515 65.51586738863894
endloop
endfacet
facet normal -1 0 -1.2600784595177118e-16
outer loop
vertex 0 0.8 67.5
vertex 1.5823248655377636e-16 24.652076906300515 65.51586738863894
vertex 2.749962362324262e-16 26.975637311527123 63.60897064486046
endloop
endfacet
facet normal -1 0 -1.2600784595177118e-16
outer loop
vertex 0 0.8 67.5
vertex 2.749962362324262e-16 26.975637311527123 63.60897064486046
vertex 4.1727327687673305e-16 28.88253405530573 61.285410239633926
endloop
endfacet
facet normal -1 0 -1.2600784595177118e-16
outer loop
vertex 0 0.8 67.5
vertex 4.1727327687673305e-16 28.88253405530573 61.285410239633926
vertex 5.795959816046214e-16 30.299486165173104 58.63447929626472
endloop
endfacet
facet normal -1 0 -1.2600784595177118e-16
outer loop
vertex 0 0.8 67.5
vertex 5.795959816046214e-16 30.299486165173104 58.63447929626472
vertex 7.557263799050182e-16 31.172040966182827 55.758051604247285
endloop
endfacet
facet normal -1 0 -1.2600784595177118e-16
outer loop
vertex 0 0.8 67.5
vertex 7.557263799050182e-16 31.172040966182827 55.758051604247285
vertex 1.1220653787875913e-15 31.76129236715046 49.775281729086004
endloop
endfacet
facet normal -1 0 -1.2600784595177118e-16
outer loop
vertex 0 0.8 67.5
vertex 1.1220653787875913e-15 31.76129236715046 49.775281729086004
vertex 0 0 49.775281729085705
endloop
endfacet
facet normal -1 0 -1.2600784595177118e-16
outer loop
vertex 0 0.8 67.5
vertex 0 0 49.775281729085705
vertex 0 0 67.5
endloop
endfacet
facet normal -1 0 0
outer loop
vertex 0 92.8 67.5
vertex 0 93.6 67.5
vertex 0 93.6 49.775281729085705
endloop
endfacet
facet normal -1 0 0
outer loop
vertex 0 92.8 67.5
vertex 0 93.6 49.775281729085705
vertex 1.1220653787875911e-15 61.838707632849435 49.775281729086025
endloop
endfacet
facet normal -1 0 0
outer loop
vertex 0 92.8 67.5
vertex 1.1220653787875911e-15 61.838707632849435 49.775281729086025
vertex 7.557263799050181e-16 62.427959033817075 55.75805160424729
endloop
endfacet
facet normal -1 0 0
outer loop
vertex 0 92.8 67.5
vertex 7.557263799050181e-16 62.427959033817075 55.75805160424729
vertex 5.795959816046213e-16 63.300513834826965 58.634479296264686
endloop
endfacet
facet normal -1 0 0
outer loop
vertex 0 92.8 67.5
vertex 5.795959816046213e-16 63.300513834826965 58.634479296264686
vertex 4.172732768767329e-16 64.71746594469434 61.2854102396339
endloop
endfacet
facet normal -1 0 0
outer loop
vertex 0 92.8 67.5
vertex 4.172732768767329e-16 64.71746594469434 61.2854102396339
vertex 2.749962362324262e-16 66.62436268847294 63.60897064486041
endloop
endfacet
facet normal -1 0 0
outer loop
vertex 0 92.8 67.5
vertex 2.749962362324262e-16 66.62436268847294 63.60897064486041
vertex 1.5823248655377614e-16 68.94792309369944 65.51586738863902
endloop
endfacet
facet normal -1 0 0
outer loop
vertex 0 92.8 67.5
vertex 1.5823248655377614e-16 68.94792309369944 65.51586738863902
vertex 7.146919325906743e-17 71.5988540370686 66.93281949850639
endloop
endfacet
facet normal -1 0 0
outer loop
vertex 0 92.8 67.5
vertex 7.146919325906743e-17 71.5988540370686 66.93281949850639
vertex 0 73.46859757521707 67.5
endloop
endfacet
facet normal -1 0 0
outer loop
vertex 1.1220653787875913e-15 31.76129236715046 49.775281729086004
vertex 1.2981957770879869e-15 32.633847168160266 46.89885403706862
vertex 0 0 46.89885403706826
endloop
endfacet
facet normal -1 0 0
outer loop
vertex 1.1220653787875913e-15 31.76129236715046 49.775281729086004
vertex 0 0 46.89885403706826
vertex 0 0 49.775281729085705
endloop
endfacet
facet normal -1 0 0
outer loop
vertex 0 93.6 49.775281729085705
vertex 0 93.6 46.89885403706826
vertex 1.2981957770879867e-15 60.96615283183969 46.898854037068645
endloop
endfacet
facet normal -1 0 0
outer loop
vertex 0 93.6 49.775281729085705
vertex 1.2981957770879867e-15 60.96615283183969 46.898854037068645
vertex 1.1220653787875911e-15 61.838707632849435 49.775281729086025
endloop
endfacet
facet normal -1 0 0
outer loop
vertex 1.2981957770879869e-15 32.633847168160266 46.89885403706862
vertex 1.4605184818158748e-15 34.05079927802763 44.24792309369944
vertex 0 0 44.247923093699974
endloop
endfacet
facet normal -1 0 0
outer loop
vertex 1.2981957770879869e-15 32.633847168160266 46.89885403706862
vertex 0 0 44.247923093699974
vertex 0 0 46.89885403706826
endloop
endfacet
facet normal -1 0 0
outer loop
vertex 0 93.6 46.89885403706826
vertex 0 93.6 44.247923093699974
vertex 1.4605184818158748e-15 59.54920072197241 44.24792309369943
endloop
endfacet
facet normal -1 0 0
outer loop
vertex 0 93.6 46.89885403706826
vertex 1.4605184818158748e-15 59.54920072197241 44.24792309369943
vertex 1.2981957770879867e-15 60.96615283183969 46.898854037068645
endloop
endfacet
facet normal -1 0 0
outer loop
vertex 1.4605184818158748e-15 34.05079927802763 44.24792309369944
vertex 1.6027955224601824e-15 35.95769602180627 41.92436268847293
vertex 0 0 41.924362688472925
endloop
endfacet
facet normal -1 0 0
outer loop
vertex 1.4605184818158748e-15 34.05079927802763 44.24792309369944
vertex 0 0 41.924362688472925
vertex 0 0 44.247923093699974
endloop
endfacet
facet normal -1 0 0
outer loop
vertex 0 93.6 44.247923093699974
vertex 0 93.6 41.924362688472925
vertex 1.6027955224601824e-15 57.64230397819367 41.924362688473
endloop
endfacet
facet normal -1 0 0
outer loop
vertex 0 93.6 44.247923093699974
vertex 1.6027955224601824e-15 57.64230397819367 41.924362688473
vertex 1.4605184818158748e-15 59.54920072197241 44.24792309369943
endloop
endfacet
facet normal -1 0 0
outer loop
vertex 1.6027955224601824e-15 35.95769602180627 41.92436268847293
vertex 1.7195592721388337e-15 38.28125642703276 40.01746594469427
vertex 0 0 40.017465944693754
endloop
endfacet
facet normal -1 0 0
outer loop
vertex 1.6027955224601824e-15 35.95769602180627 41.92436268847293
vertex 0 0 40.017465944693754
vertex 0 0 41.924362688472925
endloop
endfacet
facet normal -1 0 0
outer loop
vertex 0 93.6 41.924362688472925
vertex 0 93.6 40.017465944693754
vertex 1.7195592721388337e-15 55.31874357296718 40.01746594469438
endloop
endfacet
facet normal -1 0 0
outer loop
vertex 0 93.6 41.924362688472925
vertex 1.7195592721388337e-15 55.31874357296718 40.01746594469438
vertex 1.6027955224601824e-15 57.64230397819367 41.924362688473
endloop
endfacet
facet normal -1 0 0
outer loop
vertex 1.7195592721388337e-15 38.28125642703276 40.01746594469427
vertex 1.806322565433541e-15 40.93218737040195 38.60051383482692
vertex 0 0 38.60051383482716
endloop
endfacet
facet normal -1 0 0
outer loop
vertex 1.7195592721388337e-15 38.28125642703276 40.01746594469427
vertex 0 0 38.60051383482716
vertex 0 0 40.017465944693754
endloop
endfacet
facet normal -1 0 0
outer loop
vertex 0 93.6 40.017465944693754
vertex 0 93.6 38.60051383482716
vertex 1.806322565433541e-15 52.66781262959812 38.60051383482684
endloop
endfacet
facet normal -1 0 0
outer loop
vertex 0 93.6 40.017465944693754
vertex 1.806322565433541e-15 52.66781262959812 38.60051383482684
vertex 1.7195592721388337e-15 55.31874357296718 40.01746594469438
endloop
endfacet
facet normal -1 0 0
outer loop
vertex 1.806322565433541e-15 40.93218737040195 38.60051383482692
vertex 1.8597511376404067e-15 43.80861506241936 37.727959033817136
vertex 0 0 37.72795903381716
endloop
endfacet
facet normal -1 0 0
outer loop
vertex 1.806322565433541e-15 40.93218737040195 38.60051383482692
vertex 0 0 37.72795903381716
vertex 0 0 38.60051383482716
endloop
endfacet
facet normal -1 0 0
outer loop
vertex 0 93.6 38.60051383482716
vertex 0 93.6 37.72795903381716
vertex 1.8597511376404067e-15 49.791384937580645 37.72795903381716
endloop
endfacet
facet normal -1 0 0
outer loop
vertex 0 93.6 38.60051383482716
vertex 1.8597511376404067e-15 49.791384937580645 37.72795903381716
vertex 1.806322565433541e-15 52.66781262959812 38.60051383482684
endloop
endfacet
facet normal -1 0 0
outer loop
vertex 1.8597511376404067e-15 43.80861506241936 37.727959033817136
vertex 1.8777917586926084e-15 46.800000000000004 37.43333333333336
vertex 0 0 37.433333333333344
endloop
endfacet
facet normal -1 0 0
outer loop
vertex 1.8597511376404067e-15 43.80861506241936 37.727959033817136
vertex 0 0 37.433333333333344
vertex 0 0 37.72795903381716
endloop
endfacet
facet normal -1 0 0
outer loop
vertex 0 93.6 37.72795903381716
vertex 0 93.6 37.433333333333344
vertex 1.8777917586926084e-15 46.800000000000004 37.43333333333336
endloop
endfacet
facet normal -1 0 0
outer loop
vertex 0 93.6 37.72795903381716
vertex 1.8777917586926084e-15 46.800000000000004 37.43333333333336
vertex 1.8597511376404067e-15 49.791384937580645 37.72795903381716
endloop
endfacet
facet normal -1 -4.012375552761984e-17 0
outer loop
vertex 1.8777917586926084e-15 46.800000000000004 37.43333333333336
vertex 0 93.6 37.433333333333344
vertex 0 93.6 0
endloop
endfacet
facet normal -1 -4.012375552761984e-17 0
outer loop
vertex 1.8777917586926084e-15 46.800000000000004 37.43333333333336
vertex 0 93.6 0
vertex 0 0 0
endloop
endfacet
facet normal -1 -4.012375552761984e-17 0
outer loop
vertex 1.8777917586926084e-15 46.800000000000004 37.43333333333336
vertex 0 0 0
vertex 0 0 37.433333333333344
endloop
endfacet
facet normal 1 0 0
outer loop
vertex 36 93.6 0
vertex 36 93.6 37.43333333333335
vertex 36 46.800000000000004 37.43333333333336
endloop
endfacet
facet normal 1 0 0
outer loop
vertex 36 93.6 0
vertex 36 46.800000000000004 37.43333333333336
vertex 36 0 37.43333333333335
endloop
endfacet
facet normal 1 0 0
outer loop
vertex 36 93.6 0
vertex 36 0 37.43333333333335
vertex 36 0 0
endloop
endfacet
facet normal 1 0 0
outer loop
vertex 36 46.800000000000004 37.43333333333336
vertex 36 43.80861506241936 37.727959033817136
vertex 36 0 37.727959033817164
endloop
endfacet
facet normal 1 0 0
outer loop
vertex 36 46.800000000000004 37.43333333333336
vertex 36 0 37.727959033817164
vertex 36 0 37.43333333333335
endloop
endfacet
facet normal 1 0 0
outer loop
vertex 36 93.6 37.43333333333335
vertex 36 93.6 37.727959033817164
vertex 36 49.791384937580645 37.72795903381716
endloop
endfacet
facet normal 1 0 0
outer loop
vertex 36 93.6 37.43333333333335
vertex 36 49.791384937580645 37.72795903381716
vertex 36 46.800000000000004 37.43333333333336
endloop
endfacet
facet normal 1 0 0
outer loop
vertex 36 43.80861506241936 37.727959033817136
vertex 36 40.93218737040195 38.60051383482692
vertex 36 0 38.60051383482717
endloop
endfacet
facet normal 1 0 0
outer loop
vertex 36 43.80861506241936 37.727959033817136
vertex 36 0 38.60051383482717
vertex 36 0 37.727959033817164
endloop
endfacet
facet normal 1 0 0
outer loop
vertex 36 93.6 37.727959033817164
vertex 36 93.6 38.60051383482717
vertex 36 52.66781262959812 38.60051383482684
endloop
endfacet
facet normal 1 0 0
outer loop
vertex 36 93.6 37.727959033817164
vertex 36 52.66781262959812 38.60051383482684
vertex 36 49.791384937580645 37.72795903381716
endloop
endfacet
facet normal 1 0 0
outer loop
vertex 36 40.93218737040195 38.60051383482692
vertex 36.000000000000014 38.28125642703276 40.01746594469427
vertex 36 0 40.01746594469374
endloop
endfacet
facet normal 1 0 0
outer loop
vertex 36 40.93218737040195 38.60051383482692
vertex 36 0 40.01746594469374
vertex 36 0 38.60051383482717
endloop
endfacet
facet normal 1 0 0
outer loop
vertex 36 93.6 38.60051383482717
vertex 36 93.6 40.01746594469374
vertex 36.000000000000014 55.31874357296718 40.01746594469438
endloop
endfacet
facet normal 1 0 0
outer loop
vertex 36 93.6 38.60051383482717
vertex 36.000000000000014 55.31874357296718 40.01746594469438
vertex 36 52.66781262959812 38.60051383482684
endloop
endfacet
facet normal 1 0 0
outer loop
vertex 36.000000000000014 38.28125642703276 40.01746594469427
vertex 36 35.95769602180627 41.92436268847293
vertex 36 0 41.924362688472925
endloop
endfacet
facet normal 1 0 0
outer loop
vertex 36.000000000000014 38.28125642703276 40.01746594469427
vertex 36 0 41.924362688472925
vertex 36 0 40.01746594469374
endloop
endfacet
facet normal 1 0 0
outer loop
vertex 36 93.6 40.01746594469374
vertex 36 93.6 41.924362688472925
vertex 36 57.64230397819367 41.924362688473
endloop
endfacet
facet normal 1 0 0
outer loop
vertex 36 93.6 40.01746594469374
vertex 36 57.64230397819367 41.924362688473
vertex 36.000000000000014 55.31874357296718 40.01746594469438
endloop
endfacet
facet normal 1 0 0
outer loop
vertex 36 35.95769602180627 41.92436268847293
vertex 36.000000000000014 34.05079927802763 44.24792309369944
vertex 36 0 44.24792309369997
endloop
endfacet
facet normal 1 0 0
outer loop
vertex 36 35.95769602180627 41.92436268847293
vertex 36 0 44.24792309369997
vertex 36 0 41.924362688472925
endloop
endfacet
facet normal 1 0 0
outer loop
vertex 36 93.6 41.924362688472925
vertex 36 93.6 44.24792309369997
vertex 36.000000000000014 59.54920072197241 44.24792309369943
endloop
endfacet
facet normal 1 0 0
outer loop
vertex 36 93.6 41.924362688472925
vertex 36.000000000000014 59.54920072197241 44.24792309369943
vertex 36 57.64230397819367 41.924362688473
endloop
endfacet
facet normal 1 0 0
outer loop
vertex 36.000000000000014 34.05079927802763 44.24792309369944
vertex 36 32.633847168160266 46.89885403706862
vertex 36 0 46.89885403706823
endloop
endfacet
facet normal 1 0 0
outer loop
vertex 36.000000000000014 34.05079927802763 44.24792309369944
vertex 36 0 46.89885403706823
vertex 36 0 44.24792309369997
endloop
endfacet
facet normal 1 0 0
outer loop
vertex 36 93.6 44.24792309369997
vertex 36 93.6 46.89885403706823
vertex 36 60.96615283183969 46.898854037068645
endloop
endfacet
facet normal 1 0 0
outer loop
vertex 36 93.6 44.24792309369997
vertex 36 60.96615283183969 46.898854037068645
vertex 36.000000000000014 59.54920072197241 44.24792309369943
endloop
endfacet
facet normal 1 0 0
outer loop
vertex 36 32.633847168160266 46.89885403706862
vertex 36 31.76129236715046 49.775281729086004
vertex 36 0 49.77528172908575
endloop
endfacet
facet normal 1 0 0
outer loop
vertex 36 32.633847168160266 46.89885403706862
vertex 36 0 49.77528172908575
vertex 36 0 46.89885403706823
endloop
endfacet
facet normal 1 0 0
outer loop
vertex 36 93.6 46.89885403706823
vertex 36 93.6 49.77528172908575
vertex 36 61.838707632849435 49.775281729086025
endloop
endfacet
facet normal 1 0 0
outer loop
vertex 36 93.6 46.89885403706823
vertex 36 61.838707632849435 49.775281729086025
vertex 36 60.96615283183969 46.898854037068645
endloop
endfacet
facet normal 1 0 0
outer loop
vertex 36 31.76129236715046 49.775281729086004
vertex 36 31.172040966182827 55.758051604247285
vertex 36 30.299486165173104 58.63447929626472
endloop
endfacet
facet normal 1 0 0
outer loop
vertex 36 31.76129236715046 49.775281729086004
vertex 36 30.299486165173104 58.63447929626472
vertex 36 28.88253405530573 61.285410239633926
endloop
endfacet
facet normal 1 0 0
outer loop
vertex 36 31.76129236715046 49.775281729086004
vertex 36 28.88253405530573 61.285410239633926
vertex 36 26.975637311527123 63.60897064486046
endloop
endfacet
facet normal 1 0 0
outer loop
vertex 36 31.76129236715046 49.775281729086004
vertex 36 26.975637311527123 63.60897064486046
vertex 36.000000000000014 24.652076906300515 65.51586738863894
endloop
endfacet
facet normal 1 0 0
outer loop
vertex 36 31.76129236715046 49.775281729086004
vertex 36.000000000000014 24.652076906300515 65.51586738863894
vertex 36.000000000000014 22.001145962931325 66.93281949850629
endloop
endfacet
facet normal 1 0 0
outer loop
vertex 36 31.76129236715046 49.775281729086004
vertex 36.000000000000014 22.001145962931325 66.93281949850629
vertex 36 20.131402424782557 67.5
endloop
endfacet
facet normal 1 0 0
outer loop
vertex 36 31.76129236715046 49.775281729086004
vertex 36 20.131402424782557 67.5
vertex 36 0.8 67.5
endloop
endfacet
facet normal 1 0 0
outer loop
vertex 36 31.76129236715046 49.775281729086004
vertex 36 0.8 67.5
vertex 36 0 67.5
endloop
endfacet
facet normal 1 0 0
outer loop
vertex 36 31.76129236715046 49.775281729086004
vertex 36 0 67.5
vertex 36 0 49.77528172908575
endloop
endfacet
facet normal 1 0 0
outer loop
vertex 36 93.6 49.77528172908575
vertex 36 93.6 67.5
vertex 36 92.8 67.5
endloop
endfacet
facet normal 1 0 0
outer loop
vertex 36 93.6 49.77528172908575
vertex 36 92.8 67.5
vertex 36 73.46859757521707 67.5
endloop
endfacet
facet normal 1 0 0
outer loop
vertex 36 93.6 49.77528172908575
vertex 36 73.46859757521707 67.5
vertex 36 71.5988540370686 66.93281949850639
endloop
endfacet
facet normal 1 0 0
outer loop
vertex 36 93.6 49.77528172908575
vertex 36 71.5988540370686 66.93281949850639
vertex 36 68.94792309369944 65.51586738863902
endloop
endfacet
facet normal 1 0 0
outer loop
vertex 36 93.6 49.77528172908575
vertex 36 68.94792309369944 65.51586738863902
vertex 36.000000000000014 66.62436268847294 63.60897064486041
endloop
endfacet
facet normal 1 0 0
outer loop
vertex 36 93.6 49.77528172908575
vertex 36.000000000000014 66.62436268847294 63.60897064486041
vertex 36 64.71746594469434 61.2854102396339
endloop
endfacet
facet normal 1 0 0
outer loop
vertex 36 93.6 49.77528172908575
vertex 36 64.71746594469434 61.2854102396339
vertex 36 63.300513834826965 58.634479296264686
endloop
endfacet
facet normal 1 0 0
outer loop
vertex 36 93.6 49.77528172908575
vertex 36 63.300513834826965 58.634479296264686
vertex 36 62.427959033817075 55.75805160424729
endloop
endfacet
facet normal 1 0 0
outer loop
vertex 36 93.6 49.77528172908575
vertex 36 62.427959033817075 55.75805160424729
vertex 36 61.838707632849435 49.775281729086025
endloop
endfacet
facet normal 1 -6.275173617446538e-17 0
outer loop
vertex 0.8 92.8 1
vertex 0.8 92.8 37.433333333333344
vertex 0.7999999999999972 46.800000000000004 37.43333333333336
endloop
endfacet
facet normal 1 -6.275173617446538e-17 0
outer loop
vertex 0.8 92.8 1
vertex 0.7999999999999972 46.800000000000004 37.43333333333336
vertex 0.8 0.8 37.433333333333344
endloop
endfacet
facet normal 1 -6.275173617446538e-17 0
outer loop
vertex 0.8 92.8 1
vertex 0.8 0.8 37.433333333333344
vertex 0.8 0.8 1
endloop
endfacet
facet normal 1 0 0
outer loop
vertex 0.7999999999999972 46.800000000000004 37.43333333333336
vertex 0.7999999999999972 43.80861506241936 37.727959033817136
vertex 0.8 0.8 37.72795903381716
endloop
endfacet
facet normal 1 0 0
outer loop
vertex 0.7999999999999972 46.800000000000004 37.43333333333336
vertex 0.8 0.8 37.72795903381716
vertex 0.8 0.8 37.433333333333344
endloop
endfacet
facet normal 1 0 0
outer loop
vertex 0.8 92.8 37.433333333333344
vertex 0.8 92.8 37.72795903381716
vertex 0.7999999999999972 49.791384937580645 37.72795903381716
endloop
endfacet
facet normal 1 0 0
outer loop
vertex 0.8 92.8 37.433333333333344
vertex 0.7999999999999972 49.791384937580645 37.72795903381716
vertex 0.7999999999999972 46.800000000000004 37.43333333333336
endloop
endfacet
facet normal 1 0 0
outer loop
vertex 0.7999999999999972 43.80861506241936 37.727959033817136
vertex 0.7999999999999972 40.93218737040195 38.60051383482692
vertex 0.8 0.8 38.600513834827154
endloop
endfacet
facet normal 1 0 0
outer loop
vertex 0.7999999999999972 43.80861506241936 37.727959033817136
vertex 0.8 0.8 38.600513834827154
vertex 0.8 0.8 37.72795903381716
endloop
endfacet
facet normal 1 0 0
outer loop
vertex 0.8 92.8 37.72795903381716
vertex 0.8 92.8 38.600513834827154
vertex 0.7999999999999972 52.66781262959812 38.60051383482684
endloop
endfacet
facet normal 1 0 0
outer loop
vertex 0.8 92.8 37.72795903381716
vertex 0.7999999999999972 52.66781262959812 38.60051383482684
vertex 0.7999999999999972 49.791384937580645 37.72795903381716
endloop
endfacet
facet normal 1 0 0
outer loop
vertex 0.7999999999999972 40.93218737040195 38.60051383482692
vertex 0.7999999999999976 38.28125642703276 40.01746594469427
vertex 0.8 0.8 40.017465944693775
endloop
endfacet
facet normal 1 0 0
outer loop
vertex 0.7999999999999972 40.93218737040195 38.60051383482692
vertex 0.8 0.8 40.017465944693775
vertex 0.8 0.8 38.600513834827154
endloop
endfacet
facet normal 1 0 0
outer loop
vertex 0.8 92.8 38.600513834827154
vertex 0.8 92.8 40.017465944693775
vertex 0.7999999999999976 55.31874357296718 40.01746594469438
endloop
endfacet
facet normal 1 0 0
outer loop
vertex 0.8 92.8 38.600513834827154
vertex 0.7999999999999976 55.31874357296718 40.01746594469438
vertex 0.7999999999999972 52.66781262959812 38.60051383482684
endloop
endfacet
facet normal 1 0 0
outer loop
vertex 0.7999999999999976 38.28125642703276 40.01746594469427
vertex 0.7999999999999972 35.95769602180627 41.92436268847293
vertex 0.8 0.8 41.92436268847291
endloop
endfacet
facet normal 1 0 0
outer loop
vertex 0.7999999999999976 38.28125642703276 40.01746594469427
vertex 0.8 0.8 41.92436268847291
vertex 0.8 0.8 40.017465944693775
endloop
endfacet
facet normal 1 0 0
outer loop
vertex 0.8 92.8 40.017465944693775
vertex 0.8 92.8 41.92436268847291
vertex 0.7999999999999972 57.64230397819367 41.924362688473
endloop
endfacet
facet normal 1 0 0
outer loop
vertex 0.8 92.8 40.017465944693775
vertex 0.7999999999999972 57.64230397819367 41.924362688473
vertex 0.7999999999999976 55.31874357296718 40.01746594469438
endloop
endfacet
facet normal 1 0 0
outer loop
vertex 0.7999999999999972 35.95769602180627 41.92436268847293
vertex 0.7999999999999976 34.05079927802763 44.24792309369944
vertex 0.8 0.8 44.24792309369996
endloop
endfacet
facet normal 1 0 0
outer loop
vertex 0.7999999999999972 35.95769602180627 41.92436268847293
vertex 0.8 0.8 44.24792309369996
vertex 0.8 0.8 41.92436268847291
endloop
endfacet
facet normal 1 0 0
outer loop
vertex 0.8 92.8 41.92436268847291
vertex 0.8 92.8 44.24792309369996
vertex 0.7999999999999976 59.54920072197241 44.24792309369943
endloop
endfacet
facet normal 1 0 0
outer loop
vertex 0.8 92.8 41.92436268847291
vertex 0.7999999999999976 59.54920072197241 44.24792309369943
vertex 0.7999999999999972 57.64230397819367 41.924362688473
endloop
endfacet
facet normal 1 0 0
outer loop
vertex 0.7999999999999976 34.05079927802763 44.24792309369944
vertex 0.7999999999999972 32.633847168160266 46.89885403706862
vertex 0.8 0.8 46.898854037068254
endloop
endfacet
facet normal 1 0 0
outer loop
vertex 0.7999999999999976 34.05079927802763 44.24792309369944
vertex 0.8 0.8 46.898854037068254
vertex 0.8 0.8 44.24792309369996
endloop
endfacet
facet normal 1 0 0
outer loop
vertex 0.8 92.8 44.24792309369996
vertex 0.8 92.8 46.898854037068254
vertex 0.7999999999999972 60.96615283183969 46.898854037068645
endloop
endfacet
facet normal 1 0 0
outer loop
vertex 0.8 92.8 44.24792309369996
vertex 0.7999999999999972 60.96615283183969 46.898854037068645
vertex 0.7999999999999976 59.54920072197241 44.24792309369943
endloop
endfacet
facet normal 1 0 0
outer loop
vertex 0.7999999999999972 32.633847168160266 46.89885403706862
vertex 0.7999999999999972 31.76129236715046 49.775281729086004
vertex 0.8 0.8 49.775281729085734
endloop
endfacet
facet normal 1 0 0
outer loop
vertex 0.7999999999999972 32.633847168160266 46.89885403706862
vertex 0.8 0.8 49.775281729085734
vertex 0.8 0.8 46.898854037068254
endloop
endfacet
facet normal 1 0 0
outer loop
vertex 0.8 92.8 46.898854037068254
vertex 0.8 92.8 49.775281729085734
vertex 0.7999999999999972 61.838707632849435 49.775281729086025
endloop
endfacet
facet normal 1 0 0
outer loop
vertex 0.8 92.8 46.898854037068254
vertex 0.7999999999999972 61.838707632849435 49.775281729086025
vertex 0.7999999999999972 60.96615283183969 46.898854037068645
endloop
endfacet
facet normal 1 0 0
outer loop
vertex 0.7999999999999972 31.76129236715046 49.775281729086004
vertex 0.7999999999999972 31.172040966182827 55.758051604247285
vertex 0.8 30.299486165173104 58.63447929626472
endloop
endfacet
facet normal 1 0 0
outer loop
vertex 0.7999999999999972 31.76129236715046 49.775281729086004
vertex 0.8 30.299486165173104 58.63447929626472
vertex 0.7999999999999972 28.88253405530573 61.285410239633926
endloop
endfacet
facet normal 1 0 0
outer loop
vertex 0.7999999999999972 31.76129236715046 49.775281729086004
vertex 0.7999999999999972 28.88253405530573 61.285410239633926
vertex 0.8 26.975637311527123 63.60897064486046
endloop
endfacet
facet normal 1 0 0
outer loop
vertex 0.7999999999999972 31.76129236715046 49.775281729086004
vertex 0.8 26.975637311527123 63.60897064486046
vertex 0.8000000000000005 24.652076906300515 65.51586738863894
endloop
endfacet
facet normal 1 0 0
outer loop
vertex 0.7999999999999972 31.76129236715046 49.775281729086004
vertex 0.8000000000000005 24.652076906300515 65.51586738863894
vertex 0.7999999999999976 22.001145962931325 66.93281949850629
endloop
endfacet
facet normal 1 0 0
outer loop
vertex 0.7999999999999972 31.76129236715046 49.775281729086004
vertex 0.7999999999999976 22.001145962931325 66.93281949850629
vertex 0.8 20.131402424782557 67.5
endloop
endfacet
facet normal 1 0 0
outer loop
vertex 0.7999999999999972 31.76129236715046 49.775281729086004
vertex 0.8 20.131402424782557 67.5
vertex 0.8 0.8 67.5
endloop
endfacet
facet normal 1 0 0
outer loop
vertex 0.7999999999999972 31.76129236715046 49.775281729086004
vertex 0.8 0.8 67.5
vertex 0.8 0.8 49.775281729085734
endloop
endfacet
facet normal 1 0 0
outer loop
vertex 0.8 92.8 49.775281729085734
vertex 0.8 92.8 67.5
vertex 0.8 73.46859757521707 67.5
endloop
endfacet
facet normal 1 0 0
outer loop
vertex 0.8 92.8 49.775281729085734
vertex 0.8 73.46859757521707 67.5
vertex 0.8 71.5988540370686 66.93281949850639
endloop
endfacet
facet normal 1 0 0
outer loop
vertex 0.8 92.8 49.775281729085734
vertex 0.8 71.5988540370686 66.93281949850639
vertex 0.8 68.94792309369944 65.51586738863902
endloop
endfacet
facet normal 1 0 0
outer loop
vertex 0.8 92.8 49.775281729085734
vertex 0.8 68.94792309369944 65.51586738863902
vertex 0.8000000000000005 66.62436268847294 63.60897064486041
endloop
endfacet
facet normal 1 0 0
outer loop
vertex 0.8 92.8 49.775281729085734
vertex 0.8000000000000005 66.62436268847294 63.60897064486041
vertex 0.8 64.71746594469434 61.2854102396339
endloop
endfacet
facet normal 1 0 0
outer loop
vertex 0.8 92.8 49.775281729085734
vertex 0.8 64.71746594469434 61.2854102396339
vertex 0.8 63.300513834826965 58.634479296264686
endloop
endfacet
facet normal 1 0 0
outer loop
vertex 0.8 92.8 49.775281729085734
vertex 0.8 63.300513834826965 58.634479296264686
vertex 0.8 62.427959033817075 55.75805160424729
endloop
endfacet
facet normal 1 0 0
outer loop
vertex 0.8 92.8 49.775281729085734
vertex 0.8 62.427959033817075 55.75805160424729
vertex 0.7999999999999972 61.838707632849435 49.775281729086025
endloop
endfacet
facet normal -1 0 0
outer loop
vertex 35.199999999999996 20.131402424782557 67.5
vertex 35.20000000000001 22.001145962931325 66.93281949850629
vertex 35.20000000000001 24.652076906300515 65.51586738863894
endloop
endfacet
facet normal -1 0 0
outer loop
vertex 35.199999999999996 20.131402424782557 67.5
vertex 35.20000000000001 24.652076906300515 65.51586738863894
vertex 35.199999999999996 26.975637311527123 63.60897064486046
endloop
endfacet
facet normal -1 0 0
outer loop
vertex 35.199999999999996 20.131402424782557 67.5
vertex 35.199999999999996 26.975637311527123 63.60897064486046
vertex 35.199999999999996 28.88253405530573 61.285410239633926
endloop
endfacet
facet normal -1 0 0
outer loop
vertex 35.199999999999996 20.131402424782557 67.5
vertex 35.199999999999996 28.88253405530573 61.285410239633926
vertex 35.199999999999996 30.299486165173104 58.63447929626472
endloop
endfacet
facet normal -1 0 0
outer loop
vertex 35.199999999999996 20.131402424782557 67.5
vertex 35.199999999999996 30.299486165173104 58.63447929626472
vertex 35.199999999999996 31.172040966182827 55.758051604247285
endloop
endfacet
facet normal -1 0 0
outer loop
vertex 35.199999999999996 20.131402424782557 67.5
vertex 35.199999999999996 31.172040966182827 55.758051604247285
vertex 35.199999999999996 31.76129236715046 49.775281729086004
endloop
endfacet
facet normal -1 0 0
outer loop
vertex 35.199999999999996 20.131402424782557 67.5
vertex 35.199999999999996 31.76129236715046 49.775281729086004
vertex 35.199999999999996 0.8 49.7752817290857
endloop
endfacet
facet normal -1 0 0
outer loop
vertex 35.199999999999996 20.131402424782557 67.5
vertex 35.199999999999996 0.8 49.7752817290857
vertex 35.199999999999996 0.8 67.5
endloop
endfacet
facet normal -1 0 0
outer loop
vertex 35.199999999999996 92.8 67.5
vertex 35.199999999999996 92.8 49.7752817290857
vertex 35.199999999999996 61.838707632849435 49.775281729086025
endloop
endfacet
facet normal -1 0 0
outer loop
vertex 35.199999999999996 92.8 67.5
vertex 35.199999999999996 61.838707632849435 49.775281729086025
vertex 35.199999999999996 62.427959033817075 55.75805160424729
endloop
endfacet
facet normal -1 0 0
outer loop
vertex 35.199999999999996 92.8 67.5
vertex 35.199999999999996 62.427959033817075 55.75805160424729
vertex 35.199999999999996 63.300513834826965 58.634479296264686
endloop
endfacet
facet normal -1 0 0
outer loop
vertex 35.199999999999996 92.8 67.5
vertex 35.199999999999996 63.300513834826965 58.634479296264686
vertex 35.199999999999996 64.71746594469434 61.2854102396339
endloop
endfacet
facet normal -1 0 0
outer loop
vertex 35.199999999999996 92.8 67.5
vertex 35.199999999999996 64.71746594469434 61.2854102396339
vertex 35.20000000000001 66.62436268847294 63.60897064486041
endloop
endfacet
facet normal -1 0 0
outer loop
vertex 35.199999999999996 92.8 67.5
vertex 35.20000000000001 66.62436268847294 63.60897064486041
vertex 35.199999999999996 68.94792309369944 65.51586738863902
endloop
endfacet
facet normal -1 0 0
outer loop
vertex 35.199999999999996 92.8 67.5
vertex 35.199999999999996 68.94792309369944 65.51586738863902
vertex 35.199999999999996 71.5988540370686 66.93281949850639
endloop
endfacet
facet normal -1 0 0
outer loop
vertex 35.199999999999996 92.8 67.5
vertex 35.199999999999996 71.5988540370686 66.93281949850639
vertex 35.199999999999996 73.46859757521707 67.5
endloop
endfacet
facet normal -1 0 0
outer loop
vertex 35.199999999999996 31.76129236715046 49.775281729086004
vertex 35.199999999999996 32.633847168160266 46.89885403706862
vertex 35.199999999999996 0.8 46.89885403706826
endloop
endfacet
facet normal -1 0 0
outer loop
vertex 35.199999999999996 31.76129236715046 49.775281729086004
vertex 35.199999999999996 0.8 46.89885403706826
vertex 35.199999999999996 0.8 49.7752817290857
endloop
endfacet
facet normal -1 0 0
outer loop
vertex 35.199999999999996 92.8 49.7752817290857
vertex 35.199999999999996 92.8 46.89885403706826
vertex 35.199999999999996 60.96615283183969 46.898854037068645
endloop
endfacet
facet normal -1 0 0
outer loop
vertex 35.199999999999996 92.8 49.7752817290857
vertex 35.199999999999996 60.96615283183969 46.898854037068645
vertex 35.199999999999996 61.838707632849435 49.775281729086025
endloop
endfacet
facet normal -1 0 0
outer loop
vertex 35.199999999999996 32.633847168160266 46.89885403706862
vertex 35.20000000000001 34.05079927802763 44.24792309369944
vertex 35.199999999999996 0.8 44.24792309369998
endloop
endfacet
facet normal -1 0 0
outer loop
vertex 35.199999999999996 32.633847168160266 46.89885403706862
vertex 35.199999999999996 0.8 44.24792309369998
vertex 35.199999999999996 0.8 46.89885403706826
endloop
endfacet
facet normal -1 0 0
outer loop
vertex 35.199999999999996 92.8 46.89885403706826
vertex 35.199999999999996 92.8 44.24792309369998
vertex 35.20000000000001 59.54920072197241 44.24792309369943
endloop
endfacet
facet normal -1 0 0
outer loop
vertex 35.199999999999996 92.8 46.89885403706826
vertex 35.20000000000001 59.54920072197241 44.24792309369943
vertex 35.199999999999996 60.96615283183969 46.898854037068645
endloop
endfacet
facet normal -1 0 0
outer loop
vertex 35.20000000000001 34.05079927802763 44.24792309369944
vertex 35.199999999999996 35.95769602180627 41.92436268847293
vertex 35.199999999999996 0.8 41.92436268847295
endloop
endfacet
facet normal -1 0 0
outer loop
vertex 35.20000000000001 34.05079927802763 44.24792309369944
vertex 35.199999999999996 0.8 41.92436268847295
vertex 35.199999999999996 0.8 44.24792309369998
endloop
endfacet
facet normal -1 0 0
outer loop
vertex 35.199999999999996 92.8 44.24792309369998
vertex 35.199999999999996 92.8 41.92436268847295
vertex 35.199999999999996 57.64230397819367 41.924362688473
endloop
endfacet
facet normal -1 0 0
outer loop
vertex 35.199999999999996 92.8 44.24792309369998
vertex 35.199999999999996 57.64230397819367 41.924362688473
vertex 35.20000000000001 59.54920072197241 44.24792309369943
endloop
endfacet
facet normal -1 0 0
outer loop
vertex 35.199999999999996 35.95769602180627 41.92436268847293
vertex 35.20000000000001 38.28125642703276 40.01746594469427
vertex 35.199999999999996 0.8 40.01746594469374
endloop
endfacet
facet normal -1 0 0
outer loop
vertex 35.199999999999996 35.95769602180627 41.92436268847293
vertex 35.199999999999996 0.8 40.01746594469374
vertex 35.199999999999996 0.8 41.92436268847295
endloop
endfacet
facet normal -1 0 0
outer loop
vertex 35.199999999999996 92.8 41.92436268847295
vertex 35.199999999999996 92.8 40.01746594469374
vertex 35.20000000000001 55.31874357296718 40.01746594469438
endloop
endfacet
facet normal -1 0 0
outer loop
vertex 35.199999999999996 92.8 41.92436268847295
vertex 35.20000000000001 55.31874357296718 40.01746594469438
vertex 35.199999999999996 57.64230397819367 41.924362688473
endloop
endfacet
facet normal -1 0 0
outer loop
vertex 35.20000000000001 38.28125642703276 40.01746594469427
vertex 35.199999999999996 40.93218737040195 38.60051383482692
vertex 35.199999999999996 0.8 38.60051383482717
endloop
endfacet
facet normal -1 0 0
outer loop
vertex 35.20000000000001 38.28125642703276 40.01746594469427
vertex 35.199999999999996 0.8 38.60051383482717
vertex 35.199999999999996 0.8 40.01746594469374
endloop
endfacet
facet normal -1 0 0
outer loop
vertex 35.199999999999996 92.8 40.01746594469374
vertex 35.199999999999996 92.8 38.60051383482717
vertex 35.199999999999996 52.66781262959812 38.60051383482684
endloop
endfacet
facet normal -1 0 0
outer loop
vertex 35.199999999999996 92.8 40.01746594469374
vertex 35.199999999999996 52.66781262959812 38.60051383482684
vertex 35.20000000000001 55.31874357296718 40.01746594469438
endloop
endfacet
facet normal -1 0 0
outer loop
vertex 35.199999999999996 40.93218737040195 38.60051383482692
vertex 35.199999999999996 43.80861506241936 37.727959033817136
vertex 35.199999999999996 0.8 37.72795903381715
endloop
endfacet
facet normal -1 0 0
outer loop
vertex 35.199999999999996 40.93218737040195 38.60051383482692
vertex 35.199999999999996 0.8 37.72795903381715
vertex 35.199999999999996 0.8 38.60051383482717
endloop
endfacet
facet normal -1 0 0
outer loop
vertex 35.199999999999996 92.8 38.60051383482717
vertex 35.199999999999996 92.8 37.72795903381715
vertex 35.199999999999996 49.791384937580645 37.72795903381716
endloop
endfacet
facet normal -1 0 0
outer loop
vertex 35.199999999999996 92.8 38.60051383482717
vertex 35.199999999999996 49.791384937580645 37.72795903381716
vertex 35.199999999999996 52.66781262959812 38.60051383482684
endloop
endfacet
facet normal -1 0 0
outer loop
vertex 35.199999999999996 43.80861506241936 37.727959033817136
vertex 35.199999999999996 46.800000000000004 37.43333333333336
vertex 35.199999999999996 0.8 37.433333333333344
endloop
endfacet
facet normal -1 0 0
outer loop
vertex 35.199999999999996 43.80861506241936 37.727959033817136
vertex 35.199999999999996 0.8 37.433333333333344
vertex 35.199999999999996 0.8 37.72795903381715
endloop
endfacet
facet normal -1 0 0
outer loop
vertex 35.199999999999996 92.8 37.72795903381715
vertex 35.199999999999996 92.8 37.433333333333344
vertex 35.199999999999996 46.800000000000004 37.43333333333336
endloop
endfacet
facet normal -1 0 0
outer loop
vertex 35.199999999999996 92.8 37.72795903381715
vertex 35.199999999999996 46.800000000000004 37.43333333333336
vertex 35.199999999999996 49.791384937580645 37.72795903381716
endloop
endfacet
facet normal -1 0 0
outer loop
vertex 35.199999999999996 46.800000000000004 37.43333333333336
vertex 35.199999999999996 92.8 37.433333333333344
vertex 35.199999999999996 92.8 1
endloop
endfacet
facet normal -1 0 0
outer loop
vertex 35.199999999999996 46.800000000000004 37.43333333333336
vertex 35.199999999999996 92.8 1
vertex 35.199999999999996 0.8 1
endloop
endfacet
facet normal -1 0 0
outer loop
vertex 35.199999999999996 46.800000000000004 37.43333333333336
vertex 35.199999999999996 0.8 1
vertex 35.199999999999996 0.8 37.433333333333344
endloop
endfacet
endsolid csg.js
