solid csg.js
facet normal 0 -1 0
outer loop
vertex 0 0 49.775281729085705
vertex 0 0 46.898854037069285
vertex 0 0 44.24792309369898
endloop
endfacet
facet normal 0 -1 0
outer loop
vertex 0 0 49.775281729085705
vertex 0 0 44.24792309369898
vertex 0 0 41.9243626884725
endloop
endfacet
facet normal 0 -1 0
outer loop
vertex 0 0 49.775281729085705
vertex 0 0 41.9243626884725
vertex 0 0 40.01746594469412
endloop
endfacet
facet normal 0 -1 0
outer loop
vertex 0 0 49.775281729085705
vertex 0 0 40.01746594469412
vertex 0 0 38.600513834827105
endloop
endfacet
facet normal 0 -1 0
outer loop
vertex 0 0 49.775281729085705
vertex 0 0 38.600513834827105
vertex 0 0 37.727959033817164
endloop
endfacet
facet normal 0 -1 0
outer loop
vertex 0 0 49.775281729085705
vertex 0 0 37.727959033817164
vertex 0 0 37.433333333333344
endloop
endfacet
facet normal 0 -1 0
outer loop
vertex 0 0 49.775281729085705
vertex 0 0 37.433333333333344
vertex 0 0 0
endloop
endfacet
facet normal 0 -1 0
outer loop
vertex 0 0 49.775281729085705
vertex 0 0 0
vertex 55.6 0 0
endloop
endfacet
facet normal 0 -1 0
outer loop
vertex 0 0 49.775281729085705
vertex 55.6 0 0
vertex 55.6 0 37.43333333333335
endloop
endfacet
facet normal 0 -1 0
outer loop
vertex 0 0 49.775281729085705
vertex 55.6 0 37.43333333333335
vertex 55.6 0 37.727959033817164
endloop
endfacet
facet normal 0 -1 0
outer loop
vertex 0 0 49.775281729085705
vertex 55.6 0 37.727959033817164
vertex 55.6 0 38.600513834827105
endloop
endfacet
facet normal 0 -1 0
outer loop
vertex 0 0 49.775281729085705
vertex 55.6 0 38.600513834827105
vertex 55.6 0 40.01746594469414
endloop
endfacet
facet normal 0 -1 0
outer loop
vertex 0 0 49.775281729085705
vertex 55.6 0 40.01746594469414
vertex 55.6 0 41.924362688472485
endloop
endfacet
facet normal 0 -1 0
outer loop
vertex 0 0 49.775281729085705
vertex 55.6 0 41.924362688472485
vertex 55.6 0 44.247923093698994
endloop
endfacet
facet normal 0 -1 0
outer loop
vertex 0 0 49.775281729085705
vertex 55.6 0 44.247923093698994
vertex 55.6 0 46.89885403706925
endloop
endfacet
facet normal 0 -1 0
outer loop
vertex 0 0 49.775281729085705
vertex 55.6 0 46.89885403706925
vertex 55.6 0 49.77528172908575
endloop
endfacet
facet normal 0 -1 0
outer loop
vertex 0 0 49.775281729085705
vertex 55.6 0 49.77528172908575
vertex 55.6 0 67.5
endloop
endfacet
facet normal 0 -1 0
outer loop
vertex 0 0 49.775281729085705
vertex 55.6 0 67.5
vertex 0 0 67.5
endloop
endfacet
facet normal 0 1 0
outer loop
vertex 0 93.6 0
vertex 0 93.6 37.433333333333344
vertex 0 93.6 37.727959033817164
endloop
endfacet
facet normal 0 1 0
outer loop
vertex 0 93.6 0
vertex 0 93.6 37.727959033817164
vertex 0 93.6 38.600513834827105
endloop
endfacet
facet normal 0 1 0
outer loop
vertex 0 93.6 0
vertex 0 93.6 38.600513834827105
vertex 0 93.6 40.01746594469412
endloop
endfacet
facet normal 0 1 0
outer loop
vertex 0 93.6 0
vertex 0 93.6 40.01746594469412
vertex 0 93.6 41.9243626884725
endloop
endfacet
facet normal 0 1 0
outer loop
vertex 0 93.6 0
vertex 0 93.6 41.9243626884725
vertex 0 93.6 44.24792309369898
endloop
endfacet
facet normal 0 1 0
outer loop
vertex 0 93.6 0
vertex 0 93.6 44.24792309369898
vertex 0 93.6 46.898854037069285
endloop
endfacet
facet normal 0 1 0
outer loop
vertex 0 93.6 0
vertex 0 93.6 46.898854037069285
vertex 0 93.6 49.775281729085705
endloop
endfacet
facet normal 0 1 0
outer loop
vertex 0 93.6 0
vertex 0 93.6 49.775281729085705
vertex 0 93.6 67.5
endloop
endfacet
facet normal 0 1 0
outer loop
vertex 0 93.6 0
vertex 0 93.6 67.5
vertex 55.6 93.6 67.5
endloop
endfacet
facet normal 0 1 0
outer loop
vertex 0 93.6 0
vertex 55.6 93.6 67.5
vertex 55.6 93.6 49.77528172908575
endloop
endfacet
facet normal 0 1 0
outer loop
vertex 0 93.6 0
vertex 55.6 93.6 49.77528172908575
vertex 55.6 93.6 46.89885403706925
endloop
endfacet
facet normal 0 1 0
outer loop
vertex 0 93.6 0
vertex 55.6 93.6 46.89885403706925
vertex 55.6 93.6 44.247923093698994
endloop
endfacet
facet normal 0 1 0
outer loop
vertex 0 93.6 0
vertex 55.6 93.6 44.247923093698994
vertex 55.6 93.6 41.924362688472485
endloop
endfacet
facet normal 0 1 0
outer loop
vertex 0 93.6 0
vertex 55.6 93.6 41.924362688472485
vertex 55.6 93.6 40.01746594469414
endloop
endfacet
facet normal 0 1 0
outer loop
vertex 0 93.6 0
vertex 55.6 93.6 40.01746594469414
vertex 55.6 93.6 38.600513834827105
endloop
endfacet
facet normal 0 1 0
outer loop
vertex 0 93.6 0
vertex 55.6 93.6 38.600513834827105
vertex 55.6 93.6 37.727959033817164
endloop
endfacet
facet normal 0 1 0
outer loop
vertex 0 93.6 0
vertex 55.6 93.6 37.727959033817164
vertex 55.6 93.6 37.43333333333335
endloop
endfacet
facet normal 0 1 0
outer loop
vertex 0 93.6 0
vertex 55.6 93.6 37.43333333333335
vertex 55.6 93.6 0
endloop
endfacet
facet normal 0 0 -1
outer loop
vertex 0 0 0
vertex 0 93.6 0
vertex 55.6 93.6 0
endloop
endfacet
facet normal 0 0 -1
outer loop
vertex 0 0 0
vertex 55.6 93.6 0
vertex 55.6 0 0
endloop
endfacet
facet normal 0 1 0
outer loop
vertex 0.8 0.8 37.43333333333335
vertex 0.8 0.8 37.727959033817164
vertex 0.8 0.8 38.600513834827105
endloop
endfacet
facet normal 0 1 0
outer loop
vertex 0.8 0.8 37.43333333333335
vertex 0.8 0.8 38.600513834827105
vertex 0.8 0.8 40.017465944694116
endloop
endfacet
facet normal 0 1 0
outer loop
vertex 0.8 0.8 37.43333333333335
vertex 0.8 0.8 40.017465944694116
vertex 0.8 0.8 41.924362688472485
endloop
endfacet
facet normal 0 1 0
outer loop
vertex 0.8 0.8 37.43333333333335
vertex 0.8 0.8 41.924362688472485
vertex 0.8 0.8 44.247923093699015
endloop
endfacet
facet normal 0 1 0
outer loop
vertex 0.8 0.8 37.43333333333335
vertex 0.8 0.8 44.247923093699015
vertex 0.8 0.8 46.89885403706927
endloop
endfacet
facet normal 0 1 0
outer loop
vertex 0.8 0.8 37.43333333333335
vertex 0.8 0.8 46.89885403706927
vertex 0.8 0.8 49.775281729085734
endloop
endfacet
facet normal 0 1 0
outer loop
vertex 0.8 0.8 37.43333333333335
vertex 0.8 0.8 49.775281729085734
vertex 0.8 0.8 67.5
endloop
endfacet
facet normal 0 1 0
outer loop
vertex 0.8 0.8 37.43333333333335
vertex 0.8 0.8 67.5
vertex 54.8 0.8 67.5
endloop
endfacet
facet normal 0 1 0
outer loop
vertex 0.8 0.8 37.43333333333335
vertex 54.8 0.8 67.5
vertex 54.8 0.8 49.7752817290857
endloop
endfacet
facet normal 0 1 0
outer loop
vertex 0.8 0.8 37.43333333333335
vertex 54.8 0.8 49.7752817290857
vertex 54.8 0.8 46.89885403706928
endloop
endfacet
facet normal 0 1 0
outer loop
vertex 0.8 0.8 37.43333333333335
vertex 54.8 0.8 46.89885403706928
vertex 54.8 0.8 44.247923093699
endloop
endfacet
facet normal 0 1 0
outer loop
vertex 0.8 0.8 37.43333333333335
vertex 54.8 0.8 44.247923093699
vertex 54.8 0.8 41.92436268847251
endloop
endfacet
facet normal 0 1 0
outer loop
vertex 0.8 0.8 37.43333333333335
vertex 54.8 0.8 41.92436268847251
vertex 54.8 0.8 40.01746594469413
endloop
endfacet
facet normal 0 1 0
outer loop
vertex 0.8 0.8 37.43333333333335
vertex 54.8 0.8 40.01746594469413
vertex 54.8 0.8 38.6005138348271
endloop
endfacet
facet normal 0 1 0
outer loop
vertex 0.8 0.8 37.43333333333335
vertex 54.8 0.8 38.6005138348271
vertex 54.8 0.8 37.72795903381716
endloop
endfacet
facet normal 0 1 0
outer loop
vertex 0.8 0.8 37.43333333333335
vertex 54.8 0.8 37.72795903381716
vertex 54.8 0.8 37.433333333333344
endloop
endfacet
facet normal 0 1 0
outer loop
vertex 0.8 0.8 37.43333333333335
vertex 54.8 0.8 37.433333333333344
vertex 54.8 0.8 1
endloop
endfacet
facet normal 0 1 0
outer loop
vertex 0.8 0.8 37.43333333333335
vertex 54.8 0.8 1
vertex 0.8 0.8 1
endloop
endfacet
facet normal 0 -1 0
outer loop
vertex 54.8 92.8 1
vertex 54.8 92.8 37.433333333333344
vertex 54.8 92.8 37.72795903381716
endloop
endfacet
facet normal 0 -1 0
outer loop
vertex 54.8 92.8 1
vertex 54.8 92.8 37.72795903381716
vertex 54.8 92.8 38.6005138348271
endloop
endfacet
facet normal 0 -1 0
outer loop
vertex 54.8 92.8 1
vertex 54.8 92.8 38.6005138348271
vertex 54.8 92.8 40.01746594469413
endloop
endfacet
facet normal 0 -1 0
outer loop
vertex 54.8 92.8 1
vertex 54.8 92.8 40.01746594469413
vertex 54.8 92.8 41.92436268847251
endloop
endfacet
facet normal 0 -1 0
outer loop
vertex 54.8 92.8 1
vertex 54.8 92.8 41.92436268847251
vertex 54.8 92.8 44.247923093699
endloop
endfacet
facet normal 0 -1 0
outer loop
vertex 54.8 92.8 1
vertex 54.8 92.8 44.247923093699
vertex 54.8 92.8 46.89885403706928
endloop
endfacet
facet normal 0 -1 0
outer loop
vertex 54.8 92.8 1
vertex 54.8 92.8 46.89885403706928
vertex 54.8 92.8 49.7752817290857
endloop
endfacet
facet normal 0 -1 0
outer loop
vertex 54.8 92.8 1
vertex 54.8 92.8 49.7752817290857
vertex 54.8 92.8 67.5
endloop
endfacet
facet normal 0 -1 0
outer loop
vertex 54.8 92.8 1
vertex 54.8 92.8 67.5
vertex 0.8 92.8 67.5
endloop
endfacet
facet normal 0 -1 0
outer loop
vertex 54.8 92.8 1
vertex 0.8 92.8 67.5
vertex 0.8 92.8 49.775281729085734
endloop
endfacet
facet normal 0 -1 0
outer loop
vertex 54.8 92.8 1
vertex 0.8 92.8 49.775281729085734
vertex 0.8 92.8 46.89885403706927
endloop
endfacet
facet normal 0 -1 0
outer loop
vertex 54.8 92.8 1
vertex 0.8 92.8 46.89885403706927
vertex 0.8 92.8 44.247923093699015
endloop
endfacet
facet normal 0 -1 0
outer loop
vertex 54.8 92.8 1
vertex 0.8 92.8 44.247923093699015
vertex 0.8 92.8 41.924362688472485
endloop
endfacet
facet normal 0 -1 0
outer loop
vertex 54.8 92.8 1
vertex 0.8 92.8 41.924362688472485
vertex 0.8 92.8 40.017465944694116
endloop
endfacet
facet normal 0 -1 0
outer loop
vertex 54.8 92.8 1
vertex 0.8 92.8 40.017465944694116
vertex 0.8 92.8 38.600513834827105
endloop
endfacet
facet normal 0 -1 0
outer loop
vertex 54.8 92.8 1
vertex 0.8 92.8 38.600513834827105
vertex 0.8 92.8 37.727959033817164
endloop
endfacet
facet normal 0 -1 0
outer loop
vertex 54.8 92.8 1
vertex 0.8 92.8 37.727959033817164
vertex 0.8 92.8 37.43333333333335
endloop
endfacet
facet normal 0 -1 0
outer loop
vertex 54.8 92.8 1
vertex 0.8 92.8 37.43333333333335
vertex 0.8 92.8 1
endloop
endfacet
facet normal 0 0 1
outer loop
vertex 54.8 0.8 1
vertex 54.8 92.8 1
vertex 0.8 92.8 1
endloop
endfacet
facet normal 0 0 1
outer loop
vertex 54.8 0.8 1
vertex 0.8 92.8 1
vertex 0.8 0.8 1
endloop
endfacet
facet normal 0 0 1
outer loop
vertex 55.6 0 67.5
vertex 55.6 0.8 67.5
vertex 54.8 0.8 67.5
endloop
endfacet
facet normal 0 0 1
outer loop
vertex 55.6 0 67.5
vertex 54.8 0.8 67.5
vertex 0.8 0.8 67.5
endloop
endfacet
facet normal 0 0 1
outer loop
vertex 55.6 0 67.5
vertex 0.8 0.8 67.5
vertex 0 0.8 67.5
endloop
endfacet
facet normal 0 0 1
outer loop
vertex 55.6 0 67.5
vertex 0 0.8 67.5
vertex 0 0 67.5
endloop
endfacet
facet normal 0 0 1
outer loop
vertex 0.8 0.8 67.5
vertex 0.8 20.131402424782966 67.5
vertex 0 20.131402424782966 67.5
endloop
endfacet
facet normal 0 0 1
outer loop
vertex 0.8 0.8 67.5
vertex 0 20.131402424782966 67.5
vertex 0 0.8 67.5
endloop
endfacet
facet normal 0 0 1
outer loop
vertex 55.6 0.8 67.5
vertex 55.6 20.131402424782966 67.5
vertex 54.8 20.131402424782966 67.5
endloop
endfacet
facet normal 0 0 1
outer loop
vertex 55.6 0.8 67.5
vertex 54.8 20.131402424782966 67.5
vertex 54.8 0.8 67.5
endloop
endfacet
facet normal 0 0 1
outer loop
vertex 0.8 73.46859757521707 67.5
vertex 0.8 92.8 67.5
vertex 0 92.8 67.5
endloop
endfacet
facet normal 0 0 1
outer loop
vertex 0.8 73.46859757521707 67.5
vertex 0 92.8 67.5
vertex 0 73.46859757521707 67.5
endloop
endfacet
facet normal 0 0 1
outer loop
vertex 55.6 73.46859757521707 67.5
vertex 55.6 92.8 67.5
vertex 54.8 92.8 67.5
endloop
endfacet
facet normal 0 0 1
outer loop
vertex 55.6 73.46859757521707 67.5
vertex 54.8 92.8 67.5
vertex 54.8 73.46859757521707 67.5
endloop
endfacet
facet normal 0 0 1
outer loop
vertex 0.8 92.8 67.5
vertex 54.8 92.8 67.5
vertex 55.6 92.8 67.5
endloop
endfacet
facet normal 0 0 1
outer loop
vertex 0.8 92.8 67.5
vertex 55.6 92.8 67.5
vertex 55.6 93.6 67.5
endloop
endfacet
facet normal 0 0 1
outer loop
vertex 0.8 92.8 67.5
vertex 55.6 93.6 67.5
vertex 0 93.6 67.5
endloop
endfacet
facet normal 0 0 1
outer loop
vertex 0.8 92.8 67.5
vertex 0 93.6 67.5
vertex 0 92.8 67.5
endloop
endfacet
facet normal 0 -0.9951847266721963 0.09801714032956745
outer loop
vertex 0.7999999999999972 61.838707632849435 49.775281729086025
vertex 0.8 62.427959033817075 55.75805160424731
vertex 7.55726379905017e-16 62.427959033817075 55.75805160424731
endloop
endfacet
facet normal 0 -0.9951847266721963 0.09801714032956745
outer loop
vertex 0.7999999999999972 61.838707632849435 49.775281729086025
vertex 7.55726379905017e-16 62.427959033817075 55.75805160424731
vertex 1.1220653787875911e-15 61.838707632849435 49.775281729086025
endloop
endfacet
facet normal 0 -0.9951847266721963 0.09801714032956745
outer loop
vertex 55.6 61.838707632849435 49.775281729086025
vertex 55.6 62.427959033817075 55.75805160424731
vertex 54.8 62.427959033817075 55.75805160424731
endloop
endfacet
facet normal 0 -0.9951847266721963 0.09801714032956745
outer loop
vertex 55.6 61.838707632849435 49.775281729086025
vertex 54.8 62.427959033817075 55.75805160424731
vertex 54.8 61.838707632849435 49.775281729086025
endloop
endfacet
facet normal 0 -0.9569403357322082 0.2902846772544649
outer loop
vertex 0.7999999999999972 60.96615283183969 46.898854037068645
vertex 0.7999999999999972 61.838707632849435 49.775281729086025
vertex 1.1220653787875911e-15 61.838707632849435 49.775281729086025
endloop
endfacet
facet normal 0 -0.9569403357322082 0.2902846772544649
outer loop
vertex 0.7999999999999972 60.96615283183969 46.898854037068645
vertex 1.1220653787875911e-15 61.838707632849435 49.775281729086025
vertex 1.2981957770879867e-15 60.96615283183969 46.898854037068645
endloop
endfacet
facet normal 0 -0.9569403357322082 0.2902846772544649
outer loop
vertex 55.6 60.96615283183969 46.898854037068645
vertex 55.6 61.838707632849435 49.775281729086025
vertex 54.8 61.838707632849435 49.775281729086025
endloop
endfacet
facet normal 0 -0.9569403357322082 0.2902846772544649
outer loop
vertex 55.6 60.96615283183969 46.898854037068645
vertex 54.8 61.838707632849435 49.775281729086025
vertex 54.8 60.96615283183969 46.898854037068645
endloop
endfacet
facet normal 0 -0.8819212643483508 0.4713967368260054
outer loop
vertex 0.7999999999999972 59.549200721972184 44.247923093699534
vertex 0.7999999999999972 60.96615283183969 46.898854037068645
vertex 1.2981957770879867e-15 60.96615283183969 46.898854037068645
endloop
endfacet
facet normal 0 -0.8819212643483508 0.4713967368260054
outer loop
vertex 0.7999999999999972 59.549200721972184 44.247923093699534
vertex 1.2981957770879867e-15 60.96615283183969 46.898854037068645
vertex 1.460518481815874e-15 59.549200721972184 44.247923093699534
endloop
endfacet
facet normal 0 -0.8819212643483508 0.4713967368260054
outer loop
vertex 55.6 59.549200721972184 44.247923093699534
vertex 55.6 60.96615283183969 46.898854037068645
vertex 54.8 60.96615283183969 46.898854037068645
endloop
endfacet
facet normal 0 -0.8819212643483508 0.4713967368260054
outer loop
vertex 55.6 59.549200721972184 44.247923093699534
vertex 54.8 60.96615283183969 46.898854037068645
vertex 54.8 59.549200721972184 44.247923093699534
endloop
endfacet
facet normal 0 -0.7730104533627347 0.6343932841636484
outer loop
vertex 0.7999999999999972 57.64230397819367 41.924362688473
vertex 0.7999999999999972 59.549200721972184 44.247923093699534
vertex 1.460518481815874e-15 59.549200721972184 44.247923093699534
endloop
endfacet
facet normal 0 -0.7730104533627347 0.6343932841636484
outer loop
vertex 0.7999999999999972 57.64230397819367 41.924362688473
vertex 1.460518481815874e-15 59.549200721972184 44.247923093699534
vertex 1.6027955224601824e-15 57.64230397819367 41.924362688473
endloop
endfacet
facet normal 0 -0.7730104533627347 0.6343932841636484
outer loop
vertex 55.6 57.64230397819367 41.924362688473
vertex 55.6 59.549200721972184 44.247923093699534
vertex 54.8 59.549200721972184 44.247923093699534
endloop
endfacet
facet normal 0 -0.7730104533627347 0.6343932841636484
outer loop
vertex 55.6 57.64230397819367 41.924362688473
vertex 54.8 59.549200721972184 44.247923093699534
vertex 54.8 57.64230397819367 41.924362688473
endloop
endfacet
facet normal 0 -0.6343932841636476 0.7730104533627352
outer loop
vertex 0.7999999999999972 55.31874357296726 40.017465944694266
vertex 0.7999999999999972 57.64230397819367 41.924362688473
vertex 1.6027955224601824e-15 57.64230397819367 41.924362688473
endloop
endfacet
facet normal 0 -0.6343932841636476 0.7730104533627352
outer loop
vertex 0.7999999999999972 55.31874357296726 40.017465944694266
vertex 1.6027955224601824e-15 57.64230397819367 41.924362688473
vertex 1.7195592721388329e-15 55.31874357296726 40.017465944694266
endloop
endfacet
facet normal 0 -0.6343932841636476 0.7730104533627352
outer loop
vertex 55.6 55.31874357296726 40.017465944694266
vertex 55.6 57.64230397819367 41.924362688473
vertex 54.8 57.64230397819367 41.924362688473
endloop
endfacet
facet normal 0 -0.6343932841636476 0.7730104533627352
outer loop
vertex 55.6 55.31874357296726 40.017465944694266
vertex 54.8 57.64230397819367 41.924362688473
vertex 54.8 55.31874357296726 40.017465944694266
endloop
endfacet
facet normal 0 -0.47139673682600286 0.8819212643483523
outer loop
vertex 0.7999999999999972 52.66781262959812 38.60051383482685
vertex 0.7999999999999972 55.31874357296726 40.017465944694266
vertex 1.7195592721388329e-15 55.31874357296726 40.017465944694266
endloop
endfacet
facet normal 0 -0.47139673682600286 0.8819212643483523
outer loop
vertex 0.7999999999999972 52.66781262959812 38.60051383482685
vertex 1.7195592721388329e-15 55.31874357296726 40.017465944694266
vertex 1.806322565433541e-15 52.66781262959812 38.60051383482685
endloop
endfacet
facet normal 0 -0.47139673682600286 0.8819212643483523
outer loop
vertex 55.6 52.66781262959812 38.60051383482685
vertex 55.6 55.31874357296726 40.017465944694266
vertex 54.8 55.31874357296726 40.017465944694266
endloop
endfacet
facet normal 0 -0.47139673682600286 0.8819212643483523
outer loop
vertex 55.6 52.66781262959812 38.60051383482685
vertex 54.8 55.31874357296726 40.017465944694266
vertex 54.8 52.66781262959812 38.60051383482685
endloop
endfacet
facet normal 0 -0.29028467725446094 0.9569403357322094
outer loop
vertex 0.7999999999999972 49.791384937580645 37.72795903381715
vertex 0.7999999999999972 52.66781262959812 38.60051383482685
vertex 1.806322565433541e-15 52.66781262959812 38.60051383482685
endloop
endfacet
facet normal 0 -0.29028467725446094 0.9569403357322094
outer loop
vertex 0.7999999999999972 49.791384937580645 37.72795903381715
vertex 1.806322565433541e-15 52.66781262959812 38.60051383482685
vertex 1.8597511376404067e-15 49.791384937580645 37.72795903381715
endloop
endfacet
facet normal 0 -0.29028467725446094 0.9569403357322094
outer loop
vertex 55.6 49.791384937580645 37.72795903381715
vertex 55.6 52.66781262959812 38.60051383482685
vertex 54.8 52.66781262959812 38.60051383482685
endloop
endfacet
facet normal 0 -0.29028467725446094 0.9569403357322094
outer loop
vertex 55.6 49.791384937580645 37.72795903381715
vertex 54.8 52.66781262959812 38.60051383482685
vertex 54.8 49.791384937580645 37.72795903381715
endloop
endfacet
facet normal 0 -0.09801714032955972 0.9951847266721969
outer loop
vertex 0.7999999999999972 46.80000000000001 37.43333333333336
vertex 0.7999999999999972 49.791384937580645 37.72795903381715
vertex 1.8597511376404067e-15 49.791384937580645 37.72795903381715
endloop
endfacet
facet normal 0 -0.09801714032955972 0.9951847266721969
outer loop
vertex 0.7999999999999972 46.80000000000001 37.43333333333336
vertex 1.8597511376404067e-15 49.791384937580645 37.72795903381715
vertex 1.8777917586926084e-15 46.80000000000001 37.43333333333336
endloop
endfacet
facet normal 0 -0.09801714032955972 0.9951847266721969
outer loop
vertex 55.6 46.80000000000001 37.43333333333336
vertex 55.6 49.791384937580645 37.72795903381715
vertex 54.8 49.791384937580645 37.72795903381715
endloop
endfacet
facet normal 0 -0.09801714032955972 0.9951847266721969
outer loop
vertex 55.6 46.80000000000001 37.43333333333336
vertex 54.8 49.791384937580645 37.72795903381715
vertex 54.8 46.80000000000001 37.43333333333336
endloop
endfacet
facet normal 0 0.09801714032956041 0.9951847266721969
outer loop
vertex 0.7999999999999972 43.80861506241936 37.727959033817136
vertex 0.7999999999999972 46.80000000000001 37.43333333333336
vertex 1.8777917586926084e-15 46.80000000000001 37.43333333333336
endloop
endfacet
facet normal 0 0.09801714032956041 0.9951847266721969
outer loop
vertex 0.7999999999999972 43.80861506241936 37.727959033817136
vertex 1.8777917586926084e-15 46.80000000000001 37.43333333333336
vertex 1.8597511376404067e-15 43.80861506241936 37.727959033817136
endloop
endfacet
facet normal 0 0.09801714032956041 0.9951847266721969
outer loop
vertex 55.6 43.80861506241936 37.727959033817136
vertex 55.6 46.80000000000001 37.43333333333336
vertex 54.8 46.80000000000001 37.43333333333336
endloop
endfacet
facet normal 0 0.09801714032956041 0.9951847266721969
outer loop
vertex 55.6 43.80861506241936 37.727959033817136
vertex 54.8 46.80000000000001 37.43333333333336
vertex 54.8 43.80861506241936 37.727959033817136
endloop
endfacet
facet normal 0 0.2902846772544629 0.9569403357322087
outer loop
vertex 0.7999999999999972 40.93218737040195 38.60051383482692
vertex 0.7999999999999972 43.80861506241936 37.727959033817136
vertex 1.8597511376404067e-15 43.80861506241936 37.727959033817136
endloop
endfacet
facet normal 0 0.2902846772544629 0.9569403357322087
outer loop
vertex 0.7999999999999972 40.93218737040195 38.60051383482692
vertex 1.8597511376404067e-15 43.80861506241936 37.727959033817136
vertex 1.806322565433541e-15 40.93218737040195 38.60051383482692
endloop
endfacet
facet normal 0 0.2902846772544629 0.9569403357322087
outer loop
vertex 55.6 40.93218737040195 38.60051383482692
vertex 55.6 43.80861506241936 37.727959033817136
vertex 54.8 43.80861506241936 37.727959033817136
endloop
endfacet
facet normal 0 0.2902846772544629 0.9569403357322087
outer loop
vertex 55.6 40.93218737040195 38.60051383482692
vertex 54.8 43.80861506241936 37.727959033817136
vertex 54.8 40.93218737040195 38.60051383482692
endloop
endfacet
facet normal 0 0.47139673682599736 0.8819212643483553
outer loop
vertex 0.7999999999999976 38.28125642703276 40.01746594469427
vertex 0.7999999999999972 40.93218737040195 38.60051383482692
vertex 1.806322565433541e-15 40.93218737040195 38.60051383482692
endloop
endfacet
facet normal 0 0.47139673682599736 0.8819212643483553
outer loop
vertex 0.7999999999999976 38.28125642703276 40.01746594469427
vertex 1.806322565433541e-15 40.93218737040195 38.60051383482692
vertex 1.7195592721388337e-15 38.28125642703276 40.01746594469427
endloop
endfacet
facet normal 0 0.47139673682599736 0.8819212643483553
outer loop
vertex 55.60000000000003 38.28125642703276 40.01746594469427
vertex 55.6 40.93218737040195 38.60051383482692
vertex 54.8 40.93218737040195 38.60051383482692
endloop
endfacet
facet normal 0 0.47139673682599736 0.8819212643483553
outer loop
vertex 55.60000000000003 38.28125642703276 40.01746594469427
vertex 54.8 40.93218737040195 38.60051383482692
vertex 54.800000000000026 38.28125642703276 40.01746594469427
endloop
endfacet
facet normal 0 0.6343932841636448 0.7730104533627374
outer loop
vertex 0.7999999999999972 35.95769602180626 41.92436268847291
vertex 0.7999999999999976 38.28125642703276 40.01746594469427
vertex 1.7195592721388337e-15 38.28125642703276 40.01746594469427
endloop
endfacet
facet normal 0 0.6343932841636448 0.7730104533627374
outer loop
vertex 0.7999999999999972 35.95769602180626 41.92436268847291
vertex 1.7195592721388337e-15 38.28125642703276 40.01746594469427
vertex 1.6027955224601824e-15 35.95769602180626 41.92436268847291
endloop
endfacet
facet normal 0 0.6343932841636448 0.7730104533627374
outer loop
vertex 55.6 35.95769602180626 41.92436268847291
vertex 55.60000000000003 38.28125642703276 40.01746594469427
vertex 54.800000000000026 38.28125642703276 40.01746594469427
endloop
endfacet
facet normal 0 0.6343932841636448 0.7730104533627374
outer loop
vertex 55.6 35.95769602180626 41.92436268847291
vertex 54.800000000000026 38.28125642703276 40.01746594469427
vertex 54.8 35.95769602180626 41.92436268847291
endloop
endfacet
facet normal 0 0.7730104533627381 0.634393284163644
outer loop
vertex 0.7999999999999972 34.05079927802764 44.24792309369944
vertex 0.7999999999999972 35.95769602180626 41.92436268847291
vertex 1.6027955224601824e-15 35.95769602180626 41.92436268847291
endloop
endfacet
facet normal 0 0.7730104533627381 0.634393284163644
outer loop
vertex 0.7999999999999972 34.05079927802764 44.24792309369944
vertex 1.6027955224601824e-15 35.95769602180626 41.92436268847291
vertex 1.460518481815874e-15 34.05079927802764 44.24792309369944
endloop
endfacet
facet normal 0 0.7730104533627381 0.634393284163644
outer loop
vertex 55.6 34.05079927802764 44.24792309369944
vertex 55.6 35.95769602180626 41.92436268847291
vertex 54.8 35.95769602180626 41.92436268847291
endloop
endfacet
facet normal 0 0.7730104533627381 0.634393284163644
outer loop
vertex 55.6 34.05079927802764 44.24792309369944
vertex 54.8 35.95769602180626 41.92436268847291
vertex 54.8 34.05079927802764 44.24792309369944
endloop
endfacet
facet normal 0 0.8819212643483537 0.47139673682600014
outer loop
vertex 0.7999999999999972 32.633847168160266 46.89885403706862
vertex 0.7999999999999972 34.05079927802764 44.24792309369944
vertex 1.460518481815874e-15 34.05079927802764 44.24792309369944
endloop
endfacet
facet normal 0 0.8819212643483537 0.47139673682600014
outer loop
vertex 0.7999999999999972 32.633847168160266 46.89885403706862
vertex 1.460518481815874e-15 34.05079927802764 44.24792309369944
vertex 1.2981957770879869e-15 32.633847168160266 46.89885403706862
endloop
endfacet
facet normal 0 0.8819212643483537 0.47139673682600014
outer loop
vertex 55.6 32.633847168160266 46.89885403706862
vertex 55.6 34.05079927802764 44.24792309369944
vertex 54.8 34.05079927802764 44.24792309369944
endloop
endfacet
facet normal 0 0.8819212643483537 0.47139673682600014
outer loop
vertex 55.6 32.633847168160266 46.89885403706862
vertex 54.8 34.05079927802764 44.24792309369944
vertex 54.8 32.633847168160266 46.89885403706862
endloop
endfacet
facet normal 0 0.9569403357322095 0.29028467725446094
outer loop
vertex 0.7999999999999972 31.76129236715046 49.775281729086004
vertex 0.7999999999999972 32.633847168160266 46.89885403706862
vertex 1.2981957770879869e-15 32.633847168160266 46.89885403706862
endloop
endfacet
facet normal 0 0.9569403357322095 0.29028467725446094
outer loop
vertex 0.7999999999999972 31.76129236715046 49.775281729086004
vertex 1.2981957770879869e-15 32.633847168160266 46.89885403706862
vertex 1.1220653787875913e-15 31.76129236715046 49.775281729086004
endloop
endfacet
facet normal 0 0.9569403357322095 0.29028467725446094
outer loop
vertex 55.6 31.76129236715046 49.775281729086004
vertex 55.6 32.633847168160266 46.89885403706862
vertex 54.8 32.633847168160266 46.89885403706862
endloop
endfacet
facet normal 0 0.9569403357322095 0.29028467725446094
outer loop
vertex 55.6 31.76129236715046 49.775281729086004
vertex 54.8 32.633847168160266 46.89885403706862
vertex 54.8 31.76129236715046 49.775281729086004
endloop
endfacet
facet normal 0 0.9951847266721967 0.09801714032956255
outer loop
vertex 0.7999999999999972 31.172040966182823 55.7580516042473
vertex 0.7999999999999972 31.76129236715046 49.775281729086004
vertex 1.1220653787875913e-15 31.76129236715046 49.775281729086004
endloop
endfacet
facet normal 0 0.9951847266721967 0.09801714032956255
outer loop
vertex 0.7999999999999972 31.172040966182823 55.7580516042473
vertex 1.1220653787875913e-15 31.76129236715046 49.775281729086004
vertex 7.557263799050171e-16 31.172040966182823 55.7580516042473
endloop
endfacet
facet normal 0 0.9951847266721967 0.09801714032956255
outer loop
vertex 55.6 31.172040966182823 55.7580516042473
vertex 55.6 31.76129236715046 49.775281729086004
vertex 54.8 31.76129236715046 49.775281729086004
endloop
endfacet
facet normal 0 0.9951847266721967 0.09801714032956255
outer loop
vertex 55.6 31.172040966182823 55.7580516042473
vertex 54.8 31.76129236715046 49.775281729086004
vertex 54.8 31.172040966182823 55.7580516042473
endloop
endfacet
facet normal 0 -0.9569403357322095 0.29028467725446094
outer loop
vertex 0.8 62.427959033817075 55.75805160424731
vertex 0.8 63.30051383482697 58.6344792962647
vertex 5.795959816046207e-16 63.30051383482697 58.6344792962647
endloop
endfacet
facet normal 0 -0.9569403357322095 0.29028467725446094
outer loop
vertex 0.8 62.427959033817075 55.75805160424731
vertex 5.795959816046207e-16 63.30051383482697 58.6344792962647
vertex 7.55726379905017e-16 62.427959033817075 55.75805160424731
endloop
endfacet
facet normal 0 -0.9569403357322095 0.29028467725446094
outer loop
vertex 55.6 62.427959033817075 55.75805160424731
vertex 55.6 63.30051383482697 58.6344792962647
vertex 54.8 63.30051383482697 58.6344792962647
endloop
endfacet
facet normal 0 -0.9569403357322095 0.29028467725446094
outer loop
vertex 55.6 62.427959033817075 55.75805160424731
vertex 54.8 63.30051383482697 58.6344792962647
vertex 54.8 62.427959033817075 55.75805160424731
endloop
endfacet
facet normal 0 -0.8819212643483552 0.47139673682599736
outer loop
vertex 0.8 63.30051383482697 58.6344792962647
vertex 0.8 64.7174659446943 61.285410239633876
vertex 4.1727327687673513e-16 64.7174659446943 61.285410239633876
endloop
endfacet
facet normal 0 -0.8819212643483552 0.47139673682599736
outer loop
vertex 0.8 63.30051383482697 58.6344792962647
vertex 4.1727327687673513e-16 64.7174659446943 61.285410239633876
vertex 5.795959816046207e-16 63.30051383482697 58.6344792962647
endloop
endfacet
facet normal 0 -0.8819212643483552 0.47139673682599736
outer loop
vertex 55.6 63.30051383482697 58.6344792962647
vertex 55.6 64.7174659446943 61.285410239633876
vertex 54.8 64.7174659446943 61.285410239633876
endloop
endfacet
facet normal 0 -0.8819212643483552 0.47139673682599736
outer loop
vertex 55.6 63.30051383482697 58.6344792962647
vertex 54.8 64.7174659446943 61.285410239633876
vertex 54.8 63.30051383482697 58.6344792962647
endloop
endfacet
facet normal 0 -0.7730104533627347 0.6343932841636484
outer loop
vertex 0.8 64.7174659446943 61.285410239633876
vertex 0.8 66.62436268847296 63.608970644860406
vertex 2.74996236232425e-16 66.62436268847296 63.608970644860406
endloop
endfacet
facet normal 0 -0.7730104533627347 0.6343932841636484
outer loop
vertex 0.8 64.7174659446943 61.285410239633876
vertex 2.74996236232425e-16 66.62436268847296 63.608970644860406
vertex 4.1727327687673513e-16 64.7174659446943 61.285410239633876
endloop
endfacet
facet normal 0 -0.7730104533627347 0.6343932841636484
outer loop
vertex 55.6 64.7174659446943 61.285410239633876
vertex 55.6 66.62436268847296 63.608970644860406
vertex 54.8 66.62436268847296 63.608970644860406
endloop
endfacet
facet normal 0 -0.7730104533627347 0.6343932841636484
outer loop
vertex 55.6 64.7174659446943 61.285410239633876
vertex 54.8 66.62436268847296 63.608970644860406
vertex 54.8 64.7174659446943 61.285410239633876
endloop
endfacet
facet normal 0 -0.6343932841636448 0.7730104533627374
outer loop
vertex 0.8 66.62436268847296 63.608970644860406
vertex 0.8 68.94792309369944 65.51586738863902
vertex 1.5823248655377572e-16 68.94792309369944 65.51586738863902
endloop
endfacet
facet normal 0 -0.6343932841636448 0.7730104533627374
outer loop
vertex 0.8 66.62436268847296 63.608970644860406
vertex 1.5823248655377572e-16 68.94792309369944 65.51586738863902
vertex 2.74996236232425e-16 66.62436268847296 63.608970644860406
endloop
endfacet
facet normal 0 -0.6343932841636448 0.7730104533627374
outer loop
vertex 55.6 66.62436268847296 63.608970644860406
vertex 55.6 68.94792309369944 65.51586738863902
vertex 54.8 68.94792309369944 65.51586738863902
endloop
endfacet
facet normal 0 -0.6343932841636448 0.7730104533627374
outer loop
vertex 55.6 66.62436268847296 63.608970644860406
vertex 54.8 68.94792309369944 65.51586738863902
vertex 54.8 66.62436268847296 63.608970644860406
endloop
endfacet
facet normal 0 -0.47139673682599736 0.8819212643483552
outer loop
vertex 0.8 68.94792309369944 65.51586738863902
vertex 0.8 71.5988540370686 66.93281949850639
vertex 7.146919325906701e-17 71.5988540370686 66.93281949850639
endloop
endfacet
facet normal 0 -0.47139673682599736 0.8819212643483552
outer loop
vertex 0.8 68.94792309369944 65.51586738863902
vertex 7.146919325906701e-17 71.5988540370686 66.93281949850639
vertex 1.5823248655377572e-16 68.94792309369944 65.51586738863902
endloop
endfacet
facet normal 0 -0.47139673682599736 0.8819212643483552
outer loop
vertex 55.6 68.94792309369944 65.51586738863902
vertex 55.6 71.5988540370686 66.93281949850639
vertex 54.8 71.5988540370686 66.93281949850639
endloop
endfacet
facet normal 0 -0.47139673682599736 0.8819212643483552
outer loop
vertex 55.6 68.94792309369944 65.51586738863902
vertex 54.8 71.5988540370686 66.93281949850639
vertex 54.8 68.94792309369944 65.51586738863902
endloop
endfacet
facet normal 0 0.47139673682599736 0.8819212643483552
outer loop
vertex 0.7999999999999972 22.00114596293134 66.93281949850632
vertex 0.8 24.65207690630053 65.51586738863895
vertex 1.5823248655377587e-16 24.65207690630053 65.51586738863895
endloop
endfacet
facet normal 0 0.47139673682599736 0.8819212643483552
outer loop
vertex 0.7999999999999972 22.00114596293134 66.93281949850632
vertex 1.5823248655377587e-16 24.65207690630053 65.51586738863895
vertex 7.14691932590672e-17 22.00114596293134 66.93281949850632
endloop
endfacet
facet normal 0 0.47139673682599736 0.8819212643483552
outer loop
vertex 55.6 22.00114596293134 66.93281949850632
vertex 55.6 24.65207690630053 65.51586738863895
vertex 54.8 24.65207690630053 65.51586738863895
endloop
endfacet
facet normal 0 0.47139673682599736 0.8819212643483552
outer loop
vertex 55.6 22.00114596293134 66.93281949850632
vertex 54.8 24.65207690630053 65.51586738863895
vertex 54.8 22.00114596293134 66.93281949850632
endloop
endfacet
facet normal 0 0.6343932841636442 0.7730104533627382
outer loop
vertex 0.8 24.65207690630053 65.51586738863895
vertex 0.8000000000000005 26.975637311527045 63.6089706448604
vertex 2.749962362324252e-16 26.975637311527045 63.6089706448604
endloop
endfacet
facet normal 0 0.6343932841636442 0.7730104533627382
outer loop
vertex 0.8 24.65207690630053 65.51586738863895
vertex 2.749962362324252e-16 26.975637311527045 63.6089706448604
vertex 1.5823248655377587e-16 24.65207690630053 65.51586738863895
endloop
endfacet
facet normal 0 0.6343932841636442 0.7730104533627382
outer loop
vertex 55.6 24.65207690630053 65.51586738863895
vertex 55.60000000000003 26.975637311527045 63.6089706448604
vertex 54.800000000000026 26.975637311527045 63.6089706448604
endloop
endfacet
facet normal 0 0.6343932841636442 0.7730104533627382
outer loop
vertex 55.6 24.65207690630053 65.51586738863895
vertex 54.800000000000026 26.975637311527045 63.6089706448604
vertex 54.8 24.65207690630053 65.51586738863895
endloop
endfacet
facet normal 0 0.8819212643483568 0.4713967368259944
outer loop
vertex 0.7999999999999976 28.882534055305698 61.285410239633876
vertex 0.8000000000000005 30.29948616517304 58.634479296264715
vertex 5.79595981604621e-16 30.29948616517304 58.634479296264715
endloop
endfacet
facet normal 0 0.8819212643483568 0.4713967368259944
outer loop
vertex 0.7999999999999976 28.882534055305698 61.285410239633876
vertex 5.79595981604621e-16 30.29948616517304 58.634479296264715
vertex 4.172732768767354e-16 28.882534055305698 61.285410239633876
endloop
endfacet
facet normal 0 0.8819212643483568 0.4713967368259944
outer loop
vertex 55.60000000000003 28.882534055305698 61.285410239633876
vertex 55.60000000000003 30.29948616517304 58.634479296264715
vertex 54.800000000000026 30.29948616517304 58.634479296264715
endloop
endfacet
facet normal 0 0.8819212643483568 0.4713967368259944
outer loop
vertex 55.60000000000003 28.882534055305698 61.285410239633876
vertex 54.800000000000026 30.29948616517304 58.634479296264715
vertex 54.800000000000026 28.882534055305698 61.285410239633876
endloop
endfacet
facet normal 0 0.9569403357322097 0.2902846772544596
outer loop
vertex 0.8000000000000005 30.29948616517304 58.634479296264715
vertex 0.7999999999999972 31.172040966182823 55.7580516042473
vertex 7.557263799050171e-16 31.172040966182823 55.7580516042473
endloop
endfacet
facet normal 0 0.9569403357322097 0.2902846772544596
outer loop
vertex 0.8000000000000005 30.29948616517304 58.634479296264715
vertex 7.557263799050171e-16 31.172040966182823 55.7580516042473
vertex 5.79595981604621e-16 30.29948616517304 58.634479296264715
endloop
endfacet
facet normal 0 0.9569403357322097 0.2902846772544596
outer loop
vertex 55.60000000000003 30.29948616517304 58.634479296264715
vertex 55.6 31.172040966182823 55.7580516042473
vertex 54.8 31.172040966182823 55.7580516042473
endloop
endfacet
facet normal 0 0.9569403357322097 0.2902846772544596
outer loop
vertex 55.60000000000003 30.29948616517304 58.634479296264715
vertex 54.8 31.172040966182823 55.7580516042473
vertex 54.800000000000026 30.29948616517304 58.634479296264715
endloop
endfacet
facet normal 0 -0.2902846772544629 0.9569403357322087
outer loop
vertex 0.8 71.5988540370686 66.93281949850639
vertex 0.8 73.46859757521707 67.5
vertex 0 73.46859757521707 67.5
endloop
endfacet
facet normal 0 -0.2902846772544629 0.9569403357322087
outer loop
vertex 0.8 71.5988540370686 66.93281949850639
vertex 0 73.46859757521707 67.5
vertex 7.146919325906701e-17 71.5988540370686 66.93281949850639
endloop
endfacet
facet normal 0 -0.2902846772544629 0.9569403357322087
outer loop
vertex 55.6 71.5988540370686 66.93281949850639
vertex 55.6 73.46859757521707 67.5
vertex 54.8 73.46859757521707 67.5
endloop
endfacet
facet normal 0 -0.2902846772544629 0.9569403357322087
outer loop
vertex 55.6 71.5988540370686 66.93281949850639
vertex 54.8 73.46859757521707 67.5
vertex 54.8 71.5988540370686 66.93281949850639
endloop
endfacet
facet normal 0 0.2902846772544629 0.9569403357322087
outer loop
vertex 0.8 20.131402424782966 67.5
vertex 0.7999999999999972 22.00114596293134 66.93281949850632
vertex 7.14691932590672e-17 22.00114596293134 66.93281949850632
endloop
endfacet
facet normal 0 0.2902846772544629 0.9569403357322087
outer loop
vertex 0.8 20.131402424782966 67.5
vertex 7.14691932590672e-17 22.00114596293134 66.93281949850632
vertex 0 20.131402424782966 67.5
endloop
endfacet
facet normal 0 0.2902846772544629 0.9569403357322087
outer loop
vertex 55.6 20.131402424782966 67.5
vertex 55.6 22.00114596293134 66.93281949850632
vertex 54.8 22.00114596293134 66.93281949850632
endloop
endfacet
facet normal 0 0.2902846772544629 0.9569403357322087
outer loop
vertex 55.6 20.131402424782966 67.5
vertex 54.8 22.00114596293134 66.93281949850632
vertex 54.8 20.131402424782966 67.5
endloop
endfacet
facet normal 0 0.7730104533627388 0.6343932841636434
outer loop
vertex 0.8000000000000005 26.975637311527045 63.6089706448604
vertex 0.7999999999999976 28.882534055305698 61.285410239633876
vertex 4.172732768767354e-16 28.882534055305698 61.285410239633876
endloop
endfacet
facet normal 0 0.7730104533627388 0.6343932841636434
outer loop
vertex 0.8000000000000005 26.975637311527045 63.6089706448604
vertex 4.172732768767354e-16 28.882534055305698 61.285410239633876
vertex 2.749962362324252e-16 26.975637311527045 63.6089706448604
endloop
endfacet
facet normal 0 0.7730104533627388 0.6343932841636434
outer loop
vertex 55.60000000000003 26.975637311527045 63.6089706448604
vertex 55.60000000000003 28.882534055305698 61.285410239633876
vertex 54.800000000000026 28.882534055305698 61.285410239633876
endloop
endfacet
facet normal 0 0.7730104533627388 0.6343932841636434
outer loop
vertex 55.60000000000003 26.975637311527045 63.6089706448604
vertex 54.800000000000026 28.882534055305698 61.285410239633876
vertex 54.800000000000026 26.975637311527045 63.6089706448604
endloop
endfacet
facet normal -1 0 -1.2600784595177672e-16
outer loop
vertex 0 0.8 67.5
vertex 0 20.131402424782966 67.5
vertex 7.14691932590672e-17 22.00114596293134 66.93281949850632
endloop
endfacet
facet normal -1 0 -1.2600784595177672e-16
outer loop
vertex 0 0.8 67.5
vertex 7.14691932590672e-17 22.00114596293134 66.93281949850632
vertex 1.5823248655377587e-16 24.65207690630053 65.51586738863895
endloop
endfacet
facet normal -1 0 -1.2600784595177672e-16
outer loop
vertex 0 0.8 67.5
vertex 1.5823248655377587e-16 24.65207690630053 65.51586738863895
vertex 2.749962362324252e-16 26.975637311527045 63.6089706448604
endloop
endfacet
facet normal -1 0 -1.2600784595177672e-16
outer loop
vertex 0 0.8 67.5
vertex 2.749962362324252e-16 26.975637311527045 63.6089706448604
vertex 4.172732768767354e-16 28.882534055305698 61.285410239633876
endloop
endfacet
facet normal -1 0 -1.2600784595177672e-16
outer loop
vertex 0 0.8 67.5
vertex 4.172732768767354e-16 28.882534055305698 61.285410239633876
vertex 5.79595981604621e-16 30.29948616517304 58.634479296264715
endloop
endfacet
facet normal -1 0 -1.2600784595177672e-16
outer loop
vertex 0 0.8 67.5
vertex 5.79595981604621e-16 30.29948616517304 58.634479296264715
vertex 7.557263799050171e-16 31.172040966182823 55.7580516042473
endloop
endfacet
facet normal -1 0 -1.2600784595177672e-16
outer loop
vertex 0 0.8 67.5
vertex 7.557263799050171e-16 31.172040966182823 55.7580516042473
vertex 1.1220653787875913e-15 31.76129236715046 49.775281729086004
endloop
endfacet
facet normal -1 0 -1.2600784595177672e-16
outer loop
vertex 0 0.8 67.5
vertex 1.1220653787875913e-15 31.76129236715046 49.775281729086004
vertex 0 0 49.775281729085705
endloop
endfacet
facet normal -1 0 -1.2600784595177672e-16
outer loop
vertex 0 0.8 67.5
vertex 0 0 49.775281729085705
vertex 0 0 67.5
endloop
endfacet
facet normal -1 0 0
outer loop
vertex 0 92.8 67.5
vertex 0 93.6 67.5
vertex 0 93.6 49.775281729085705
endloop
endfacet
facet normal -1 0 0
outer loop
vertex 0 92.8 67.5
vertex 0 93.6 49.775281729085705
vertex 1.1220653787875911e-15 61.838707632849435 49.775281729086025
endloop
endfacet
facet normal -1 0 0
outer loop
vertex 0 92.8 67.5
vertex 1.1220653787875911e-15 61.838707632849435 49.775281729086025
vertex 7.55726379905017e-16 62.427959033817075 55.75805160424731
endloop
endfacet
facet normal -1 0 0
outer loop
vertex 0 92.8 67.5
vertex 7.55726379905017e-16 62.427959033817075 55.75805160424731
vertex 5.795959816046207e-16 63.30051383482697 58.6344792962647
endloop
endfacet
facet normal -1 0 0
outer loop
vertex 0 92.8 67.5
vertex 5.795959816046207e-16 63.30051383482697 58.6344792962647
vertex 4.1727327687673513e-16 64.7174659446943 61.285410239633876
endloop
endfacet
facet normal -1 0 0
outer loop
vertex 0 92.8 67.5
vertex 4.1727327687673513e-16 64.7174659446943 61.285410239633876
vertex 2.74996236232425e-16 66.62436268847296 63.608970644860406
endloop
endfacet
facet normal -1 0 0
outer loop
vertex 0 92.8 67.5
vertex 2.74996236232425e-16 66.62436268847296 63.608970644860406
vertex 1.5823248655377572e-16 68.94792309369944 65.51586738863902
endloop
endfacet
facet normal -1 0 0
outer loop
vertex 0 92.8 67.5
vertex 1.5823248655377572e-16 68.94792309369944 65.51586738863902
vertex 7.146919325906701e-17 71.5988540370686 66.93281949850639
endloop
endfacet
facet normal -1 0 0
outer loop
vertex 0 92.8 67.5
vertex 7.146919325906701e-17 71.5988540370686 66.93281949850639
vertex 0 73.46859757521707 67.5
endloop
endfacet
facet normal -1 0 0
outer loop
vertex 1.1220653787875913e-15 31.76129236715046 49.775281729086004
vertex 1.2981957770879869e-15 32.633847168160266 46.89885403706862
vertex 0 0 46.898854037069285
endloop
endfacet
facet normal -1 0 0
outer loop
vertex 1.1220653787875913e-15 31.76129236715046 49.775281729086004
vertex 0 0 46.898854037069285
vertex 0 0 49.775281729085705
endloop
endfacet
facet normal -1 0 0
outer loop
vertex 0 93.6 49.775281729085705
vertex 0 93.6 46.898854037069285
vertex 1.2981957770879867e-15 60.96615283183969 46.898854037068645
endloop
endfacet
facet normal -1 0 0
outer loop
vertex 0 93.6 49.775281729085705
vertex 1.2981957770879867e-15 60.96615283183969 46.898854037068645
vertex 1.1220653787875911e-15 61.838707632849435 49.775281729086025
endloop
endfacet
facet normal -1 0 0
outer loop
vertex 1.2981957770879869e-15 32.633847168160266 46.89885403706862
vertex 1.460518481815874e-15 34.05079927802764 44.24792309369944
vertex 0 0 44.24792309369898
endloop
endfacet
facet normal -1 0 0
outer loop
vertex 1.2981957770879869e-15 32.633847168160266 46.89885403706862
vertex 0 0 44.24792309369898
vertex 0 0 46.898854037069285
endloop
endfacet
facet normal -1 0 0
outer loop
vertex 0 93.6 46.898854037069285
vertex 0 93.6 44.24792309369898
vertex 1.460518481815874e-15 59.549200721972184 44.247923093699534
endloop
endfacet
facet normal -1 0 0
outer loop
vertex 0 93.6 46.898854037069285
vertex 1.460518481815874e-15 59.549200721972184 44.247923093699534
vertex 1.2981957770879867e-15 60.96615283183969 46.898854037068645
endloop
endfacet
facet normal -1 0 0
outer loop
vertex 1.460518481815874e-15 34.05079927802764 44.24792309369944
vertex 1.6027955224601824e-15 35.95769602180626 41.92436268847291
vertex 0 0 41.9243626884725
endloop
endfacet
facet normal -1 0 0
outer loop
vertex 1.460518481815874e-15 34.05079927802764 44.24792309369944
vertex 0 0 41.9243626884725
vertex 0 0 44.24792309369898
endloop
endfacet
facet normal -1 0 0
outer loop
vertex 0 93.6 44.24792309369898
vertex 0 93.6 41.9243626884725
vertex 1.6027955224601824e-15 57.64230397819367 41.924362688473
endloop
endfacet
facet normal -1 0 0
outer loop
vertex 0 93.6 44.24792309369898
vertex 1.6027955224601824e-15 57.64230397819367 41.924362688473
vertex 1.460518481815874e-15 59.549200721972184 44.247923093699534
endloop
endfacet
facet normal -1 0 0
outer loop
vertex 1.6027955224601824e-15 35.95769602180626 41.92436268847291
vertex 1.7195592721388337e-15 38.28125642703276 40.01746594469427
vertex 0 0 40.01746594469412
endloop
endfacet
facet normal -1 0 0
outer loop
vertex 1.6027955224601824e-15 35.95769602180626 41.92436268847291
vertex 0 0 40.01746594469412
vertex 0 0 41.9243626884725
endloop
endfacet
facet normal -1 0 0
outer loop
vertex 0 93.6 41.9243626884725
vertex 0 93.6 40.01746594469412
vertex 1.7195592721388329e-15 55.31874357296726 40.017465944694266
endloop
endfacet
facet normal -1 0 0
outer loop
vertex 0 93.6 41.9243626884725
vertex 1.7195592721388329e-15 55.31874357296726 40.017465944694266
vertex 1.6027955224601824e-15 57.64230397819367 41.924362688473
endloop
endfacet
facet normal -1 0 0
outer loop
vertex 1.7195592721388337e-15 38.28125642703276 40.01746594469427
vertex 1.806322565433541e-15 40.93218737040195 38.60051383482692
vertex 0 0 38.600513834827105
endloop
endfacet
facet normal -1 0 0
outer loop
vertex 1.7195592721388337e-15 38.28125642703276 40.01746594469427
vertex 0 0 38.600513834827105
vertex 0 0 40.01746594469412
endloop
endfacet
facet normal -1 0 0
outer loop
vertex 0 93.6 40.01746594469412
vertex 0 93.6 38.600513834827105
vertex 1.806322565433541e-15 52.66781262959812 38.60051383482685
endloop
endfacet
facet normal -1 0 0
outer loop
vertex 0 93.6 40.01746594469412
vertex 1.806322565433541e-15 52.66781262959812 38.60051383482685
vertex 1.7195592721388329e-15 55.31874357296726 40.017465944694266
endloop
endfacet
facet normal -1 0 0
outer loop
vertex 1.806322565433541e-15 40.93218737040195 38.60051383482692
vertex 1.8597511376404067e-15 43.80861506241936 37.727959033817136
vertex 0 0 37.727959033817164
endloop
endfacet
facet normal -1 0 0
outer loop
vertex 1.806322565433541e-15 40.93218737040195 38.60051383482692
vertex 0 0 37.727959033817164
vertex 0 0 38.600513834827105
endloop
endfacet
facet normal -1 0 0
outer loop
vertex 0 93.6 38.600513834827105
vertex 0 93.6 37.727959033817164
vertex 1.8597511376404067e-15 49.791384937580645 37.72795903381715
endloop
endfacet
facet normal -1 0 0
outer loop
vertex 0 93.6 38.600513834827105
vertex 1.8597511376404067e-15 49.791384937580645 37.72795903381715
vertex 1.806322565433541e-15 52.66781262959812 38.60051383482685
endloop
endfacet
facet normal -1 0 0
outer loop
vertex 1.8597511376404067e-15 43.80861506241936 37.727959033817136
vertex 1.8777917586926084e-15 46.80000000000001 37.43333333333336
vertex 0 0 37.433333333333344
endloop
endfacet
facet normal -1 0 0
outer loop
vertex 1.8597511376404067e-15 43.80861506241936 37.727959033817136
vertex 0 0 37.433333333333344
vertex 0 0 37.727959033817164
endloop
endfacet
facet normal -1 0 0
outer loop
vertex 0 93.6 37.727959033817164
vertex 0 93.6 37.433333333333344
vertex 1.8777917586926084e-15 46.80000000000001 37.43333333333336
endloop
endfacet
facet normal -1 0 0
outer loop
vertex 0 93.6 37.727959033817164
vertex 1.8777917586926084e-15 46.80000000000001 37.43333333333336
vertex 1.8597511376404067e-15 49.791384937580645 37.72795903381715
endloop
endfacet
facet normal -1 -4.012375552761985e-17 0
outer loop
vertex 1.8777917586926084e-15 46.80000000000001 37.43333333333336
vertex 0 93.6 37.433333333333344
vertex 0 93.6 0
endloop
endfacet
facet normal -1 -4.012375552761985e-17 0
outer loop
vertex 1.8777917586926084e-15 46.80000000000001 37.43333333333336
vertex 0 93.6 0
vertex 0 0 0
endloop
endfacet
facet normal -1 -4.012375552761985e-17 0
outer loop
vertex 1.8777917586926084e-15 46.80000000000001 37.43333333333336
vertex 0 0 0
vertex 0 0 37.433333333333344
endloop
endfacet
facet normal 1 0 0
outer loop
vertex 55.6 93.6 0
vertex 55.6 93.6 37.43333333333335
vertex 55.6 46.80000000000001 37.43333333333336
endloop
endfacet
facet normal 1 0 0
outer loop
vertex 55.6 93.6 0
vertex 55.6 46.80000000000001 37.43333333333336
vertex 55.6 0 37.43333333333335
endloop
endfacet
facet normal 1 0 0
outer loop
vertex 55.6 93.6 0
vertex 55.6 0 37.43333333333335
vertex 55.6 0 0
endloop
endfacet
facet normal 1 0 0
outer loop
vertex 55.6 46.80000000000001 37.43333333333336
vertex 55.6 43.80861506241936 37.727959033817136
vertex 55.6 0 37.727959033817164
endloop
endfacet
facet normal 1 0 0
outer loop
vertex 55.6 46.80000000000001 37.43333333333336
vertex 55.6 0 37.727959033817164
vertex 55.6 0 37.43333333333335
endloop
endfacet
facet normal 1 0 0
outer loop
vertex 55.6 93.6 37.43333333333335
vertex 55.6 93.6 37.727959033817164
vertex 55.6 49.791384937580645 37.72795903381715
endloop
endfacet
facet normal 1 0 0
outer loop
vertex 55.6 93.6 37.43333333333335
vertex 55.6 49.791384937580645 37.72795903381715
vertex 55.6 46.80000000000001 37.43333333333336
endloop
endfacet
facet normal 1 0 0
outer loop
vertex 55.6 43.80861506241936 37.727959033817136
vertex 55.6 40.93218737040195 38.60051383482692
vertex 55.6 0 38.600513834827105
endloop
endfacet
facet normal 1 0 0
outer loop
vertex 55.6 43.80861506241936 37.727959033817136
vertex 55.6 0 38.600513834827105
vertex 55.6 0 37.727959033817164
endloop
endfacet
facet normal 1 0 0
outer loop
vertex 55.6 93.6 37.727959033817164
vertex 55.6 93.6 38.600513834827105
vertex 55.6 52.66781262959812 38.60051383482685
endloop
endfacet
facet normal 1 0 0
outer loop
vertex 55.6 93.6 37.727959033817164
vertex 55.6 52.66781262959812 38.60051383482685
vertex 55.6 49.791384937580645 37.72795903381715
endloop
endfacet
facet normal 1 0 0
outer loop
vertex 55.6 40.93218737040195 38.60051383482692
vertex 55.60000000000003 38.28125642703276 40.01746594469427
vertex 55.6 0 40.01746594469414
endloop
endfacet
facet normal 1 0 0
outer loop
vertex 55.6 40.93218737040195 38.60051383482692
vertex 55.6 0 40.01746594469414
vertex 55.6 0 38.600513834827105
endloop
endfacet
facet normal 1 0 0
outer loop
vertex 55.6 93.6 38.600513834827105
vertex 55.6 93.6 40.01746594469414
vertex 55.6 55.31874357296726 40.017465944694266
endloop
endfacet
facet normal 1 0 0
outer loop
vertex 55.6 93.6 38.600513834827105
vertex 55.6 55.31874357296726 40.017465944694266
vertex 55.6 52.66781262959812 38.60051383482685
endloop
endfacet
facet normal 1 0 0
outer loop
vertex 55.60000000000003 38.28125642703276 40.01746594469427
vertex 55.6 35.95769602180626 41.92436268847291
vertex 55.6 0 41.924362688472485
endloop
endfacet
facet normal 1 0 0
outer loop
vertex 55.60000000000003 38.28125642703276 40.01746594469427
vertex 55.6 0 41.924362688472485
vertex 55.6 0 40.01746594469414
endloop
endfacet
facet normal 1 0 0
outer loop
vertex 55.6 93.6 40.01746594469414
vertex 55.6 93.6 41.924362688472485
vertex 55.6 57.64230397819367 41.924362688473
endloop
endfacet
facet normal 1 0 0
outer loop
vertex 55.6 93.6 40.01746594469414
vertex 55.6 57.64230397819367 41.924362688473
vertex 55.6 55.31874357296726 40.017465944694266
endloop
endfacet
facet normal 1 0 0
outer loop
vertex 55.6 35.95769602180626 41.92436268847291
vertex 55.6 34.05079927802764 44.24792309369944
vertex 55.6 0 44.247923093698994
endloop
endfacet
facet normal 1 0 0
outer loop
vertex 55.6 35.95769602180626 41.92436268847291
vertex 55.6 0 44.247923093698994
vertex 55.6 0 41.924362688472485
endloop
endfacet
facet normal 1 0 0
outer loop
vertex 55.6 93.6 41.924362688472485
vertex 55.6 93.6 44.247923093698994
vertex 55.6 59.549200721972184 44.247923093699534
endloop
endfacet
facet normal 1 0 0
outer loop
vertex 55.6 93.6 41.924362688472485
vertex 55.6 59.549200721972184 44.247923093699534
vertex 55.6 57.64230397819367 41.924362688473
endloop
endfacet
facet normal 1 0 0
outer loop
vertex 55.6 34.05079927802764 44.24792309369944
vertex 55.6 32.633847168160266 46.89885403706862
vertex 55.6 0 46.89885403706925
endloop
endfacet
facet normal 1 0 0
outer loop
vertex 55.6 34.05079927802764 44.24792309369944
vertex 55.6 0 46.89885403706925
vertex 55.6 0 44.247923093698994
endloop
endfacet
facet normal 1 0 0
outer loop
vertex 55.6 93.6 44.247923093698994
vertex 55.6 93.6 46.89885403706925
vertex 55.6 60.96615283183969 46.898854037068645
endloop
endfacet
facet normal 1 0 0
outer loop
vertex 55.6 93.6 44.247923093698994
vertex 55.6 60.96615283183969 46.898854037068645
vertex 55.6 59.549200721972184 44.247923093699534
endloop
endfacet
facet normal 1 0 0
outer loop
vertex 55.6 32.633847168160266 46.89885403706862
vertex 55.6 31.76129236715046 49.775281729086004
vertex 55.6 0 49.77528172908575
endloop
endfacet
facet normal 1 0 0
outer loop
vertex 55.6 32.633847168160266 46.89885403706862
vertex 55.6 0 49.77528172908575
vertex 55.6 0 46.89885403706925
endloop
endfacet
facet normal 1 0 0
outer loop
vertex 55.6 93.6 46.89885403706925
vertex 55.6 93.6 49.77528172908575
vertex 55.6 61.838707632849435 49.775281729086025
endloop
endfacet
facet normal 1 0 0
outer loop
vertex 55.6 93.6 46.89885403706925
vertex 55.6 61.838707632849435 49.775281729086025
vertex 55.6 60.96615283183969 46.898854037068645
endloop
endfacet
facet normal 1 4.823358821673563e-14 4.750593792418151e-15
outer loop
vertex 55.6 31.76129236715046 49.775281729086004
vertex 55.6 31.172040966182823 55.7580516042473
vertex 55.60000000000003 30.29948616517304 58.634479296264715
endloop
endfacet
facet normal 1 4.823358821673563e-14 4.750593792418151e-15
outer loop
vertex 55.6 31.76129236715046 49.775281729086004
vertex 55.60000000000003 30.29948616517304 58.634479296264715
vertex 55.60000000000003 28.882534055305698 61.285410239633876
endloop
endfacet
facet normal 1 4.823358821673563e-14 4.750593792418151e-15
outer loop
vertex 55.6 31.76129236715046 49.775281729086004
vertex 55.60000000000003 28.882534055305698 61.285410239633876
vertex 55.60000000000003 26.975637311527045 63.6089706448604
endloop
endfacet
facet normal 1 4.823358821673563e-14 4.750593792418151e-15
outer loop
vertex 55.6 31.76129236715046 49.775281729086004
vertex 55.60000000000003 26.975637311527045 63.6089706448604
vertex 55.6 24.65207690630053 65.51586738863895
endloop
endfacet
facet normal 1 4.823358821673563e-14 4.750593792418151e-15
outer loop
vertex 55.6 31.76129236715046 49.775281729086004
vertex 55.6 24.65207690630053 65.51586738863895
vertex 55.6 22.00114596293134 66.93281949850632
endloop
endfacet
facet normal 1 4.823358821673563e-14 4.750593792418151e-15
outer loop
vertex 55.6 31.76129236715046 49.775281729086004
vertex 55.6 22.00114596293134 66.93281949850632
vertex 55.6 20.131402424782966 67.5
endloop
endfacet
facet normal 1 4.823358821673563e-14 4.750593792418151e-15
outer loop
vertex 55.6 31.76129236715046 49.775281729086004
vertex 55.6 20.131402424782966 67.5
vertex 55.6 0.8 67.5
endloop
endfacet
facet normal 1 4.823358821673563e-14 4.750593792418151e-15
outer loop
vertex 55.6 31.76129236715046 49.775281729086004
vertex 55.6 0.8 67.5
vertex 55.6 0 67.5
endloop
endfacet
facet normal 1 4.823358821673563e-14 4.750593792418151e-15
outer loop
vertex 55.6 31.76129236715046 49.775281729086004
vertex 55.6 0 67.5
vertex 55.6 0 49.77528172908575
endloop
endfacet
facet normal 1 0 0
outer loop
vertex 55.6 93.6 49.77528172908575
vertex 55.6 93.6 67.5
vertex 55.6 92.8 67.5
endloop
endfacet
facet normal 1 0 0
outer loop
vertex 55.6 93.6 49.77528172908575
vertex 55.6 92.8 67.5
vertex 55.6 73.46859757521707 67.5
endloop
endfacet
facet normal 1 0 0
outer loop
vertex 55.6 93.6 49.77528172908575
vertex 55.6 73.46859757521707 67.5
vertex 55.6 71.5988540370686 66.93281949850639
endloop
endfacet
facet normal 1 0 0
outer loop
vertex 55.6 93.6 49.77528172908575
vertex 55.6 71.5988540370686 66.93281949850639
vertex 55.6 68.94792309369944 65.51586738863902
endloop
endfacet
facet normal 1 0 0
outer loop
vertex 55.6 93.6 49.77528172908575
vertex 55.6 68.94792309369944 65.51586738863902
vertex 55.6 66.62436268847296 63.608970644860406
endloop
endfacet
facet normal 1 0 0
outer loop
vertex 55.6 93.6 49.77528172908575
vertex 55.6 66.62436268847296 63.608970644860406
vertex 55.6 64.7174659446943 61.285410239633876
endloop
endfacet
facet normal 1 0 0
outer loop
vertex 55.6 93.6 49.77528172908575
vertex 55.6 64.7174659446943 61.285410239633876
vertex 55.6 63.30051383482697 58.6344792962647
endloop
endfacet
facet normal 1 0 0
outer loop
vertex 55.6 93.6 49.77528172908575
vertex 55.6 63.30051383482697 58.6344792962647
vertex 55.6 62.427959033817075 55.75805160424731
endloop
endfacet
facet normal 1 0 0
outer loop
vertex 55.6 93.6 49.77528172908575
vertex 55.6 62.427959033817075 55.75805160424731
vertex 55.6 61.838707632849435 49.775281729086025
endloop
endfacet
facet normal 1 -6.275173617446539e-17 0
outer loop
vertex 0.8 92.8 1
vertex 0.8 92.8 37.43333333333335
vertex 0.7999999999999972 46.80000000000001 37.43333333333336
endloop
endfacet
facet normal 1 -6.275173617446539e-17 0
outer loop
vertex 0.8 92.8 1
vertex 0.7999999999999972 46.80000000000001 37.43333333333336
vertex 0.8 0.8 37.43333333333335
endloop
endfacet
facet normal 1 -6.275173617446539e-17 0
outer loop
vertex 0.8 92.8 1
vertex 0.8 0.8 37.43333333333335
vertex 0.8 0.8 1
endloop
endfacet
facet normal 1 0 0
outer loop
vertex 0.7999999999999972 46.80000000000001 37.43333333333336
vertex 0.7999999999999972 43.80861506241936 37.727959033817136
vertex 0.8 0.8 37.727959033817164
endloop
endfacet
facet normal 1 0 0
outer loop
vertex 0.7999999999999972 46.80000000000001 37.43333333333336
vertex 0.8 0.8 37.727959033817164
vertex 0.8 0.8 37.43333333333335
endloop
endfacet
facet normal 1 0 0
outer loop
vertex 0.8 92.8 37.43333333333335
vertex 0.8 92.8 37.727959033817164
vertex 0.7999999999999972 49.791384937580645 37.72795903381715
endloop
endfacet
facet normal 1 0 0
outer loop
vertex 0.8 92.8 37.43333333333335
vertex 0.7999999999999972 49.791384937580645 37.72795903381715
vertex 0.7999999999999972 46.80000000000001 37.43333333333336
endloop
endfacet
facet normal 1 0 0
outer loop
vertex 0.7999999999999972 43.80861506241936 37.727959033817136
vertex 0.7999999999999972 40.93218737040195 38.60051383482692
vertex 0.8 0.8 38.600513834827105
endloop
endfacet
facet normal 1 0 0
outer loop
vertex 0.7999999999999972 43.80861506241936 37.727959033817136
vertex 0.8 0.8 38.600513834827105
vertex 0.8 0.8 37.727959033817164
endloop
endfacet
facet normal 1 0 0
outer loop
vertex 0.8 92.8 37.727959033817164
vertex 0.8 92.8 38.600513834827105
vertex 0.7999999999999972 52.66781262959812 38.60051383482685
endloop
endfacet
facet normal 1 0 0
outer loop
vertex 0.8 92.8 37.727959033817164
vertex 0.7999999999999972 52.66781262959812 38.60051383482685
vertex 0.7999999999999972 49.791384937580645 37.72795903381715
endloop
endfacet
facet normal 1 0 0
outer loop
vertex 0.7999999999999972 40.93218737040195 38.60051383482692
vertex 0.7999999999999976 38.28125642703276 40.01746594469427
vertex 0.8 0.8 40.017465944694116
endloop
endfacet
facet normal 1 0 0
outer loop
vertex 0.7999999999999972 40.93218737040195 38.60051383482692
vertex 0.8 0.8 40.017465944694116
vertex 0.8 0.8 38.600513834827105
endloop
endfacet
facet normal 1 0 0
outer loop
vertex 0.8 92.8 38.600513834827105
vertex 0.8 92.8 40.017465944694116
vertex 0.7999999999999972 55.31874357296726 40.017465944694266
endloop
endfacet
facet normal 1 0 0
outer loop
vertex 0.8 92.8 38.600513834827105
vertex 0.7999999999999972 55.31874357296726 40.017465944694266
vertex 0.7999999999999972 52.66781262959812 38.60051383482685
endloop
endfacet
facet normal 1 0 0
outer loop
vertex 0.7999999999999976 38.28125642703276 40.01746594469427
vertex 0.7999999999999972 35.95769602180626 41.92436268847291
vertex 0.8 0.8 41.924362688472485
endloop
endfacet
facet normal 1 0 0
outer loop
vertex 0.7999999999999976 38.28125642703276 40.01746594469427
vertex 0.8 0.8 41.924362688472485
vertex 0.8 0.8 40.017465944694116
endloop
endfacet
facet normal 1 0 0
outer loop
vertex 0.8 92.8 40.017465944694116
vertex 0.8 92.8 41.924362688472485
vertex 0.7999999999999972 57.64230397819367 41.924362688473
endloop
endfacet
facet normal 1 0 0
outer loop
vertex 0.8 92.8 40.017465944694116
vertex 0.7999999999999972 57.64230397819367 41.924362688473
vertex 0.7999999999999972 55.31874357296726 40.017465944694266
endloop
endfacet
facet normal 1 0 0
outer loop
vertex 0.7999999999999972 35.95769602180626 41.92436268847291
vertex 0.7999999999999972 34.05079927802764 44.24792309369944
vertex 0.8 0.8 44.247923093699015
endloop
endfacet
facet normal 1 0 0
outer loop
vertex 0.7999999999999972 35.95769602180626 41.92436268847291
vertex 0.8 0.8 44.247923093699015
vertex 0.8 0.8 41.924362688472485
endloop
endfacet
facet normal 1 0 0
outer loop
vertex 0.8 92.8 41.924362688472485
vertex 0.8 92.8 44.247923093699015
vertex 0.7999999999999972 59.549200721972184 44.247923093699534
endloop
endfacet
facet normal 1 0 0
outer loop
vertex 0.8 92.8 41.924362688472485
vertex 0.7999999999999972 59.549200721972184 44.247923093699534
vertex 0.7999999999999972 57.64230397819367 41.924362688473
endloop
endfacet
facet normal 1 0 0
outer loop
vertex 0.7999999999999972 34.05079927802764 44.24792309369944
vertex 0.7999999999999972 32.633847168160266 46.89885403706862
vertex 0.8 0.8 46.89885403706927
endloop
endfacet
facet normal 1 0 0
outer loop
vertex 0.7999999999999972 34.05079927802764 44.24792309369944
vertex 0.8 0.8 46.89885403706927
vertex 0.8 0.8 44.247923093699015
endloop
endfacet
facet normal 1 0 0
outer loop
vertex 0.8 92.8 44.247923093699015
vertex 0.8 92.8 46.89885403706927
vertex 0.7999999999999972 60.96615283183969 46.898854037068645
endloop
endfacet
facet normal 1 0 0
outer loop
vertex 0.8 92.8 44.247923093699015
vertex 0.7999999999999972 60.96615283183969 46.898854037068645
vertex 0.7999999999999972 59.549200721972184 44.247923093699534
endloop
endfacet
facet normal 1 0 0
outer loop
vertex 0.7999999999999972 32.633847168160266 46.89885403706862
vertex 0.7999999999999972 31.76129236715046 49.775281729086004
vertex 0.8 0.8 49.775281729085734
endloop
endfacet
facet normal 1 0 0
outer loop
vertex 0.7999999999999972 32.633847168160266 46.89885403706862
vertex 0.8 0.8 49.775281729085734
vertex 0.8 0.8 46.89885403706927
endloop
endfacet
facet normal 1 0 0
outer loop
vertex 0.8 92.8 46.89885403706927
vertex 0.8 92.8 49.775281729085734
vertex 0.7999999999999972 61.838707632849435 49.775281729086025
endloop
endfacet
facet normal 1 0 0
outer loop
vertex 0.8 92.8 46.89885403706927
vertex 0.7999999999999972 61.838707632849435 49.775281729086025
vertex 0.7999999999999972 60.96615283183969 46.898854037068645
endloop
endfacet
facet normal 1 0 0
outer loop
vertex 0.7999999999999972 31.76129236715046 49.775281729086004
vertex 0.7999999999999972 31.172040966182823 55.7580516042473
vertex 0.8000000000000005 30.29948616517304 58.634479296264715
endloop
endfacet
facet normal 1 0 0
outer loop
vertex 0.7999999999999972 31.76129236715046 49.775281729086004
vertex 0.8000000000000005 30.29948616517304 58.634479296264715
vertex 0.7999999999999976 28.882534055305698 61.285410239633876
endloop
endfacet
facet normal 1 0 0
outer loop
vertex 0.7999999999999972 31.76129236715046 49.775281729086004
vertex 0.7999999999999976 28.882534055305698 61.285410239633876
vertex 0.8000000000000005 26.975637311527045 63.6089706448604
endloop
endfacet
facet normal 1 0 0
outer loop
vertex 0.7999999999999972 31.76129236715046 49.775281729086004
vertex 0.8000000000000005 26.975637311527045 63.6089706448604
vertex 0.8 24.65207690630053 65.51586738863895
endloop
endfacet
facet normal 1 0 0
outer loop
vertex 0.7999999999999972 31.76129236715046 49.775281729086004
vertex 0.8 24.65207690630053 65.51586738863895
vertex 0.7999999999999972 22.00114596293134 66.93281949850632
endloop
endfacet
facet normal 1 0 0
outer loop
vertex 0.7999999999999972 31.76129236715046 49.775281729086004
vertex 0.7999999999999972 22.00114596293134 66.93281949850632
vertex 0.8 20.131402424782966 67.5
endloop
endfacet
facet normal 1 0 0
outer loop
vertex 0.7999999999999972 31.76129236715046 49.775281729086004
vertex 0.8 20.131402424782966 67.5
vertex 0.8 0.8 67.5
endloop
endfacet
facet normal 1 0 0
outer loop
vertex 0.7999999999999972 31.76129236715046 49.775281729086004
vertex 0.8 0.8 67.5
vertex 0.8 0.8 49.775281729085734
endloop
endfacet
facet normal 1 0 0
outer loop
vertex 0.8 92.8 49.775281729085734
vertex 0.8 92.8 67.5
vertex 0.8 73.46859757521707 67.5
endloop
endfacet
facet normal 1 0 0
outer loop
vertex 0.8 92.8 49.775281729085734
vertex 0.8 73.46859757521707 67.5
vertex 0.8 71.5988540370686 66.93281949850639
endloop
endfacet
facet normal 1 0 0
outer loop
vertex 0.8 92.8 49.775281729085734
vertex 0.8 71.5988540370686 66.93281949850639
vertex 0.8 68.94792309369944 65.51586738863902
endloop
endfacet
facet normal 1 0 0
outer loop
vertex 0.8 92.8 49.775281729085734
vertex 0.8 68.94792309369944 65.51586738863902
vertex 0.8 66.62436268847296 63.608970644860406
endloop
endfacet
facet normal 1 0 0
outer loop
vertex 0.8 92.8 49.775281729085734
vertex 0.8 66.62436268847296 63.608970644860406
vertex 0.8 64.7174659446943 61.285410239633876
endloop
endfacet
facet normal 1 0 0
outer loop
vertex 0.8 92.8 49.775281729085734
vertex 0.8 64.7174659446943 61.285410239633876
vertex 0.8 63.30051383482697 58.6344792962647
endloop
endfacet
facet normal 1 0 0
outer loop
vertex 0.8 92.8 49.775281729085734
vertex 0.8 63.30051383482697 58.6344792962647
vertex 0.8 62.427959033817075 55.75805160424731
endloop
endfacet
facet normal 1 0 0
outer loop
vertex 0.8 92.8 49.775281729085734
vertex 0.8 62.427959033817075 55.75805160424731
vertex 0.7999999999999972 61.838707632849435 49.775281729086025
endloop
endfacet
facet normal -1 0 0
outer loop
vertex 54.8 20.131402424782966 67.5
vertex 54.8 22.00114596293134 66.93281949850632
vertex 54.8 24.65207690630053 65.51586738863895
endloop
endfacet
facet normal -1 0 0
outer loop
vertex 54.8 20.131402424782966 67.5
vertex 54.8 24.65207690630053 65.51586738863895
vertex 54.800000000000026 26.975637311527045 63.6089706448604
endloop
endfacet
facet normal -1 0 0
outer loop
vertex 54.8 20.131402424782966 67.5
vertex 54.800000000000026 26.975637311527045 63.6089706448604
vertex 54.800000000000026 28.882534055305698 61.285410239633876
endloop
endfacet
facet normal -1 0 0
outer loop
vertex 54.8 20.131402424782966 67.5
vertex 54.800000000000026 28.882534055305698 61.285410239633876
vertex 54.800000000000026 30.29948616517304 58.634479296264715
endloop
endfacet
facet normal -1 0 0
outer loop
vertex 54.8 20.131402424782966 67.5
vertex 54.800000000000026 30.29948616517304 58.634479296264715
vertex 54.8 31.172040966182823 55.7580516042473
endloop
endfacet
facet normal -1 0 0
outer loop
vertex 54.8 20.131402424782966 67.5
vertex 54.8 31.172040966182823 55.7580516042473
vertex 54.8 31.76129236715046 49.775281729086004
endloop
endfacet
facet normal -1 0 0
outer loop
vertex 54.8 20.131402424782966 67.5
vertex 54.8 31.76129236715046 49.775281729086004
vertex 54.8 0.8 49.7752817290857
endloop
endfacet
facet normal -1 0 0
outer loop
vertex 54.8 20.131402424782966 67.5
vertex 54.8 0.8 49.7752817290857
vertex 54.8 0.8 67.5
endloop
endfacet
facet normal -1 0 0
outer loop
vertex 54.8 92.8 67.5
vertex 54.8 92.8 49.7752817290857
vertex 54.8 61.838707632849435 49.775281729086025
endloop
endfacet
facet normal -1 0 0
outer loop
vertex 54.8 92.8 67.5
vertex 54.8 61.838707632849435 49.775281729086025
vertex 54.8 62.427959033817075 55.75805160424731
endloop
endfacet
facet normal -1 0 0
outer loop
vertex 54.8 92.8 67.5
vertex 54.8 62.427959033817075 55.75805160424731
vertex 54.8 63.30051383482697 58.6344792962647
endloop
endfacet
facet normal -1 0 0
outer loop
vertex 54.8 92.8 67.5
vertex 54.8 63.30051383482697 58.6344792962647
vertex 54.8 64.7174659446943 61.285410239633876
endloop
endfacet
facet normal -1 0 0
outer loop
vertex 54.8 92.8 67.5
vertex 54.8 64.7174659446943 61.285410239633876
vertex 54.8 66.62436268847296 63.608970644860406
endloop
endfacet
facet normal -1 0 0
outer loop
vertex 54.8 92.8 67.5
vertex 54.8 66.62436268847296 63.608970644860406
vertex 54.8 68.94792309369944 65.51586738863902
endloop
endfacet
facet normal -1 0 0
outer loop
vertex 54.8 92.8 67.5
vertex 54.8 68.94792309369944 65.51586738863902
vertex 54.8 71.5988540370686 66.93281949850639
endloop
endfacet
facet normal -1 0 0
outer loop
vertex 54.8 92.8 67.5
vertex 54.8 71.5988540370686 66.93281949850639
vertex 54.8 73.46859757521707 67.5
endloop
endfacet
facet normal -1 0 0
outer loop
vertex 54.8 31.76129236715046 49.775281729086004
vertex 54.8 32.633847168160266 46.89885403706862
vertex 54.8 0.8 46.89885403706928
endloop
endfacet
facet normal -1 0 0
outer loop
vertex 54.8 31.76129236715046 49.775281729086004
vertex 54.8 0.8 46.89885403706928
vertex 54.8 0.8 49.7752817290857
endloop
endfacet
facet normal -1 0 0
outer loop
vertex 54.8 92.8 49.7752817290857
vertex 54.8 92.8 46.89885403706928
vertex 54.8 60.96615283183969 46.898854037068645
endloop
endfacet
facet normal -1 0 0
outer loop
vertex 54.8 92.8 49.7752817290857
vertex 54.8 60.96615283183969 46.898854037068645
vertex 54.8 61.838707632849435 49.775281729086025
endloop
endfacet
facet normal -1 0 0
outer loop
vertex 54.8 32.633847168160266 46.89885403706862
vertex 54.8 34.05079927802764 44.24792309369944
vertex 54.8 0.8 44.247923093699
endloop
endfacet
facet normal -1 0 0
outer loop
vertex 54.8 32.633847168160266 46.89885403706862
vertex 54.8 0.8 44.247923093699
vertex 54.8 0.8 46.89885403706928
endloop
endfacet
facet normal -1 0 0
outer loop
vertex 54.8 92.8 46.89885403706928
vertex 54.8 92.8 44.247923093699
vertex 54.8 59.549200721972184 44.247923093699534
endloop
endfacet
facet normal -1 0 0
outer loop
vertex 54.8 92.8 46.89885403706928
vertex 54.8 59.549200721972184 44.247923093699534
vertex 54.8 60.96615283183969 46.898854037068645
endloop
endfacet
facet normal -1 0 0
outer loop
vertex 54.8 34.05079927802764 44.24792309369944
vertex 54.8 35.95769602180626 41.92436268847291
vertex 54.8 0.8 41.92436268847251
endloop
endfacet
facet normal -1 0 0
outer loop
vertex 54.8 34.05079927802764 44.24792309369944
vertex 54.8 0.8 41.92436268847251
vertex 54.8 0.8 44.247923093699
endloop
endfacet
facet normal -1 0 0
outer loop
vertex 54.8 92.8 44.247923093699
vertex 54.8 92.8 41.92436268847251
vertex 54.8 57.64230397819367 41.924362688473
endloop
endfacet
facet normal -1 0 0
outer loop
vertex 54.8 92.8 44.247923093699
vertex 54.8 57.64230397819367 41.924362688473
vertex 54.8 59.549200721972184 44.247923093699534
endloop
endfacet
facet normal -1 0 0
outer loop
vertex 54.8 35.95769602180626 41.92436268847291
vertex 54.800000000000026 38.28125642703276 40.01746594469427
vertex 54.8 0.8 40.01746594469413
endloop
endfacet
facet normal -1 0 0
outer loop
vertex 54.8 35.95769602180626 41.92436268847291
vertex 54.8 0.8 40.01746594469413
vertex 54.8 0.8 41.92436268847251
endloop
endfacet
facet normal -1 0 0
outer loop
vertex 54.8 92.8 41.92436268847251
vertex 54.8 92.8 40.01746594469413
vertex 54.8 55.31874357296726 40.017465944694266
endloop
endfacet
facet normal -1 0 0
outer loop
vertex 54.8 92.8 41.92436268847251
vertex 54.8 55.31874357296726 40.017465944694266
vertex 54.8 57.64230397819367 41.924362688473
endloop
endfacet
facet normal -1 0 0
outer loop
vertex 54.800000000000026 38.28125642703276 40.01746594469427
vertex 54.8 40.93218737040195 38.60051383482692
vertex 54.8 0.8 38.6005138348271
endloop
endfacet
facet normal -1 0 0
outer loop
vertex 54.800000000000026 38.28125642703276 40.01746594469427
vertex 54.8 0.8 38.6005138348271
vertex 54.8 0.8 40.01746594469413
endloop
endfacet
facet normal -1 0 0
outer loop
vertex 54.8 92.8 40.01746594469413
vertex 54.8 92.8 38.6005138348271
vertex 54.8 52.66781262959812 38.60051383482685
endloop
endfacet
facet normal -1 0 0
outer loop
vertex 54.8 92.8 40.01746594469413
vertex 54.8 52.66781262959812 38.60051383482685
vertex 54.8 55.31874357296726 40.017465944694266
endloop
endfacet
facet normal -1 0 0
outer loop
vertex 54.8 40.93218737040195 38.60051383482692
vertex 54.8 43.80861506241936 37.727959033817136
vertex 54.8 0.8 37.72795903381716
endloop
endfacet
facet normal -1 0 0
outer loop
vertex 54.8 40.93218737040195 38.60051383482692
vertex 54.8 0.8 37.72795903381716
vertex 54.8 0.8 38.6005138348271
endloop
endfacet
facet normal -1 0 0
outer loop
vertex 54.8 92.8 38.6005138348271
vertex 54.8 92.8 37.72795903381716
vertex 54.8 49.791384937580645 37.72795903381715
endloop
endfacet
facet normal -1 0 0
outer loop
vertex 54.8 92.8 38.6005138348271
vertex 54.8 49.791384937580645 37.72795903381715
vertex 54.8 52.66781262959812 38.60051383482685
endloop
endfacet
facet normal -1 0 0
outer loop
vertex 54.8 43.80861506241936 37.727959033817136
vertex 54.8 46.80000000000001 37.43333333333336
vertex 54.8 0.8 37.433333333333344
endloop
endfacet
facet normal -1 0 0
outer loop
vertex 54.8 43.80861506241936 37.727959033817136
vertex 54.8 0.8 37.433333333333344
vertex 54.8 0.8 37.72795903381716
endloop
endfacet
facet normal -1 0 0
outer loop
vertex 54.8 92.8 37.72795903381716
vertex 54.8 92.8 37.433333333333344
vertex 54.8 46.80000000000001 37.43333333333336
endloop
endfacet
facet normal -1 0 0
outer loop
vertex 54.8 92.8 37.72795903381716
vertex 54.8 46.80000000000001 37.43333333333336
vertex 54.8 49.791384937580645 37.72795903381715
endloop
endfacet
facet normal -1 0 0
outer loop
vertex 54.8 46.80000000000001 37.43333333333336
vertex 54.8 92.8 37.433333333333344
vertex 54.8 92.8 1
endloop
endfacet
facet normal -1 0 0
outer loop
vertex 54.8 46.80000000000001 37.43333333333336
vertex 54.8 92.8 1
vertex 54.8 0.8 1
endloop
endfacet
facet normal -1 0 0
outer loop
vertex 54.8 46.80000000000001 37.43333333333336
vertex 54.8 0.8 1
vertex 54.8 0.8 37.433333333333344
endloop
endfacet
endsolid csg.js
