solid csg.js
facet normal 0 -1 0
outer loop
vertex 0 0 49.7752817290854
vertex 0 0 46.898854037068574
vertex 0 0 44.247923093699974
endloop
endfacet
facet normal 0 -1 0
outer loop
vertex 0 0 49.7752817290854
vertex 0 0 44.247923093699974
vertex 0 0 41.92436268847326
endloop
endfacet
facet normal 0 -1 0
outer loop
vertex 0 0 49.7752817290854
vertex 0 0 41.92436268847326
vertex 0 0 40.01746594469405
endloop
endfacet
facet normal 0 -1 0
outer loop
vertex 0 0 49.7752817290854
vertex 0 0 40.01746594469405
vertex 0 0 38.60051383482685
endloop
endfacet
facet normal 0 -1 0
outer loop
vertex 0 0 49.7752817290854
vertex 0 0 38.60051383482685
vertex 0 0 37.727959033817164
endloop
endfacet
facet normal 0 -1 0
outer loop
vertex 0 0 49.7752817290854
vertex 0 0 37.727959033817164
vertex 0 0 37.433333333333344
endloop
endfacet
facet normal 0 -1 0
outer loop
vertex 0 0 49.7752817290854
vertex 0 0 37.433333333333344
vertex 0 0 0
endloop
endfacet
facet normal 0 -1 0
outer loop
vertex 0 0 49.7752817290854
vertex 0 0 0
vertex 19.6 0 0
endloop
endfacet
facet normal 0 -1 0
outer loop
vertex 0 0 49.7752817290854
vertex 19.6 0 0
vertex 19.6 0 37.433333333333344
endloop
endfacet
facet normal 0 -1 0
outer loop
vertex 0 0 49.7752817290854
vertex 19.6 0 37.433333333333344
vertex 19.6 0 37.727959033817164
endloop
endfacet
facet normal 0 -1 0
outer loop
vertex 0 0 49.7752817290854
vertex 19.6 0 37.727959033817164
vertex 19.6 0 38.60051383482684
endloop
endfacet
facet normal 0 -1 0
outer loop
vertex 0 0 49.7752817290854
vertex 19.6 0 38.60051383482684
vertex 19.6 0 40.01746594469403
endloop
endfacet
facet normal 0 -1 0
outer loop
vertex 0 0 49.7752817290854
vertex 19.6 0 40.01746594469403
vertex 19.6 0 41.92436268847327
endloop
endfacet
facet normal 0 -1 0
outer loop
vertex 0 0 49.7752817290854
vertex 19.6 0 41.92436268847327
vertex 19.6 0 44.24792309369998
endloop
endfacet
facet normal 0 -1 0
outer loop
vertex 0 0 49.7752817290854
vertex 19.6 0 44.24792309369998
vertex 19.6 0 46.89885403706855
endloop
endfacet
facet normal 0 -1 0
outer loop
vertex 0 0 49.7752817290854
vertex 19.6 0 46.89885403706855
vertex 19.6 0 49.77528172908545
endloop
endfacet
facet normal 0 -1 0
outer loop
vertex 0 0 49.7752817290854
vertex 19.6 0 49.77528172908545
vertex 19.6 0 67.5
endloop
endfacet
facet normal 0 -1 0
outer loop
vertex 0 0 49.7752817290854
vertex 19.6 0 67.5
vertex 0 0 67.5
endloop
endfacet
facet normal 0 1 0
outer loop
vertex 0 93.6 0
vertex 0 93.6 37.433333333333344
vertex 0 93.6 37.727959033817164
endloop
endfacet
facet normal 0 1 0
outer loop
vertex 0 93.6 0
vertex 0 93.6 37.727959033817164
vertex 0 93.6 38.60051383482685
endloop
endfacet
facet normal 0 1 0
outer loop
vertex 0 93.6 0
vertex 0 93.6 38.60051383482685
vertex 0 93.6 40.01746594469405
endloop
endfacet
facet normal 0 1 0
outer loop
vertex 0 93.6 0
vertex 0 93.6 40.01746594469405
vertex 0 93.6 41.92436268847326
endloop
endfacet
facet normal 0 1 0
outer loop
vertex 0 93.6 0
vertex 0 93.6 41.92436268847326
vertex 0 93.6 44.247923093699974
endloop
endfacet
facet normal 0 1 0
outer loop
vertex 0 93.6 0
vertex 0 93.6 44.247923093699974
vertex 0 93.6 46.898854037068574
endloop
endfacet
facet normal 0 1 0
outer loop
vertex 0 93.6 0
vertex 0 93.6 46.898854037068574
vertex 0 93.6 49.7752817290854
endloop
endfacet
facet normal 0 1 0
outer loop
vertex 0 93.6 0
vertex 0 93.6 49.7752817290854
vertex 0 93.6 67.5
endloop
endfacet
facet normal 0 1 0
outer loop
vertex 0 93.6 0
vertex 0 93.6 67.5
vertex 19.6 93.6 67.5
endloop
endfacet
facet normal 0 1 0
outer loop
vertex 0 93.6 0
vertex 19.6 93.6 67.5
vertex 19.6 93.6 49.77528172908545
endloop
endfacet
facet normal 0 1 0
outer loop
vertex 0 93.6 0
vertex 19.6 93.6 49.77528172908545
vertex 19.6 93.6 46.89885403706855
endloop
endfacet
facet normal 0 1 0
outer loop
vertex 0 93.6 0
vertex 19.6 93.6 46.89885403706855
vertex 19.6 93.6 44.24792309369998
endloop
endfacet
facet normal 0 1 0
outer loop
vertex 0 93.6 0
vertex 19.6 93.6 44.24792309369998
vertex 19.6 93.6 41.92436268847327
endloop
endfacet
facet normal 0 1 0
outer loop
vertex 0 93.6 0
vertex 19.6 93.6 41.92436268847327
vertex 19.6 93.6 40.01746594469403
endloop
endfacet
facet normal 0 1 0
outer loop
vertex 0 93.6 0
vertex 19.6 93.6 40.01746594469403
vertex 19.6 93.6 38.60051383482684
endloop
endfacet
facet normal 0 1 0
outer loop
vertex 0 93.6 0
vertex 19.6 93.6 38.60051383482684
vertex 19.6 93.6 37.727959033817164
endloop
endfacet
facet normal 0 1 0
outer loop
vertex 0 93.6 0
vertex 19.6 93.6 37.727959033817164
vertex 19.6 93.6 37.433333333333344
endloop
endfacet
facet normal 0 1 0
outer loop
vertex 0 93.6 0
vertex 19.6 93.6 37.433333333333344
vertex 19.6 93.6 0
endloop
endfacet
facet normal 0 0 -1
outer loop
vertex 0 0 0
vertex 0 93.6 0
vertex 19.6 93.6 0
endloop
endfacet
facet normal 0 0 -1
outer loop
vertex 0 0 0
vertex 19.6 93.6 0
vertex 19.6 0 0
endloop
endfacet
facet normal 0 1 0
outer loop
vertex 0.8 0.8 37.433333333333344
vertex 0.8 0.8 37.727959033817164
vertex 0.8 0.8 38.60051383482684
endloop
endfacet
facet normal 0 1 0
outer loop
vertex 0.8 0.8 37.433333333333344
vertex 0.8 0.8 38.60051383482684
vertex 0.8 0.8 40.017465944694045
endloop
endfacet
facet normal 0 1 0
outer loop
vertex 0.8 0.8 37.433333333333344
vertex 0.8 0.8 40.017465944694045
vertex 0.8 0.8 41.92436268847323
endloop
endfacet
facet normal 0 1 0
outer loop
vertex 0.8 0.8 37.433333333333344
vertex 0.8 0.8 41.92436268847323
vertex 0.8 0.8 44.24792309369997
endloop
endfacet
facet normal 0 1 0
outer loop
vertex 0.8 0.8 37.433333333333344
vertex 0.8 0.8 44.24792309369997
vertex 0.8 0.8 46.89885403706862
endloop
endfacet
facet normal 0 1 0
outer loop
vertex 0.8 0.8 37.433333333333344
vertex 0.8 0.8 46.89885403706862
vertex 0.8 0.8 49.77528172908539
endloop
endfacet
facet normal 0 1 0
outer loop
vertex 0.8 0.8 37.433333333333344
vertex 0.8 0.8 49.77528172908539
vertex 0.8 0.8 67.5
endloop
endfacet
facet normal 0 1 0
outer loop
vertex 0.8 0.8 37.433333333333344
vertex 0.8 0.8 67.5
vertex 18.8 0.8 67.5
endloop
endfacet
facet normal 0 1 0
outer loop
vertex 0.8 0.8 37.433333333333344
vertex 18.8 0.8 67.5
vertex 18.8 0.8 49.775281729085386
endloop
endfacet
facet normal 0 1 0
outer loop
vertex 0.8 0.8 37.433333333333344
vertex 18.8 0.8 49.775281729085386
vertex 18.8 0.8 46.8988540370686
endloop
endfacet
facet normal 0 1 0
outer loop
vertex 0.8 0.8 37.433333333333344
vertex 18.8 0.8 46.8988540370686
vertex 18.8 0.8 44.24792309369996
endloop
endfacet
facet normal 0 1 0
outer loop
vertex 0.8 0.8 37.433333333333344
vertex 18.8 0.8 44.24792309369996
vertex 18.8 0.8 41.924362688473245
endloop
endfacet
facet normal 0 1 0
outer loop
vertex 0.8 0.8 37.433333333333344
vertex 18.8 0.8 41.924362688473245
vertex 18.8 0.8 40.01746594469403
endloop
endfacet
facet normal 0 1 0
outer loop
vertex 0.8 0.8 37.433333333333344
vertex 18.8 0.8 40.01746594469403
vertex 18.8 0.8 38.60051383482684
endloop
endfacet
facet normal 0 1 0
outer loop
vertex 0.8 0.8 37.433333333333344
vertex 18.8 0.8 38.60051383482684
vertex 18.8 0.8 37.72795903381716
endloop
endfacet
facet normal 0 1 0
outer loop
vertex 0.8 0.8 37.433333333333344
vertex 18.8 0.8 37.72795903381716
vertex 18.8 0.8 37.433333333333344
endloop
endfacet
facet normal 0 1 0
outer loop
vertex 0.8 0.8 37.433333333333344
vertex 18.8 0.8 37.433333333333344
vertex 18.8 0.8 1
endloop
endfacet
facet normal 0 1 0
outer loop
vertex 0.8 0.8 37.433333333333344
vertex 18.8 0.8 1
vertex 0.8 0.8 1
endloop
endfacet
facet normal 0 -1 0
outer loop
vertex 18.8 92.8 1
vertex 18.8 92.8 37.433333333333344
vertex 18.8 92.8 37.72795903381716
endloop
endfacet
facet normal 0 -1 0
outer loop
vertex 18.8 92.8 1
vertex 18.8 92.8 37.72795903381716
vertex 18.8 92.8 38.60051383482684
endloop
endfacet
facet normal 0 -1 0
outer loop
vertex 18.8 92.8 1
vertex 18.8 92.8 38.60051383482684
vertex 18.8 92.8 40.01746594469403
endloop
endfacet
facet normal 0 -1 0
outer loop
vertex 18.8 92.8 1
vertex 18.8 92.8 40.01746594469403
vertex 18.8 92.8 41.924362688473245
endloop
endfacet
facet normal 0 -1 0
outer loop
vertex 18.8 92.8 1
vertex 18.8 92.8 41.924362688473245
vertex 18.8 92.8 44.24792309369996
endloop
endfacet
facet normal 0 -1 0
outer loop
vertex 18.8 92.8 1
vertex 18.8 92.8 44.24792309369996
vertex 18.8 92.8 46.8988540370686
endloop
endfacet
facet normal 0 -1 0
outer loop
vertex 18.8 92.8 1
vertex 18.8 92.8 46.8988540370686
vertex 18.8 92.8 49.775281729085386
endloop
endfacet
facet normal 0 -1 0
outer loop
vertex 18.8 92.8 1
vertex 18.8 92.8 49.775281729085386
vertex 18.8 92.8 67.5
endloop
endfacet
facet normal 0 -1 0
outer loop
vertex 18.8 92.8 1
vertex 18.8 92.8 67.5
vertex 0.8 92.8 67.5
endloop
endfacet
facet normal 0 -1 0
outer loop
vertex 18.8 92.8 1
vertex 0.8 92.8 67.5
vertex 0.8 92.8 49.77528172908539
endloop
endfacet
facet normal 0 -1 0
outer loop
vertex 18.8 92.8 1
vertex 0.8 92.8 49.77528172908539
vertex 0.8 92.8 46.89885403706862
endloop
endfacet
facet normal 0 -1 0
outer loop
vertex 18.8 92.8 1
vertex 0.8 92.8 46.89885403706862
vertex 0.8 92.8 44.24792309369997
endloop
endfacet
facet normal 0 -1 0
outer loop
vertex 18.8 92.8 1
vertex 0.8 92.8 44.24792309369997
vertex 0.8 92.8 41.92436268847323
endloop
endfacet
facet normal 0 -1 0
outer loop
vertex 18.8 92.8 1
vertex 0.8 92.8 41.92436268847323
vertex 0.8 92.8 40.017465944694045
endloop
endfacet
facet normal 0 -1 0
outer loop
vertex 18.8 92.8 1
vertex 0.8 92.8 40.017465944694045
vertex 0.8 92.8 38.60051383482684
endloop
endfacet
facet normal 0 -1 0
outer loop
vertex 18.8 92.8 1
vertex 0.8 92.8 38.60051383482684
vertex 0.8 92.8 37.727959033817164
endloop
endfacet
facet normal 0 -1 0
outer loop
vertex 18.8 92.8 1
vertex 0.8 92.8 37.727959033817164
vertex 0.8 92.8 37.433333333333344
endloop
endfacet
facet normal 0 -1 0
outer loop
vertex 18.8 92.8 1
vertex 0.8 92.8 37.433333333333344
vertex 0.8 92.8 1
endloop
endfacet
facet normal 0 0 1
outer loop
vertex 18.8 0.8 1
vertex 18.8 92.8 1
vertex 0.8 92.8 1
endloop
endfacet
facet normal 0 0 1
outer loop
vertex 18.8 0.8 1
vertex 0.8 92.8 1
vertex 0.8 0.8 1
endloop
endfacet
facet normal 0 0 1
outer loop
vertex 19.6 0 67.5
vertex 19.6 0.8 67.5
vertex 18.8 0.8 67.5
endloop
endfacet
facet normal 0 0 1
outer loop
vertex 19.6 0 67.5
vertex 18.8 0.8 67.5
vertex 0.8 0.8 67.5
endloop
endfacet
facet normal 0 0 1
outer loop
vertex 19.6 0 67.5
vertex 0.8 0.8 67.5
vertex 0 0.8 67.5
endloop
endfacet
facet normal 0 0 1
outer loop
vertex 19.6 0 67.5
vertex 0 0.8 67.5
vertex 0 0 67.5
endloop
endfacet
facet normal 0 0 1
outer loop
vertex 0.8 0.8 67.5
vertex 0.8 20.1314024247827 67.5
vertex 0 20.1314024247827 67.5
endloop
endfacet
facet normal 0 0 1
outer loop
vertex 0.8 0.8 67.5
vertex 0 20.1314024247827 67.5
vertex 0 0.8 67.5
endloop
endfacet
facet normal 0 0 1
outer loop
vertex 19.6 0.8 67.5
vertex 19.6 20.1314024247827 67.5
vertex 18.8 20.1314024247827 67.5
endloop
endfacet
facet normal 0 0 1
outer loop
vertex 19.6 0.8 67.5
vertex 18.8 20.1314024247827 67.5
vertex 18.8 0.8 67.5
endloop
endfacet
facet normal 0 0 1
outer loop
vertex 0.8 73.46859757521707 67.5
vertex 0.8 92.8 67.5
vertex 0 92.8 67.5
endloop
endfacet
facet normal 0 0 1
outer loop
vertex 0.8 73.46859757521707 67.5
vertex 0 92.8 67.5
vertex 0 73.46859757521707 67.5
endloop
endfacet
facet normal 0 0 1
outer loop
vertex 19.6 73.46859757521707 67.5
vertex 19.6 92.8 67.5
vertex 18.8 92.8 67.5
endloop
endfacet
facet normal 0 0 1
outer loop
vertex 19.6 73.46859757521707 67.5
vertex 18.8 92.8 67.5
vertex 18.8 73.46859757521707 67.5
endloop
endfacet
facet normal 0 0 1
outer loop
vertex 0.8 92.8 67.5
vertex 18.8 92.8 67.5
vertex 19.6 92.8 67.5
endloop
endfacet
facet normal 0 0 1
outer loop
vertex 0.8 92.8 67.5
vertex 19.6 92.8 67.5
vertex 19.6 93.6 67.5
endloop
endfacet
facet normal 0 0 1
outer loop
vertex 0.8 92.8 67.5
vertex 19.6 93.6 67.5
vertex 0 93.6 67.5
endloop
endfacet
facet normal 0 0 1
outer loop
vertex 0.8 92.8 67.5
vertex 0 93.6 67.5
vertex 0 92.8 67.5
endloop
endfacet
facet normal 0 -0.9951847266721963 0.09801714032956745
outer loop
vertex 0.8000000000000007 61.838707632849435 49.775281729086025
vertex 0.8 62.427959033817075 55.75805160424731
vertex 7.55726379905017e-16 62.427959033817075 55.75805160424731
endloop
endfacet
facet normal 0 -0.9951847266721963 0.09801714032956745
outer loop
vertex 0.8000000000000007 61.838707632849435 49.775281729086025
vertex 7.55726379905017e-16 62.427959033817075 55.75805160424731
vertex 1.1220653787875911e-15 61.838707632849435 49.775281729086025
endloop
endfacet
facet normal 0 -0.9951847266721963 0.09801714032956745
outer loop
vertex 19.6 61.838707632849435 49.775281729086025
vertex 19.6 62.427959033817075 55.75805160424731
vertex 18.8 62.427959033817075 55.75805160424731
endloop
endfacet
facet normal 0 -0.9951847266721963 0.09801714032956745
outer loop
vertex 19.6 61.838707632849435 49.775281729086025
vertex 18.8 62.427959033817075 55.75805160424731
vertex 18.8 61.838707632849435 49.775281729086025
endloop
endfacet
facet normal 0 -0.9569403357322095 0.29028467725446094
outer loop
vertex 0.8000000000000007 60.96615283183978 46.89885403706861
vertex 0.8000000000000007 61.838707632849435 49.775281729086025
vertex 1.1220653787875911e-15 61.838707632849435 49.775281729086025
endloop
endfacet
facet normal 0 -0.9569403357322095 0.29028467725446094
outer loop
vertex 0.8000000000000007 60.96615283183978 46.89885403706861
vertex 1.1220653787875911e-15 61.838707632849435 49.775281729086025
vertex 1.2981957770879867e-15 60.96615283183978 46.89885403706861
endloop
endfacet
facet normal 0 -0.9569403357322095 0.29028467725446094
outer loop
vertex 19.6 60.96615283183978 46.89885403706861
vertex 19.6 61.838707632849435 49.775281729086025
vertex 18.8 61.838707632849435 49.775281729086025
endloop
endfacet
facet normal 0 -0.9569403357322095 0.29028467725446094
outer loop
vertex 19.6 60.96615283183978 46.89885403706861
vertex 18.8 61.838707632849435 49.775281729086025
vertex 18.8 60.96615283183978 46.89885403706861
endloop
endfacet
facet normal 0 -0.8819212643483568 0.4713967368259944
outer loop
vertex 0.8000000000000012 59.54920072197241 44.24792309369943
vertex 0.8000000000000007 60.96615283183978 46.89885403706861
vertex 1.2981957770879867e-15 60.96615283183978 46.89885403706861
endloop
endfacet
facet normal 0 -0.8819212643483568 0.4713967368259944
outer loop
vertex 0.8000000000000012 59.54920072197241 44.24792309369943
vertex 1.2981957770879867e-15 60.96615283183978 46.89885403706861
vertex 1.4605184818158748e-15 59.54920072197241 44.24792309369943
endloop
endfacet
facet normal 0 -0.8819212643483568 0.4713967368259944
outer loop
vertex 19.60000000000001 59.54920072197241 44.24792309369943
vertex 19.6 60.96615283183978 46.89885403706861
vertex 18.8 60.96615283183978 46.89885403706861
endloop
endfacet
facet normal 0 -0.8819212643483568 0.4713967368259944
outer loop
vertex 19.60000000000001 59.54920072197241 44.24792309369943
vertex 18.8 60.96615283183978 46.89885403706861
vertex 18.800000000000008 59.54920072197241 44.24792309369943
endloop
endfacet
facet normal 0 -0.7730104533627347 0.6343932841636484
outer loop
vertex 0.8000000000000007 57.64230397819367 41.924362688473
vertex 0.8000000000000012 59.54920072197241 44.24792309369943
vertex 1.4605184818158748e-15 59.54920072197241 44.24792309369943
endloop
endfacet
facet normal 0 -0.7730104533627347 0.6343932841636484
outer loop
vertex 0.8000000000000007 57.64230397819367 41.924362688473
vertex 1.4605184818158748e-15 59.54920072197241 44.24792309369943
vertex 1.6027955224601824e-15 57.64230397819367 41.924362688473
endloop
endfacet
facet normal 0 -0.7730104533627347 0.6343932841636484
outer loop
vertex 19.6 57.64230397819367 41.924362688473
vertex 19.60000000000001 59.54920072197241 44.24792309369943
vertex 18.800000000000008 59.54920072197241 44.24792309369943
endloop
endfacet
facet normal 0 -0.7730104533627347 0.6343932841636484
outer loop
vertex 19.6 57.64230397819367 41.924362688473
vertex 18.800000000000008 59.54920072197241 44.24792309369943
vertex 18.8 57.64230397819367 41.924362688473
endloop
endfacet
facet normal 0 -0.6343932841636405 0.773010453362741
outer loop
vertex 0.8000000000000007 55.31874357296713 40.01746594469444
vertex 0.8000000000000007 57.64230397819367 41.924362688473
vertex 1.6027955224601824e-15 57.64230397819367 41.924362688473
endloop
endfacet
facet normal 0 -0.6343932841636405 0.773010453362741
outer loop
vertex 0.8000000000000007 55.31874357296713 40.01746594469444
vertex 1.6027955224601824e-15 57.64230397819367 41.924362688473
vertex 1.7195592721388329e-15 55.31874357296713 40.01746594469444
endloop
endfacet
facet normal 0 -0.6343932841636405 0.773010453362741
outer loop
vertex 19.6 55.31874357296713 40.01746594469444
vertex 19.6 57.64230397819367 41.924362688473
vertex 18.8 57.64230397819367 41.924362688473
endloop
endfacet
facet normal 0 -0.6343932841636405 0.773010453362741
outer loop
vertex 19.6 55.31874357296713 40.01746594469444
vertex 18.8 57.64230397819367 41.924362688473
vertex 18.8 55.31874357296713 40.01746594469444
endloop
endfacet
facet normal 0 -0.4713967368259915 0.8819212643483584
outer loop
vertex 0.8000000000000007 52.66781262959802 38.600513834827
vertex 0.8000000000000007 55.31874357296713 40.01746594469444
vertex 1.7195592721388329e-15 55.31874357296713 40.01746594469444
endloop
endfacet
facet normal 0 -0.4713967368259915 0.8819212643483584
outer loop
vertex 0.8000000000000007 52.66781262959802 38.600513834827
vertex 1.7195592721388329e-15 55.31874357296713 40.01746594469444
vertex 1.806322565433541e-15 52.66781262959802 38.600513834827
endloop
endfacet
facet normal 0 -0.4713967368259915 0.8819212643483584
outer loop
vertex 19.600000000000005 52.66781262959802 38.600513834827
vertex 19.6 55.31874357296713 40.01746594469444
vertex 18.8 55.31874357296713 40.01746594469444
endloop
endfacet
facet normal 0 -0.4713967368259915 0.8819212643483584
outer loop
vertex 19.600000000000005 52.66781262959802 38.600513834827
vertex 18.8 55.31874357296713 40.01746594469444
vertex 18.8 52.66781262959802 38.600513834827
endloop
endfacet
facet normal 0 -0.29028467725446094 0.9569403357322094
outer loop
vertex 0.8000000000000007 49.791384937580645 37.72795903381715
vertex 0.8000000000000007 52.66781262959802 38.600513834827
vertex 1.806322565433541e-15 52.66781262959802 38.600513834827
endloop
endfacet
facet normal 0 -0.29028467725446094 0.9569403357322094
outer loop
vertex 0.8000000000000007 49.791384937580645 37.72795903381715
vertex 1.806322565433541e-15 52.66781262959802 38.600513834827
vertex 1.8597511376404067e-15 49.791384937580645 37.72795903381715
endloop
endfacet
facet normal 0 -0.29028467725446094 0.9569403357322094
outer loop
vertex 19.600000000000005 49.791384937580645 37.72795903381715
vertex 19.600000000000005 52.66781262959802 38.600513834827
vertex 18.8 52.66781262959802 38.600513834827
endloop
endfacet
facet normal 0 -0.29028467725446094 0.9569403357322094
outer loop
vertex 19.600000000000005 49.791384937580645 37.72795903381715
vertex 18.8 52.66781262959802 38.600513834827
vertex 18.8 49.791384937580645 37.72795903381715
endloop
endfacet
facet normal 0 -0.09801714032956041 0.9951847266721969
outer loop
vertex 0.8000000000000007 46.800000000000004 37.43333333333336
vertex 0.8000000000000007 49.791384937580645 37.72795903381715
vertex 1.8597511376404067e-15 49.791384937580645 37.72795903381715
endloop
endfacet
facet normal 0 -0.09801714032956041 0.9951847266721969
outer loop
vertex 0.8000000000000007 46.800000000000004 37.43333333333336
vertex 1.8597511376404067e-15 49.791384937580645 37.72795903381715
vertex 1.8777917586926084e-15 46.800000000000004 37.43333333333336
endloop
endfacet
facet normal 0 -0.09801714032956041 0.9951847266721969
outer loop
vertex 19.600000000000005 46.800000000000004 37.43333333333336
vertex 19.600000000000005 49.791384937580645 37.72795903381715
vertex 18.8 49.791384937580645 37.72795903381715
endloop
endfacet
facet normal 0 -0.09801714032956041 0.9951847266721969
outer loop
vertex 19.600000000000005 46.800000000000004 37.43333333333336
vertex 18.8 49.791384937580645 37.72795903381715
vertex 18.8 46.800000000000004 37.43333333333336
endloop
endfacet
facet normal 0 0.09801714032956041 0.9951847266721969
outer loop
vertex 0.8000000000000007 43.80861506241936 37.727959033817136
vertex 0.8000000000000007 46.800000000000004 37.43333333333336
vertex 1.8777917586926084e-15 46.800000000000004 37.43333333333336
endloop
endfacet
facet normal 0 0.09801714032956041 0.9951847266721969
outer loop
vertex 0.8000000000000007 43.80861506241936 37.727959033817136
vertex 1.8777917586926084e-15 46.800000000000004 37.43333333333336
vertex 1.8597511376404067e-15 43.80861506241936 37.727959033817136
endloop
endfacet
facet normal 0 0.09801714032956041 0.9951847266721969
outer loop
vertex 19.600000000000005 43.80861506241936 37.727959033817136
vertex 19.600000000000005 46.800000000000004 37.43333333333336
vertex 18.8 46.800000000000004 37.43333333333336
endloop
endfacet
facet normal 0 0.09801714032956041 0.9951847266721969
outer loop
vertex 19.600000000000005 43.80861506241936 37.727959033817136
vertex 18.8 46.800000000000004 37.43333333333336
vertex 18.8 43.80861506241936 37.727959033817136
endloop
endfacet
facet normal 0 0.2902846772544629 0.9569403357322087
outer loop
vertex 0.8000000000000007 40.93218737040195 38.60051383482692
vertex 0.8000000000000007 43.80861506241936 37.727959033817136
vertex 1.8597511376404067e-15 43.80861506241936 37.727959033817136
endloop
endfacet
facet normal 0 0.2902846772544629 0.9569403357322087
outer loop
vertex 0.8000000000000007 40.93218737040195 38.60051383482692
vertex 1.8597511376404067e-15 43.80861506241936 37.727959033817136
vertex 1.806322565433541e-15 40.93218737040195 38.60051383482692
endloop
endfacet
facet normal 0 0.2902846772544629 0.9569403357322087
outer loop
vertex 19.600000000000005 40.93218737040195 38.60051383482692
vertex 19.600000000000005 43.80861506241936 37.727959033817136
vertex 18.8 43.80861506241936 37.727959033817136
endloop
endfacet
facet normal 0 0.2902846772544629 0.9569403357322087
outer loop
vertex 19.600000000000005 40.93218737040195 38.60051383482692
vertex 18.8 43.80861506241936 37.727959033817136
vertex 18.8 40.93218737040195 38.60051383482692
endloop
endfacet
facet normal 0 0.47139673682600847 0.8819212643483494
outer loop
vertex 0.8000000000000012 38.281256427032815 40.017465944694365
vertex 0.8000000000000007 40.93218737040195 38.60051383482692
vertex 1.806322565433541e-15 40.93218737040195 38.60051383482692
endloop
endfacet
facet normal 0 0.47139673682600847 0.8819212643483494
outer loop
vertex 0.8000000000000012 38.281256427032815 40.017465944694365
vertex 1.806322565433541e-15 40.93218737040195 38.60051383482692
vertex 1.7195592721388337e-15 38.281256427032815 40.017465944694365
endloop
endfacet
facet normal 0 0.47139673682600847 0.8819212643483494
outer loop
vertex 19.60000000000001 38.281256427032815 40.017465944694365
vertex 19.600000000000005 40.93218737040195 38.60051383482692
vertex 18.8 40.93218737040195 38.60051383482692
endloop
endfacet
facet normal 0 0.47139673682600847 0.8819212643483494
outer loop
vertex 19.60000000000001 38.281256427032815 40.017465944694365
vertex 18.8 40.93218737040195 38.60051383482692
vertex 18.800000000000008 38.281256427032815 40.017465944694365
endloop
endfacet
facet normal 0 0.6343932841636398 0.7730104533627417
outer loop
vertex 0.8000000000000007 35.95769602180625 41.92436268847291
vertex 0.8000000000000012 38.281256427032815 40.017465944694365
vertex 1.7195592721388337e-15 38.281256427032815 40.017465944694365
endloop
endfacet
facet normal 0 0.6343932841636398 0.7730104533627417
outer loop
vertex 0.8000000000000007 35.95769602180625 41.92436268847291
vertex 1.7195592721388337e-15 38.281256427032815 40.017465944694365
vertex 1.6027955224601824e-15 35.95769602180625 41.92436268847291
endloop
endfacet
facet normal 0 0.6343932841636398 0.7730104533627417
outer loop
vertex 19.6 35.95769602180625 41.92436268847291
vertex 19.60000000000001 38.281256427032815 40.017465944694365
vertex 18.800000000000008 38.281256427032815 40.017465944694365
endloop
endfacet
facet normal 0 0.6343932841636398 0.7730104533627417
outer loop
vertex 19.6 35.95769602180625 41.92436268847291
vertex 18.800000000000008 38.281256427032815 40.017465944694365
vertex 18.8 35.95769602180625 41.92436268847291
endloop
endfacet
facet normal 0 0.773010453362741 0.6343932841636405
outer loop
vertex 0.8000000000000007 34.050799278027625 44.24792309369943
vertex 0.8000000000000007 35.95769602180625 41.92436268847291
vertex 1.6027955224601824e-15 35.95769602180625 41.92436268847291
endloop
endfacet
facet normal 0 0.773010453362741 0.6343932841636405
outer loop
vertex 0.8000000000000007 34.050799278027625 44.24792309369943
vertex 1.6027955224601824e-15 35.95769602180625 41.92436268847291
vertex 1.460518481815874e-15 34.050799278027625 44.24792309369943
endloop
endfacet
facet normal 0 0.773010453362741 0.6343932841636405
outer loop
vertex 19.6 34.050799278027625 44.24792309369943
vertex 19.6 35.95769602180625 41.92436268847291
vertex 18.8 35.95769602180625 41.92436268847291
endloop
endfacet
facet normal 0 0.773010453362741 0.6343932841636405
outer loop
vertex 19.6 34.050799278027625 44.24792309369943
vertex 18.8 35.95769602180625 41.92436268847291
vertex 18.8 34.050799278027625 44.24792309369943
endloop
endfacet
facet normal 0 0.8819212643483537 0.47139673682600014
outer loop
vertex 0.8000000000000007 32.633847168160294 46.89885403706863
vertex 0.8000000000000007 34.050799278027625 44.24792309369943
vertex 1.460518481815874e-15 34.050799278027625 44.24792309369943
endloop
endfacet
facet normal 0 0.8819212643483537 0.47139673682600014
outer loop
vertex 0.8000000000000007 32.633847168160294 46.89885403706863
vertex 1.460518481815874e-15 34.050799278027625 44.24792309369943
vertex 1.2981957770879869e-15 32.633847168160294 46.89885403706863
endloop
endfacet
facet normal 0 0.8819212643483537 0.47139673682600014
outer loop
vertex 19.6 32.633847168160294 46.89885403706863
vertex 19.6 34.050799278027625 44.24792309369943
vertex 18.8 34.050799278027625 44.24792309369943
endloop
endfacet
facet normal 0 0.8819212643483537 0.47139673682600014
outer loop
vertex 19.6 32.633847168160294 46.89885403706863
vertex 18.8 34.050799278027625 44.24792309369943
vertex 18.8 32.633847168160294 46.89885403706863
endloop
endfacet
facet normal 0 0.9569403357322095 0.29028467725446094
outer loop
vertex 0.8000000000000007 31.76129236715046 49.775281729086004
vertex 0.8000000000000007 32.633847168160294 46.89885403706863
vertex 1.2981957770879869e-15 32.633847168160294 46.89885403706863
endloop
endfacet
facet normal 0 0.9569403357322095 0.29028467725446094
outer loop
vertex 0.8000000000000007 31.76129236715046 49.775281729086004
vertex 1.2981957770879869e-15 32.633847168160294 46.89885403706863
vertex 1.1220653787875913e-15 31.76129236715046 49.775281729086004
endloop
endfacet
facet normal 0 0.9569403357322095 0.29028467725446094
outer loop
vertex 19.6 31.76129236715046 49.775281729086004
vertex 19.6 32.633847168160294 46.89885403706863
vertex 18.8 32.633847168160294 46.89885403706863
endloop
endfacet
facet normal 0 0.9569403357322095 0.29028467725446094
outer loop
vertex 19.6 31.76129236715046 49.775281729086004
vertex 18.8 32.633847168160294 46.89885403706863
vertex 18.8 31.76129236715046 49.775281729086004
endloop
endfacet
facet normal 0 0.9951847266721967 0.09801714032956255
outer loop
vertex 0.8000000000000007 31.172040966182823 55.7580516042473
vertex 0.8000000000000007 31.76129236715046 49.775281729086004
vertex 1.1220653787875913e-15 31.76129236715046 49.775281729086004
endloop
endfacet
facet normal 0 0.9951847266721967 0.09801714032956255
outer loop
vertex 0.8000000000000007 31.172040966182823 55.7580516042473
vertex 1.1220653787875913e-15 31.76129236715046 49.775281729086004
vertex 7.557263799050171e-16 31.172040966182823 55.7580516042473
endloop
endfacet
facet normal 0 0.9951847266721967 0.09801714032956255
outer loop
vertex 19.6 31.172040966182823 55.7580516042473
vertex 19.6 31.76129236715046 49.775281729086004
vertex 18.8 31.76129236715046 49.775281729086004
endloop
endfacet
facet normal 0 0.9951847266721967 0.09801714032956255
outer loop
vertex 19.6 31.172040966182823 55.7580516042473
vertex 18.8 31.76129236715046 49.775281729086004
vertex 18.8 31.172040966182823 55.7580516042473
endloop
endfacet
facet normal 0 -0.9569403357322095 0.29028467725446094
outer loop
vertex 0.8 62.427959033817075 55.75805160424731
vertex 0.8 63.30051383482697 58.6344792962647
vertex 5.795959816046207e-16 63.30051383482697 58.6344792962647
endloop
endfacet
facet normal 0 -0.9569403357322095 0.29028467725446094
outer loop
vertex 0.8 62.427959033817075 55.75805160424731
vertex 5.795959816046207e-16 63.30051383482697 58.6344792962647
vertex 7.55726379905017e-16 62.427959033817075 55.75805160424731
endloop
endfacet
facet normal 0 -0.9569403357322095 0.29028467725446094
outer loop
vertex 19.6 62.427959033817075 55.75805160424731
vertex 19.6 63.30051383482697 58.6344792962647
vertex 18.8 63.30051383482697 58.6344792962647
endloop
endfacet
facet normal 0 -0.9569403357322095 0.29028467725446094
outer loop
vertex 19.6 62.427959033817075 55.75805160424731
vertex 18.8 63.30051383482697 58.6344792962647
vertex 18.8 62.427959033817075 55.75805160424731
endloop
endfacet
facet normal 0 -0.8819212643483552 0.47139673682599736
outer loop
vertex 0.8 63.30051383482697 58.6344792962647
vertex 0.8 64.71746594469431 61.285410239633904
vertex 4.172732768767334e-16 64.71746594469431 61.285410239633904
endloop
endfacet
facet normal 0 -0.8819212643483552 0.47139673682599736
outer loop
vertex 0.8 63.30051383482697 58.6344792962647
vertex 4.172732768767334e-16 64.71746594469431 61.285410239633904
vertex 5.795959816046207e-16 63.30051383482697 58.6344792962647
endloop
endfacet
facet normal 0 -0.8819212643483552 0.47139673682599736
outer loop
vertex 19.6 63.30051383482697 58.6344792962647
vertex 19.6 64.71746594469431 61.285410239633904
vertex 18.8 64.71746594469431 61.285410239633904
endloop
endfacet
facet normal 0 -0.8819212643483552 0.47139673682599736
outer loop
vertex 19.6 63.30051383482697 58.6344792962647
vertex 18.8 64.71746594469431 61.285410239633904
vertex 18.8 63.30051383482697 58.6344792962647
endloop
endfacet
facet normal 0 -0.7730104533627319 0.6343932841636518
outer loop
vertex 0.8 64.71746594469431 61.285410239633904
vertex 0.8000000000000005 66.62436268847294 63.60897064486041
vertex 2.7499623623242637e-16 66.62436268847294 63.60897064486041
endloop
endfacet
facet normal 0 -0.7730104533627319 0.6343932841636518
outer loop
vertex 0.8 64.71746594469431 61.285410239633904
vertex 2.7499623623242637e-16 66.62436268847294 63.60897064486041
vertex 4.172732768767334e-16 64.71746594469431 61.285410239633904
endloop
endfacet
facet normal 0 -0.7730104533627319 0.6343932841636518
outer loop
vertex 19.6 64.71746594469431 61.285410239633904
vertex 19.60000000000001 66.62436268847294 63.60897064486041
vertex 18.800000000000008 66.62436268847294 63.60897064486041
endloop
endfacet
facet normal 0 -0.7730104533627319 0.6343932841636518
outer loop
vertex 19.6 64.71746594469431 61.285410239633904
vertex 18.800000000000008 66.62436268847294 63.60897064486041
vertex 18.8 64.71746594469431 61.285410239633904
endloop
endfacet
facet normal 0 -0.6343932841636448 0.7730104533627374
outer loop
vertex 0.8000000000000005 66.62436268847294 63.60897064486041
vertex 0.8000000000000002 68.94792309369946 65.51586738863904
vertex 1.582324865537756e-16 68.94792309369946 65.51586738863904
endloop
endfacet
facet normal 0 -0.6343932841636448 0.7730104533627374
outer loop
vertex 0.8000000000000005 66.62436268847294 63.60897064486041
vertex 1.582324865537756e-16 68.94792309369946 65.51586738863904
vertex 2.7499623623242637e-16 66.62436268847294 63.60897064486041
endloop
endfacet
facet normal 0 -0.6343932841636448 0.7730104533627374
outer loop
vertex 19.60000000000001 66.62436268847294 63.60897064486041
vertex 19.6 68.94792309369946 65.51586738863904
vertex 18.8 68.94792309369946 65.51586738863904
endloop
endfacet
facet normal 0 -0.6343932841636448 0.7730104533627374
outer loop
vertex 19.60000000000001 66.62436268847294 63.60897064486041
vertex 18.8 68.94792309369946 65.51586738863904
vertex 18.800000000000008 66.62436268847294 63.60897064486041
endloop
endfacet
facet normal 0 -0.47139673682599736 0.8819212643483552
outer loop
vertex 0.8000000000000002 68.94792309369946 65.51586738863904
vertex 0.8000000000000002 71.5988540370686 66.93281949850639
vertex 7.146919325906702e-17 71.5988540370686 66.93281949850639
endloop
endfacet
facet normal 0 -0.47139673682599736 0.8819212643483552
outer loop
vertex 0.8000000000000002 68.94792309369946 65.51586738863904
vertex 7.146919325906702e-17 71.5988540370686 66.93281949850639
vertex 1.582324865537756e-16 68.94792309369946 65.51586738863904
endloop
endfacet
facet normal 0 -0.47139673682599736 0.8819212643483552
outer loop
vertex 19.6 68.94792309369946 65.51586738863904
vertex 19.6 71.5988540370686 66.93281949850639
vertex 18.8 71.5988540370686 66.93281949850639
endloop
endfacet
facet normal 0 -0.47139673682599736 0.8819212643483552
outer loop
vertex 19.6 68.94792309369946 65.51586738863904
vertex 18.8 71.5988540370686 66.93281949850639
vertex 18.8 68.94792309369946 65.51586738863904
endloop
endfacet
facet normal 0 0.4713967368259944 0.8819212643483568
outer loop
vertex 0.8000000000000012 22.001145962931325 66.93281949850629
vertex 0.8000000000000006 24.652076906300515 65.51586738863894
vertex 1.5823248655377582e-16 24.652076906300515 65.51586738863894
endloop
endfacet
facet normal 0 0.4713967368259944 0.8819212643483568
outer loop
vertex 0.8000000000000012 22.001145962931325 66.93281949850629
vertex 1.5823248655377582e-16 24.652076906300515 65.51586738863894
vertex 7.146919325906723e-17 22.001145962931325 66.93281949850629
endloop
endfacet
facet normal 0 0.4713967368259944 0.8819212643483568
outer loop
vertex 19.60000000000001 22.001145962931325 66.93281949850629
vertex 19.60000000000001 24.652076906300515 65.51586738863894
vertex 18.800000000000008 24.652076906300515 65.51586738863894
endloop
endfacet
facet normal 0 0.4713967368259944 0.8819212643483568
outer loop
vertex 19.60000000000001 22.001145962931325 66.93281949850629
vertex 18.800000000000008 24.652076906300515 65.51586738863894
vertex 18.800000000000008 22.001145962931325 66.93281949850629
endloop
endfacet
facet normal 0 0.6343932841636484 0.7730104533627347
outer loop
vertex 0.8000000000000006 24.652076906300515 65.51586738863894
vertex 0.8 26.975637311527123 63.60897064486046
vertex 2.7499623623242637e-16 26.975637311527123 63.60897064486046
endloop
endfacet
facet normal 0 0.6343932841636484 0.7730104533627347
outer loop
vertex 0.8000000000000006 24.652076906300515 65.51586738863894
vertex 2.7499623623242637e-16 26.975637311527123 63.60897064486046
vertex 1.5823248655377582e-16 24.652076906300515 65.51586738863894
endloop
endfacet
facet normal 0 0.6343932841636484 0.7730104533627347
outer loop
vertex 19.60000000000001 24.652076906300515 65.51586738863894
vertex 19.6 26.975637311527123 63.60897064486046
vertex 18.8 26.975637311527123 63.60897064486046
endloop
endfacet
facet normal 0 0.6343932841636484 0.7730104533627347
outer loop
vertex 19.60000000000001 24.652076906300515 65.51586738863894
vertex 18.8 26.975637311527123 63.60897064486046
vertex 18.800000000000008 24.652076906300515 65.51586738863894
endloop
endfacet
facet normal 0 0.8819212643483568 0.4713967368259944
outer loop
vertex 0.8000000000000012 28.882534055305683 61.285410239633904
vertex 0.8000000000000005 30.29948616517304 58.634479296264715
vertex 5.79595981604621e-16 30.29948616517304 58.634479296264715
endloop
endfacet
facet normal 0 0.8819212643483568 0.4713967368259944
outer loop
vertex 0.8000000000000012 28.882534055305683 61.285410239633904
vertex 5.79595981604621e-16 30.29948616517304 58.634479296264715
vertex 4.1727327687673374e-16 28.882534055305683 61.285410239633904
endloop
endfacet
facet normal 0 0.8819212643483568 0.4713967368259944
outer loop
vertex 19.60000000000001 28.882534055305683 61.285410239633904
vertex 19.60000000000001 30.29948616517304 58.634479296264715
vertex 18.800000000000008 30.29948616517304 58.634479296264715
endloop
endfacet
facet normal 0 0.8819212643483568 0.4713967368259944
outer loop
vertex 19.60000000000001 28.882534055305683 61.285410239633904
vertex 18.800000000000008 30.29948616517304 58.634479296264715
vertex 18.800000000000008 28.882534055305683 61.285410239633904
endloop
endfacet
facet normal 0 0.9569403357322097 0.2902846772544596
outer loop
vertex 0.8000000000000005 30.29948616517304 58.634479296264715
vertex 0.8000000000000007 31.172040966182823 55.7580516042473
vertex 7.557263799050171e-16 31.172040966182823 55.7580516042473
endloop
endfacet
facet normal 0 0.9569403357322097 0.2902846772544596
outer loop
vertex 0.8000000000000005 30.29948616517304 58.634479296264715
vertex 7.557263799050171e-16 31.172040966182823 55.7580516042473
vertex 5.79595981604621e-16 30.29948616517304 58.634479296264715
endloop
endfacet
facet normal 0 0.9569403357322097 0.2902846772544596
outer loop
vertex 19.60000000000001 30.29948616517304 58.634479296264715
vertex 19.6 31.172040966182823 55.7580516042473
vertex 18.8 31.172040966182823 55.7580516042473
endloop
endfacet
facet normal 0 0.9569403357322097 0.2902846772544596
outer loop
vertex 19.60000000000001 30.29948616517304 58.634479296264715
vertex 18.8 31.172040966182823 55.7580516042473
vertex 18.800000000000008 30.29948616517304 58.634479296264715
endloop
endfacet
facet normal 0 -0.2902846772544629 0.9569403357322087
outer loop
vertex 0.8000000000000002 71.5988540370686 66.93281949850639
vertex 0.8 73.46859757521707 67.5
vertex 0 73.46859757521707 67.5
endloop
endfacet
facet normal 0 -0.2902846772544629 0.9569403357322087
outer loop
vertex 0.8000000000000002 71.5988540370686 66.93281949850639
vertex 0 73.46859757521707 67.5
vertex 7.146919325906702e-17 71.5988540370686 66.93281949850639
endloop
endfacet
facet normal 0 -0.2902846772544629 0.9569403357322087
outer loop
vertex 19.6 71.5988540370686 66.93281949850639
vertex 19.6 73.46859757521707 67.5
vertex 18.8 73.46859757521707 67.5
endloop
endfacet
facet normal 0 -0.2902846772544629 0.9569403357322087
outer loop
vertex 19.6 71.5988540370686 66.93281949850639
vertex 18.8 73.46859757521707 67.5
vertex 18.8 71.5988540370686 66.93281949850639
endloop
endfacet
facet normal 0 0.29028467725446094 0.9569403357322095
outer loop
vertex 0.8 20.1314024247827 67.5
vertex 0.8000000000000012 22.001145962931325 66.93281949850629
vertex 7.146919325906723e-17 22.001145962931325 66.93281949850629
endloop
endfacet
facet normal 0 0.29028467725446094 0.9569403357322095
outer loop
vertex 0.8 20.1314024247827 67.5
vertex 7.146919325906723e-17 22.001145962931325 66.93281949850629
vertex 0 20.1314024247827 67.5
endloop
endfacet
facet normal 0 0.29028467725446094 0.9569403357322095
outer loop
vertex 19.6 20.1314024247827 67.5
vertex 19.60000000000001 22.001145962931325 66.93281949850629
vertex 18.800000000000008 22.001145962931325 66.93281949850629
endloop
endfacet
facet normal 0 0.29028467725446094 0.9569403357322095
outer loop
vertex 19.6 20.1314024247827 67.5
vertex 18.800000000000008 22.001145962931325 66.93281949850629
vertex 18.8 20.1314024247827 67.5
endloop
endfacet
facet normal 0 0.7730104533627318 0.6343932841636518
outer loop
vertex 0.8 26.975637311527123 63.60897064486046
vertex 0.8000000000000012 28.882534055305683 61.285410239633904
vertex 4.1727327687673374e-16 28.882534055305683 61.285410239633904
endloop
endfacet
facet normal 0 0.7730104533627318 0.6343932841636518
outer loop
vertex 0.8 26.975637311527123 63.60897064486046
vertex 4.1727327687673374e-16 28.882534055305683 61.285410239633904
vertex 2.7499623623242637e-16 26.975637311527123 63.60897064486046
endloop
endfacet
facet normal 0 0.7730104533627318 0.6343932841636518
outer loop
vertex 19.6 26.975637311527123 63.60897064486046
vertex 19.60000000000001 28.882534055305683 61.285410239633904
vertex 18.800000000000008 28.882534055305683 61.285410239633904
endloop
endfacet
facet normal 0 0.7730104533627318 0.6343932841636518
outer loop
vertex 19.6 26.975637311527123 63.60897064486046
vertex 18.800000000000008 28.882534055305683 61.285410239633904
vertex 18.8 26.975637311527123 63.60897064486046
endloop
endfacet
facet normal -1 0 -1.2600784595177049e-16
outer loop
vertex 0 0.8 67.5
vertex 0 20.1314024247827 67.5
vertex 7.146919325906723e-17 22.001145962931325 66.93281949850629
endloop
endfacet
facet normal -1 0 -1.2600784595177049e-16
outer loop
vertex 0 0.8 67.5
vertex 7.146919325906723e-17 22.001145962931325 66.93281949850629
vertex 1.5823248655377582e-16 24.652076906300515 65.51586738863894
endloop
endfacet
facet normal -1 0 -1.2600784595177049e-16
outer loop
vertex 0 0.8 67.5
vertex 1.5823248655377582e-16 24.652076906300515 65.51586738863894
vertex 2.7499623623242637e-16 26.975637311527123 63.60897064486046
endloop
endfacet
facet normal -1 0 -1.2600784595177049e-16
outer loop
vertex 0 0.8 67.5
vertex 2.7499623623242637e-16 26.975637311527123 63.60897064486046
vertex 4.1727327687673374e-16 28.882534055305683 61.285410239633904
endloop
endfacet
facet normal -1 0 -1.2600784595177049e-16
outer loop
vertex 0 0.8 67.5
vertex 4.1727327687673374e-16 28.882534055305683 61.285410239633904
vertex 5.79595981604621e-16 30.29948616517304 58.634479296264715
endloop
endfacet
facet normal -1 0 -1.2600784595177049e-16
outer loop
vertex 0 0.8 67.5
vertex 5.79595981604621e-16 30.29948616517304 58.634479296264715
vertex 7.557263799050171e-16 31.172040966182823 55.7580516042473
endloop
endfacet
facet normal -1 0 -1.2600784595177049e-16
outer loop
vertex 0 0.8 67.5
vertex 7.557263799050171e-16 31.172040966182823 55.7580516042473
vertex 1.1220653787875913e-15 31.76129236715046 49.775281729086004
endloop
endfacet
facet normal -1 0 -1.2600784595177049e-16
outer loop
vertex 0 0.8 67.5
vertex 1.1220653787875913e-15 31.76129236715046 49.775281729086004
vertex 0 0 49.7752817290854
endloop
endfacet
facet normal -1 0 -1.2600784595177049e-16
outer loop
vertex 0 0.8 67.5
vertex 0 0 49.7752817290854
vertex 0 0 67.5
endloop
endfacet
facet normal -1 0 0
outer loop
vertex 0 92.8 67.5
vertex 0 93.6 67.5
vertex 0 93.6 49.7752817290854
endloop
endfacet
facet normal -1 0 0
outer loop
vertex 0 92.8 67.5
vertex 0 93.6 49.7752817290854
vertex 1.1220653787875911e-15 61.838707632849435 49.775281729086025
endloop
endfacet
facet normal -1 0 0
outer loop
vertex 0 92.8 67.5
vertex 1.1220653787875911e-15 61.838707632849435 49.775281729086025
vertex 7.55726379905017e-16 62.427959033817075 55.75805160424731
endloop
endfacet
facet normal -1 0 0
outer loop
vertex 0 92.8 67.5
vertex 7.55726379905017e-16 62.427959033817075 55.75805160424731
vertex 5.795959816046207e-16 63.30051383482697 58.6344792962647
endloop
endfacet
facet normal -1 0 0
outer loop
vertex 0 92.8 67.5
vertex 5.795959816046207e-16 63.30051383482697 58.6344792962647
vertex 4.172732768767334e-16 64.71746594469431 61.285410239633904
endloop
endfacet
facet normal -1 0 0
outer loop
vertex 0 92.8 67.5
vertex 4.172732768767334e-16 64.71746594469431 61.285410239633904
vertex 2.7499623623242637e-16 66.62436268847294 63.60897064486041
endloop
endfacet
facet normal -1 0 0
outer loop
vertex 0 92.8 67.5
vertex 2.7499623623242637e-16 66.62436268847294 63.60897064486041
vertex 1.582324865537756e-16 68.94792309369946 65.51586738863904
endloop
endfacet
facet normal -1 0 0
outer loop
vertex 0 92.8 67.5
vertex 1.582324865537756e-16 68.94792309369946 65.51586738863904
vertex 7.146919325906702e-17 71.5988540370686 66.93281949850639
endloop
endfacet
facet normal -1 0 0
outer loop
vertex 0 92.8 67.5
vertex 7.146919325906702e-17 71.5988540370686 66.93281949850639
vertex 0 73.46859757521707 67.5
endloop
endfacet
facet normal -1 0 0
outer loop
vertex 1.1220653787875913e-15 31.76129236715046 49.775281729086004
vertex 1.2981957770879869e-15 32.633847168160294 46.89885403706863
vertex 0 0 46.898854037068574
endloop
endfacet
facet normal -1 0 0
outer loop
vertex 1.1220653787875913e-15 31.76129236715046 49.775281729086004
vertex 0 0 46.898854037068574
vertex 0 0 49.7752817290854
endloop
endfacet
facet normal -1 0 0
outer loop
vertex 0 93.6 49.7752817290854
vertex 0 93.6 46.898854037068574
vertex 1.2981957770879867e-15 60.96615283183978 46.89885403706861
endloop
endfacet
facet normal -1 0 0
outer loop
vertex 0 93.6 49.7752817290854
vertex 1.2981957770879867e-15 60.96615283183978 46.89885403706861
vertex 1.1220653787875911e-15 61.838707632849435 49.775281729086025
endloop
endfacet
facet normal -1 0 0
outer loop
vertex 1.2981957770879869e-15 32.633847168160294 46.89885403706863
vertex 1.460518481815874e-15 34.050799278027625 44.24792309369943
vertex 0 0 44.247923093699974
endloop
endfacet
facet normal -1 0 0
outer loop
vertex 1.2981957770879869e-15 32.633847168160294 46.89885403706863
vertex 0 0 44.247923093699974
vertex 0 0 46.898854037068574
endloop
endfacet
facet normal -1 0 0
outer loop
vertex 0 93.6 46.898854037068574
vertex 0 93.6 44.247923093699974
vertex 1.4605184818158748e-15 59.54920072197241 44.24792309369943
endloop
endfacet
facet normal -1 0 0
outer loop
vertex 0 93.6 46.898854037068574
vertex 1.4605184818158748e-15 59.54920072197241 44.24792309369943
vertex 1.2981957770879867e-15 60.96615283183978 46.89885403706861
endloop
endfacet
facet normal -1 0 0
outer loop
vertex 1.460518481815874e-15 34.050799278027625 44.24792309369943
vertex 1.6027955224601824e-15 35.95769602180625 41.92436268847291
vertex 0 0 41.92436268847326
endloop
endfacet
facet normal -1 0 0
outer loop
vertex 1.460518481815874e-15 34.050799278027625 44.24792309369943
vertex 0 0 41.92436268847326
vertex 0 0 44.247923093699974
endloop
endfacet
facet normal -1 0 0
outer loop
vertex 0 93.6 44.247923093699974
vertex 0 93.6 41.92436268847326
vertex 1.6027955224601824e-15 57.64230397819367 41.924362688473
endloop
endfacet
facet normal -1 0 0
outer loop
vertex 0 93.6 44.247923093699974
vertex 1.6027955224601824e-15 57.64230397819367 41.924362688473
vertex 1.4605184818158748e-15 59.54920072197241 44.24792309369943
endloop
endfacet
facet normal -1 0 0
outer loop
vertex 1.6027955224601824e-15 35.95769602180625 41.92436268847291
vertex 1.7195592721388337e-15 38.281256427032815 40.017465944694365
vertex 0 0 40.01746594469405
endloop
endfacet
facet normal -1 0 0
outer loop
vertex 1.6027955224601824e-15 35.95769602180625 41.92436268847291
vertex 0 0 40.01746594469405
vertex 0 0 41.92436268847326
endloop
endfacet
facet normal -1 0 0
outer loop
vertex 0 93.6 41.92436268847326
vertex 0 93.6 40.01746594469405
vertex 1.7195592721388329e-15 55.31874357296713 40.01746594469444
endloop
endfacet
facet normal -1 0 0
outer loop
vertex 0 93.6 41.92436268847326
vertex 1.7195592721388329e-15 55.31874357296713 40.01746594469444
vertex 1.6027955224601824e-15 57.64230397819367 41.924362688473
endloop
endfacet
facet normal -1 0 0
outer loop
vertex 1.7195592721388337e-15 38.281256427032815 40.017465944694365
vertex 1.806322565433541e-15 40.93218737040195 38.60051383482692
vertex 0 0 38.60051383482685
endloop
endfacet
facet normal -1 0 0
outer loop
vertex 1.7195592721388337e-15 38.281256427032815 40.017465944694365
vertex 0 0 38.60051383482685
vertex 0 0 40.01746594469405
endloop
endfacet
facet normal -1 0 0
outer loop
vertex 0 93.6 40.01746594469405
vertex 0 93.6 38.60051383482685
vertex 1.806322565433541e-15 52.66781262959802 38.600513834827
endloop
endfacet
facet normal -1 0 0
outer loop
vertex 0 93.6 40.01746594469405
vertex 1.806322565433541e-15 52.66781262959802 38.600513834827
vertex 1.7195592721388329e-15 55.31874357296713 40.01746594469444
endloop
endfacet
facet normal -1 0 0
outer loop
vertex 1.806322565433541e-15 40.93218737040195 38.60051383482692
vertex 1.8597511376404067e-15 43.80861506241936 37.727959033817136
vertex 0 0 37.727959033817164
endloop
endfacet
facet normal -1 0 0
outer loop
vertex 1.806322565433541e-15 40.93218737040195 38.60051383482692
vertex 0 0 37.727959033817164
vertex 0 0 38.60051383482685
endloop
endfacet
facet normal -1 0 0
outer loop
vertex 0 93.6 38.60051383482685
vertex 0 93.6 37.727959033817164
vertex 1.8597511376404067e-15 49.791384937580645 37.72795903381715
endloop
endfacet
facet normal -1 0 0
outer loop
vertex 0 93.6 38.60051383482685
vertex 1.8597511376404067e-15 49.791384937580645 37.72795903381715
vertex 1.806322565433541e-15 52.66781262959802 38.600513834827
endloop
endfacet
facet normal -1 0 0
outer loop
vertex 1.8597511376404067e-15 43.80861506241936 37.727959033817136
vertex 1.8777917586926084e-15 46.800000000000004 37.43333333333336
vertex 0 0 37.433333333333344
endloop
endfacet
facet normal -1 0 0
outer loop
vertex 1.8597511376404067e-15 43.80861506241936 37.727959033817136
vertex 0 0 37.433333333333344
vertex 0 0 37.727959033817164
endloop
endfacet
facet normal -1 0 0
outer loop
vertex 0 93.6 37.727959033817164
vertex 0 93.6 37.433333333333344
vertex 1.8777917586926084e-15 46.800000000000004 37.43333333333336
endloop
endfacet
facet normal -1 0 0
outer loop
vertex 0 93.6 37.727959033817164
vertex 1.8777917586926084e-15 46.800000000000004 37.43333333333336
vertex 1.8597511376404067e-15 49.791384937580645 37.72795903381715
endloop
endfacet
facet normal -1 -4.012375552761984e-17 0
outer loop
vertex 1.8777917586926084e-15 46.800000000000004 37.43333333333336
vertex 0 93.6 37.433333333333344
vertex 0 93.6 0
endloop
endfacet
facet normal -1 -4.012375552761984e-17 0
outer loop
vertex 1.8777917586926084e-15 46.800000000000004 37.43333333333336
vertex 0 93.6 0
vertex 0 0 0
endloop
endfacet
facet normal -1 -4.012375552761984e-17 0
outer loop
vertex 1.8777917586926084e-15 46.800000000000004 37.43333333333336
vertex 0 0 0
vertex 0 0 37.433333333333344
endloop
endfacet
facet normal 1 7.591268544445516e-17 0
outer loop
vertex 19.6 93.6 0
vertex 19.6 93.6 37.433333333333344
vertex 19.600000000000005 46.800000000000004 37.43333333333336
endloop
endfacet
facet normal 1 7.591268544445516e-17 0
outer loop
vertex 19.6 93.6 0
vertex 19.600000000000005 46.800000000000004 37.43333333333336
vertex 19.6 0 37.433333333333344
endloop
endfacet
facet normal 1 7.591268544445516e-17 0
outer loop
vertex 19.6 93.6 0
vertex 19.6 0 37.433333333333344
vertex 19.6 0 0
endloop
endfacet
facet normal 1 0 0
outer loop
vertex 19.600000000000005 46.800000000000004 37.43333333333336
vertex 19.600000000000005 43.80861506241936 37.727959033817136
vertex 19.6 0 37.727959033817164
endloop
endfacet
facet normal 1 0 0
outer loop
vertex 19.600000000000005 46.800000000000004 37.43333333333336
vertex 19.6 0 37.727959033817164
vertex 19.6 0 37.433333333333344
endloop
endfacet
facet normal 1 0 0
outer loop
vertex 19.6 93.6 37.433333333333344
vertex 19.6 93.6 37.727959033817164
vertex 19.600000000000005 49.791384937580645 37.72795903381715
endloop
endfacet
facet normal 1 0 0
outer loop
vertex 19.6 93.6 37.433333333333344
vertex 19.600000000000005 49.791384937580645 37.72795903381715
vertex 19.600000000000005 46.800000000000004 37.43333333333336
endloop
endfacet
facet normal 1 0 0
outer loop
vertex 19.600000000000005 43.80861506241936 37.727959033817136
vertex 19.600000000000005 40.93218737040195 38.60051383482692
vertex 19.6 0 38.60051383482684
endloop
endfacet
facet normal 1 0 0
outer loop
vertex 19.600000000000005 43.80861506241936 37.727959033817136
vertex 19.6 0 38.60051383482684
vertex 19.6 0 37.727959033817164
endloop
endfacet
facet normal 1 0 0
outer loop
vertex 19.6 93.6 37.727959033817164
vertex 19.6 93.6 38.60051383482684
vertex 19.600000000000005 52.66781262959802 38.600513834827
endloop
endfacet
facet normal 1 0 0
outer loop
vertex 19.6 93.6 37.727959033817164
vertex 19.600000000000005 52.66781262959802 38.600513834827
vertex 19.600000000000005 49.791384937580645 37.72795903381715
endloop
endfacet
facet normal 1 0 0
outer loop
vertex 19.600000000000005 40.93218737040195 38.60051383482692
vertex 19.60000000000001 38.281256427032815 40.017465944694365
vertex 19.6 0 40.01746594469403
endloop
endfacet
facet normal 1 0 0
outer loop
vertex 19.600000000000005 40.93218737040195 38.60051383482692
vertex 19.6 0 40.01746594469403
vertex 19.6 0 38.60051383482684
endloop
endfacet
facet normal 1 0 0
outer loop
vertex 19.6 93.6 38.60051383482684
vertex 19.6 93.6 40.01746594469403
vertex 19.6 55.31874357296713 40.01746594469444
endloop
endfacet
facet normal 1 0 0
outer loop
vertex 19.6 93.6 38.60051383482684
vertex 19.6 55.31874357296713 40.01746594469444
vertex 19.600000000000005 52.66781262959802 38.600513834827
endloop
endfacet
facet normal 1 0 0
outer loop
vertex 19.60000000000001 38.281256427032815 40.017465944694365
vertex 19.6 35.95769602180625 41.92436268847291
vertex 19.6 0 41.92436268847327
endloop
endfacet
facet normal 1 0 0
outer loop
vertex 19.60000000000001 38.281256427032815 40.017465944694365
vertex 19.6 0 41.92436268847327
vertex 19.6 0 40.01746594469403
endloop
endfacet
facet normal 1 0 0
outer loop
vertex 19.6 93.6 40.01746594469403
vertex 19.6 93.6 41.92436268847327
vertex 19.6 57.64230397819367 41.924362688473
endloop
endfacet
facet normal 1 0 0
outer loop
vertex 19.6 93.6 40.01746594469403
vertex 19.6 57.64230397819367 41.924362688473
vertex 19.6 55.31874357296713 40.01746594469444
endloop
endfacet
facet normal 1 0 0
outer loop
vertex 19.6 35.95769602180625 41.92436268847291
vertex 19.6 34.050799278027625 44.24792309369943
vertex 19.6 0 44.24792309369998
endloop
endfacet
facet normal 1 0 0
outer loop
vertex 19.6 35.95769602180625 41.92436268847291
vertex 19.6 0 44.24792309369998
vertex 19.6 0 41.92436268847327
endloop
endfacet
facet normal 1 0 0
outer loop
vertex 19.6 93.6 41.92436268847327
vertex 19.6 93.6 44.24792309369998
vertex 19.60000000000001 59.54920072197241 44.24792309369943
endloop
endfacet
facet normal 1 0 0
outer loop
vertex 19.6 93.6 41.92436268847327
vertex 19.60000000000001 59.54920072197241 44.24792309369943
vertex 19.6 57.64230397819367 41.924362688473
endloop
endfacet
facet normal 1 0 0
outer loop
vertex 19.6 34.050799278027625 44.24792309369943
vertex 19.6 32.633847168160294 46.89885403706863
vertex 19.6 0 46.89885403706855
endloop
endfacet
facet normal 1 0 0
outer loop
vertex 19.6 34.050799278027625 44.24792309369943
vertex 19.6 0 46.89885403706855
vertex 19.6 0 44.24792309369998
endloop
endfacet
facet normal 1 0 0
outer loop
vertex 19.6 93.6 44.24792309369998
vertex 19.6 93.6 46.89885403706855
vertex 19.6 60.96615283183978 46.89885403706861
endloop
endfacet
facet normal 1 0 0
outer loop
vertex 19.6 93.6 44.24792309369998
vertex 19.6 60.96615283183978 46.89885403706861
vertex 19.60000000000001 59.54920072197241 44.24792309369943
endloop
endfacet
facet normal 1 0 0
outer loop
vertex 19.6 32.633847168160294 46.89885403706863
vertex 19.6 31.76129236715046 49.775281729086004
vertex 19.6 0 49.77528172908545
endloop
endfacet
facet normal 1 0 0
outer loop
vertex 19.6 32.633847168160294 46.89885403706863
vertex 19.6 0 49.77528172908545
vertex 19.6 0 46.89885403706855
endloop
endfacet
facet normal 1 0 0
outer loop
vertex 19.6 93.6 46.89885403706855
vertex 19.6 93.6 49.77528172908545
vertex 19.6 61.838707632849435 49.775281729086025
endloop
endfacet
facet normal 1 0 0
outer loop
vertex 19.6 93.6 46.89885403706855
vertex 19.6 61.838707632849435 49.775281729086025
vertex 19.6 60.96615283183978 46.89885403706861
endloop
endfacet
facet normal 1 1.2058397054183908e-14 1.1876484481045378e-15
outer loop
vertex 19.6 31.76129236715046 49.775281729086004
vertex 19.6 31.172040966182823 55.7580516042473
vertex 19.60000000000001 30.29948616517304 58.634479296264715
endloop
endfacet
facet normal 1 1.2058397054183908e-14 1.1876484481045378e-15
outer loop
vertex 19.6 31.76129236715046 49.775281729086004
vertex 19.60000000000001 30.29948616517304 58.634479296264715
vertex 19.60000000000001 28.882534055305683 61.285410239633904
endloop
endfacet
facet normal 1 1.2058397054183908e-14 1.1876484481045378e-15
outer loop
vertex 19.6 31.76129236715046 49.775281729086004
vertex 19.60000000000001 28.882534055305683 61.285410239633904
vertex 19.6 26.975637311527123 63.60897064486046
endloop
endfacet
facet normal 1 1.2058397054183908e-14 1.1876484481045378e-15
outer loop
vertex 19.6 31.76129236715046 49.775281729086004
vertex 19.6 26.975637311527123 63.60897064486046
vertex 19.60000000000001 24.652076906300515 65.51586738863894
endloop
endfacet
facet normal 1 1.2058397054183908e-14 1.1876484481045378e-15
outer loop
vertex 19.6 31.76129236715046 49.775281729086004
vertex 19.60000000000001 24.652076906300515 65.51586738863894
vertex 19.60000000000001 22.001145962931325 66.93281949850629
endloop
endfacet
facet normal 1 1.2058397054183908e-14 1.1876484481045378e-15
outer loop
vertex 19.6 31.76129236715046 49.775281729086004
vertex 19.60000000000001 22.001145962931325 66.93281949850629
vertex 19.6 20.1314024247827 67.5
endloop
endfacet
facet normal 1 1.2058397054183908e-14 1.1876484481045378e-15
outer loop
vertex 19.6 31.76129236715046 49.775281729086004
vertex 19.6 20.1314024247827 67.5
vertex 19.6 0.8 67.5
endloop
endfacet
facet normal 1 1.2058397054183908e-14 1.1876484481045378e-15
outer loop
vertex 19.6 31.76129236715046 49.775281729086004
vertex 19.6 0.8 67.5
vertex 19.6 0 67.5
endloop
endfacet
facet normal 1 1.2058397054183908e-14 1.1876484481045378e-15
outer loop
vertex 19.6 31.76129236715046 49.775281729086004
vertex 19.6 0 67.5
vertex 19.6 0 49.77528172908545
endloop
endfacet
facet normal 1 0 0
outer loop
vertex 19.6 93.6 49.77528172908545
vertex 19.6 93.6 67.5
vertex 19.6 92.8 67.5
endloop
endfacet
facet normal 1 0 0
outer loop
vertex 19.6 93.6 49.77528172908545
vertex 19.6 92.8 67.5
vertex 19.6 73.46859757521707 67.5
endloop
endfacet
facet normal 1 0 0
outer loop
vertex 19.6 93.6 49.77528172908545
vertex 19.6 73.46859757521707 67.5
vertex 19.6 71.5988540370686 66.93281949850639
endloop
endfacet
facet normal 1 0 0
outer loop
vertex 19.6 93.6 49.77528172908545
vertex 19.6 71.5988540370686 66.93281949850639
vertex 19.6 68.94792309369946 65.51586738863904
endloop
endfacet
facet normal 1 0 0
outer loop
vertex 19.6 93.6 49.77528172908545
vertex 19.6 68.94792309369946 65.51586738863904
vertex 19.60000000000001 66.62436268847294 63.60897064486041
endloop
endfacet
facet normal 1 0 0
outer loop
vertex 19.6 93.6 49.77528172908545
vertex 19.60000000000001 66.62436268847294 63.60897064486041
vertex 19.6 64.71746594469431 61.285410239633904
endloop
endfacet
facet normal 1 0 0
outer loop
vertex 19.6 93.6 49.77528172908545
vertex 19.6 64.71746594469431 61.285410239633904
vertex 19.6 63.30051383482697 58.6344792962647
endloop
endfacet
facet normal 1 0 0
outer loop
vertex 19.6 93.6 49.77528172908545
vertex 19.6 63.30051383482697 58.6344792962647
vertex 19.6 62.427959033817075 55.75805160424731
endloop
endfacet
facet normal 1 0 0
outer loop
vertex 19.6 93.6 49.77528172908545
vertex 19.6 62.427959033817075 55.75805160424731
vertex 19.6 61.838707632849435 49.775281729086025
endloop
endfacet
facet normal 1 1.4481169886415088e-17 0
outer loop
vertex 0.8 92.8 1
vertex 0.8 92.8 37.433333333333344
vertex 0.8000000000000007 46.800000000000004 37.43333333333336
endloop
endfacet
facet normal 1 1.4481169886415088e-17 0
outer loop
vertex 0.8 92.8 1
vertex 0.8000000000000007 46.800000000000004 37.43333333333336
vertex 0.8 0.8 37.433333333333344
endloop
endfacet
facet normal 1 1.4481169886415088e-17 0
outer loop
vertex 0.8 92.8 1
vertex 0.8 0.8 37.433333333333344
vertex 0.8 0.8 1
endloop
endfacet
facet normal 1 0 0
outer loop
vertex 0.8000000000000007 46.800000000000004 37.43333333333336
vertex 0.8000000000000007 43.80861506241936 37.727959033817136
vertex 0.8 0.8 37.727959033817164
endloop
endfacet
facet normal 1 0 0
outer loop
vertex 0.8000000000000007 46.800000000000004 37.43333333333336
vertex 0.8 0.8 37.727959033817164
vertex 0.8 0.8 37.433333333333344
endloop
endfacet
facet normal 1 0 0
outer loop
vertex 0.8 92.8 37.433333333333344
vertex 0.8 92.8 37.727959033817164
vertex 0.8000000000000007 49.791384937580645 37.72795903381715
endloop
endfacet
facet normal 1 0 0
outer loop
vertex 0.8 92.8 37.433333333333344
vertex 0.8000000000000007 49.791384937580645 37.72795903381715
vertex 0.8000000000000007 46.800000000000004 37.43333333333336
endloop
endfacet
facet normal 1 0 0
outer loop
vertex 0.8000000000000007 43.80861506241936 37.727959033817136
vertex 0.8000000000000007 40.93218737040195 38.60051383482692
vertex 0.8 0.8 38.60051383482684
endloop
endfacet
facet normal 1 0 0
outer loop
vertex 0.8000000000000007 43.80861506241936 37.727959033817136
vertex 0.8 0.8 38.60051383482684
vertex 0.8 0.8 37.727959033817164
endloop
endfacet
facet normal 1 0 0
outer loop
vertex 0.8 92.8 37.727959033817164
vertex 0.8 92.8 38.60051383482684
vertex 0.8000000000000007 52.66781262959802 38.600513834827
endloop
endfacet
facet normal 1 0 0
outer loop
vertex 0.8 92.8 37.727959033817164
vertex 0.8000000000000007 52.66781262959802 38.600513834827
vertex 0.8000000000000007 49.791384937580645 37.72795903381715
endloop
endfacet
facet normal 1 0 0
outer loop
vertex 0.8000000000000007 40.93218737040195 38.60051383482692
vertex 0.8000000000000012 38.281256427032815 40.017465944694365
vertex 0.8 0.8 40.017465944694045
endloop
endfacet
facet normal 1 0 0
outer loop
vertex 0.8000000000000007 40.93218737040195 38.60051383482692
vertex 0.8 0.8 40.017465944694045
vertex 0.8 0.8 38.60051383482684
endloop
endfacet
facet normal 1 0 0
outer loop
vertex 0.8 92.8 38.60051383482684
vertex 0.8 92.8 40.017465944694045
vertex 0.8000000000000007 55.31874357296713 40.01746594469444
endloop
endfacet
facet normal 1 0 0
outer loop
vertex 0.8 92.8 38.60051383482684
vertex 0.8000000000000007 55.31874357296713 40.01746594469444
vertex 0.8000000000000007 52.66781262959802 38.600513834827
endloop
endfacet
facet normal 1 0 0
outer loop
vertex 0.8000000000000012 38.281256427032815 40.017465944694365
vertex 0.8000000000000007 35.95769602180625 41.92436268847291
vertex 0.8 0.8 41.92436268847323
endloop
endfacet
facet normal 1 0 0
outer loop
vertex 0.8000000000000012 38.281256427032815 40.017465944694365
vertex 0.8 0.8 41.92436268847323
vertex 0.8 0.8 40.017465944694045
endloop
endfacet
facet normal 1 0 0
outer loop
vertex 0.8 92.8 40.017465944694045
vertex 0.8 92.8 41.92436268847323
vertex 0.8000000000000007 57.64230397819367 41.924362688473
endloop
endfacet
facet normal 1 0 0
outer loop
vertex 0.8 92.8 40.017465944694045
vertex 0.8000000000000007 57.64230397819367 41.924362688473
vertex 0.8000000000000007 55.31874357296713 40.01746594469444
endloop
endfacet
facet normal 1 0 0
outer loop
vertex 0.8000000000000007 35.95769602180625 41.92436268847291
vertex 0.8000000000000007 34.050799278027625 44.24792309369943
vertex 0.8 0.8 44.24792309369997
endloop
endfacet
facet normal 1 0 0
outer loop
vertex 0.8000000000000007 35.95769602180625 41.92436268847291
vertex 0.8 0.8 44.24792309369997
vertex 0.8 0.8 41.92436268847323
endloop
endfacet
facet normal 1 0 0
outer loop
vertex 0.8 92.8 41.92436268847323
vertex 0.8 92.8 44.24792309369997
vertex 0.8000000000000012 59.54920072197241 44.24792309369943
endloop
endfacet
facet normal 1 0 0
outer loop
vertex 0.8 92.8 41.92436268847323
vertex 0.8000000000000012 59.54920072197241 44.24792309369943
vertex 0.8000000000000007 57.64230397819367 41.924362688473
endloop
endfacet
facet normal 1 0 0
outer loop
vertex 0.8000000000000007 34.050799278027625 44.24792309369943
vertex 0.8000000000000007 32.633847168160294 46.89885403706863
vertex 0.8 0.8 46.89885403706862
endloop
endfacet
facet normal 1 0 0
outer loop
vertex 0.8000000000000007 34.050799278027625 44.24792309369943
vertex 0.8 0.8 46.89885403706862
vertex 0.8 0.8 44.24792309369997
endloop
endfacet
facet normal 1 0 0
outer loop
vertex 0.8 92.8 44.24792309369997
vertex 0.8 92.8 46.89885403706862
vertex 0.8000000000000007 60.96615283183978 46.89885403706861
endloop
endfacet
facet normal 1 0 0
outer loop
vertex 0.8 92.8 44.24792309369997
vertex 0.8000000000000007 60.96615283183978 46.89885403706861
vertex 0.8000000000000012 59.54920072197241 44.24792309369943
endloop
endfacet
facet normal 1 0 0
outer loop
vertex 0.8000000000000007 32.633847168160294 46.89885403706863
vertex 0.8000000000000007 31.76129236715046 49.775281729086004
vertex 0.8 0.8 49.77528172908539
endloop
endfacet
facet normal 1 0 0
outer loop
vertex 0.8000000000000007 32.633847168160294 46.89885403706863
vertex 0.8 0.8 49.77528172908539
vertex 0.8 0.8 46.89885403706862
endloop
endfacet
facet normal 1 0 0
outer loop
vertex 0.8 92.8 46.89885403706862
vertex 0.8 92.8 49.77528172908539
vertex 0.8000000000000007 61.838707632849435 49.775281729086025
endloop
endfacet
facet normal 1 0 0
outer loop
vertex 0.8 92.8 46.89885403706862
vertex 0.8000000000000007 61.838707632849435 49.775281729086025
vertex 0.8000000000000007 60.96615283183978 46.89885403706861
endloop
endfacet
facet normal 1 0 0
outer loop
vertex 0.8000000000000007 31.76129236715046 49.775281729086004
vertex 0.8000000000000007 31.172040966182823 55.7580516042473
vertex 0.8000000000000005 30.29948616517304 58.634479296264715
endloop
endfacet
facet normal 1 0 0
outer loop
vertex 0.8000000000000007 31.76129236715046 49.775281729086004
vertex 0.8000000000000005 30.29948616517304 58.634479296264715
vertex 0.8000000000000012 28.882534055305683 61.285410239633904
endloop
endfacet
facet normal 1 0 0
outer loop
vertex 0.8000000000000007 31.76129236715046 49.775281729086004
vertex 0.8000000000000012 28.882534055305683 61.285410239633904
vertex 0.8 26.975637311527123 63.60897064486046
endloop
endfacet
facet normal 1 0 0
outer loop
vertex 0.8000000000000007 31.76129236715046 49.775281729086004
vertex 0.8 26.975637311527123 63.60897064486046
vertex 0.8000000000000006 24.652076906300515 65.51586738863894
endloop
endfacet
facet normal 1 0 0
outer loop
vertex 0.8000000000000007 31.76129236715046 49.775281729086004
vertex 0.8000000000000006 24.652076906300515 65.51586738863894
vertex 0.8000000000000012 22.001145962931325 66.93281949850629
endloop
endfacet
facet normal 1 0 0
outer loop
vertex 0.8000000000000007 31.76129236715046 49.775281729086004
vertex 0.8000000000000012 22.001145962931325 66.93281949850629
vertex 0.8 20.1314024247827 67.5
endloop
endfacet
facet normal 1 0 0
outer loop
vertex 0.8000000000000007 31.76129236715046 49.775281729086004
vertex 0.8 20.1314024247827 67.5
vertex 0.8 0.8 67.5
endloop
endfacet
facet normal 1 0 0
outer loop
vertex 0.8000000000000007 31.76129236715046 49.775281729086004
vertex 0.8 0.8 67.5
vertex 0.8 0.8 49.77528172908539
endloop
endfacet
facet normal 1 0 0
outer loop
vertex 0.8 92.8 49.77528172908539
vertex 0.8 92.8 67.5
vertex 0.8 73.46859757521707 67.5
endloop
endfacet
facet normal 1 0 0
outer loop
vertex 0.8 92.8 49.77528172908539
vertex 0.8 73.46859757521707 67.5
vertex 0.8000000000000002 71.5988540370686 66.93281949850639
endloop
endfacet
facet normal 1 0 0
outer loop
vertex 0.8 92.8 49.77528172908539
vertex 0.8000000000000002 71.5988540370686 66.93281949850639
vertex 0.8000000000000002 68.94792309369946 65.51586738863904
endloop
endfacet
facet normal 1 0 0
outer loop
vertex 0.8 92.8 49.77528172908539
vertex 0.8000000000000002 68.94792309369946 65.51586738863904
vertex 0.8000000000000005 66.62436268847294 63.60897064486041
endloop
endfacet
facet normal 1 0 0
outer loop
vertex 0.8 92.8 49.77528172908539
vertex 0.8000000000000005 66.62436268847294 63.60897064486041
vertex 0.8 64.71746594469431 61.285410239633904
endloop
endfacet
facet normal 1 0 0
outer loop
vertex 0.8 92.8 49.77528172908539
vertex 0.8 64.71746594469431 61.285410239633904
vertex 0.8 63.30051383482697 58.6344792962647
endloop
endfacet
facet normal 1 0 0
outer loop
vertex 0.8 92.8 49.77528172908539
vertex 0.8 63.30051383482697 58.6344792962647
vertex 0.8 62.427959033817075 55.75805160424731
endloop
endfacet
facet normal 1 0 0
outer loop
vertex 0.8 92.8 49.77528172908539
vertex 0.8 62.427959033817075 55.75805160424731
vertex 0.8000000000000007 61.838707632849435 49.775281729086025
endloop
endfacet
facet normal -1 0 0
outer loop
vertex 18.8 20.1314024247827 67.5
vertex 18.800000000000008 22.001145962931325 66.93281949850629
vertex 18.800000000000008 24.652076906300515 65.51586738863894
endloop
endfacet
facet normal -1 0 0
outer loop
vertex 18.8 20.1314024247827 67.5
vertex 18.800000000000008 24.652076906300515 65.51586738863894
vertex 18.8 26.975637311527123 63.60897064486046
endloop
endfacet
facet normal -1 0 0
outer loop
vertex 18.8 20.1314024247827 67.5
vertex 18.8 26.975637311527123 63.60897064486046
vertex 18.800000000000008 28.882534055305683 61.285410239633904
endloop
endfacet
facet normal -1 0 0
outer loop
vertex 18.8 20.1314024247827 67.5
vertex 18.800000000000008 28.882534055305683 61.285410239633904
vertex 18.800000000000008 30.29948616517304 58.634479296264715
endloop
endfacet
facet normal -1 0 0
outer loop
vertex 18.8 20.1314024247827 67.5
vertex 18.800000000000008 30.29948616517304 58.634479296264715
vertex 18.8 31.172040966182823 55.7580516042473
endloop
endfacet
facet normal -1 0 0
outer loop
vertex 18.8 20.1314024247827 67.5
vertex 18.8 31.172040966182823 55.7580516042473
vertex 18.8 31.76129236715046 49.775281729086004
endloop
endfacet
facet normal -1 0 0
outer loop
vertex 18.8 20.1314024247827 67.5
vertex 18.8 31.76129236715046 49.775281729086004
vertex 18.8 0.8 49.775281729085386
endloop
endfacet
facet normal -1 0 0
outer loop
vertex 18.8 20.1314024247827 67.5
vertex 18.8 0.8 49.775281729085386
vertex 18.8 0.8 67.5
endloop
endfacet
facet normal -1 0 0
outer loop
vertex 18.8 92.8 67.5
vertex 18.8 92.8 49.775281729085386
vertex 18.8 61.838707632849435 49.775281729086025
endloop
endfacet
facet normal -1 0 0
outer loop
vertex 18.8 92.8 67.5
vertex 18.8 61.838707632849435 49.775281729086025
vertex 18.8 62.427959033817075 55.75805160424731
endloop
endfacet
facet normal -1 0 0
outer loop
vertex 18.8 92.8 67.5
vertex 18.8 62.427959033817075 55.75805160424731
vertex 18.8 63.30051383482697 58.6344792962647
endloop
endfacet
facet normal -1 0 0
outer loop
vertex 18.8 92.8 67.5
vertex 18.8 63.30051383482697 58.6344792962647
vertex 18.8 64.71746594469431 61.285410239633904
endloop
endfacet
facet normal -1 0 0
outer loop
vertex 18.8 92.8 67.5
vertex 18.8 64.71746594469431 61.285410239633904
vertex 18.800000000000008 66.62436268847294 63.60897064486041
endloop
endfacet
facet normal -1 0 0
outer loop
vertex 18.8 92.8 67.5
vertex 18.800000000000008 66.62436268847294 63.60897064486041
vertex 18.8 68.94792309369946 65.51586738863904
endloop
endfacet
facet normal -1 0 0
outer loop
vertex 18.8 92.8 67.5
vertex 18.8 68.94792309369946 65.51586738863904
vertex 18.8 71.5988540370686 66.93281949850639
endloop
endfacet
facet normal -1 0 0
outer loop
vertex 18.8 92.8 67.5
vertex 18.8 71.5988540370686 66.93281949850639
vertex 18.8 73.46859757521707 67.5
endloop
endfacet
facet normal -1 0 0
outer loop
vertex 18.8 31.76129236715046 49.775281729086004
vertex 18.8 32.633847168160294 46.89885403706863
vertex 18.8 0.8 46.8988540370686
endloop
endfacet
facet normal -1 0 0
outer loop
vertex 18.8 31.76129236715046 49.775281729086004
vertex 18.8 0.8 46.8988540370686
vertex 18.8 0.8 49.775281729085386
endloop
endfacet
facet normal -1 0 0
outer loop
vertex 18.8 92.8 49.775281729085386
vertex 18.8 92.8 46.8988540370686
vertex 18.8 60.96615283183978 46.89885403706861
endloop
endfacet
facet normal -1 0 0
outer loop
vertex 18.8 92.8 49.775281729085386
vertex 18.8 60.96615283183978 46.89885403706861
vertex 18.8 61.838707632849435 49.775281729086025
endloop
endfacet
facet normal -1 0 0
outer loop
vertex 18.8 32.633847168160294 46.89885403706863
vertex 18.8 34.050799278027625 44.24792309369943
vertex 18.8 0.8 44.24792309369996
endloop
endfacet
facet normal -1 0 0
outer loop
vertex 18.8 32.633847168160294 46.89885403706863
vertex 18.8 0.8 44.24792309369996
vertex 18.8 0.8 46.8988540370686
endloop
endfacet
facet normal -1 0 0
outer loop
vertex 18.8 92.8 46.8988540370686
vertex 18.8 92.8 44.24792309369996
vertex 18.800000000000008 59.54920072197241 44.24792309369943
endloop
endfacet
facet normal -1 0 0
outer loop
vertex 18.8 92.8 46.8988540370686
vertex 18.800000000000008 59.54920072197241 44.24792309369943
vertex 18.8 60.96615283183978 46.89885403706861
endloop
endfacet
facet normal -1 0 0
outer loop
vertex 18.8 34.050799278027625 44.24792309369943
vertex 18.8 35.95769602180625 41.92436268847291
vertex 18.8 0.8 41.924362688473245
endloop
endfacet
facet normal -1 0 0
outer loop
vertex 18.8 34.050799278027625 44.24792309369943
vertex 18.8 0.8 41.924362688473245
vertex 18.8 0.8 44.24792309369996
endloop
endfacet
facet normal -1 0 0
outer loop
vertex 18.8 92.8 44.24792309369996
vertex 18.8 92.8 41.924362688473245
vertex 18.8 57.64230397819367 41.924362688473
endloop
endfacet
facet normal -1 0 0
outer loop
vertex 18.8 92.8 44.24792309369996
vertex 18.8 57.64230397819367 41.924362688473
vertex 18.800000000000008 59.54920072197241 44.24792309369943
endloop
endfacet
facet normal -1 0 0
outer loop
vertex 18.8 35.95769602180625 41.92436268847291
vertex 18.800000000000008 38.281256427032815 40.017465944694365
vertex 18.8 0.8 40.01746594469403
endloop
endfacet
facet normal -1 0 0
outer loop
vertex 18.8 35.95769602180625 41.92436268847291
vertex 18.8 0.8 40.01746594469403
vertex 18.8 0.8 41.924362688473245
endloop
endfacet
facet normal -1 0 0
outer loop
vertex 18.8 92.8 41.924362688473245
vertex 18.8 92.8 40.01746594469403
vertex 18.8 55.31874357296713 40.01746594469444
endloop
endfacet
facet normal -1 0 0
outer loop
vertex 18.8 92.8 41.924362688473245
vertex 18.8 55.31874357296713 40.01746594469444
vertex 18.8 57.64230397819367 41.924362688473
endloop
endfacet
facet normal -1 0 0
outer loop
vertex 18.800000000000008 38.281256427032815 40.017465944694365
vertex 18.8 40.93218737040195 38.60051383482692
vertex 18.8 0.8 38.60051383482684
endloop
endfacet
facet normal -1 0 0
outer loop
vertex 18.800000000000008 38.281256427032815 40.017465944694365
vertex 18.8 0.8 38.60051383482684
vertex 18.8 0.8 40.01746594469403
endloop
endfacet
facet normal -1 0 0
outer loop
vertex 18.8 92.8 40.01746594469403
vertex 18.8 92.8 38.60051383482684
vertex 18.8 52.66781262959802 38.600513834827
endloop
endfacet
facet normal -1 0 0
outer loop
vertex 18.8 92.8 40.01746594469403
vertex 18.8 52.66781262959802 38.600513834827
vertex 18.8 55.31874357296713 40.01746594469444
endloop
endfacet
facet normal -1 0 0
outer loop
vertex 18.8 40.93218737040195 38.60051383482692
vertex 18.8 43.80861506241936 37.727959033817136
vertex 18.8 0.8 37.72795903381716
endloop
endfacet
facet normal -1 0 0
outer loop
vertex 18.8 40.93218737040195 38.60051383482692
vertex 18.8 0.8 37.72795903381716
vertex 18.8 0.8 38.60051383482684
endloop
endfacet
facet normal -1 0 0
outer loop
vertex 18.8 92.8 38.60051383482684
vertex 18.8 92.8 37.72795903381716
vertex 18.8 49.791384937580645 37.72795903381715
endloop
endfacet
facet normal -1 0 0
outer loop
vertex 18.8 92.8 38.60051383482684
vertex 18.8 49.791384937580645 37.72795903381715
vertex 18.8 52.66781262959802 38.600513834827
endloop
endfacet
facet normal -1 0 0
outer loop
vertex 18.8 43.80861506241936 37.727959033817136
vertex 18.8 46.800000000000004 37.43333333333336
vertex 18.8 0.8 37.433333333333344
endloop
endfacet
facet normal -1 0 0
outer loop
vertex 18.8 43.80861506241936 37.727959033817136
vertex 18.8 0.8 37.433333333333344
vertex 18.8 0.8 37.72795903381716
endloop
endfacet
facet normal -1 0 0
outer loop
vertex 18.8 92.8 37.72795903381716
vertex 18.8 92.8 37.433333333333344
vertex 18.8 46.800000000000004 37.43333333333336
endloop
endfacet
facet normal -1 0 0
outer loop
vertex 18.8 92.8 37.72795903381716
vertex 18.8 46.800000000000004 37.43333333333336
vertex 18.8 49.791384937580645 37.72795903381715
endloop
endfacet
facet normal -1 0 0
outer loop
vertex 18.8 46.800000000000004 37.43333333333336
vertex 18.8 92.8 37.433333333333344
vertex 18.8 92.8 1
endloop
endfacet
facet normal -1 0 0
outer loop
vertex 18.8 46.800000000000004 37.43333333333336
vertex 18.8 92.8 1
vertex 18.8 0.8 1
endloop
endfacet
facet normal -1 0 0
outer loop
vertex 18.8 46.800000000000004 37.43333333333336
vertex 18.8 0.8 1
vertex 18.8 0.8 37.433333333333344
endloop
endfacet
endsolid csg.js
