solid csg.js
facet normal 0 -1 0
outer loop
vertex 0 0 64.23845914420689
vertex 0 0 62.768979779807154
vertex 0 0 61.41469984134631
endloop
endfacet
facet normal 0 -1 0
outer loop
vertex 0 0 64.23845914420689
vertex 0 0 61.41469984134631
vertex 0 0 60.227663547372295
endloop
endfacet
facet normal 0 -1 0
outer loop
vertex 0 0 64.23845914420689
vertex 0 0 60.227663547372295
vertex 0 0 59.25348803696325
endloop
endfacet
facet normal 0 -1 0
outer loop
vertex 0 0 64.23845914420689
vertex 0 0 59.25348803696325
vertex 0 0 58.52961032866158
endloop
endfacet
facet normal 0 -1 0
outer loop
vertex 0 0 64.23845914420689
vertex 0 0 58.52961032866158
vertex 0 0 58.08384863684135
endloop
endfacet
facet normal 0 -1 0
outer loop
vertex 0 0 64.23845914420689
vertex 0 0 58.08384863684135
vertex 0 0 57.93333333333333
endloop
endfacet
facet normal 0 -1 0
outer loop
vertex 0 0 64.23845914420689
vertex 0 0 57.93333333333333
vertex 0 0 0
endloop
endfacet
facet normal 0 -1 0
outer loop
vertex 0 0 64.23845914420689
vertex 0 0 0
vertex 17.6 0 0
endloop
endfacet
facet normal 0 -1 0
outer loop
vertex 0 0 64.23845914420689
vertex 17.6 0 0
vertex 17.6 0 57.93333333333333
endloop
endfacet
facet normal 0 -1 0
outer loop
vertex 0 0 64.23845914420689
vertex 17.6 0 57.93333333333333
vertex 17.6 0 58.08384863684135
endloop
endfacet
facet normal 0 -1 0
outer loop
vertex 0 0 64.23845914420689
vertex 17.6 0 58.08384863684135
vertex 17.6 0 58.52961032866157
endloop
endfacet
facet normal 0 -1 0
outer loop
vertex 0 0 64.23845914420689
vertex 17.6 0 58.52961032866157
vertex 17.6 0 59.25348803696324
endloop
endfacet
facet normal 0 -1 0
outer loop
vertex 0 0 64.23845914420689
vertex 17.6 0 59.25348803696324
vertex 17.6 0 60.22766354737232
endloop
endfacet
facet normal 0 -1 0
outer loop
vertex 0 0 64.23845914420689
vertex 17.6 0 60.22766354737232
vertex 17.6 0 61.414699841346284
endloop
endfacet
facet normal 0 -1 0
outer loop
vertex 0 0 64.23845914420689
vertex 17.6 0 61.414699841346284
vertex 17.6 0 62.768979779807175
endloop
endfacet
facet normal 0 -1 0
outer loop
vertex 0 0 64.23845914420689
vertex 17.6 0 62.768979779807175
vertex 17.6 0 64.23845914420691
endloop
endfacet
facet normal 0 -1 0
outer loop
vertex 0 0 64.23845914420689
vertex 17.6 0 64.23845914420691
vertex 17.6 0 73
endloop
endfacet
facet normal 0 -1 0
outer loop
vertex 0 0 64.23845914420689
vertex 17.6 0 73
vertex 0 0 73
endloop
endfacet
facet normal 0 1 0
outer loop
vertex 0 48.6 0
vertex 0 48.6 57.93333333333333
vertex 0 48.6 58.08384863684135
endloop
endfacet
facet normal 0 1 0
outer loop
vertex 0 48.6 0
vertex 0 48.6 58.08384863684135
vertex 0 48.6 58.52961032866158
endloop
endfacet
facet normal 0 1 0
outer loop
vertex 0 48.6 0
vertex 0 48.6 58.52961032866158
vertex 0 48.6 59.25348803696325
endloop
endfacet
facet normal 0 1 0
outer loop
vertex 0 48.6 0
vertex 0 48.6 59.25348803696325
vertex 0 48.6 60.227663547372295
endloop
endfacet
facet normal 0 1 0
outer loop
vertex 0 48.6 0
vertex 0 48.6 60.227663547372295
vertex 0 48.6 61.41469984134631
endloop
endfacet
facet normal 0 1 0
outer loop
vertex 0 48.6 0
vertex 0 48.6 61.41469984134631
vertex 0 48.6 62.768979779807154
endloop
endfacet
facet normal 0 1 0
outer loop
vertex 0 48.6 0
vertex 0 48.6 62.768979779807154
vertex 0 48.6 64.23845914420689
endloop
endfacet
facet normal 0 1 0
outer loop
vertex 0 48.6 0
vertex 0 48.6 64.23845914420689
vertex 0 48.6 73
endloop
endfacet
facet normal 0 1 0
outer loop
vertex 0 48.6 0
vertex 0 48.6 73
vertex 17.6 48.6 73
endloop
endfacet
facet normal 0 1 0
outer loop
vertex 0 48.6 0
vertex 17.6 48.6 73
vertex 17.6 48.6 64.23845914420691
endloop
endfacet
facet normal 0 1 0
outer loop
vertex 0 48.6 0
vertex 17.6 48.6 64.23845914420691
vertex 17.6 48.6 62.768979779807175
endloop
endfacet
facet normal 0 1 0
outer loop
vertex 0 48.6 0
vertex 17.6 48.6 62.768979779807175
vertex 17.6 48.6 61.414699841346284
endloop
endfacet
facet normal 0 1 0
outer loop
vertex 0 48.6 0
vertex 17.6 48.6 61.414699841346284
vertex 17.6 48.6 60.22766354737232
endloop
endfacet
facet normal 0 1 0
outer loop
vertex 0 48.6 0
vertex 17.6 48.6 60.22766354737232
vertex 17.6 48.6 59.25348803696324
endloop
endfacet
facet normal 0 1 0
outer loop
vertex 0 48.6 0
vertex 17.6 48.6 59.25348803696324
vertex 17.6 48.6 58.52961032866157
endloop
endfacet
facet normal 0 1 0
outer loop
vertex 0 48.6 0
vertex 17.6 48.6 58.52961032866157
vertex 17.6 48.6 58.08384863684135
endloop
endfacet
facet normal 0 1 0
outer loop
vertex 0 48.6 0
vertex 17.6 48.6 58.08384863684135
vertex 17.6 48.6 57.93333333333333
endloop
endfacet
facet normal 0 1 0
outer loop
vertex 0 48.6 0
vertex 17.6 48.6 57.93333333333333
vertex 17.6 48.6 0
endloop
endfacet
facet normal 0 0 -1
outer loop
vertex 0 0 0
vertex 0 48.6 0
vertex 17.6 48.6 0
endloop
endfacet
facet normal 0 0 -1
outer loop
vertex 0 0 0
vertex 17.6 48.6 0
vertex 17.6 0 0
endloop
endfacet
facet normal 0 1 0
outer loop
vertex 0.8 0.8 57.93333333333333
vertex 0.8 0.8 58.08384863684136
vertex 0.8 0.8 58.529610328661576
endloop
endfacet
facet normal 0 1 0
outer loop
vertex 0.8 0.8 57.93333333333333
vertex 0.8 0.8 58.529610328661576
vertex 0.8 0.8 59.25348803696325
endloop
endfacet
facet normal 0 1 0
outer loop
vertex 0.8 0.8 57.93333333333333
vertex 0.8 0.8 59.25348803696325
vertex 0.8 0.8 60.22766354737231
endloop
endfacet
facet normal 0 1 0
outer loop
vertex 0.8 0.8 57.93333333333333
vertex 0.8 0.8 60.22766354737231
vertex 0.8 0.8 61.4146998413463
endloop
endfacet
facet normal 0 1 0
outer loop
vertex 0.8 0.8 57.93333333333333
vertex 0.8 0.8 61.4146998413463
vertex 0.8 0.8 62.76897977980717
endloop
endfacet
facet normal 0 1 0
outer loop
vertex 0.8 0.8 57.93333333333333
vertex 0.8 0.8 62.76897977980717
vertex 0.8 0.8 64.23845914420689
endloop
endfacet
facet normal 0 1 0
outer loop
vertex 0.8 0.8 57.93333333333333
vertex 0.8 0.8 64.23845914420689
vertex 0.8 0.8 73
endloop
endfacet
facet normal 0 1 0
outer loop
vertex 0.8 0.8 57.93333333333333
vertex 0.8 0.8 73
vertex 16.8 0.8 73
endloop
endfacet
facet normal 0 1 0
outer loop
vertex 0.8 0.8 57.93333333333333
vertex 16.8 0.8 73
vertex 16.8 0.8 64.2384591442069
endloop
endfacet
facet normal 0 1 0
outer loop
vertex 0.8 0.8 57.93333333333333
vertex 16.8 0.8 64.2384591442069
vertex 16.8 0.8 62.76897977980716
endloop
endfacet
facet normal 0 1 0
outer loop
vertex 0.8 0.8 57.93333333333333
vertex 16.8 0.8 62.76897977980716
vertex 16.8 0.8 61.4146998413463
endloop
endfacet
facet normal 0 1 0
outer loop
vertex 0.8 0.8 57.93333333333333
vertex 16.8 0.8 61.4146998413463
vertex 16.8 0.8 60.22766354737231
endloop
endfacet
facet normal 0 1 0
outer loop
vertex 0.8 0.8 57.93333333333333
vertex 16.8 0.8 60.22766354737231
vertex 16.8 0.8 59.25348803696323
endloop
endfacet
facet normal 0 1 0
outer loop
vertex 0.8 0.8 57.93333333333333
vertex 16.8 0.8 59.25348803696323
vertex 16.8 0.8 58.52961032866159
endloop
endfacet
facet normal 0 1 0
outer loop
vertex 0.8 0.8 57.93333333333333
vertex 16.8 0.8 58.52961032866159
vertex 16.8 0.8 58.08384863684135
endloop
endfacet
facet normal 0 1 0
outer loop
vertex 0.8 0.8 57.93333333333333
vertex 16.8 0.8 58.08384863684135
vertex 16.8 0.8 57.93333333333333
endloop
endfacet
facet normal 0 1 0
outer loop
vertex 0.8 0.8 57.93333333333333
vertex 16.8 0.8 57.93333333333333
vertex 16.8 0.8 1
endloop
endfacet
facet normal 0 1 0
outer loop
vertex 0.8 0.8 57.93333333333333
vertex 16.8 0.8 1
vertex 0.8 0.8 1
endloop
endfacet
facet normal 0 -1 0
outer loop
vertex 16.8 47.8 1
vertex 16.8 47.8 57.93333333333333
vertex 16.8 47.8 58.08384863684135
endloop
endfacet
facet normal 0 -1 0
outer loop
vertex 16.8 47.8 1
vertex 16.8 47.8 58.08384863684135
vertex 16.8 47.8 58.52961032866159
endloop
endfacet
facet normal 0 -1 0
outer loop
vertex 16.8 47.8 1
vertex 16.8 47.8 58.52961032866159
vertex 16.8 47.8 59.25348803696323
endloop
endfacet
facet normal 0 -1 0
outer loop
vertex 16.8 47.8 1
vertex 16.8 47.8 59.25348803696323
vertex 16.8 47.8 60.22766354737231
endloop
endfacet
facet normal 0 -1 0
outer loop
vertex 16.8 47.8 1
vertex 16.8 47.8 60.22766354737231
vertex 16.8 47.8 61.4146998413463
endloop
endfacet
facet normal 0 -1 0
outer loop
vertex 16.8 47.8 1
vertex 16.8 47.8 61.4146998413463
vertex 16.8 47.8 62.76897977980716
endloop
endfacet
facet normal 0 -1 0
outer loop
vertex 16.8 47.8 1
vertex 16.8 47.8 62.76897977980716
vertex 16.8 47.8 64.2384591442069
endloop
endfacet
facet normal 0 -1 0
outer loop
vertex 16.8 47.8 1
vertex 16.8 47.8 64.2384591442069
vertex 16.8 47.8 73
endloop
endfacet
facet normal 0 -1 0
outer loop
vertex 16.8 47.8 1
vertex 16.8 47.8 73
vertex 0.8 47.8 73
endloop
endfacet
facet normal 0 -1 0
outer loop
vertex 16.8 47.8 1
vertex 0.8 47.8 73
vertex 0.8 47.8 64.23845914420689
endloop
endfacet
facet normal 0 -1 0
outer loop
vertex 16.8 47.8 1
vertex 0.8 47.8 64.23845914420689
vertex 0.8 47.8 62.76897977980717
endloop
endfacet
facet normal 0 -1 0
outer loop
vertex 16.8 47.8 1
vertex 0.8 47.8 62.76897977980717
vertex 0.8 47.8 61.4146998413463
endloop
endfacet
facet normal 0 -1 0
outer loop
vertex 16.8 47.8 1
vertex 0.8 47.8 61.4146998413463
vertex 0.8 47.8 60.22766354737231
endloop
endfacet
facet normal 0 -1 0
outer loop
vertex 16.8 47.8 1
vertex 0.8 47.8 60.22766354737231
vertex 0.8 47.8 59.25348803696325
endloop
endfacet
facet normal 0 -1 0
outer loop
vertex 16.8 47.8 1
vertex 0.8 47.8 59.25348803696325
vertex 0.8 47.8 58.529610328661576
endloop
endfacet
facet normal 0 -1 0
outer loop
vertex 16.8 47.8 1
vertex 0.8 47.8 58.529610328661576
vertex 0.8 47.8 58.08384863684136
endloop
endfacet
facet normal 0 -1 0
outer loop
vertex 16.8 47.8 1
vertex 0.8 47.8 58.08384863684136
vertex 0.8 47.8 57.93333333333333
endloop
endfacet
facet normal 0 -1 0
outer loop
vertex 16.8 47.8 1
vertex 0.8 47.8 57.93333333333333
vertex 0.8 47.8 1
endloop
endfacet
facet normal 0 0 1
outer loop
vertex 16.8 0.8 1
vertex 16.8 47.8 1
vertex 0.8 47.8 1
endloop
endfacet
facet normal 0 0 1
outer loop
vertex 16.8 0.8 1
vertex 0.8 47.8 1
vertex 0.8 0.8 1
endloop
endfacet
facet normal 0 0 1
outer loop
vertex 17.6 0 73
vertex 17.6 0.8 73
vertex 16.8 0.8 73
endloop
endfacet
facet normal 0 0 1
outer loop
vertex 17.6 0 73
vertex 16.8 0.8 73
vertex 0.8 0.8 73
endloop
endfacet
facet normal 0 0 1
outer loop
vertex 17.6 0 73
vertex 0.8 0.8 73
vertex 0 0.8 73
endloop
endfacet
facet normal 0 0 1
outer loop
vertex 17.6 0 73
vertex 0 0.8 73
vertex 0 0 73
endloop
endfacet
facet normal 0 0 1
outer loop
vertex 0.8 0.8 73
vertex 0.8 11.637985472030405 73
vertex 0 11.637985472030405 73
endloop
endfacet
facet normal 0 0 1
outer loop
vertex 0.8 0.8 73
vertex 0 11.637985472030405 73
vertex 0 0.8 73
endloop
endfacet
facet normal 0 0 1
outer loop
vertex 17.6 0.8 73
vertex 17.6 11.637985472030405 73
vertex 16.8 11.637985472030405 73
endloop
endfacet
facet normal 0 0 1
outer loop
vertex 17.6 0.8 73
vertex 16.8 11.637985472030405 73
vertex 16.8 0.8 73
endloop
endfacet
facet normal 0 0 1
outer loop
vertex 0.8 36.96201452796941 73
vertex 0.8 47.8 73
vertex 0 47.8 73
endloop
endfacet
facet normal 0 0 1
outer loop
vertex 0.8 36.96201452796941 73
vertex 0 47.8 73
vertex 0 36.96201452796941 73
endloop
endfacet
facet normal 0 0 1
outer loop
vertex 17.6 36.96201452796941 73
vertex 17.6 47.8 73
vertex 16.8 47.8 73
endloop
endfacet
facet normal 0 0 1
outer loop
vertex 17.6 36.96201452796941 73
vertex 16.8 47.8 73
vertex 16.8 36.96201452796941 73
endloop
endfacet
facet normal 0 0 1
outer loop
vertex 0.8 47.8 73
vertex 16.8 47.8 73
vertex 17.6 47.8 73
endloop
endfacet
facet normal 0 0 1
outer loop
vertex 0.8 47.8 73
vertex 17.6 47.8 73
vertex 17.6 48.6 73
endloop
endfacet
facet normal 0 0 1
outer loop
vertex 0.8 47.8 73
vertex 17.6 48.6 73
vertex 0 48.6 73
endloop
endfacet
facet normal 0 0 1
outer loop
vertex 0.8 47.8 73
vertex 0 48.6 73
vertex 0 47.8 73
endloop
endfacet
facet normal 0 -0.9951847266721969 0.09801714032956041
outer loop
vertex 0.8000000000000007 31.982818029825307 64.23845914420698
vertex 0.8 32.28384863684136 67.29487418912633
vertex 3.860776071253893e-16 32.28384863684136 67.29487418912633
endloop
endfacet
facet normal 0 -0.9951847266721969 0.09801714032956041
outer loop
vertex 0.8000000000000007 31.982818029825307 64.23845914420698
vertex 3.860776071253893e-16 32.28384863684136 67.29487418912633
vertex 5.732290522067041e-16 31.982818029825307 64.23845914420698
endloop
endfacet
facet normal 0 -0.9951847266721969 0.09801714032956041
outer loop
vertex 17.6 31.982818029825307 64.23845914420698
vertex 17.6 32.28384863684136 67.29487418912633
vertex 16.8 32.28384863684136 67.29487418912633
endloop
endfacet
facet normal 0 -0.9951847266721969 0.09801714032956041
outer loop
vertex 17.6 31.982818029825307 64.23845914420698
vertex 16.8 32.28384863684136 67.29487418912633
vertex 16.8 31.982818029825307 64.23845914420698
endloop
endfacet
facet normal 0 -0.9569403357322094 0.29028467725446094
outer loop
vertex 0.8000000000000007 31.5370563380051 62.768979779806806
vertex 0.8000000000000007 31.982818029825307 64.23845914420698
vertex 5.732290522067041e-16 31.982818029825307 64.23845914420698
endloop
endfacet
facet normal 0 -0.9569403357322094 0.29028467725446094
outer loop
vertex 0.8000000000000007 31.5370563380051 62.768979779806806
vertex 5.732290522067041e-16 31.982818029825307 64.23845914420698
vertex 6.632087122079931e-16 31.5370563380051 62.768979779806806
endloop
endfacet
facet normal 0 -0.9569403357322094 0.29028467725446094
outer loop
vertex 17.6 31.5370563380051 62.768979779806806
vertex 17.6 31.982818029825307 64.23845914420698
vertex 16.8 31.982818029825307 64.23845914420698
endloop
endfacet
facet normal 0 -0.9569403357322094 0.29028467725446094
outer loop
vertex 17.6 31.5370563380051 62.768979779806806
vertex 16.8 31.982818029825307 64.23845914420698
vertex 16.8 31.5370563380051 62.768979779806806
endloop
endfacet
facet normal 0 -0.8819212643483523 0.47139673682600286
outer loop
vertex 0.8000000000000007 30.813178629703213 61.41469984134648
vertex 0.8000000000000007 31.5370563380051 62.768979779806806
vertex 6.632087122079931e-16 31.5370563380051 62.768979779806806
endloop
endfacet
facet normal 0 -0.8819212643483523 0.47139673682600286
outer loop
vertex 0.8000000000000007 30.813178629703213 61.41469984134648
vertex 6.632087122079931e-16 31.5370563380051 62.768979779806806
vertex 7.461344417972399e-16 30.813178629703213 61.41469984134648
endloop
endfacet
facet normal 0 -0.8819212643483523 0.47139673682600286
outer loop
vertex 17.6 30.813178629703213 61.41469984134648
vertex 17.6 31.5370563380051 62.768979779806806
vertex 16.8 31.5370563380051 62.768979779806806
endloop
endfacet
facet normal 0 -0.8819212643483523 0.47139673682600286
outer loop
vertex 17.6 30.813178629703213 61.41469984134648
vertex 16.8 31.5370563380051 62.768979779806806
vertex 16.8 30.813178629703213 61.41469984134648
endloop
endfacet
facet normal 0 -0.7730104533627352 0.6343932841636476
outer loop
vertex 0.8000000000000007 29.839003119294603 60.22766354737206
vertex 0.8000000000000007 30.813178629703213 61.41469984134648
vertex 7.461344417972399e-16 30.813178629703213 61.41469984134648
endloop
endfacet
facet normal 0 -0.7730104533627352 0.6343932841636476
outer loop
vertex 0.8000000000000007 29.839003119294603 60.22766354737206
vertex 7.461344417972399e-16 30.813178629703213 61.41469984134648
vertex 8.188194516916148e-16 29.839003119294603 60.22766354737206
endloop
endfacet
facet normal 0 -0.7730104533627352 0.6343932841636476
outer loop
vertex 17.6 29.839003119294603 60.22766354737206
vertex 17.6 30.813178629703213 61.41469984134648
vertex 16.8 30.813178629703213 61.41469984134648
endloop
endfacet
facet normal 0 -0.7730104533627352 0.6343932841636476
outer loop
vertex 17.6 29.839003119294603 60.22766354737206
vertex 16.8 30.813178629703213 61.41469984134648
vertex 16.8 29.839003119294603 60.22766354737206
endloop
endfacet
facet normal 0 -0.6343932841636364 0.7730104533627445
outer loop
vertex 0.8000000000000012 28.65196682532015 59.25348803696349
vertex 0.8000000000000007 29.839003119294603 60.22766354737206
vertex 8.188194516916148e-16 29.839003119294603 60.22766354737206
endloop
endfacet
facet normal 0 -0.6343932841636364 0.7730104533627445
outer loop
vertex 0.8000000000000012 28.65196682532015 59.25348803696349
vertex 8.188194516916148e-16 29.839003119294603 60.22766354737206
vertex 8.784704977230998e-16 28.65196682532015 59.25348803696349
endloop
endfacet
facet normal 0 -0.6343932841636364 0.7730104533627445
outer loop
vertex 17.60000000000001 28.65196682532015 59.25348803696349
vertex 17.6 29.839003119294603 60.22766354737206
vertex 16.8 29.839003119294603 60.22766354737206
endloop
endfacet
facet normal 0 -0.6343932841636364 0.7730104533627445
outer loop
vertex 17.60000000000001 28.65196682532015 59.25348803696349
vertex 16.8 29.839003119294603 60.22766354737206
vertex 16.800000000000008 28.65196682532015 59.25348803696349
endloop
endfacet
facet normal 0 -0.4713967368259944 0.8819212643483568
outer loop
vertex 0.8000000000000012 27.297686886859854 58.52961032866163
vertex 0.8000000000000012 28.65196682532015 59.25348803696349
vertex 8.784704977230998e-16 28.65196682532015 59.25348803696349
endloop
endfacet
facet normal 0 -0.4713967368259944 0.8819212643483568
outer loop
vertex 0.8000000000000012 27.297686886859854 58.52961032866163
vertex 8.784704977230998e-16 28.65196682532015 59.25348803696349
vertex 9.227952236453963e-16 27.297686886859854 58.52961032866163
endloop
endfacet
facet normal 0 -0.4713967368259944 0.8819212643483568
outer loop
vertex 17.60000000000001 27.297686886859854 58.52961032866163
vertex 17.60000000000001 28.65196682532015 59.25348803696349
vertex 16.800000000000008 28.65196682532015 59.25348803696349
endloop
endfacet
facet normal 0 -0.4713967368259944 0.8819212643483568
outer loop
vertex 17.60000000000001 27.297686886859854 58.52961032866163
vertex 16.800000000000008 28.65196682532015 59.25348803696349
vertex 16.800000000000008 27.297686886859854 58.52961032866163
endloop
endfacet
facet normal 0 -0.2902846772544609 0.9569403357322093
outer loop
vertex 0.8000000000000007 25.828207522459667 58.08384863684138
vertex 0.8000000000000012 27.297686886859854 58.52961032866163
vertex 9.227952236453963e-16 27.297686886859854 58.52961032866163
endloop
endfacet
facet normal 0 -0.2902846772544609 0.9569403357322093
outer loop
vertex 0.8000000000000007 25.828207522459667 58.08384863684138
vertex 9.227952236453963e-16 27.297686886859854 58.52961032866163
vertex 9.500902550989034e-16 25.828207522459667 58.08384863684138
endloop
endfacet
facet normal 0 -0.2902846772544609 0.9569403357322093
outer loop
vertex 17.6 25.828207522459667 58.08384863684138
vertex 17.60000000000001 27.297686886859854 58.52961032866163
vertex 16.800000000000008 27.297686886859854 58.52961032866163
endloop
endfacet
facet normal 0 -0.2902846772544609 0.9569403357322093
outer loop
vertex 17.6 25.828207522459667 58.08384863684138
vertex 16.800000000000008 27.297686886859854 58.52961032866163
vertex 16.8 25.828207522459667 58.08384863684138
endloop
endfacet
facet normal 0 -0.09801714032956041 0.9951847266721969
outer loop
vertex 0.8000000000000007 24.300000000000004 57.933333333333344
vertex 0.8000000000000007 25.828207522459667 58.08384863684138
vertex 9.500902550989034e-16 25.828207522459667 58.08384863684138
endloop
endfacet
facet normal 0 -0.09801714032956041 0.9951847266721969
outer loop
vertex 0.8000000000000007 24.300000000000004 57.933333333333344
vertex 9.500902550989034e-16 25.828207522459667 58.08384863684138
vertex 9.593066593320934e-16 24.300000000000004 57.933333333333344
endloop
endfacet
facet normal 0 -0.09801714032956041 0.9951847266721969
outer loop
vertex 17.6 24.300000000000004 57.933333333333344
vertex 17.6 25.828207522459667 58.08384863684138
vertex 16.8 25.828207522459667 58.08384863684138
endloop
endfacet
facet normal 0 -0.09801714032956041 0.9951847266721969
outer loop
vertex 17.6 24.300000000000004 57.933333333333344
vertex 16.8 25.828207522459667 58.08384863684138
vertex 16.8 24.300000000000004 57.933333333333344
endloop
endfacet
facet normal 0 0.09801714032956006 0.9951847266721969
outer loop
vertex 0.8000000000000007 22.771792477540323 58.08384863684135
vertex 0.8000000000000007 24.300000000000004 57.933333333333344
vertex 9.593066593320934e-16 24.300000000000004 57.933333333333344
endloop
endfacet
facet normal 0 0.09801714032956006 0.9951847266721969
outer loop
vertex 0.8000000000000007 22.771792477540323 58.08384863684135
vertex 9.593066593320934e-16 24.300000000000004 57.933333333333344
vertex 9.500902550989034e-16 22.771792477540323 58.08384863684135
endloop
endfacet
facet normal 0 0.09801714032956006 0.9951847266721969
outer loop
vertex 17.6 22.771792477540323 58.08384863684135
vertex 17.6 24.300000000000004 57.933333333333344
vertex 16.8 24.300000000000004 57.933333333333344
endloop
endfacet
facet normal 0 0.09801714032956006 0.9951847266721969
outer loop
vertex 17.6 22.771792477540323 58.08384863684135
vertex 16.8 24.300000000000004 57.933333333333344
vertex 16.8 22.771792477540323 58.08384863684135
endloop
endfacet
facet normal 0 0.2902846772544629 0.9569403357322087
outer loop
vertex 0.8000000000000007 21.30231311314013 58.529610328661576
vertex 0.8000000000000007 22.771792477540323 58.08384863684135
vertex 9.500902550989034e-16 22.771792477540323 58.08384863684135
endloop
endfacet
facet normal 0 0.2902846772544629 0.9569403357322087
outer loop
vertex 0.8000000000000007 21.30231311314013 58.529610328661576
vertex 9.500902550989034e-16 22.771792477540323 58.08384863684135
vertex 9.227952236453959e-16 21.30231311314013 58.529610328661576
endloop
endfacet
facet normal 0 0.2902846772544629 0.9569403357322087
outer loop
vertex 17.6 21.30231311314013 58.529610328661576
vertex 17.6 22.771792477540323 58.08384863684135
vertex 16.8 22.771792477540323 58.08384863684135
endloop
endfacet
facet normal 0 0.2902846772544629 0.9569403357322087
outer loop
vertex 17.6 21.30231311314013 58.529610328661576
vertex 16.8 22.771792477540323 58.08384863684135
vertex 16.8 21.30231311314013 58.529610328661576
endloop
endfacet
facet normal 0 0.4713967368259944 0.8819212643483568
outer loop
vertex 0.8000000000000012 19.94803317467978 59.25348803696338
vertex 0.8000000000000007 21.30231311314013 58.529610328661576
vertex 9.227952236453959e-16 21.30231311314013 58.529610328661576
endloop
endfacet
facet normal 0 0.4713967368259944 0.8819212643483568
outer loop
vertex 0.8000000000000012 19.94803317467978 59.25348803696338
vertex 9.227952236453959e-16 21.30231311314013 58.529610328661576
vertex 8.784704977230998e-16 19.94803317467978 59.25348803696338
endloop
endfacet
facet normal 0 0.4713967368259944 0.8819212643483568
outer loop
vertex 17.60000000000001 19.94803317467978 59.25348803696338
vertex 17.6 21.30231311314013 58.529610328661576
vertex 16.8 21.30231311314013 58.529610328661576
endloop
endfacet
facet normal 0 0.4713967368259944 0.8819212643483568
outer loop
vertex 17.60000000000001 19.94803317467978 59.25348803696338
vertex 16.8 21.30231311314013 58.529610328661576
vertex 16.800000000000008 19.94803317467978 59.25348803696338
endloop
endfacet
facet normal 0 0.6343932841636442 0.7730104533627382
outer loop
vertex 0.8000000000000012 18.76099688070537 60.227663547372046
vertex 0.8000000000000012 19.94803317467978 59.25348803696338
vertex 8.784704977230998e-16 19.94803317467978 59.25348803696338
endloop
endfacet
facet normal 0 0.6343932841636442 0.7730104533627382
outer loop
vertex 0.8000000000000012 18.76099688070537 60.227663547372046
vertex 8.784704977230998e-16 19.94803317467978 59.25348803696338
vertex 8.188194516916152e-16 18.76099688070537 60.227663547372046
endloop
endfacet
facet normal 0 0.6343932841636442 0.7730104533627382
outer loop
vertex 17.60000000000001 18.76099688070537 60.227663547372046
vertex 17.60000000000001 19.94803317467978 59.25348803696338
vertex 16.800000000000008 19.94803317467978 59.25348803696338
endloop
endfacet
facet normal 0 0.6343932841636442 0.7730104533627382
outer loop
vertex 17.60000000000001 18.76099688070537 60.227663547372046
vertex 16.800000000000008 19.94803317467978 59.25348803696338
vertex 16.800000000000008 18.76099688070537 60.227663547372046
endloop
endfacet
facet normal 0 0.7730104533627347 0.6343932841636484
outer loop
vertex 0.8000000000000007 17.78682137029673 61.41469984134646
vertex 0.8000000000000012 18.76099688070537 60.227663547372046
vertex 8.188194516916152e-16 18.76099688070537 60.227663547372046
endloop
endfacet
facet normal 0 0.7730104533627347 0.6343932841636484
outer loop
vertex 0.8000000000000007 17.78682137029673 61.41469984134646
vertex 8.188194516916152e-16 18.76099688070537 60.227663547372046
vertex 7.461344417972399e-16 17.78682137029673 61.41469984134646
endloop
endfacet
facet normal 0 0.7730104533627347 0.6343932841636484
outer loop
vertex 17.6 17.78682137029673 61.41469984134646
vertex 17.60000000000001 18.76099688070537 60.227663547372046
vertex 16.800000000000008 18.76099688070537 60.227663547372046
endloop
endfacet
facet normal 0 0.7730104533627347 0.6343932841636484
outer loop
vertex 17.6 17.78682137029673 61.41469984134646
vertex 16.800000000000008 18.76099688070537 60.227663547372046
vertex 16.8 17.78682137029673 61.41469984134646
endloop
endfacet
facet normal 0 0.8819212643483537 0.47139673682600014
outer loop
vertex 0.8000000000000007 17.06294366199493 62.768979779806784
vertex 0.8000000000000007 17.78682137029673 61.41469984134646
vertex 7.461344417972399e-16 17.78682137029673 61.41469984134646
endloop
endfacet
facet normal 0 0.8819212643483537 0.47139673682600014
outer loop
vertex 0.8000000000000007 17.06294366199493 62.768979779806784
vertex 7.461344417972399e-16 17.78682137029673 61.41469984134646
vertex 6.632087122079932e-16 17.06294366199493 62.768979779806784
endloop
endfacet
facet normal 0 0.8819212643483537 0.47139673682600014
outer loop
vertex 17.6 17.06294366199493 62.768979779806784
vertex 17.6 17.78682137029673 61.41469984134646
vertex 16.8 17.78682137029673 61.41469984134646
endloop
endfacet
facet normal 0 0.8819212643483537 0.47139673682600014
outer loop
vertex 17.6 17.06294366199493 62.768979779806784
vertex 16.8 17.78682137029673 61.41469984134646
vertex 16.8 17.06294366199493 62.768979779806784
endloop
endfacet
facet normal 0 0.9569403357322084 0.29028467725446416
outer loop
vertex 0.8000000000000007 16.61718197017469 64.23845914420698
vertex 0.8000000000000007 17.06294366199493 62.768979779806784
vertex 6.632087122079932e-16 17.06294366199493 62.768979779806784
endloop
endfacet
facet normal 0 0.9569403357322084 0.29028467725446416
outer loop
vertex 0.8000000000000007 16.61718197017469 64.23845914420698
vertex 6.632087122079932e-16 17.06294366199493 62.768979779806784
vertex 5.732290522067043e-16 16.61718197017469 64.23845914420698
endloop
endfacet
facet normal 0 0.9569403357322084 0.29028467725446416
outer loop
vertex 17.6 16.61718197017469 64.23845914420698
vertex 17.6 17.06294366199493 62.768979779806784
vertex 16.8 17.06294366199493 62.768979779806784
endloop
endfacet
facet normal 0 0.9569403357322084 0.29028467725446416
outer loop
vertex 17.6 16.61718197017469 64.23845914420698
vertex 16.8 17.06294366199493 62.768979779806784
vertex 16.8 16.61718197017469 64.23845914420698
endloop
endfacet
facet normal 0 0.9951847266721967 0.09801714032956255
outer loop
vertex 0.8000000000000007 16.316151363158635 67.29487418912633
vertex 0.8000000000000007 16.61718197017469 64.23845914420698
vertex 5.732290522067043e-16 16.61718197017469 64.23845914420698
endloop
endfacet
facet normal 0 0.9951847266721967 0.09801714032956255
outer loop
vertex 0.8000000000000007 16.316151363158635 67.29487418912633
vertex 5.732290522067043e-16 16.61718197017469 64.23845914420698
vertex 3.8607760712538937e-16 16.316151363158635 67.29487418912633
endloop
endfacet
facet normal 0 0.9951847266721967 0.09801714032956255
outer loop
vertex 17.6 16.316151363158635 67.29487418912633
vertex 17.6 16.61718197017469 64.23845914420698
vertex 16.8 16.61718197017469 64.23845914420698
endloop
endfacet
facet normal 0 0.9951847266721967 0.09801714032956255
outer loop
vertex 17.6 16.316151363158635 67.29487418912633
vertex 16.8 16.61718197017469 64.23845914420698
vertex 16.8 16.316151363158635 67.29487418912633
endloop
endfacet
facet normal 0 -0.9569403357322073 0.2902846772544674
outer loop
vertex 0.8 32.28384863684136 67.29487418912633
vertex 0.8 32.72961032866158 68.76435355352655
vertex 2.960979471241001e-16 32.72961032866158 68.76435355352655
endloop
endfacet
facet normal 0 -0.9569403357322073 0.2902846772544674
outer loop
vertex 0.8 32.28384863684136 67.29487418912633
vertex 2.960979471241001e-16 32.72961032866158 68.76435355352655
vertex 3.860776071253893e-16 32.28384863684136 67.29487418912633
endloop
endfacet
facet normal 0 -0.9569403357322073 0.2902846772544674
outer loop
vertex 17.6 32.28384863684136 67.29487418912633
vertex 17.6 32.72961032866158 68.76435355352655
vertex 16.8 32.72961032866158 68.76435355352655
endloop
endfacet
facet normal 0 -0.9569403357322073 0.2902846772544674
outer loop
vertex 17.6 32.28384863684136 67.29487418912633
vertex 16.8 32.72961032866158 68.76435355352655
vertex 16.8 32.28384863684136 67.29487418912633
endloop
endfacet
facet normal 0 -0.8819212643483554 0.471396736825997
outer loop
vertex 0.8 32.72961032866158 68.76435355352655
vertex 0.8 33.45348803696339 70.11863349198688
vertex 2.1317221753485295e-16 33.45348803696339 70.11863349198688
endloop
endfacet
facet normal 0 -0.8819212643483554 0.471396736825997
outer loop
vertex 0.8 32.72961032866158 68.76435355352655
vertex 2.1317221753485295e-16 33.45348803696339 70.11863349198688
vertex 2.960979471241001e-16 32.72961032866158 68.76435355352655
endloop
endfacet
facet normal 0 -0.8819212643483554 0.471396736825997
outer loop
vertex 17.6 32.72961032866158 68.76435355352655
vertex 17.6 33.45348803696339 70.11863349198688
vertex 16.8 33.45348803696339 70.11863349198688
endloop
endfacet
facet normal 0 -0.8819212643483554 0.471396736825997
outer loop
vertex 17.6 32.72961032866158 68.76435355352655
vertex 16.8 33.45348803696339 70.11863349198688
vertex 16.8 32.72961032866158 68.76435355352655
endloop
endfacet
facet normal 0 -0.7730104533627319 0.6343932841636518
outer loop
vertex 0.8 33.45348803696339 70.11863349198688
vertex 0.8000000000000005 34.42766354737205 71.30566978596129
vertex 1.4048720764047835e-16 34.42766354737205 71.30566978596129
endloop
endfacet
facet normal 0 -0.7730104533627319 0.6343932841636518
outer loop
vertex 0.8 33.45348803696339 70.11863349198688
vertex 1.4048720764047835e-16 34.42766354737205 71.30566978596129
vertex 2.1317221753485295e-16 33.45348803696339 70.11863349198688
endloop
endfacet
facet normal 0 -0.7730104533627319 0.6343932841636518
outer loop
vertex 17.6 33.45348803696339 70.11863349198688
vertex 17.60000000000001 34.42766354737205 71.30566978596129
vertex 16.800000000000008 34.42766354737205 71.30566978596129
endloop
endfacet
facet normal 0 -0.7730104533627319 0.6343932841636518
outer loop
vertex 17.6 33.45348803696339 70.11863349198688
vertex 16.800000000000008 34.42766354737205 71.30566978596129
vertex 16.8 33.45348803696339 70.11863349198688
endloop
endfacet
facet normal 0 -0.6343932841636434 0.7730104533627388
outer loop
vertex 0.8000000000000005 34.42766354737205 71.30566978596129
vertex 0.8000000000000005 35.61469984134646 72.27984529636993
vertex 8.08361616089943e-17 35.61469984134646 72.27984529636993
endloop
endfacet
facet normal 0 -0.6343932841636434 0.7730104533627388
outer loop
vertex 0.8000000000000005 34.42766354737205 71.30566978596129
vertex 8.08361616089943e-17 35.61469984134646 72.27984529636993
vertex 1.4048720764047835e-16 34.42766354737205 71.30566978596129
endloop
endfacet
facet normal 0 -0.6343932841636434 0.7730104533627388
outer loop
vertex 17.60000000000001 34.42766354737205 71.30566978596129
vertex 17.60000000000001 35.61469984134646 72.27984529636993
vertex 16.800000000000008 35.61469984134646 72.27984529636993
endloop
endfacet
facet normal 0 -0.6343932841636434 0.7730104533627388
outer loop
vertex 17.60000000000001 34.42766354737205 71.30566978596129
vertex 16.800000000000008 35.61469984134646 72.27984529636993
vertex 16.800000000000008 34.42766354737205 71.30566978596129
endloop
endfacet
facet normal 0 0.6343932841636442 0.7730104533627382
outer loop
vertex 0.8000000000000012 12.985300158653526 72.27984529636993
vertex 0.8000000000000005 14.172336452627931 71.30566978596127
vertex 1.404872076404784e-16 14.172336452627931 71.30566978596127
endloop
endfacet
facet normal 0 0.6343932841636442 0.7730104533627382
outer loop
vertex 0.8000000000000012 12.985300158653526 72.27984529636993
vertex 1.404872076404784e-16 14.172336452627931 71.30566978596127
vertex 8.083616160899439e-17 12.985300158653526 72.27984529636993
endloop
endfacet
facet normal 0 0.6343932841636442 0.7730104533627382
outer loop
vertex 17.60000000000001 12.985300158653526 72.27984529636993
vertex 17.60000000000001 14.172336452627931 71.30566978596127
vertex 16.800000000000008 14.172336452627931 71.30566978596127
endloop
endfacet
facet normal 0 0.6343932841636442 0.7730104533627382
outer loop
vertex 17.60000000000001 12.985300158653526 72.27984529636993
vertex 16.800000000000008 14.172336452627931 71.30566978596127
vertex 16.800000000000008 12.985300158653526 72.27984529636993
endloop
endfacet
facet normal 0 0.8819212643483537 0.47139673682600014
outer loop
vertex 0.8000000000000007 15.146511963036598 70.11863349198688
vertex 0.8 15.870389671338412 68.76435355352653
vertex 2.9609794712410013e-16 15.870389671338412 68.76435355352653
endloop
endfacet
facet normal 0 0.8819212643483537 0.47139673682600014
outer loop
vertex 0.8000000000000007 15.146511963036598 70.11863349198688
vertex 2.9609794712410013e-16 15.870389671338412 68.76435355352653
vertex 2.1317221753485302e-16 15.146511963036598 70.11863349198688
endloop
endfacet
facet normal 0 0.8819212643483537 0.47139673682600014
outer loop
vertex 17.6 15.146511963036598 70.11863349198688
vertex 17.6 15.870389671338412 68.76435355352653
vertex 16.8 15.870389671338412 68.76435355352653
endloop
endfacet
facet normal 0 0.8819212643483537 0.47139673682600014
outer loop
vertex 17.6 15.146511963036598 70.11863349198688
vertex 16.8 15.870389671338412 68.76435355352653
vertex 16.8 15.146511963036598 70.11863349198688
endloop
endfacet
facet normal 0 0.9569403357322084 0.29028467725446416
outer loop
vertex 0.8 15.870389671338412 68.76435355352653
vertex 0.8000000000000007 16.316151363158635 67.29487418912633
vertex 3.8607760712538937e-16 16.316151363158635 67.29487418912633
endloop
endfacet
facet normal 0 0.9569403357322084 0.29028467725446416
outer loop
vertex 0.8 15.870389671338412 68.76435355352653
vertex 3.8607760712538937e-16 16.316151363158635 67.29487418912633
vertex 2.9609794712410013e-16 15.870389671338412 68.76435355352653
endloop
endfacet
facet normal 0 0.9569403357322084 0.29028467725446416
outer loop
vertex 17.6 15.870389671338412 68.76435355352653
vertex 17.6 16.316151363158635 67.29487418912633
vertex 16.8 16.316151363158635 67.29487418912633
endloop
endfacet
facet normal 0 0.9569403357322084 0.29028467725446416
outer loop
vertex 17.6 15.870389671338412 68.76435355352653
vertex 16.8 16.316151363158635 67.29487418912633
vertex 16.8 15.870389671338412 68.76435355352653
endloop
endfacet
facet normal 0 -0.4713967368260054 0.8819212643483508
outer loop
vertex 0.8000000000000005 35.61469984134646 72.27984529636993
vertex 0.8 36.96201452796941 73
vertex 0 36.96201452796941 73
endloop
endfacet
facet normal 0 -0.4713967368260054 0.8819212643483508
outer loop
vertex 0.8000000000000005 35.61469984134646 72.27984529636993
vertex 0 36.96201452796941 73
vertex 8.08361616089943e-17 35.61469984134646 72.27984529636993
endloop
endfacet
facet normal 0 -0.4713967368260054 0.8819212643483508
outer loop
vertex 17.60000000000001 35.61469984134646 72.27984529636993
vertex 17.6 36.96201452796941 73
vertex 16.8 36.96201452796941 73
endloop
endfacet
facet normal 0 -0.4713967368260054 0.8819212643483508
outer loop
vertex 17.60000000000001 35.61469984134646 72.27984529636993
vertex 16.8 36.96201452796941 73
vertex 16.800000000000008 35.61469984134646 72.27984529636993
endloop
endfacet
facet normal 0 0.47139673682599587 0.881921264348356
outer loop
vertex 0.8 11.637985472030405 73
vertex 0.8000000000000012 12.985300158653526 72.27984529636993
vertex 8.083616160899439e-17 12.985300158653526 72.27984529636993
endloop
endfacet
facet normal 0 0.47139673682599587 0.881921264348356
outer loop
vertex 0.8 11.637985472030405 73
vertex 8.083616160899439e-17 12.985300158653526 72.27984529636993
vertex 0 11.637985472030405 73
endloop
endfacet
facet normal 0 0.47139673682599587 0.881921264348356
outer loop
vertex 17.6 11.637985472030405 73
vertex 17.60000000000001 12.985300158653526 72.27984529636993
vertex 16.800000000000008 12.985300158653526 72.27984529636993
endloop
endfacet
facet normal 0 0.47139673682599587 0.881921264348356
outer loop
vertex 17.6 11.637985472030405 73
vertex 16.800000000000008 12.985300158653526 72.27984529636993
vertex 16.8 11.637985472030405 73
endloop
endfacet
facet normal 0 0.7730104533627347 0.6343932841636484
outer loop
vertex 0.8000000000000005 14.172336452627931 71.30566978596127
vertex 0.8000000000000007 15.146511963036598 70.11863349198688
vertex 2.1317221753485302e-16 15.146511963036598 70.11863349198688
endloop
endfacet
facet normal 0 0.7730104533627347 0.6343932841636484
outer loop
vertex 0.8000000000000005 14.172336452627931 71.30566978596127
vertex 2.1317221753485302e-16 15.146511963036598 70.11863349198688
vertex 1.404872076404784e-16 14.172336452627931 71.30566978596127
endloop
endfacet
facet normal 0 0.7730104533627347 0.6343932841636484
outer loop
vertex 17.60000000000001 14.172336452627931 71.30566978596127
vertex 17.6 15.146511963036598 70.11863349198688
vertex 16.8 15.146511963036598 70.11863349198688
endloop
endfacet
facet normal 0 0.7730104533627347 0.6343932841636484
outer loop
vertex 17.60000000000001 14.172336452627931 71.30566978596127
vertex 16.8 15.146511963036598 70.11863349198688
vertex 16.800000000000008 14.172336452627931 71.30566978596127
endloop
endfacet
facet normal -1 0 -1.122483283126873e-16
outer loop
vertex 0 0.8 73
vertex 0 11.637985472030405 73
vertex 8.083616160899439e-17 12.985300158653526 72.27984529636993
endloop
endfacet
facet normal -1 0 -1.122483283126873e-16
outer loop
vertex 0 0.8 73
vertex 8.083616160899439e-17 12.985300158653526 72.27984529636993
vertex 1.404872076404784e-16 14.172336452627931 71.30566978596127
endloop
endfacet
facet normal -1 0 -1.122483283126873e-16
outer loop
vertex 0 0.8 73
vertex 1.404872076404784e-16 14.172336452627931 71.30566978596127
vertex 2.1317221753485302e-16 15.146511963036598 70.11863349198688
endloop
endfacet
facet normal -1 0 -1.122483283126873e-16
outer loop
vertex 0 0.8 73
vertex 2.1317221753485302e-16 15.146511963036598 70.11863349198688
vertex 2.9609794712410013e-16 15.870389671338412 68.76435355352653
endloop
endfacet
facet normal -1 0 -1.122483283126873e-16
outer loop
vertex 0 0.8 73
vertex 2.9609794712410013e-16 15.870389671338412 68.76435355352653
vertex 3.8607760712538937e-16 16.316151363158635 67.29487418912633
endloop
endfacet
facet normal -1 0 -1.122483283126873e-16
outer loop
vertex 0 0.8 73
vertex 3.8607760712538937e-16 16.316151363158635 67.29487418912633
vertex 5.732290522067043e-16 16.61718197017469 64.23845914420698
endloop
endfacet
facet normal -1 0 -1.122483283126873e-16
outer loop
vertex 0 0.8 73
vertex 5.732290522067043e-16 16.61718197017469 64.23845914420698
vertex 0 0 64.23845914420689
endloop
endfacet
facet normal -1 0 -1.122483283126873e-16
outer loop
vertex 0 0.8 73
vertex 0 0 64.23845914420689
vertex 0 0 73
endloop
endfacet
facet normal -1 0 0
outer loop
vertex 0 47.8 73
vertex 0 48.6 73
vertex 0 48.6 64.23845914420689
endloop
endfacet
facet normal -1 0 0
outer loop
vertex 0 47.8 73
vertex 0 48.6 64.23845914420689
vertex 5.732290522067041e-16 31.982818029825307 64.23845914420698
endloop
endfacet
facet normal -1 0 0
outer loop
vertex 0 47.8 73
vertex 5.732290522067041e-16 31.982818029825307 64.23845914420698
vertex 3.860776071253893e-16 32.28384863684136 67.29487418912633
endloop
endfacet
facet normal -1 0 0
outer loop
vertex 0 47.8 73
vertex 3.860776071253893e-16 32.28384863684136 67.29487418912633
vertex 2.960979471241001e-16 32.72961032866158 68.76435355352655
endloop
endfacet
facet normal -1 0 0
outer loop
vertex 0 47.8 73
vertex 2.960979471241001e-16 32.72961032866158 68.76435355352655
vertex 2.1317221753485295e-16 33.45348803696339 70.11863349198688
endloop
endfacet
facet normal -1 0 0
outer loop
vertex 0 47.8 73
vertex 2.1317221753485295e-16 33.45348803696339 70.11863349198688
vertex 1.4048720764047835e-16 34.42766354737205 71.30566978596129
endloop
endfacet
facet normal -1 0 0
outer loop
vertex 0 47.8 73
vertex 1.4048720764047835e-16 34.42766354737205 71.30566978596129
vertex 8.08361616089943e-17 35.61469984134646 72.27984529636993
endloop
endfacet
facet normal -1 0 0
outer loop
vertex 0 47.8 73
vertex 8.08361616089943e-17 35.61469984134646 72.27984529636993
vertex 0 36.96201452796941 73
endloop
endfacet
facet normal -1 0 0
outer loop
vertex 5.732290522067043e-16 16.61718197017469 64.23845914420698
vertex 6.632087122079932e-16 17.06294366199493 62.768979779806784
vertex 0 0 62.768979779807154
endloop
endfacet
facet normal -1 0 0
outer loop
vertex 5.732290522067043e-16 16.61718197017469 64.23845914420698
vertex 0 0 62.768979779807154
vertex 0 0 64.23845914420689
endloop
endfacet
facet normal -1 0 0
outer loop
vertex 0 48.6 64.23845914420689
vertex 0 48.6 62.768979779807154
vertex 6.632087122079931e-16 31.5370563380051 62.768979779806806
endloop
endfacet
facet normal -1 0 0
outer loop
vertex 0 48.6 64.23845914420689
vertex 6.632087122079931e-16 31.5370563380051 62.768979779806806
vertex 5.732290522067041e-16 31.982818029825307 64.23845914420698
endloop
endfacet
facet normal -1 0 0
outer loop
vertex 6.632087122079932e-16 17.06294366199493 62.768979779806784
vertex 7.461344417972399e-16 17.78682137029673 61.41469984134646
vertex 0 0 61.41469984134631
endloop
endfacet
facet normal -1 0 0
outer loop
vertex 6.632087122079932e-16 17.06294366199493 62.768979779806784
vertex 0 0 61.41469984134631
vertex 0 0 62.768979779807154
endloop
endfacet
facet normal -1 0 0
outer loop
vertex 0 48.6 62.768979779807154
vertex 0 48.6 61.41469984134631
vertex 7.461344417972399e-16 30.813178629703213 61.41469984134648
endloop
endfacet
facet normal -1 0 0
outer loop
vertex 0 48.6 62.768979779807154
vertex 7.461344417972399e-16 30.813178629703213 61.41469984134648
vertex 6.632087122079931e-16 31.5370563380051 62.768979779806806
endloop
endfacet
facet normal -1 0 0
outer loop
vertex 7.461344417972399e-16 17.78682137029673 61.41469984134646
vertex 8.188194516916152e-16 18.76099688070537 60.227663547372046
vertex 0 0 60.227663547372295
endloop
endfacet
facet normal -1 0 0
outer loop
vertex 7.461344417972399e-16 17.78682137029673 61.41469984134646
vertex 0 0 60.227663547372295
vertex 0 0 61.41469984134631
endloop
endfacet
facet normal -1 0 0
outer loop
vertex 0 48.6 61.41469984134631
vertex 0 48.6 60.227663547372295
vertex 8.188194516916148e-16 29.839003119294603 60.22766354737206
endloop
endfacet
facet normal -1 0 0
outer loop
vertex 0 48.6 61.41469984134631
vertex 8.188194516916148e-16 29.839003119294603 60.22766354737206
vertex 7.461344417972399e-16 30.813178629703213 61.41469984134648
endloop
endfacet
facet normal -1 0 0
outer loop
vertex 8.188194516916152e-16 18.76099688070537 60.227663547372046
vertex 8.784704977230998e-16 19.94803317467978 59.25348803696338
vertex 0 0 59.25348803696325
endloop
endfacet
facet normal -1 0 0
outer loop
vertex 8.188194516916152e-16 18.76099688070537 60.227663547372046
vertex 0 0 59.25348803696325
vertex 0 0 60.227663547372295
endloop
endfacet
facet normal -1 0 0
outer loop
vertex 0 48.6 60.227663547372295
vertex 0 48.6 59.25348803696325
vertex 8.784704977230998e-16 28.65196682532015 59.25348803696349
endloop
endfacet
facet normal -1 0 0
outer loop
vertex 0 48.6 60.227663547372295
vertex 8.784704977230998e-16 28.65196682532015 59.25348803696349
vertex 8.188194516916148e-16 29.839003119294603 60.22766354737206
endloop
endfacet
facet normal -1 0 0
outer loop
vertex 8.784704977230998e-16 19.94803317467978 59.25348803696338
vertex 9.227952236453959e-16 21.30231311314013 58.529610328661576
vertex 0 0 58.52961032866158
endloop
endfacet
facet normal -1 0 0
outer loop
vertex 8.784704977230998e-16 19.94803317467978 59.25348803696338
vertex 0 0 58.52961032866158
vertex 0 0 59.25348803696325
endloop
endfacet
facet normal -1 0 0
outer loop
vertex 0 48.6 59.25348803696325
vertex 0 48.6 58.52961032866158
vertex 9.227952236453963e-16 27.297686886859854 58.52961032866163
endloop
endfacet
facet normal -1 0 0
outer loop
vertex 0 48.6 59.25348803696325
vertex 9.227952236453963e-16 27.297686886859854 58.52961032866163
vertex 8.784704977230998e-16 28.65196682532015 59.25348803696349
endloop
endfacet
facet normal -1 0 0
outer loop
vertex 9.227952236453959e-16 21.30231311314013 58.529610328661576
vertex 9.500902550989034e-16 22.771792477540323 58.08384863684135
vertex 0 0 58.08384863684135
endloop
endfacet
facet normal -1 0 0
outer loop
vertex 9.227952236453959e-16 21.30231311314013 58.529610328661576
vertex 0 0 58.08384863684135
vertex 0 0 58.52961032866158
endloop
endfacet
facet normal -1 0 0
outer loop
vertex 0 48.6 58.52961032866158
vertex 0 48.6 58.08384863684135
vertex 9.500902550989034e-16 25.828207522459667 58.08384863684138
endloop
endfacet
facet normal -1 0 0
outer loop
vertex 0 48.6 58.52961032866158
vertex 9.500902550989034e-16 25.828207522459667 58.08384863684138
vertex 9.227952236453963e-16 27.297686886859854 58.52961032866163
endloop
endfacet
facet normal -1 0 0
outer loop
vertex 9.500902550989034e-16 22.771792477540323 58.08384863684135
vertex 9.593066593320934e-16 24.300000000000004 57.933333333333344
vertex 0 0 57.93333333333333
endloop
endfacet
facet normal -1 0 0
outer loop
vertex 9.500902550989034e-16 22.771792477540323 58.08384863684135
vertex 0 0 57.93333333333333
vertex 0 0 58.08384863684135
endloop
endfacet
facet normal -1 0 0
outer loop
vertex 0 48.6 58.08384863684135
vertex 0 48.6 57.93333333333333
vertex 9.593066593320934e-16 24.300000000000004 57.933333333333344
endloop
endfacet
facet normal -1 0 0
outer loop
vertex 0 48.6 58.08384863684135
vertex 9.593066593320934e-16 24.300000000000004 57.933333333333344
vertex 9.500902550989034e-16 25.828207522459667 58.08384863684138
endloop
endfacet
facet normal -1 -3.947764030173224e-17 0
outer loop
vertex 9.593066593320934e-16 24.300000000000004 57.933333333333344
vertex 0 48.6 57.93333333333333
vertex 0 48.6 0
endloop
endfacet
facet normal -1 -3.947764030173224e-17 0
outer loop
vertex 9.593066593320934e-16 24.300000000000004 57.933333333333344
vertex 0 48.6 0
vertex 0 0 0
endloop
endfacet
facet normal -1 -3.947764030173224e-17 0
outer loop
vertex 9.593066593320934e-16 24.300000000000004 57.933333333333344
vertex 0 0 0
vertex 0 0 57.93333333333333
endloop
endfacet
facet normal 1 0 0
outer loop
vertex 17.6 48.6 0
vertex 17.6 48.6 57.93333333333333
vertex 17.6 24.300000000000004 57.933333333333344
endloop
endfacet
facet normal 1 0 0
outer loop
vertex 17.6 48.6 0
vertex 17.6 24.300000000000004 57.933333333333344
vertex 17.6 0 57.93333333333333
endloop
endfacet
facet normal 1 0 0
outer loop
vertex 17.6 48.6 0
vertex 17.6 0 57.93333333333333
vertex 17.6 0 0
endloop
endfacet
facet normal 1 0 0
outer loop
vertex 17.6 24.300000000000004 57.933333333333344
vertex 17.6 22.771792477540323 58.08384863684135
vertex 17.6 0 58.08384863684135
endloop
endfacet
facet normal 1 0 0
outer loop
vertex 17.6 24.300000000000004 57.933333333333344
vertex 17.6 0 58.08384863684135
vertex 17.6 0 57.93333333333333
endloop
endfacet
facet normal 1 0 0
outer loop
vertex 17.6 48.6 57.93333333333333
vertex 17.6 48.6 58.08384863684135
vertex 17.6 25.828207522459667 58.08384863684138
endloop
endfacet
facet normal 1 0 0
outer loop
vertex 17.6 48.6 57.93333333333333
vertex 17.6 25.828207522459667 58.08384863684138
vertex 17.6 24.300000000000004 57.933333333333344
endloop
endfacet
facet normal 1 0 0
outer loop
vertex 17.6 22.771792477540323 58.08384863684135
vertex 17.6 21.30231311314013 58.529610328661576
vertex 17.6 0 58.52961032866157
endloop
endfacet
facet normal 1 0 0
outer loop
vertex 17.6 22.771792477540323 58.08384863684135
vertex 17.6 0 58.52961032866157
vertex 17.6 0 58.08384863684135
endloop
endfacet
facet normal 1 0 0
outer loop
vertex 17.6 48.6 58.08384863684135
vertex 17.6 48.6 58.52961032866157
vertex 17.60000000000001 27.297686886859854 58.52961032866163
endloop
endfacet
facet normal 1 0 0
outer loop
vertex 17.6 48.6 58.08384863684135
vertex 17.60000000000001 27.297686886859854 58.52961032866163
vertex 17.6 25.828207522459667 58.08384863684138
endloop
endfacet
facet normal 1 0 0
outer loop
vertex 17.6 21.30231311314013 58.529610328661576
vertex 17.60000000000001 19.94803317467978 59.25348803696338
vertex 17.6 0 59.25348803696324
endloop
endfacet
facet normal 1 0 0
outer loop
vertex 17.6 21.30231311314013 58.529610328661576
vertex 17.6 0 59.25348803696324
vertex 17.6 0 58.52961032866157
endloop
endfacet
facet normal 1 0 0
outer loop
vertex 17.6 48.6 58.52961032866157
vertex 17.6 48.6 59.25348803696324
vertex 17.60000000000001 28.65196682532015 59.25348803696349
endloop
endfacet
facet normal 1 0 0
outer loop
vertex 17.6 48.6 58.52961032866157
vertex 17.60000000000001 28.65196682532015 59.25348803696349
vertex 17.60000000000001 27.297686886859854 58.52961032866163
endloop
endfacet
facet normal 1 0 0
outer loop
vertex 17.60000000000001 19.94803317467978 59.25348803696338
vertex 17.60000000000001 18.76099688070537 60.227663547372046
vertex 17.6 0 60.22766354737232
endloop
endfacet
facet normal 1 0 0
outer loop
vertex 17.60000000000001 19.94803317467978 59.25348803696338
vertex 17.6 0 60.22766354737232
vertex 17.6 0 59.25348803696324
endloop
endfacet
facet normal 1 0 0
outer loop
vertex 17.6 48.6 59.25348803696324
vertex 17.6 48.6 60.22766354737232
vertex 17.6 29.839003119294603 60.22766354737206
endloop
endfacet
facet normal 1 0 0
outer loop
vertex 17.6 48.6 59.25348803696324
vertex 17.6 29.839003119294603 60.22766354737206
vertex 17.60000000000001 28.65196682532015 59.25348803696349
endloop
endfacet
facet normal 1 0 0
outer loop
vertex 17.60000000000001 18.76099688070537 60.227663547372046
vertex 17.6 17.78682137029673 61.41469984134646
vertex 17.6 0 61.414699841346284
endloop
endfacet
facet normal 1 0 0
outer loop
vertex 17.60000000000001 18.76099688070537 60.227663547372046
vertex 17.6 0 61.414699841346284
vertex 17.6 0 60.22766354737232
endloop
endfacet
facet normal 1 0 0
outer loop
vertex 17.6 48.6 60.22766354737232
vertex 17.6 48.6 61.414699841346284
vertex 17.6 30.813178629703213 61.41469984134648
endloop
endfacet
facet normal 1 0 0
outer loop
vertex 17.6 48.6 60.22766354737232
vertex 17.6 30.813178629703213 61.41469984134648
vertex 17.6 29.839003119294603 60.22766354737206
endloop
endfacet
facet normal 1 0 0
outer loop
vertex 17.6 17.78682137029673 61.41469984134646
vertex 17.6 17.06294366199493 62.768979779806784
vertex 17.6 0 62.768979779807175
endloop
endfacet
facet normal 1 0 0
outer loop
vertex 17.6 17.78682137029673 61.41469984134646
vertex 17.6 0 62.768979779807175
vertex 17.6 0 61.414699841346284
endloop
endfacet
facet normal 1 0 0
outer loop
vertex 17.6 48.6 61.414699841346284
vertex 17.6 48.6 62.768979779807175
vertex 17.6 31.5370563380051 62.768979779806806
endloop
endfacet
facet normal 1 0 0
outer loop
vertex 17.6 48.6 61.414699841346284
vertex 17.6 31.5370563380051 62.768979779806806
vertex 17.6 30.813178629703213 61.41469984134648
endloop
endfacet
facet normal 1 0 0
outer loop
vertex 17.6 17.06294366199493 62.768979779806784
vertex 17.6 16.61718197017469 64.23845914420698
vertex 17.6 0 64.23845914420691
endloop
endfacet
facet normal 1 0 0
outer loop
vertex 17.6 17.06294366199493 62.768979779806784
vertex 17.6 0 64.23845914420691
vertex 17.6 0 62.768979779807175
endloop
endfacet
facet normal 1 0 0
outer loop
vertex 17.6 48.6 62.768979779807175
vertex 17.6 48.6 64.23845914420691
vertex 17.6 31.982818029825307 64.23845914420698
endloop
endfacet
facet normal 1 0 0
outer loop
vertex 17.6 48.6 62.768979779807175
vertex 17.6 31.982818029825307 64.23845914420698
vertex 17.6 31.5370563380051 62.768979779806806
endloop
endfacet
facet normal 1 0 0
outer loop
vertex 17.6 16.61718197017469 64.23845914420698
vertex 17.6 16.316151363158635 67.29487418912633
vertex 17.6 15.870389671338412 68.76435355352653
endloop
endfacet
facet normal 1 0 0
outer loop
vertex 17.6 16.61718197017469 64.23845914420698
vertex 17.6 15.870389671338412 68.76435355352653
vertex 17.6 15.146511963036598 70.11863349198688
endloop
endfacet
facet normal 1 0 0
outer loop
vertex 17.6 16.61718197017469 64.23845914420698
vertex 17.6 15.146511963036598 70.11863349198688
vertex 17.60000000000001 14.172336452627931 71.30566978596127
endloop
endfacet
facet normal 1 0 0
outer loop
vertex 17.6 16.61718197017469 64.23845914420698
vertex 17.60000000000001 14.172336452627931 71.30566978596127
vertex 17.60000000000001 12.985300158653526 72.27984529636993
endloop
endfacet
facet normal 1 0 0
outer loop
vertex 17.6 16.61718197017469 64.23845914420698
vertex 17.60000000000001 12.985300158653526 72.27984529636993
vertex 17.6 11.637985472030405 73
endloop
endfacet
facet normal 1 0 0
outer loop
vertex 17.6 16.61718197017469 64.23845914420698
vertex 17.6 11.637985472030405 73
vertex 17.6 0.8 73
endloop
endfacet
facet normal 1 0 0
outer loop
vertex 17.6 16.61718197017469 64.23845914420698
vertex 17.6 0.8 73
vertex 17.6 0 73
endloop
endfacet
facet normal 1 0 0
outer loop
vertex 17.6 16.61718197017469 64.23845914420698
vertex 17.6 0 73
vertex 17.6 0 64.23845914420691
endloop
endfacet
facet normal 1 0 0
outer loop
vertex 17.6 48.6 64.23845914420691
vertex 17.6 48.6 73
vertex 17.6 47.8 73
endloop
endfacet
facet normal 1 0 0
outer loop
vertex 17.6 48.6 64.23845914420691
vertex 17.6 47.8 73
vertex 17.6 36.96201452796941 73
endloop
endfacet
facet normal 1 0 0
outer loop
vertex 17.6 48.6 64.23845914420691
vertex 17.6 36.96201452796941 73
vertex 17.60000000000001 35.61469984134646 72.27984529636993
endloop
endfacet
facet normal 1 0 0
outer loop
vertex 17.6 48.6 64.23845914420691
vertex 17.60000000000001 35.61469984134646 72.27984529636993
vertex 17.60000000000001 34.42766354737205 71.30566978596129
endloop
endfacet
facet normal 1 0 0
outer loop
vertex 17.6 48.6 64.23845914420691
vertex 17.60000000000001 34.42766354737205 71.30566978596129
vertex 17.6 33.45348803696339 70.11863349198688
endloop
endfacet
facet normal 1 0 0
outer loop
vertex 17.6 48.6 64.23845914420691
vertex 17.6 33.45348803696339 70.11863349198688
vertex 17.6 32.72961032866158 68.76435355352655
endloop
endfacet
facet normal 1 0 0
outer loop
vertex 17.6 48.6 64.23845914420691
vertex 17.6 32.72961032866158 68.76435355352655
vertex 17.6 32.28384863684136 67.29487418912633
endloop
endfacet
facet normal 1 0 0
outer loop
vertex 17.6 48.6 64.23845914420691
vertex 17.6 32.28384863684136 67.29487418912633
vertex 17.6 31.982818029825307 64.23845914420698
endloop
endfacet
facet normal 1 2.8346119777663575e-17 0
outer loop
vertex 0.8 47.8 1
vertex 0.8 47.8 57.93333333333333
vertex 0.8000000000000007 24.300000000000004 57.933333333333344
endloop
endfacet
facet normal 1 2.8346119777663575e-17 0
outer loop
vertex 0.8 47.8 1
vertex 0.8000000000000007 24.300000000000004 57.933333333333344
vertex 0.8 0.8 57.93333333333333
endloop
endfacet
facet normal 1 2.8346119777663575e-17 0
outer loop
vertex 0.8 47.8 1
vertex 0.8 0.8 57.93333333333333
vertex 0.8 0.8 1
endloop
endfacet
facet normal 1 0 0
outer loop
vertex 0.8000000000000007 24.300000000000004 57.933333333333344
vertex 0.8000000000000007 22.771792477540323 58.08384863684135
vertex 0.8 0.8 58.08384863684136
endloop
endfacet
facet normal 1 0 0
outer loop
vertex 0.8000000000000007 24.300000000000004 57.933333333333344
vertex 0.8 0.8 58.08384863684136
vertex 0.8 0.8 57.93333333333333
endloop
endfacet
facet normal 1 0 0
outer loop
vertex 0.8 47.8 57.93333333333333
vertex 0.8 47.8 58.08384863684136
vertex 0.8000000000000007 25.828207522459667 58.08384863684138
endloop
endfacet
facet normal 1 0 0
outer loop
vertex 0.8 47.8 57.93333333333333
vertex 0.8000000000000007 25.828207522459667 58.08384863684138
vertex 0.8000000000000007 24.300000000000004 57.933333333333344
endloop
endfacet
facet normal 1 0 0
outer loop
vertex 0.8000000000000007 22.771792477540323 58.08384863684135
vertex 0.8000000000000007 21.30231311314013 58.529610328661576
vertex 0.8 0.8 58.529610328661576
endloop
endfacet
facet normal 1 0 0
outer loop
vertex 0.8000000000000007 22.771792477540323 58.08384863684135
vertex 0.8 0.8 58.529610328661576
vertex 0.8 0.8 58.08384863684136
endloop
endfacet
facet normal 1 0 0
outer loop
vertex 0.8 47.8 58.08384863684136
vertex 0.8 47.8 58.529610328661576
vertex 0.8000000000000012 27.297686886859854 58.52961032866163
endloop
endfacet
facet normal 1 0 0
outer loop
vertex 0.8 47.8 58.08384863684136
vertex 0.8000000000000012 27.297686886859854 58.52961032866163
vertex 0.8000000000000007 25.828207522459667 58.08384863684138
endloop
endfacet
facet normal 1 0 0
outer loop
vertex 0.8000000000000007 21.30231311314013 58.529610328661576
vertex 0.8000000000000012 19.94803317467978 59.25348803696338
vertex 0.8 0.8 59.25348803696325
endloop
endfacet
facet normal 1 0 0
outer loop
vertex 0.8000000000000007 21.30231311314013 58.529610328661576
vertex 0.8 0.8 59.25348803696325
vertex 0.8 0.8 58.529610328661576
endloop
endfacet
facet normal 1 0 0
outer loop
vertex 0.8 47.8 58.529610328661576
vertex 0.8 47.8 59.25348803696325
vertex 0.8000000000000012 28.65196682532015 59.25348803696349
endloop
endfacet
facet normal 1 0 0
outer loop
vertex 0.8 47.8 58.529610328661576
vertex 0.8000000000000012 28.65196682532015 59.25348803696349
vertex 0.8000000000000012 27.297686886859854 58.52961032866163
endloop
endfacet
facet normal 1 0 0
outer loop
vertex 0.8000000000000012 19.94803317467978 59.25348803696338
vertex 0.8000000000000012 18.76099688070537 60.227663547372046
vertex 0.8 0.8 60.22766354737231
endloop
endfacet
facet normal 1 0 0
outer loop
vertex 0.8000000000000012 19.94803317467978 59.25348803696338
vertex 0.8 0.8 60.22766354737231
vertex 0.8 0.8 59.25348803696325
endloop
endfacet
facet normal 1 0 0
outer loop
vertex 0.8 47.8 59.25348803696325
vertex 0.8 47.8 60.22766354737231
vertex 0.8000000000000007 29.839003119294603 60.22766354737206
endloop
endfacet
facet normal 1 0 0
outer loop
vertex 0.8 47.8 59.25348803696325
vertex 0.8000000000000007 29.839003119294603 60.22766354737206
vertex 0.8000000000000012 28.65196682532015 59.25348803696349
endloop
endfacet
facet normal 1 0 0
outer loop
vertex 0.8000000000000012 18.76099688070537 60.227663547372046
vertex 0.8000000000000007 17.78682137029673 61.41469984134646
vertex 0.8 0.8 61.4146998413463
endloop
endfacet
facet normal 1 0 0
outer loop
vertex 0.8000000000000012 18.76099688070537 60.227663547372046
vertex 0.8 0.8 61.4146998413463
vertex 0.8 0.8 60.22766354737231
endloop
endfacet
facet normal 1 0 0
outer loop
vertex 0.8 47.8 60.22766354737231
vertex 0.8 47.8 61.4146998413463
vertex 0.8000000000000007 30.813178629703213 61.41469984134648
endloop
endfacet
facet normal 1 0 0
outer loop
vertex 0.8 47.8 60.22766354737231
vertex 0.8000000000000007 30.813178629703213 61.41469984134648
vertex 0.8000000000000007 29.839003119294603 60.22766354737206
endloop
endfacet
facet normal 1 0 0
outer loop
vertex 0.8000000000000007 17.78682137029673 61.41469984134646
vertex 0.8000000000000007 17.06294366199493 62.768979779806784
vertex 0.8 0.8 62.76897977980717
endloop
endfacet
facet normal 1 0 0
outer loop
vertex 0.8000000000000007 17.78682137029673 61.41469984134646
vertex 0.8 0.8 62.76897977980717
vertex 0.8 0.8 61.4146998413463
endloop
endfacet
facet normal 1 0 0
outer loop
vertex 0.8 47.8 61.4146998413463
vertex 0.8 47.8 62.76897977980717
vertex 0.8000000000000007 31.5370563380051 62.768979779806806
endloop
endfacet
facet normal 1 0 0
outer loop
vertex 0.8 47.8 61.4146998413463
vertex 0.8000000000000007 31.5370563380051 62.768979779806806
vertex 0.8000000000000007 30.813178629703213 61.41469984134648
endloop
endfacet
facet normal 1 0 0
outer loop
vertex 0.8000000000000007 17.06294366199493 62.768979779806784
vertex 0.8000000000000007 16.61718197017469 64.23845914420698
vertex 0.8 0.8 64.23845914420689
endloop
endfacet
facet normal 1 0 0
outer loop
vertex 0.8000000000000007 17.06294366199493 62.768979779806784
vertex 0.8 0.8 64.23845914420689
vertex 0.8 0.8 62.76897977980717
endloop
endfacet
facet normal 1 0 0
outer loop
vertex 0.8 47.8 62.76897977980717
vertex 0.8 47.8 64.23845914420689
vertex 0.8000000000000007 31.982818029825307 64.23845914420698
endloop
endfacet
facet normal 1 0 0
outer loop
vertex 0.8 47.8 62.76897977980717
vertex 0.8000000000000007 31.982818029825307 64.23845914420698
vertex 0.8000000000000007 31.5370563380051 62.768979779806806
endloop
endfacet
facet normal 1 0 0
outer loop
vertex 0.8000000000000007 16.61718197017469 64.23845914420698
vertex 0.8000000000000007 16.316151363158635 67.29487418912633
vertex 0.8 15.870389671338412 68.76435355352653
endloop
endfacet
facet normal 1 0 0
outer loop
vertex 0.8000000000000007 16.61718197017469 64.23845914420698
vertex 0.8 15.870389671338412 68.76435355352653
vertex 0.8000000000000007 15.146511963036598 70.11863349198688
endloop
endfacet
facet normal 1 0 0
outer loop
vertex 0.8000000000000007 16.61718197017469 64.23845914420698
vertex 0.8000000000000007 15.146511963036598 70.11863349198688
vertex 0.8000000000000005 14.172336452627931 71.30566978596127
endloop
endfacet
facet normal 1 0 0
outer loop
vertex 0.8000000000000007 16.61718197017469 64.23845914420698
vertex 0.8000000000000005 14.172336452627931 71.30566978596127
vertex 0.8000000000000012 12.985300158653526 72.27984529636993
endloop
endfacet
facet normal 1 0 0
outer loop
vertex 0.8000000000000007 16.61718197017469 64.23845914420698
vertex 0.8000000000000012 12.985300158653526 72.27984529636993
vertex 0.8 11.637985472030405 73
endloop
endfacet
facet normal 1 0 0
outer loop
vertex 0.8000000000000007 16.61718197017469 64.23845914420698
vertex 0.8 11.637985472030405 73
vertex 0.8 0.8 73
endloop
endfacet
facet normal 1 0 0
outer loop
vertex 0.8000000000000007 16.61718197017469 64.23845914420698
vertex 0.8 0.8 73
vertex 0.8 0.8 64.23845914420689
endloop
endfacet
facet normal 1 0 0
outer loop
vertex 0.8 47.8 64.23845914420689
vertex 0.8 47.8 73
vertex 0.8 36.96201452796941 73
endloop
endfacet
facet normal 1 0 0
outer loop
vertex 0.8 47.8 64.23845914420689
vertex 0.8 36.96201452796941 73
vertex 0.8000000000000005 35.61469984134646 72.27984529636993
endloop
endfacet
facet normal 1 0 0
outer loop
vertex 0.8 47.8 64.23845914420689
vertex 0.8000000000000005 35.61469984134646 72.27984529636993
vertex 0.8000000000000005 34.42766354737205 71.30566978596129
endloop
endfacet
facet normal 1 0 0
outer loop
vertex 0.8 47.8 64.23845914420689
vertex 0.8000000000000005 34.42766354737205 71.30566978596129
vertex 0.8 33.45348803696339 70.11863349198688
endloop
endfacet
facet normal 1 0 0
outer loop
vertex 0.8 47.8 64.23845914420689
vertex 0.8 33.45348803696339 70.11863349198688
vertex 0.8 32.72961032866158 68.76435355352655
endloop
endfacet
facet normal 1 0 0
outer loop
vertex 0.8 47.8 64.23845914420689
vertex 0.8 32.72961032866158 68.76435355352655
vertex 0.8 32.28384863684136 67.29487418912633
endloop
endfacet
facet normal 1 0 0
outer loop
vertex 0.8 47.8 64.23845914420689
vertex 0.8 32.28384863684136 67.29487418912633
vertex 0.8000000000000007 31.982818029825307 64.23845914420698
endloop
endfacet
facet normal -1 0 0
outer loop
vertex 16.8 11.637985472030405 73
vertex 16.800000000000008 12.985300158653526 72.27984529636993
vertex 16.800000000000008 14.172336452627931 71.30566978596127
endloop
endfacet
facet normal -1 0 0
outer loop
vertex 16.8 11.637985472030405 73
vertex 16.800000000000008 14.172336452627931 71.30566978596127
vertex 16.8 15.146511963036598 70.11863349198688
endloop
endfacet
facet normal -1 0 0
outer loop
vertex 16.8 11.637985472030405 73
vertex 16.8 15.146511963036598 70.11863349198688
vertex 16.8 15.870389671338412 68.76435355352653
endloop
endfacet
facet normal -1 0 0
outer loop
vertex 16.8 11.637985472030405 73
vertex 16.8 15.870389671338412 68.76435355352653
vertex 16.8 16.316151363158635 67.29487418912633
endloop
endfacet
facet normal -1 0 0
outer loop
vertex 16.8 11.637985472030405 73
vertex 16.8 16.316151363158635 67.29487418912633
vertex 16.8 16.61718197017469 64.23845914420698
endloop
endfacet
facet normal -1 0 0
outer loop
vertex 16.8 11.637985472030405 73
vertex 16.8 16.61718197017469 64.23845914420698
vertex 16.8 0.8 64.2384591442069
endloop
endfacet
facet normal -1 0 0
outer loop
vertex 16.8 11.637985472030405 73
vertex 16.8 0.8 64.2384591442069
vertex 16.8 0.8 73
endloop
endfacet
facet normal -1 0 0
outer loop
vertex 16.8 47.8 73
vertex 16.8 47.8 64.2384591442069
vertex 16.8 31.982818029825307 64.23845914420698
endloop
endfacet
facet normal -1 0 0
outer loop
vertex 16.8 47.8 73
vertex 16.8 31.982818029825307 64.23845914420698
vertex 16.8 32.28384863684136 67.29487418912633
endloop
endfacet
facet normal -1 0 0
outer loop
vertex 16.8 47.8 73
vertex 16.8 32.28384863684136 67.29487418912633
vertex 16.8 32.72961032866158 68.76435355352655
endloop
endfacet
facet normal -1 0 0
outer loop
vertex 16.8 47.8 73
vertex 16.8 32.72961032866158 68.76435355352655
vertex 16.8 33.45348803696339 70.11863349198688
endloop
endfacet
facet normal -1 0 0
outer loop
vertex 16.8 47.8 73
vertex 16.8 33.45348803696339 70.11863349198688
vertex 16.800000000000008 34.42766354737205 71.30566978596129
endloop
endfacet
facet normal -1 0 0
outer loop
vertex 16.8 47.8 73
vertex 16.800000000000008 34.42766354737205 71.30566978596129
vertex 16.800000000000008 35.61469984134646 72.27984529636993
endloop
endfacet
facet normal -1 0 0
outer loop
vertex 16.8 47.8 73
vertex 16.800000000000008 35.61469984134646 72.27984529636993
vertex 16.8 36.96201452796941 73
endloop
endfacet
facet normal -1 0 0
outer loop
vertex 16.8 16.61718197017469 64.23845914420698
vertex 16.8 17.06294366199493 62.768979779806784
vertex 16.8 0.8 62.76897977980716
endloop
endfacet
facet normal -1 0 0
outer loop
vertex 16.8 16.61718197017469 64.23845914420698
vertex 16.8 0.8 62.76897977980716
vertex 16.8 0.8 64.2384591442069
endloop
endfacet
facet normal -1 0 0
outer loop
vertex 16.8 47.8 64.2384591442069
vertex 16.8 47.8 62.76897977980716
vertex 16.8 31.5370563380051 62.768979779806806
endloop
endfacet
facet normal -1 0 0
outer loop
vertex 16.8 47.8 64.2384591442069
vertex 16.8 31.5370563380051 62.768979779806806
vertex 16.8 31.982818029825307 64.23845914420698
endloop
endfacet
facet normal -1 0 0
outer loop
vertex 16.8 17.06294366199493 62.768979779806784
vertex 16.8 17.78682137029673 61.41469984134646
vertex 16.8 0.8 61.4146998413463
endloop
endfacet
facet normal -1 0 0
outer loop
vertex 16.8 17.06294366199493 62.768979779806784
vertex 16.8 0.8 61.4146998413463
vertex 16.8 0.8 62.76897977980716
endloop
endfacet
facet normal -1 0 0
outer loop
vertex 16.8 47.8 62.76897977980716
vertex 16.8 47.8 61.4146998413463
vertex 16.8 30.813178629703213 61.41469984134648
endloop
endfacet
facet normal -1 0 0
outer loop
vertex 16.8 47.8 62.76897977980716
vertex 16.8 30.813178629703213 61.41469984134648
vertex 16.8 31.5370563380051 62.768979779806806
endloop
endfacet
facet normal -1 0 0
outer loop
vertex 16.8 17.78682137029673 61.41469984134646
vertex 16.800000000000008 18.76099688070537 60.227663547372046
vertex 16.8 0.8 60.22766354737231
endloop
endfacet
facet normal -1 0 0
outer loop
vertex 16.8 17.78682137029673 61.41469984134646
vertex 16.8 0.8 60.22766354737231
vertex 16.8 0.8 61.4146998413463
endloop
endfacet
facet normal -1 0 0
outer loop
vertex 16.8 47.8 61.4146998413463
vertex 16.8 47.8 60.22766354737231
vertex 16.8 29.839003119294603 60.22766354737206
endloop
endfacet
facet normal -1 0 0
outer loop
vertex 16.8 47.8 61.4146998413463
vertex 16.8 29.839003119294603 60.22766354737206
vertex 16.8 30.813178629703213 61.41469984134648
endloop
endfacet
facet normal -1 0 0
outer loop
vertex 16.800000000000008 18.76099688070537 60.227663547372046
vertex 16.800000000000008 19.94803317467978 59.25348803696338
vertex 16.8 0.8 59.25348803696323
endloop
endfacet
facet normal -1 0 0
outer loop
vertex 16.800000000000008 18.76099688070537 60.227663547372046
vertex 16.8 0.8 59.25348803696323
vertex 16.8 0.8 60.22766354737231
endloop
endfacet
facet normal -1 0 0
outer loop
vertex 16.8 47.8 60.22766354737231
vertex 16.8 47.8 59.25348803696323
vertex 16.800000000000008 28.65196682532015 59.25348803696349
endloop
endfacet
facet normal -1 0 0
outer loop
vertex 16.8 47.8 60.22766354737231
vertex 16.800000000000008 28.65196682532015 59.25348803696349
vertex 16.8 29.839003119294603 60.22766354737206
endloop
endfacet
facet normal -1 0 0
outer loop
vertex 16.800000000000008 19.94803317467978 59.25348803696338
vertex 16.8 21.30231311314013 58.529610328661576
vertex 16.8 0.8 58.52961032866159
endloop
endfacet
facet normal -1 0 0
outer loop
vertex 16.800000000000008 19.94803317467978 59.25348803696338
vertex 16.8 0.8 58.52961032866159
vertex 16.8 0.8 59.25348803696323
endloop
endfacet
facet normal -1 0 0
outer loop
vertex 16.8 47.8 59.25348803696323
vertex 16.8 47.8 58.52961032866159
vertex 16.800000000000008 27.297686886859854 58.52961032866163
endloop
endfacet
facet normal -1 0 0
outer loop
vertex 16.8 47.8 59.25348803696323
vertex 16.800000000000008 27.297686886859854 58.52961032866163
vertex 16.800000000000008 28.65196682532015 59.25348803696349
endloop
endfacet
facet normal -1 0 0
outer loop
vertex 16.8 21.30231311314013 58.529610328661576
vertex 16.8 22.771792477540323 58.08384863684135
vertex 16.8 0.8 58.08384863684135
endloop
endfacet
facet normal -1 0 0
outer loop
vertex 16.8 21.30231311314013 58.529610328661576
vertex 16.8 0.8 58.08384863684135
vertex 16.8 0.8 58.52961032866159
endloop
endfacet
facet normal -1 0 0
outer loop
vertex 16.8 47.8 58.52961032866159
vertex 16.8 47.8 58.08384863684135
vertex 16.8 25.828207522459667 58.08384863684138
endloop
endfacet
facet normal -1 0 0
outer loop
vertex 16.8 47.8 58.52961032866159
vertex 16.8 25.828207522459667 58.08384863684138
vertex 16.800000000000008 27.297686886859854 58.52961032866163
endloop
endfacet
facet normal -1 0 0
outer loop
vertex 16.8 22.771792477540323 58.08384863684135
vertex 16.8 24.300000000000004 57.933333333333344
vertex 16.8 0.8 57.93333333333333
endloop
endfacet
facet normal -1 0 0
outer loop
vertex 16.8 22.771792477540323 58.08384863684135
vertex 16.8 0.8 57.93333333333333
vertex 16.8 0.8 58.08384863684135
endloop
endfacet
facet normal -1 0 0
outer loop
vertex 16.8 47.8 58.08384863684135
vertex 16.8 47.8 57.93333333333333
vertex 16.8 24.300000000000004 57.933333333333344
endloop
endfacet
facet normal -1 0 0
outer loop
vertex 16.8 47.8 58.08384863684135
vertex 16.8 24.300000000000004 57.933333333333344
vertex 16.8 25.828207522459667 58.08384863684138
endloop
endfacet
facet normal -1 0 0
outer loop
vertex 16.8 24.300000000000004 57.933333333333344
vertex 16.8 47.8 57.93333333333333
vertex 16.8 47.8 1
endloop
endfacet
facet normal -1 0 0
outer loop
vertex 16.8 24.300000000000004 57.933333333333344
vertex 16.8 47.8 1
vertex 16.8 0.8 1
endloop
endfacet
facet normal -1 0 0
outer loop
vertex 16.8 24.300000000000004 57.933333333333344
vertex 16.8 0.8 1
vertex 16.8 0.8 57.93333333333333
endloop
endfacet
endsolid csg.js
